<svg width="113" height="112" viewBox="0 0 113 112" fill="none" xmlns="http://www.w3.org/2000/svg">
<path d="M83.7001 8H29.3C27.1791 8.00243 25.1456 8.84606 23.6459 10.3458C22.1461 11.8456 21.3025 13.879 21.3 16V51.2H24.5V16C24.5015 14.7274 25.0077 13.5074 25.9075 12.6075C26.8074 11.7076 28.0275 11.2015 29.3 11.2H83.7001C84.9726 11.2015 86.1927 11.7076 87.0926 12.6075C87.9924 13.5074 88.4986 14.7274 88.5001 16V96C88.4986 97.2726 87.9924 98.4926 87.0926 99.3925C86.1927 100.292 84.9726 100.799 83.7001 100.8H34.1V104H83.7001C85.821 103.998 87.8545 103.154 89.3542 101.654C90.854 100.154 91.6976 98.121 91.7001 96V16C91.6976 13.879 90.854 11.8456 89.3542 10.3458C87.8545 8.84606 85.821 8.00243 83.7001 8Z" fill="url(#paint0_linear_138_3161)"/>
<path d="M85.3 86.4V16C85.2999 15.5757 85.1314 15.1687 84.8313 14.8687C84.5312 14.5686 84.1243 14.4 83.7 14.4H29.3C28.8756 14.4 28.4687 14.5686 28.1686 14.8687C27.8685 15.1687 27.7 15.5757 27.7 16V51.2H30.9V17.6H82.1V84.8H38.9V88H83.7C84.1243 88 84.5312 87.8314 84.8313 87.5314C85.1314 87.2313 85.2999 86.8244 85.3 86.4Z" fill="url(#paint1_linear_138_3161)"/>
<path d="M52.2333 94.9333C52.2333 95.8827 52.5148 96.8107 53.0422 97.6C53.5697 98.3894 54.3193 99.0046 55.1964 99.3679C56.0735 99.7312 57.0386 99.8263 57.9697 99.6411C58.9008 99.4559 59.7561 98.9987 60.4274 98.3274C61.0987 97.6561 61.5558 96.8008 61.7411 95.8697C61.9263 94.9386 61.8312 93.9735 61.4679 93.0964C61.1046 92.2193 60.4894 91.4697 59.7 90.9422C58.9107 90.4148 57.9826 90.1333 57.0333 90.1333C55.7607 90.1348 54.5406 90.6409 53.6408 91.5408C52.7409 92.4407 52.2347 93.6607 52.2333 94.9333ZM58.6333 94.9333C58.6333 95.2498 58.5394 95.5591 58.3636 95.8222C58.1878 96.0853 57.9379 96.2904 57.6456 96.4115C57.3532 96.5326 57.0315 96.5643 56.7211 96.5026C56.4108 96.4408 56.1257 96.2884 55.9019 96.0647C55.6781 95.8409 55.5258 95.5558 55.464 95.2455C55.4023 94.9351 55.434 94.6134 55.5551 94.321C55.6762 94.0286 55.8812 93.7788 56.1444 93.603C56.4075 93.4271 56.7168 93.3333 57.0333 93.3333C57.4575 93.3338 57.8642 93.5025 58.1641 93.8025C58.4641 94.1024 58.6328 94.5091 58.6333 94.9333Z" fill="url(#paint2_linear_138_3161)"/>
<path d="M99.7 20.8C98.4274 20.8015 97.2074 21.3077 96.3075 22.2075C95.4077 23.1074 94.9015 24.3275 94.9 25.6V83.2001C94.9 83.4485 94.9579 83.6935 95.069 83.9157L98.269 90.3157C98.4019 90.5814 98.6061 90.8049 98.8589 90.9611C99.1116 91.1173 99.4029 91.2001 99.7 91.2001C99.9971 91.2001 100.288 91.1173 100.541 90.9611C100.794 90.8049 100.998 90.5814 101.131 90.3157L104.331 83.9157C104.442 83.6935 104.5 83.4485 104.5 83.2001V25.6C104.499 24.3275 103.992 23.1074 103.093 22.2075C102.193 21.3077 100.973 20.8015 99.7 20.8ZM99.7 24C100.124 24.0005 100.531 24.1693 100.831 24.4692C101.131 24.7692 101.3 25.1759 101.3 25.6V30.4H98.1V25.6C98.1005 25.1759 98.2692 24.7692 98.5692 24.4692C98.8691 24.1693 99.2758 24.0005 99.7 24ZM99.7 86.0223L98.1 82.8223V33.6H101.3V82.8223L99.7 86.0223Z" fill="url(#paint3_linear_138_3161)"/>
<path d="M40.1922 58.9612C40.4242 59.1045 40.689 59.1862 40.9615 59.1985C41.234 59.2107 41.505 59.1531 41.749 59.0311L42.2016 58.8047C43.3442 61.6257 45.2675 64.0624 47.746 65.8289C50.2244 67.5954 53.1553 68.6184 56.1946 68.778C59.234 68.9377 62.2559 68.2272 64.9058 66.73C67.5556 65.2329 69.7236 63.0111 71.1553 60.3253C71.205 60.3011 71.255 60.2781 71.3044 60.2534L73.749 59.0311C74.0147 58.8982 74.2382 58.694 74.3944 58.4412C74.5506 58.1884 74.6333 57.8972 74.6334 57.6001V48.0001C74.6334 47.7273 74.5637 47.4591 74.4309 47.2208C74.2981 46.9826 74.1065 46.7823 73.8745 46.6389C73.6425 46.4955 73.3777 46.4138 73.1052 46.4016C72.8327 46.3894 72.5617 46.447 72.3177 46.569L71.8651 46.7953C70.7225 43.9743 68.7991 41.5376 66.3206 39.7711C63.842 38.0046 60.9111 36.9816 57.8716 36.8221C54.8322 36.6625 51.8103 37.3731 49.1604 38.8704C46.5105 40.3677 44.3426 42.5896 42.911 45.2755C42.8615 45.2996 42.8116 45.3221 42.7623 45.3467L40.3177 46.569C40.052 46.7019 39.8285 46.9062 39.6723 47.1589C39.5161 47.4117 39.4334 47.7029 39.4333 48.0001V57.6001C39.4334 57.8728 39.5031 58.141 39.6359 58.3792C39.7687 58.6175 39.9602 58.8178 40.1922 58.9612ZM57.0333 65.6001C54.4491 65.5975 51.926 64.8138 49.795 63.3519C47.6641 61.89 46.0247 59.8181 45.0921 57.4081C46.8943 56.6872 48.8522 56.4439 50.7761 56.7018C52.6999 56.9597 54.5246 57.7101 56.0734 58.8801C58.5834 60.7734 61.6411 61.7991 64.7851 61.8024C65.263 61.8024 65.7415 61.7771 66.219 61.7294C65.0276 62.96 63.5998 63.9372 62.0213 64.6024C60.4428 65.2675 58.7462 65.6069 57.0333 65.6001ZM57.0333 40.0001C59.6176 40.0026 62.1407 40.7863 64.2717 42.2482C66.4027 43.7101 68.042 45.7821 68.9746 48.1921C67.1723 48.913 65.2145 49.1563 63.2906 48.8983C61.3667 48.6404 59.5421 47.8901 57.9933 46.72C55.0895 44.5287 51.4669 43.5117 47.8469 43.8715C49.0384 42.6406 50.4663 41.6632 52.0449 40.9979C53.6235 40.3326 55.3203 39.9932 57.0333 40.0001ZM42.6333 48.9889L44.1935 48.2088C46.076 47.2595 48.1868 46.8566 50.2866 47.046C52.3864 47.2353 54.3911 48.0093 56.0734 49.2801C58.2303 50.9092 60.8005 51.9014 63.4926 52.1441C66.1847 52.3869 68.8909 51.8704 71.3044 50.6534L71.4333 50.5889V56.6112L69.8732 57.3913C67.9907 58.3406 65.8799 58.7434 63.7801 58.554C61.6803 58.3647 59.6756 57.5907 57.9933 56.32C55.8364 54.691 53.2661 53.6989 50.5741 53.4562C47.882 53.2134 45.1758 53.7298 42.7623 54.9467L42.6333 55.0112V48.9889Z" fill="url(#paint4_linear_138_3161)"/>
<path d="M37.4524 33.7524H45.8333V30.4H35.7762C35.3316 30.4 34.9053 30.5767 34.5909 30.891C34.2766 31.2053 34.1 31.6317 34.1 32.0762V42.1334H37.4524V33.7524Z" fill="url(#paint5_linear_138_3161)"/>
<path d="M79.9666 32.0762C79.9666 31.6317 79.79 31.2053 79.4756 30.891C79.1613 30.5767 78.735 30.4 78.2904 30.4H68.2333V33.7524H76.6142V42.1334H79.9666V32.0762Z" fill="url(#paint6_linear_138_3161)"/>
<path d="M76.6142 72.9143H68.2333V76.2667H78.2904C78.735 76.2666 79.1613 76.09 79.4756 75.7757C79.79 75.4613 79.9666 75.035 79.9666 74.5905V64.5333H76.6142V72.9143Z" fill="url(#paint7_linear_138_3161)"/>
<path d="M37.3 45.3334H34.1V51.7334H37.3V45.3334Z" fill="url(#paint8_linear_138_3161)"/>
<path d="M55.4333 30.4H49.0333V33.6H55.4333V30.4Z" fill="url(#paint9_linear_138_3161)"/>
<path d="M65.0333 30.4H58.6333V33.6H65.0333V30.4Z" fill="url(#paint10_linear_138_3161)"/>
<path d="M78.9 45.3334H75.7V51.7334H78.9V45.3334Z" fill="url(#paint11_linear_138_3161)"/>
<path d="M78.9 54.9333H75.7V61.3333H78.9V54.9333Z" fill="url(#paint12_linear_138_3161)"/>
<path d="M65.0333 72H58.6333V75.2H65.0333V72Z" fill="url(#paint13_linear_138_3161)"/>
<path d="M55.4333 72H49.0333V75.2H55.4333V72Z" fill="url(#paint14_linear_138_3161)"/>
<path d="M35.6963 92.6796C35.6971 91.4854 35.2603 90.3331 34.4703 89.4452C35.2853 88.5279 35.7233 87.3308 35.695 86.0982C35.6666 84.8656 35.174 83.6903 34.3178 82.8123C36.462 81.1279 38.1469 78.9194 39.2137 76.3949C40.2805 73.8704 40.6941 71.113 40.4156 68.3822C40.1371 65.6515 39.1757 63.0374 37.6218 60.786C36.0679 58.5347 33.9728 56.7202 31.5337 55.5134C29.0945 54.3066 26.3917 53.7472 23.6796 53.888C20.9676 54.0287 18.3356 54.865 16.0316 56.318C13.7275 57.7709 11.8272 59.7928 10.5096 62.1932C9.19202 64.5936 8.50047 67.2936 8.5001 70.0387C8.4915 72.5043 9.04422 74.9388 10.1155 77.1538C11.1868 79.3688 12.7479 81.3049 14.6779 82.8123C13.8216 83.6903 13.3291 84.8656 13.3007 86.0982C13.2724 87.3308 13.7104 88.5279 14.5254 89.4452C13.9664 90.075 13.5803 90.8417 13.4053 91.6692C13.2304 92.4967 13.2727 93.356 13.5282 94.1618C13.7837 94.9675 14.2434 95.6917 14.8615 96.2621C15.4797 96.8326 16.2348 97.2296 17.0518 97.4136L19.8674 103.106C20.0003 103.375 20.2046 103.601 20.4573 103.759C20.71 103.916 21.0012 104 21.2983 104H27.6974C27.9945 104 28.2857 103.916 28.5384 103.759C28.7911 103.601 28.9954 103.375 29.1283 103.106L31.9439 97.4136C33.0078 97.1718 33.9587 96.5715 34.6406 95.7112C35.3224 94.851 35.6947 93.7819 35.6963 92.6796ZM16.499 86.2108C16.4995 85.782 16.6682 85.371 16.9681 85.0678C17.268 84.7646 17.6746 84.5941 18.0987 84.5936H30.8969C31.3212 84.5936 31.7281 84.764 32.0282 85.0673C32.3282 85.3705 32.4967 85.7819 32.4967 86.2108C32.4967 86.6397 32.3282 87.051 32.0282 87.3543C31.7281 87.6576 31.3212 87.828 30.8969 87.828H18.0987C17.6746 87.8275 17.268 87.657 16.9681 87.3538C16.6682 87.0506 16.4995 86.6395 16.499 86.2108ZM21.5869 74.8904H27.4088L26.3421 81.3592H22.6536L21.5869 74.8904ZM11.6996 70.0387C11.6999 67.7579 12.2967 65.5177 13.4294 63.5452C14.5621 61.5727 16.1906 59.9379 18.1497 58.8066C20.1088 57.6752 22.3289 57.0876 24.5851 57.1031C26.8413 57.1187 29.0533 57.7369 30.997 58.8951C32.9406 60.0534 34.5469 61.7104 35.6529 63.6984C36.7589 65.6864 37.3254 67.9346 37.2949 70.2152C37.2644 72.4958 36.6381 74.7277 35.4793 76.6848C34.3206 78.6418 32.6707 80.2544 30.6968 81.3592H29.5859L30.8753 73.5391C30.9135 73.3074 30.9013 73.0701 30.8396 72.8436C30.7778 72.6172 30.6681 72.4071 30.5179 72.2278C30.3677 72.0486 30.1807 71.9046 29.9699 71.8059C29.7591 71.7071 29.5295 71.656 29.2972 71.656H19.6985C19.4662 71.6559 19.2366 71.7071 19.0258 71.8059C18.815 71.9046 18.628 72.0486 18.4778 72.2278C18.3276 72.4071 18.2179 72.6172 18.1561 72.8436C18.0944 73.0701 18.0822 73.3074 18.1204 73.5391L19.4097 81.3592H18.2989C16.2941 80.2459 14.6232 78.607 13.4618 76.6149C12.3005 74.6227 11.6918 72.351 11.6996 70.0387ZM18.0987 91.0624H30.8969C31.3212 91.0624 31.7281 91.2328 32.0282 91.5361C32.3282 91.8394 32.4967 92.2507 32.4967 92.6796C32.4967 93.1085 32.3282 93.5199 32.0282 93.8231C31.7281 94.1264 31.3212 94.2968 30.8969 94.2968H18.0987C17.6745 94.2968 17.2676 94.1264 16.9675 93.8231C16.6675 93.5199 16.499 93.1085 16.499 92.6796C16.499 92.2507 16.6675 91.8394 16.9675 91.5361C17.2676 91.2328 17.6745 91.0624 18.0987 91.0624ZM26.7087 100.766H22.287L20.6873 97.5312H28.3084L26.7087 100.766Z" fill="url(#paint15_linear_138_3161)"/>
<defs>
<linearGradient id="paint0_linear_138_3161" x1="21.3" y1="8" x2="113.042" y2="28.3934" gradientUnits="userSpaceOnUse">
<stop stop-color="#0C97FA"/>
<stop offset="1" stop-color="#16E1F5"/>
</linearGradient>
<linearGradient id="paint1_linear_138_3161" x1="27.7" y1="14.4" x2="102.273" y2="32.091" gradientUnits="userSpaceOnUse">
<stop stop-color="#0C97FA"/>
<stop offset="1" stop-color="#16E1F5"/>
</linearGradient>
<linearGradient id="paint2_linear_138_3161" x1="52.2333" y1="90.1333" x2="64.2569" y2="93.778" gradientUnits="userSpaceOnUse">
<stop stop-color="#0C97FA"/>
<stop offset="1" stop-color="#16E1F5"/>
</linearGradient>
<linearGradient id="paint3_linear_138_3161" x1="94.9" y1="20.8" x2="108.006" y2="21.3418" gradientUnits="userSpaceOnUse">
<stop stop-color="#0C97FA"/>
<stop offset="1" stop-color="#16E1F5"/>
</linearGradient>
<linearGradient id="paint4_linear_138_3161" x1="39.4333" y1="36.8" x2="82.7543" y2="51.2449" gradientUnits="userSpaceOnUse">
<stop stop-color="#0C97FA"/>
<stop offset="1" stop-color="#16E1F5"/>
</linearGradient>
<linearGradient id="paint5_linear_138_3161" x1="34.1" y1="30.4" x2="48.7955" y2="34.8546" gradientUnits="userSpaceOnUse">
<stop stop-color="#0C97FA"/>
<stop offset="1" stop-color="#16E1F5"/>
</linearGradient>
<linearGradient id="paint6_linear_138_3161" x1="68.2333" y1="30.4" x2="82.9288" y2="34.8546" gradientUnits="userSpaceOnUse">
<stop stop-color="#0C97FA"/>
<stop offset="1" stop-color="#16E1F5"/>
</linearGradient>
<linearGradient id="paint7_linear_138_3161" x1="68.2333" y1="64.5333" x2="82.9288" y2="68.9879" gradientUnits="userSpaceOnUse">
<stop stop-color="#0C97FA"/>
<stop offset="1" stop-color="#16E1F5"/>
</linearGradient>
<linearGradient id="paint8_linear_138_3161" x1="34.1" y1="45.3334" x2="38.3778" y2="45.9817" gradientUnits="userSpaceOnUse">
<stop stop-color="#0C97FA"/>
<stop offset="1" stop-color="#16E1F5"/>
</linearGradient>
<linearGradient id="paint9_linear_138_3161" x1="49.0333" y1="30.4" x2="55.4333" y2="34.28" gradientUnits="userSpaceOnUse">
<stop stop-color="#0C97FA"/>
<stop offset="1" stop-color="#16E1F5"/>
</linearGradient>
<linearGradient id="paint10_linear_138_3161" x1="58.6333" y1="30.4" x2="65.0333" y2="34.28" gradientUnits="userSpaceOnUse">
<stop stop-color="#0C97FA"/>
<stop offset="1" stop-color="#16E1F5"/>
</linearGradient>
<linearGradient id="paint11_linear_138_3161" x1="75.7" y1="45.3334" x2="79.9778" y2="45.9817" gradientUnits="userSpaceOnUse">
<stop stop-color="#0C97FA"/>
<stop offset="1" stop-color="#16E1F5"/>
</linearGradient>
<linearGradient id="paint12_linear_138_3161" x1="75.7" y1="54.9333" x2="79.9778" y2="55.5817" gradientUnits="userSpaceOnUse">
<stop stop-color="#0C97FA"/>
<stop offset="1" stop-color="#16E1F5"/>
</linearGradient>
<linearGradient id="paint13_linear_138_3161" x1="58.6333" y1="72" x2="65.0333" y2="75.88" gradientUnits="userSpaceOnUse">
<stop stop-color="#0C97FA"/>
<stop offset="1" stop-color="#16E1F5"/>
</linearGradient>
<linearGradient id="paint14_linear_138_3161" x1="49.0333" y1="72" x2="55.4333" y2="75.88" gradientUnits="userSpaceOnUse">
<stop stop-color="#0C97FA"/>
<stop offset="1" stop-color="#16E1F5"/>
</linearGradient>
<linearGradient id="paint15_linear_138_3161" x1="8.5" y1="53.8667" x2="50.6821" y2="62.0283" gradientUnits="userSpaceOnUse">
<stop stop-color="#0C97FA"/>
<stop offset="1" stop-color="#16E1F5"/>
</linearGradient>
</defs>
</svg>
