<svg width="364" height="193" viewBox="0 0 364 193" fill="none" xmlns="http://www.w3.org/2000/svg">
<g filter="url(#filter0_d_298_655)">
<rect x="10" y="7" width="329" height="173" rx="8" fill="white" shape-rendering="crispEdges"/>
<path d="M27.3807 33V25.7273H29.8381C30.4086 25.7273 30.875 25.8303 31.2372 26.0362C31.6018 26.2398 31.8717 26.5156 32.0469 26.8636C32.2221 27.2116 32.3097 27.5999 32.3097 28.0284C32.3097 28.4569 32.2221 28.8464 32.0469 29.1967C31.8741 29.5471 31.6065 29.8265 31.2443 30.0348C30.8821 30.2408 30.4181 30.3438 29.8523 30.3438H28.0909V29.5625H29.8239C30.2145 29.5625 30.5282 29.495 30.7649 29.3601C31.0017 29.2251 31.1733 29.0429 31.2798 28.8132C31.3887 28.5812 31.4432 28.3196 31.4432 28.0284C31.4432 27.7372 31.3887 27.4768 31.2798 27.2472C31.1733 27.0175 31.0005 26.8376 30.7614 26.7074C30.5223 26.5748 30.205 26.5085 29.8097 26.5085H28.2614V33H27.3807ZM35.993 33.1136C35.4675 33.1136 35.0141 32.9976 34.633 32.7656C34.2542 32.5312 33.9618 32.2045 33.7558 31.7855C33.5522 31.3641 33.4504 30.8741 33.4504 30.3153C33.4504 29.7566 33.5522 29.2642 33.7558 28.8381C33.9618 28.4096 34.2482 28.0758 34.6152 27.8366C34.9845 27.5952 35.4154 27.4744 35.9078 27.4744C36.1919 27.4744 36.4724 27.5218 36.7494 27.6165C37.0264 27.7112 37.2786 27.8651 37.5058 28.0781C37.7331 28.2888 37.9142 28.5682 38.0491 28.9162C38.1841 29.2642 38.2516 29.6927 38.2516 30.2017V30.5568H34.047V29.8324H37.3993C37.3993 29.5246 37.3377 29.25 37.2146 29.0085C37.0939 28.767 36.9211 28.5765 36.6962 28.4368C36.4736 28.2971 36.2108 28.2273 35.9078 28.2273C35.574 28.2273 35.2852 28.3101 35.0413 28.4759C34.7999 28.6392 34.614 28.8523 34.4838 29.1151C34.3536 29.3778 34.2885 29.6596 34.2885 29.9602V30.4432C34.2885 30.8551 34.3595 31.2043 34.5016 31.4908C34.646 31.7749 34.846 31.9915 35.1017 32.1406C35.3574 32.2874 35.6545 32.3608 35.993 32.3608C36.2132 32.3608 36.4121 32.33 36.5896 32.2685C36.7696 32.2045 36.9246 32.1098 37.0548 31.9844C37.185 31.8565 37.2857 31.6979 37.3567 31.5085L38.1663 31.7358C38.0811 32.0104 37.9379 32.2519 37.7366 32.4602C37.5354 32.6662 37.2868 32.8272 36.9909 32.9432C36.695 33.0568 36.3624 33.1136 35.993 33.1136ZM40.5145 29.7188V33H39.6764V27.5455H40.4861V28.3977H40.5571C40.6849 28.1207 40.8791 27.8982 41.1395 27.7301C41.3999 27.5597 41.7361 27.4744 42.148 27.4744C42.5173 27.4744 42.8405 27.5502 43.1175 27.7017C43.3945 27.8509 43.6099 28.0781 43.7638 28.3835C43.9177 28.6866 43.9946 29.0701 43.9946 29.5341V33H43.1565V29.5909C43.1565 29.1624 43.0453 28.8286 42.8227 28.5895C42.6002 28.348 42.2948 28.2273 41.9065 28.2273C41.639 28.2273 41.3999 28.2853 41.1892 28.4013C40.9809 28.5173 40.8163 28.6866 40.6956 28.9091C40.5749 29.1316 40.5145 29.4015 40.5145 29.7188ZM45.676 33V27.5455H46.5141V33H45.676ZM46.1022 26.6364C45.9388 26.6364 45.798 26.5807 45.6796 26.4695C45.5636 26.3582 45.5056 26.2244 45.5056 26.0682C45.5056 25.9119 45.5636 25.7782 45.6796 25.6669C45.798 25.5556 45.9388 25.5 46.1022 25.5C46.2655 25.5 46.4052 25.5556 46.5212 25.6669C46.6396 25.7782 46.6988 25.9119 46.6988 26.0682C46.6988 26.2244 46.6396 26.3582 46.5212 26.4695C46.4052 26.5807 46.2655 26.6364 46.1022 26.6364ZM49.0371 25.7273V33H48.1991V25.7273H49.0371ZM52.3272 33.1278C51.9816 33.1278 51.6679 33.0627 51.3862 32.9325C51.1045 32.8 50.8807 32.6094 50.715 32.3608C50.5493 32.1098 50.4664 31.8068 50.4664 31.4517C50.4664 31.1392 50.528 30.8859 50.6511 30.6918C50.7742 30.4953 50.9387 30.3414 51.1447 30.2301C51.3507 30.1188 51.5779 30.036 51.8265 29.9815C52.0775 29.9247 52.3296 29.8797 52.5829 29.8466C52.9144 29.804 53.1831 29.772 53.389 29.7507C53.5974 29.727 53.7489 29.688 53.8436 29.6335C53.9406 29.5791 53.9892 29.4844 53.9892 29.3494V29.321C53.9892 28.9706 53.8933 28.6984 53.7015 28.5043C53.5121 28.3101 53.2245 28.2131 52.8386 28.2131C52.4385 28.2131 52.1248 28.3007 51.8975 28.4759C51.6703 28.651 51.5105 28.8381 51.4181 29.0369L50.6227 28.7528C50.7647 28.4214 50.9541 28.1634 51.1909 27.9787C51.43 27.7917 51.6904 27.6615 51.9721 27.5881C52.2562 27.5123 52.5356 27.4744 52.8102 27.4744C52.9854 27.4744 53.1866 27.4957 53.4139 27.5384C53.6435 27.5786 53.8649 27.6626 54.0779 27.7905C54.2934 27.9183 54.4721 28.1113 54.6142 28.3693C54.7562 28.6274 54.8272 28.973 54.8272 29.4062V33H53.9892V32.2614H53.9466C53.8897 32.3797 53.795 32.5064 53.6625 32.6413C53.5299 32.7763 53.3535 32.8911 53.1333 32.9858C52.9132 33.0805 52.6445 33.1278 52.3272 33.1278ZM52.4551 32.375C52.7865 32.375 53.0659 32.3099 53.2931 32.1797C53.5228 32.0495 53.6956 31.8814 53.8116 31.6754C53.93 31.4695 53.9892 31.2528 53.9892 31.0256V30.2585C53.9537 30.3011 53.8755 30.3402 53.7548 30.3757C53.6364 30.4089 53.4991 30.4384 53.3429 30.4645C53.189 30.4882 53.0386 30.5095 52.8919 30.5284C52.7475 30.545 52.6303 30.5592 52.5403 30.571C52.3225 30.5994 52.1189 30.6456 51.9295 30.7095C51.7425 30.7711 51.591 30.8646 51.475 30.9901C51.3613 31.1132 51.3045 31.2812 51.3045 31.4943C51.3045 31.7855 51.4122 32.0057 51.6277 32.1548C51.8455 32.3016 52.1213 32.375 52.4551 32.375ZM56.5069 33V27.5455H57.345V33H56.5069ZM56.933 26.6364C56.7697 26.6364 56.6288 26.5807 56.5104 26.4695C56.3944 26.3582 56.3364 26.2244 56.3364 26.0682C56.3364 25.9119 56.3944 25.7782 56.5104 25.6669C56.6288 25.5556 56.7697 25.5 56.933 25.5C57.0964 25.5 57.2361 25.5556 57.3521 25.6669C57.4704 25.7782 57.5296 25.9119 57.5296 26.0682C57.5296 26.2244 57.4704 26.3582 57.3521 26.4695C57.2361 26.5807 57.0964 26.6364 56.933 26.6364ZM60.635 33.1278C60.2894 33.1278 59.9757 33.0627 59.694 32.9325C59.4123 32.8 59.1886 32.6094 59.0228 32.3608C58.8571 32.1098 58.7743 31.8068 58.7743 31.4517C58.7743 31.1392 58.8358 30.8859 58.9589 30.6918C59.082 30.4953 59.2466 30.3414 59.4525 30.2301C59.6585 30.1188 59.8858 30.036 60.1343 29.9815C60.3853 29.9247 60.6374 29.8797 60.8907 29.8466C61.2222 29.804 61.4909 29.772 61.6968 29.7507C61.9052 29.727 62.0567 29.688 62.1514 29.6335C62.2484 29.5791 62.297 29.4844 62.297 29.3494V29.321C62.297 28.9706 62.2011 28.6984 62.0093 28.5043C61.8199 28.3101 61.5323 28.2131 61.1464 28.2131C60.7463 28.2131 60.4326 28.3007 60.2054 28.4759C59.9781 28.651 59.8183 28.8381 59.726 29.0369L58.9305 28.7528C59.0725 28.4214 59.2619 28.1634 59.4987 27.9787C59.7378 27.7917 59.9982 27.6615 60.2799 27.5881C60.564 27.5123 60.8434 27.4744 61.118 27.4744C61.2932 27.4744 61.4944 27.4957 61.7217 27.5384C61.9513 27.5786 62.1727 27.6626 62.3858 27.7905C62.6012 27.9183 62.7799 28.1113 62.922 28.3693C63.064 28.6274 63.135 28.973 63.135 29.4062V33H62.297V32.2614H62.2544C62.1975 32.3797 62.1029 32.5064 61.9703 32.6413C61.8377 32.7763 61.6613 32.8911 61.4412 32.9858C61.221 33.0805 60.9523 33.1278 60.635 33.1278ZM60.7629 32.375C61.0943 32.375 61.3737 32.3099 61.601 32.1797C61.8306 32.0495 62.0034 31.8814 62.1194 31.6754C62.2378 31.4695 62.297 31.2528 62.297 31.0256V30.2585C62.2615 30.3011 62.1833 30.3402 62.0626 30.3757C61.9442 30.4089 61.8069 30.4384 61.6507 30.4645C61.4968 30.4882 61.3465 30.5095 61.1997 30.5284C61.0553 30.545 60.9381 30.5592 60.8481 30.571C60.6303 30.5994 60.4267 30.6456 60.2373 30.7095C60.0503 30.7711 59.8988 30.8646 59.7828 30.9901C59.6691 31.1132 59.6123 31.2812 59.6123 31.4943C59.6123 31.7855 59.72 32.0057 59.9355 32.1548C60.1533 32.3016 60.4291 32.375 60.7629 32.375ZM65.6528 29.7188V33H64.8147V27.5455H65.6244V28.3977H65.6954C65.8232 28.1207 66.0174 27.8982 66.2778 27.7301C66.5382 27.5597 66.8744 27.4744 67.2863 27.4744C67.6556 27.4744 67.9788 27.5502 68.2558 27.7017C68.5327 27.8509 68.7482 28.0781 68.9021 28.3835C69.0559 28.6866 69.1329 29.0701 69.1329 29.5341V33H68.2948V29.5909C68.2948 29.1624 68.1835 28.8286 67.961 28.5895C67.7385 28.348 67.4331 28.2273 67.0448 28.2273C66.7773 28.2273 66.5382 28.2853 66.3275 28.4013C66.1192 28.5173 65.9546 28.6866 65.8339 28.9091C65.7131 29.1316 65.6528 29.4015 65.6528 29.7188ZM73.8904 33V25.7273H74.7711V32.2188H78.1518V33H73.8904ZM81.1569 33.1278C80.8113 33.1278 80.4976 33.0627 80.2159 32.9325C79.9342 32.8 79.7104 32.6094 79.5447 32.3608C79.379 32.1098 79.2961 31.8068 79.2961 31.4517C79.2961 31.1392 79.3577 30.8859 79.4808 30.6918C79.6039 30.4953 79.7684 30.3414 79.9744 30.2301C80.1804 30.1188 80.4076 30.036 80.6562 29.9815C80.9072 29.9247 81.1593 29.8797 81.4126 29.8466C81.744 29.804 82.0128 29.772 82.2187 29.7507C82.427 29.727 82.5786 29.688 82.6733 29.6335C82.7703 29.5791 82.8189 29.4844 82.8189 29.3494V29.321C82.8189 28.9706 82.723 28.6984 82.5312 28.5043C82.3418 28.3101 82.0542 28.2131 81.6683 28.2131C81.2682 28.2131 80.9545 28.3007 80.7272 28.4759C80.5 28.651 80.3402 28.8381 80.2478 29.0369L79.4524 28.7528C79.5944 28.4214 79.7838 28.1634 80.0206 27.9787C80.2597 27.7917 80.5201 27.6615 80.8018 27.5881C81.0859 27.5123 81.3653 27.4744 81.6399 27.4744C81.8151 27.4744 82.0163 27.4957 82.2436 27.5384C82.4732 27.5786 82.6946 27.6626 82.9076 27.7905C83.1231 27.9183 83.3018 28.1113 83.4439 28.3693C83.5859 28.6274 83.6569 28.973 83.6569 29.4062V33H82.8189V32.2614H82.7762C82.7194 32.3797 82.6247 32.5064 82.4922 32.6413C82.3596 32.7763 82.1832 32.8911 81.963 32.9858C81.7429 33.0805 81.4742 33.1278 81.1569 33.1278ZM81.2848 32.375C81.6162 32.375 81.8956 32.3099 82.1228 32.1797C82.3525 32.0495 82.5253 31.8814 82.6413 31.6754C82.7597 31.4695 82.8189 31.2528 82.8189 31.0256V30.2585C82.7833 30.3011 82.7052 30.3402 82.5845 30.3757C82.4661 30.4089 82.3288 30.4384 82.1726 30.4645C82.0187 30.4882 81.8683 30.5095 81.7216 30.5284C81.5771 30.545 81.46 30.5592 81.37 30.571C81.1522 30.5994 80.9486 30.6456 80.7592 30.7095C80.5722 30.7711 80.4207 30.8646 80.3047 30.9901C80.191 31.1132 80.1342 31.2812 80.1342 31.4943C80.1342 31.7855 80.2419 32.0057 80.4574 32.1548C80.6752 32.3016 80.951 32.375 81.2848 32.375ZM86.1746 29.7188V33H85.3366V27.5455H86.1462V28.3977H86.2173C86.3451 28.1207 86.5392 27.8982 86.7996 27.7301C87.0601 27.5597 87.3962 27.4744 87.8082 27.4744C88.1775 27.4744 88.5006 27.5502 88.7776 27.7017C89.0546 27.8509 89.2701 28.0781 89.4239 28.3835C89.5778 28.6866 89.6548 29.0701 89.6548 29.5341V33H88.8167V29.5909C88.8167 29.1624 88.7054 28.8286 88.4829 28.5895C88.2603 28.348 87.9549 28.2273 87.5667 28.2273C87.2992 28.2273 87.0601 28.2853 86.8494 28.4013C86.641 28.5173 86.4765 28.6866 86.3558 28.9091C86.235 29.1316 86.1746 29.4015 86.1746 29.7188ZM93.3958 33.1136C92.9413 33.1136 92.54 32.9988 92.192 32.7692C91.844 32.5372 91.5717 32.2105 91.3752 31.7891C91.1787 31.3653 91.0805 30.8646 91.0805 30.2869C91.0805 29.714 91.1787 29.2169 91.3752 28.7955C91.5717 28.3741 91.8452 28.0485 92.1956 27.8189C92.5459 27.5893 92.9508 27.4744 93.41 27.4744C93.7652 27.4744 94.0457 27.5336 94.2517 27.652C94.46 27.768 94.6186 27.9006 94.7275 28.0497C94.8388 28.1965 94.9252 28.3172 94.9868 28.4119H95.0578V25.7273H95.8958V33H95.0862V32.1619H94.9868C94.9252 32.2614 94.8376 32.3868 94.724 32.5384C94.6103 32.6875 94.4482 32.8213 94.2375 32.9396C94.0268 33.0556 93.7462 33.1136 93.3958 33.1136ZM93.5095 32.3608C93.8457 32.3608 94.1297 32.2732 94.3618 32.098C94.5938 31.9205 94.7701 31.6754 94.8909 31.3629C95.0116 31.0481 95.072 30.6847 95.072 30.2727C95.072 29.8655 95.0128 29.5092 94.8944 29.2038C94.7761 28.8961 94.6009 28.657 94.3689 28.4865C94.1368 28.3137 93.8504 28.2273 93.5095 28.2273C93.1544 28.2273 92.8584 28.3184 92.6217 28.5007C92.3873 28.6806 92.2109 28.9257 92.0926 29.2358C91.9766 29.5436 91.9186 29.8892 91.9186 30.2727C91.9186 30.661 91.9778 31.0137 92.0961 31.331C92.2169 31.6458 92.3944 31.8968 92.6288 32.0838C92.8655 32.2685 93.1591 32.3608 93.5095 32.3608ZM101.561 28.767L100.808 28.9801C100.761 28.8546 100.691 28.7327 100.598 28.6143C100.508 28.4936 100.385 28.3942 100.229 28.3161C100.073 28.2379 99.8728 28.1989 99.6289 28.1989C99.2951 28.1989 99.017 28.2758 98.7944 28.4297C98.5743 28.5812 98.4642 28.7741 98.4642 29.0085C98.4642 29.2169 98.5399 29.3814 98.6914 29.5021C98.843 29.6229 99.0797 29.7235 99.4017 29.804L100.211 30.0028C100.699 30.1212 101.062 30.3023 101.302 30.5462C101.541 30.7876 101.66 31.099 101.66 31.4801C101.66 31.7926 101.57 32.072 101.39 32.3182C101.213 32.5644 100.964 32.7585 100.645 32.9006C100.325 33.0426 99.9533 33.1136 99.5295 33.1136C98.9732 33.1136 98.5127 32.9929 98.1481 32.7514C97.7835 32.5099 97.5527 32.1572 97.4556 31.6932L98.2511 31.4943C98.3269 31.7879 98.4701 32.008 98.6808 32.1548C98.8939 32.3016 99.172 32.375 99.5153 32.375C99.9059 32.375 100.216 32.2921 100.446 32.1264C100.678 31.9583 100.794 31.7571 100.794 31.5227C100.794 31.3333 100.727 31.1747 100.595 31.0469C100.462 30.9167 100.259 30.8196 99.9841 30.7557L99.075 30.5426C98.5754 30.4242 98.2085 30.2408 97.9741 29.9922C97.7421 29.7412 97.6261 29.4276 97.6261 29.0511C97.6261 28.7434 97.7125 28.4711 97.8853 28.2344C98.0605 27.9976 98.2984 27.8118 98.5991 27.6768C98.9021 27.5419 99.2454 27.4744 99.6289 27.4744C100.169 27.4744 100.592 27.5928 100.9 27.8295C101.21 28.0663 101.431 28.3788 101.561 28.767ZM105.288 33.1136C104.776 33.1136 104.336 32.9929 103.967 32.7514C103.597 32.5099 103.313 32.1773 103.114 31.7536C102.915 31.3298 102.816 30.8456 102.816 30.3011C102.816 29.7472 102.918 29.2583 103.121 28.8345C103.327 28.4084 103.614 28.0758 103.981 27.8366C104.35 27.5952 104.781 27.4744 105.273 27.4744C105.657 27.4744 106.003 27.5455 106.31 27.6875C106.618 27.8295 106.87 28.0284 107.067 28.2841C107.263 28.5398 107.385 28.8381 107.433 29.179H106.594C106.531 28.9304 106.388 28.7102 106.168 28.5185C105.951 28.3243 105.657 28.2273 105.288 28.2273C104.961 28.2273 104.674 28.3125 104.428 28.483C104.184 28.651 103.994 28.889 103.857 29.1967C103.722 29.5021 103.654 29.8608 103.654 30.2727C103.654 30.6941 103.72 31.0611 103.853 31.3736C103.988 31.6861 104.177 31.9287 104.421 32.1016C104.667 32.2744 104.956 32.3608 105.288 32.3608C105.505 32.3608 105.703 32.3229 105.881 32.2472C106.058 32.1714 106.209 32.0625 106.332 31.9205C106.455 31.7784 106.542 31.608 106.594 31.4091H107.433C107.385 31.7311 107.268 32.0211 107.081 32.2791C106.896 32.5348 106.651 32.7384 106.346 32.8899C106.043 33.0391 105.69 33.1136 105.288 33.1136ZM110.413 33.1278C110.067 33.1278 109.753 33.0627 109.472 32.9325C109.19 32.8 108.966 32.6094 108.801 32.3608C108.635 32.1098 108.552 31.8068 108.552 31.4517C108.552 31.1392 108.614 30.8859 108.737 30.6918C108.86 30.4953 109.024 30.3414 109.23 30.2301C109.436 30.1188 109.663 30.036 109.912 29.9815C110.163 29.9247 110.415 29.8797 110.668 29.8466C111 29.804 111.269 29.772 111.475 29.7507C111.683 29.727 111.834 29.688 111.929 29.6335C112.026 29.5791 112.075 29.4844 112.075 29.3494V29.321C112.075 28.9706 111.979 28.6984 111.787 28.5043C111.598 28.3101 111.31 28.2131 110.924 28.2131C110.524 28.2131 110.21 28.3007 109.983 28.4759C109.756 28.651 109.596 28.8381 109.504 29.0369L108.708 28.7528C108.85 28.4214 109.04 28.1634 109.276 27.9787C109.516 27.7917 109.776 27.6615 110.058 27.5881C110.342 27.5123 110.621 27.4744 110.896 27.4744C111.071 27.4744 111.272 27.4957 111.499 27.5384C111.729 27.5786 111.95 27.6626 112.163 27.7905C112.379 27.9183 112.558 28.1113 112.7 28.3693C112.842 28.6274 112.913 28.973 112.913 29.4062V33H112.075V32.2614H112.032C111.975 32.3797 111.881 32.5064 111.748 32.6413C111.615 32.7763 111.439 32.8911 111.219 32.9858C110.999 33.0805 110.73 33.1278 110.413 33.1278ZM110.541 32.375C110.872 32.375 111.151 32.3099 111.379 32.1797C111.608 32.0495 111.781 31.8814 111.897 31.6754C112.016 31.4695 112.075 31.2528 112.075 31.0256V30.2585C112.039 30.3011 111.961 30.3402 111.84 30.3757C111.722 30.4089 111.585 30.4384 111.428 30.4645C111.275 30.4882 111.124 30.5095 110.977 30.5284C110.833 30.545 110.716 30.5592 110.626 30.571C110.408 30.5994 110.204 30.6456 110.015 30.7095C109.828 30.7711 109.677 30.8646 109.561 30.9901C109.447 31.1132 109.39 31.2812 109.39 31.4943C109.39 31.7855 109.498 32.0057 109.713 32.1548C109.931 32.3016 110.207 32.375 110.541 32.375ZM114.592 35.0455V27.5455H115.402V28.4119H115.502C115.563 28.3172 115.648 28.1965 115.757 28.0497C115.868 27.9006 116.027 27.768 116.233 27.652C116.441 27.5336 116.723 27.4744 117.078 27.4744C117.538 27.4744 117.942 27.5893 118.293 27.8189C118.643 28.0485 118.917 28.3741 119.113 28.7955C119.31 29.2169 119.408 29.714 119.408 30.2869C119.408 30.8646 119.31 31.3653 119.113 31.7891C118.917 32.2105 118.644 32.5372 118.296 32.7692C117.948 32.9988 117.547 33.1136 117.092 33.1136C116.742 33.1136 116.462 33.0556 116.251 32.9396C116.04 32.8213 115.878 32.6875 115.764 32.5384C115.651 32.3868 115.563 32.2614 115.502 32.1619H115.431V35.0455H114.592ZM115.416 30.2727C115.416 30.6847 115.477 31.0481 115.597 31.3629C115.718 31.6754 115.895 31.9205 116.127 32.098C116.359 32.2732 116.643 32.3608 116.979 32.3608C117.329 32.3608 117.622 32.2685 117.856 32.0838C118.093 31.8968 118.27 31.6458 118.389 31.331C118.509 31.0137 118.57 30.661 118.57 30.2727C118.57 29.8892 118.511 29.5436 118.392 29.2358C118.276 28.9257 118.1 28.6806 117.863 28.5007C117.629 28.3184 117.334 28.2273 116.979 28.2273C116.638 28.2273 116.351 28.3137 116.119 28.4865C115.887 28.657 115.712 28.8961 115.594 29.2038C115.475 29.5092 115.416 29.8655 115.416 30.2727ZM123.123 33.1136C122.598 33.1136 122.144 32.9976 121.763 32.7656C121.384 32.5312 121.092 32.2045 120.886 31.7855C120.682 31.3641 120.581 30.8741 120.581 30.3153C120.581 29.7566 120.682 29.2642 120.886 28.8381C121.092 28.4096 121.378 28.0758 121.745 27.8366C122.115 27.5952 122.545 27.4744 123.038 27.4744C123.322 27.4744 123.603 27.5218 123.88 27.6165C124.156 27.7112 124.409 27.8651 124.636 28.0781C124.863 28.2888 125.044 28.5682 125.179 28.9162C125.314 29.2642 125.382 29.6927 125.382 30.2017V30.5568H121.177V29.8324H124.529C124.529 29.5246 124.468 29.25 124.345 29.0085C124.224 28.767 124.051 28.5765 123.826 28.4368C123.604 28.2971 123.341 28.2273 123.038 28.2273C122.704 28.2273 122.415 28.3101 122.171 28.4759C121.93 28.6392 121.744 28.8523 121.614 29.1151C121.484 29.3778 121.419 29.6596 121.419 29.9602V30.4432C121.419 30.8551 121.49 31.2043 121.632 31.4908C121.776 31.7749 121.976 31.9915 122.232 32.1406C122.487 32.2874 122.785 32.3608 123.123 32.3608C123.343 32.3608 123.542 32.33 123.72 32.2685C123.9 32.2045 124.055 32.1098 124.185 31.9844C124.315 31.8565 124.416 31.6979 124.487 31.5085L125.296 31.7358C125.211 32.0104 125.068 32.2519 124.867 32.4602C124.665 32.6662 124.417 32.8272 124.121 32.9432C123.825 33.0568 123.492 33.1136 123.123 33.1136Z" fill="#757575"/>
<path d="M27.2045 42.875V41.3636H36.2102V42.875H32.5795V53H30.8295V42.875H27.2045ZM39.4402 53.1932C38.8872 53.1932 38.3872 53.0909 37.9402 52.8864C37.4932 52.678 37.1391 52.3769 36.8777 51.983C36.6201 51.589 36.4913 51.1061 36.4913 50.5341C36.4913 50.0417 36.586 49.6364 36.7754 49.3182C36.9648 49 37.2205 48.7481 37.5425 48.5625C37.8644 48.3769 38.2243 48.2367 38.622 48.142C39.0197 48.0473 39.425 47.9754 39.8379 47.9261C40.3606 47.8655 40.7849 47.8163 41.1106 47.7784C41.4364 47.7367 41.6731 47.6705 41.8209 47.5795C41.9686 47.4886 42.0425 47.3409 42.0425 47.1364V47.0966C42.0425 46.6004 41.9023 46.2159 41.622 45.9432C41.3455 45.6705 40.9326 45.5341 40.3834 45.5341C39.8114 45.5341 39.3606 45.661 39.0311 45.9148C38.7053 46.1648 38.48 46.4432 38.355 46.75L36.7584 46.3864C36.9478 45.8561 37.2243 45.428 37.5879 45.1023C37.9553 44.7727 38.3777 44.5341 38.855 44.3864C39.3322 44.2348 39.8341 44.1591 40.3606 44.1591C40.7091 44.1591 41.0785 44.2008 41.4686 44.2841C41.8625 44.3636 42.23 44.5114 42.5709 44.7273C42.9156 44.9432 43.1978 45.2519 43.4175 45.6534C43.6372 46.0511 43.747 46.5682 43.747 47.2045V53H42.0879V51.8068H42.0197C41.9099 52.0265 41.7451 52.2424 41.5254 52.4545C41.3057 52.6667 41.0235 52.8428 40.6788 52.983C40.3341 53.1231 39.9213 53.1932 39.4402 53.1932ZM39.8095 51.8295C40.2792 51.8295 40.6807 51.7367 41.0141 51.5511C41.3512 51.3655 41.6069 51.1231 41.7811 50.8239C41.9591 50.5208 42.0481 50.197 42.0481 49.8523V48.7273C41.9875 48.7879 41.8701 48.8447 41.6959 48.8977C41.5254 48.947 41.3303 48.9905 41.1106 49.0284C40.891 49.0625 40.6769 49.0947 40.4686 49.125C40.2603 49.1515 40.086 49.1742 39.9459 49.1932C39.6163 49.2348 39.3152 49.3049 39.0425 49.4034C38.7735 49.5019 38.5576 49.6439 38.3947 49.8295C38.2356 50.0114 38.1561 50.2538 38.1561 50.5568C38.1561 50.9773 38.3114 51.2955 38.622 51.5114C38.9326 51.7235 39.3285 51.8295 39.8095 51.8295ZM46.0338 53V44.2727H47.6645V45.6932H47.7724C47.9543 45.2121 48.2516 44.8371 48.6645 44.5682C49.0774 44.2955 49.5717 44.1591 50.1474 44.1591C50.7308 44.1591 51.2194 44.2955 51.6133 44.5682C52.0111 44.8409 52.3046 45.2159 52.494 45.6932H52.5849C52.7933 45.2273 53.1247 44.8561 53.5793 44.5795C54.0338 44.2992 54.5755 44.1591 55.2043 44.1591C55.9959 44.1591 56.6418 44.4072 57.1418 44.9034C57.6455 45.3996 57.8974 46.1477 57.8974 47.1477V53H56.1986V47.3068C56.1986 46.7159 56.0376 46.2879 55.7156 46.0227C55.3936 45.7576 55.0092 45.625 54.5622 45.625C54.0092 45.625 53.5793 45.7955 53.2724 46.1364C52.9656 46.4735 52.8122 46.9072 52.8122 47.4375V53H51.119V47.1989C51.119 46.7254 50.9713 46.3447 50.6758 46.0568C50.3804 45.7689 49.9959 45.625 49.5224 45.625C49.2005 45.625 48.9031 45.7102 48.6304 45.8807C48.3614 46.0473 48.1436 46.2803 47.977 46.5795C47.8141 46.8788 47.7327 47.2254 47.7327 47.6193V53H46.0338ZM62.7382 53.1932C62.1852 53.1932 61.6852 53.0909 61.2382 52.8864C60.7912 52.678 60.4371 52.3769 60.1757 51.983C59.9181 51.589 59.7893 51.1061 59.7893 50.5341C59.7893 50.0417 59.884 49.6364 60.0734 49.3182C60.2628 49 60.5185 48.7481 60.8405 48.5625C61.1624 48.3769 61.5223 48.2367 61.92 48.142C62.3177 48.0473 62.723 47.9754 63.1359 47.9261C63.6586 47.8655 64.0829 47.8163 64.4086 47.7784C64.7344 47.7367 64.9711 47.6705 65.1189 47.5795C65.2666 47.4886 65.3405 47.3409 65.3405 47.1364V47.0966C65.3405 46.6004 65.2003 46.2159 64.92 45.9432C64.6435 45.6705 64.2306 45.5341 63.6814 45.5341C63.1094 45.5341 62.6586 45.661 62.3291 45.9148C62.0033 46.1648 61.778 46.4432 61.653 46.75L60.0564 46.3864C60.2458 45.8561 60.5223 45.428 60.8859 45.1023C61.2533 44.7727 61.6757 44.5341 62.153 44.3864C62.6302 44.2348 63.1321 44.1591 63.6586 44.1591C64.0071 44.1591 64.3764 44.2008 64.7666 44.2841C65.1605 44.3636 65.528 44.5114 65.8689 44.7273C66.2136 44.9432 66.4958 45.2519 66.7155 45.6534C66.9352 46.0511 67.045 46.5682 67.045 47.2045V53H65.3859V51.8068H65.3177C65.2079 52.0265 65.0431 52.2424 64.8234 52.4545C64.6037 52.6667 64.3215 52.8428 63.9768 52.983C63.6321 53.1231 63.2193 53.1932 62.7382 53.1932ZM63.1075 51.8295C63.5772 51.8295 63.9787 51.7367 64.3121 51.5511C64.6492 51.3655 64.9049 51.1231 65.0791 50.8239C65.2571 50.5208 65.3461 50.197 65.3461 49.8523V48.7273C65.2855 48.7879 65.1681 48.8447 64.9939 48.8977C64.8234 48.947 64.6283 48.9905 64.4086 49.0284C64.1889 49.0625 63.9749 49.0947 63.7666 49.125C63.5583 49.1515 63.384 49.1742 63.2439 49.1932C62.9143 49.2348 62.6132 49.3049 62.3405 49.4034C62.0715 49.5019 61.8556 49.6439 61.6927 49.8295C61.5336 50.0114 61.4541 50.2538 61.4541 50.5568C61.4541 50.9773 61.6094 51.2955 61.92 51.5114C62.2306 51.7235 62.6264 51.8295 63.1075 51.8295ZM71.0307 47.8182V53H69.3318V44.2727H70.9625V45.6932H71.0704C71.2712 45.2311 71.5856 44.8598 72.0136 44.5795C72.4454 44.2992 72.989 44.1591 73.6443 44.1591C74.239 44.1591 74.7598 44.2841 75.2068 44.5341C75.6538 44.7803 76.0004 45.1477 76.2466 45.6364C76.4928 46.125 76.6159 46.7292 76.6159 47.4489V53H74.917V47.6534C74.917 47.0208 74.7523 46.5265 74.4227 46.1705C74.0932 45.8106 73.6405 45.6307 73.0648 45.6307C72.6708 45.6307 72.3204 45.7159 72.0136 45.8864C71.7106 46.0568 71.4701 46.3068 71.292 46.6364C71.1178 46.9621 71.0307 47.3561 71.0307 47.8182ZM86.4437 53.1705C85.7392 53.1705 85.1104 52.9905 84.5574 52.6307C84.0081 52.267 83.5763 51.75 83.2619 51.0795C82.9513 50.4053 82.796 49.5966 82.796 48.6534C82.796 47.7102 82.9532 46.9034 83.2676 46.233C83.5858 45.5625 84.0214 45.0492 84.5744 44.6932C85.1274 44.3371 85.7543 44.1591 86.4551 44.1591C86.9967 44.1591 87.4324 44.25 87.7619 44.4318C88.0952 44.6098 88.3528 44.8182 88.5346 45.0568C88.7202 45.2955 88.8642 45.5057 88.9664 45.6875H89.0687V41.3636H90.7676V53H89.1085V51.642H88.9664C88.8642 51.8277 88.7164 52.0398 88.5233 52.2784C88.3339 52.517 88.0725 52.7254 87.7392 52.9034C87.4058 53.0814 86.974 53.1705 86.4437 53.1705ZM86.8187 51.7216C87.3074 51.7216 87.7202 51.5928 88.0574 51.3352C88.3983 51.0739 88.6558 50.7121 88.8301 50.25C89.0081 49.7879 89.0971 49.25 89.0971 48.6364C89.0971 48.0303 89.01 47.5 88.8358 47.0455C88.6615 46.5909 88.4058 46.2367 88.0687 45.983C87.7316 45.7292 87.3149 45.6023 86.8187 45.6023C86.3074 45.6023 85.8812 45.7348 85.5403 46C85.1994 46.2652 84.9418 46.6269 84.7676 47.0852C84.5971 47.5436 84.5119 48.0606 84.5119 48.6364C84.5119 49.2197 84.599 49.7443 84.7733 50.2102C84.9475 50.6761 85.2051 51.0455 85.546 51.3182C85.8907 51.5871 86.3149 51.7216 86.8187 51.7216ZM95.7561 53.1932C95.203 53.1932 94.703 53.0909 94.2561 52.8864C93.8091 52.678 93.4549 52.3769 93.1936 51.983C92.936 51.589 92.8072 51.1061 92.8072 50.5341C92.8072 50.0417 92.9019 49.6364 93.0913 49.3182C93.2807 49 93.5364 48.7481 93.8583 48.5625C94.1803 48.3769 94.5402 48.2367 94.9379 48.142C95.3356 48.0473 95.7409 47.9754 96.1538 47.9261C96.6765 47.8655 97.1008 47.8163 97.4265 47.7784C97.7523 47.7367 97.989 47.6705 98.1367 47.5795C98.2845 47.4886 98.3583 47.3409 98.3583 47.1364V47.0966C98.3583 46.6004 98.2182 46.2159 97.9379 45.9432C97.6614 45.6705 97.2485 45.5341 96.6992 45.5341C96.1273 45.5341 95.6765 45.661 95.347 45.9148C95.0212 46.1648 94.7958 46.4432 94.6708 46.75L93.0742 46.3864C93.2636 45.8561 93.5402 45.428 93.9038 45.1023C94.2712 44.7727 94.6936 44.5341 95.1708 44.3864C95.6481 44.2348 96.15 44.1591 96.6765 44.1591C97.025 44.1591 97.3943 44.2008 97.7845 44.2841C98.1784 44.3636 98.5458 44.5114 98.8867 44.7273C99.2314 44.9432 99.5136 45.2519 99.7333 45.6534C99.953 46.0511 100.063 46.5682 100.063 47.2045V53H98.4038V51.8068H98.3356C98.2258 52.0265 98.061 52.2424 97.8413 52.4545C97.6216 52.6667 97.3394 52.8428 96.9947 52.983C96.65 53.1231 96.2371 53.1932 95.7561 53.1932ZM96.1254 51.8295C96.5951 51.8295 96.9966 51.7367 97.3299 51.5511C97.6671 51.3655 97.9227 51.1231 98.097 50.8239C98.275 50.5208 98.364 50.197 98.364 49.8523V48.7273C98.3034 48.7879 98.186 48.8447 98.0117 48.8977C97.8413 48.947 97.6462 48.9905 97.4265 49.0284C97.2068 49.0625 96.9928 49.0947 96.7845 49.125C96.5761 49.1515 96.4019 49.1742 96.2617 49.1932C95.9322 49.2348 95.6311 49.3049 95.3583 49.4034C95.0894 49.5019 94.8735 49.6439 94.7106 49.8295C94.5515 50.0114 94.472 50.2538 94.472 50.5568C94.472 50.9773 94.6273 51.2955 94.9379 51.5114C95.2485 51.7235 95.6443 51.8295 96.1254 51.8295ZM104.049 47.8182V53H102.35V44.2727H103.98V45.6932H104.088C104.289 45.2311 104.603 44.8598 105.031 44.5795C105.463 44.2992 106.007 44.1591 106.662 44.1591C107.257 44.1591 107.778 44.2841 108.225 44.5341C108.672 44.7803 109.018 45.1477 109.264 45.6364C109.511 46.125 109.634 46.7292 109.634 47.4489V53H107.935V47.6534C107.935 47.0208 107.77 46.5265 107.441 46.1705C107.111 45.8106 106.658 45.6307 106.083 45.6307C105.689 45.6307 105.338 45.7159 105.031 45.8864C104.728 46.0568 104.488 46.3068 104.31 46.6364C104.136 46.9621 104.049 47.3561 104.049 47.8182ZM116.331 53V41.3636H118.087V46.9205H118.229L123.109 41.3636H125.32L120.626 46.6023L125.337 53H123.223L119.462 47.8011L118.087 49.3807V53H116.331ZM129.964 53.1761C129.104 53.1761 128.364 52.9924 127.743 52.625C127.125 52.2538 126.648 51.733 126.311 51.0625C125.978 50.3883 125.811 49.5985 125.811 48.6932C125.811 47.7992 125.978 47.0114 126.311 46.3295C126.648 45.6477 127.118 45.1155 127.72 44.733C128.326 44.3504 129.034 44.1591 129.845 44.1591C130.337 44.1591 130.815 44.2405 131.277 44.4034C131.739 44.5663 132.154 44.822 132.521 45.1705C132.889 45.5189 133.178 45.9716 133.39 46.5284C133.603 47.0814 133.709 47.7538 133.709 48.5455V49.1477H126.771V47.875H132.044C132.044 47.428 131.953 47.0322 131.771 46.6875C131.589 46.339 131.334 46.0644 131.004 45.8636C130.678 45.6629 130.296 45.5625 129.856 45.5625C129.379 45.5625 128.962 45.6799 128.606 45.9148C128.254 46.1458 127.981 46.4489 127.788 46.8239C127.599 47.1951 127.504 47.5985 127.504 48.0341V49.0284C127.504 49.6117 127.606 50.108 127.811 50.517C128.019 50.9261 128.309 51.2386 128.68 51.4545C129.051 51.6667 129.485 51.7727 129.981 51.7727C130.303 51.7727 130.597 51.7273 130.862 51.6364C131.127 51.5417 131.356 51.4015 131.55 51.2159C131.743 51.0303 131.89 50.8011 131.993 50.5284L133.601 50.8182C133.472 51.2917 133.241 51.7064 132.907 52.0625C132.578 52.4148 132.163 52.6894 131.663 52.8864C131.167 53.0795 130.601 53.1761 129.964 53.1761ZM135.754 53V41.3636H137.453V45.6875H137.555C137.654 45.5057 137.796 45.2955 137.981 45.0568C138.167 44.8182 138.424 44.6098 138.754 44.4318C139.083 44.25 139.519 44.1591 140.061 44.1591C140.765 44.1591 141.394 44.3371 141.947 44.6932C142.5 45.0492 142.934 45.5625 143.248 46.233C143.566 46.9034 143.726 47.7102 143.726 48.6534C143.726 49.5966 143.568 50.4053 143.254 51.0795C142.94 51.75 142.508 52.267 141.958 52.6307C141.409 52.9905 140.782 53.1705 140.078 53.1705C139.547 53.1705 139.114 53.0814 138.777 52.9034C138.443 52.7254 138.182 52.517 137.993 52.2784C137.803 52.0398 137.657 51.8277 137.555 51.642H137.413V53H135.754ZM137.419 48.6364C137.419 49.25 137.508 49.7879 137.686 50.25C137.864 50.7121 138.121 51.0739 138.458 51.3352C138.796 51.5928 139.208 51.7216 139.697 51.7216C140.205 51.7216 140.629 51.5871 140.97 51.3182C141.311 51.0455 141.568 50.6761 141.743 50.2102C141.921 49.7443 142.01 49.2197 142.01 48.6364C142.01 48.0606 141.922 47.5436 141.748 47.0852C141.578 46.6269 141.32 46.2652 140.976 46C140.635 45.7348 140.208 45.6023 139.697 45.6023C139.205 45.6023 138.788 45.7292 138.447 45.983C138.11 46.2367 137.854 46.5909 137.68 47.0455C137.506 47.5 137.419 48.0303 137.419 48.6364ZM149.419 53.1761C148.559 53.1761 147.818 52.9924 147.197 52.625C146.58 52.2538 146.102 51.733 145.765 51.0625C145.432 50.3883 145.265 49.5985 145.265 48.6932C145.265 47.7992 145.432 47.0114 145.765 46.3295C146.102 45.6477 146.572 45.1155 147.174 44.733C147.78 44.3504 148.489 44.1591 149.299 44.1591C149.792 44.1591 150.269 44.2405 150.731 44.4034C151.193 44.5663 151.608 44.822 151.975 45.1705C152.343 45.5189 152.633 45.9716 152.845 46.5284C153.057 47.0814 153.163 47.7538 153.163 48.5455V49.1477H146.225V47.875H151.498C151.498 47.428 151.407 47.0322 151.225 46.6875C151.044 46.339 150.788 46.0644 150.458 45.8636C150.133 45.6629 149.75 45.5625 149.311 45.5625C148.833 45.5625 148.417 45.6799 148.061 45.9148C147.708 46.1458 147.436 46.4489 147.242 46.8239C147.053 47.1951 146.958 47.5985 146.958 48.0341V49.0284C146.958 49.6117 147.061 50.108 147.265 50.517C147.473 50.9261 147.763 51.2386 148.134 51.4545C148.506 51.6667 148.939 51.7727 149.436 51.7727C149.758 51.7727 150.051 51.7273 150.316 51.6364C150.581 51.5417 150.811 51.4015 151.004 51.2159C151.197 51.0303 151.345 50.8011 151.447 50.5284L153.055 50.8182C152.926 51.2917 152.695 51.7064 152.362 52.0625C152.032 52.4148 151.617 52.6894 151.117 52.8864C150.621 53.0795 150.055 53.1761 149.419 53.1761ZM155.072 53V44.2727H156.714V45.6591H156.805C156.964 45.1894 157.244 44.8201 157.646 44.5511C158.051 44.2784 158.509 44.142 159.021 44.142C159.127 44.142 159.252 44.1458 159.396 44.1534C159.543 44.161 159.659 44.1705 159.742 44.1818V45.8068C159.674 45.7879 159.553 45.767 159.379 45.7443C159.204 45.7178 159.03 45.7045 158.856 45.7045C158.454 45.7045 158.096 45.7898 157.782 45.9602C157.471 46.1269 157.225 46.3598 157.043 46.6591C156.862 46.9545 156.771 47.2917 156.771 47.6705V53H155.072ZM167.776 46.4034L166.236 46.6761C166.172 46.4792 166.07 46.2917 165.93 46.1136C165.793 45.9356 165.608 45.7898 165.373 45.6761C165.138 45.5625 164.844 45.5057 164.492 45.5057C164.011 45.5057 163.61 45.6136 163.288 45.8295C162.966 46.0417 162.805 46.3163 162.805 46.6534C162.805 46.9451 162.913 47.1799 163.128 47.358C163.344 47.536 163.693 47.6818 164.174 47.7955L165.56 48.1136C166.363 48.2992 166.962 48.5852 167.356 48.9716C167.75 49.358 167.947 49.8598 167.947 50.4773C167.947 51 167.795 51.4659 167.492 51.875C167.193 52.2803 166.774 52.5985 166.236 52.8295C165.702 53.0606 165.083 53.1761 164.378 53.1761C163.401 53.1761 162.604 52.9678 161.986 52.5511C161.369 52.1307 160.99 51.5341 160.85 50.7614L162.492 50.5114C162.594 50.9394 162.805 51.2633 163.123 51.483C163.441 51.6989 163.856 51.8068 164.367 51.8068C164.924 51.8068 165.369 51.6913 165.702 51.4602C166.036 51.2254 166.202 50.9394 166.202 50.6023C166.202 50.3295 166.1 50.1004 165.896 49.9148C165.695 49.7292 165.386 49.589 164.969 49.4943L163.492 49.1705C162.678 48.9848 162.075 48.6894 161.685 48.2841C161.299 47.8788 161.106 47.3655 161.106 46.7443C161.106 46.2292 161.25 45.7784 161.538 45.392C161.825 45.0057 162.223 44.7045 162.731 44.4886C163.238 44.2689 163.82 44.1591 164.475 44.1591C165.418 44.1591 166.161 44.3636 166.702 44.7727C167.244 45.178 167.602 45.7216 167.776 46.4034ZM169.839 53V44.2727H171.537V53H169.839ZM170.697 42.9261C170.401 42.9261 170.147 42.8277 169.935 42.6307C169.727 42.4299 169.623 42.1913 169.623 41.9148C169.623 41.6345 169.727 41.3958 169.935 41.1989C170.147 40.9981 170.401 40.8977 170.697 40.8977C170.992 40.8977 171.244 40.9981 171.452 41.1989C171.664 41.3958 171.77 41.6345 171.77 41.9148C171.77 42.1913 171.664 42.4299 171.452 42.6307C171.244 42.8277 170.992 42.9261 170.697 42.9261ZM175.546 47.8182V53H173.847V41.3636H175.523V45.6932H175.631C175.836 45.2235 176.148 44.8504 176.569 44.5739C176.989 44.2973 177.538 44.1591 178.216 44.1591C178.815 44.1591 179.337 44.2822 179.784 44.5284C180.235 44.7746 180.584 45.142 180.83 45.6307C181.08 46.1155 181.205 46.7216 181.205 47.4489V53H179.506V47.6534C179.506 47.0133 179.341 46.517 179.012 46.1648C178.682 45.8087 178.224 45.6307 177.637 45.6307C177.235 45.6307 176.875 45.7159 176.557 45.8864C176.243 46.0568 175.995 46.3068 175.813 46.6364C175.635 46.9621 175.546 47.3561 175.546 47.8182ZM186.036 53.1932C185.483 53.1932 184.983 53.0909 184.536 52.8864C184.089 52.678 183.735 52.3769 183.473 51.983C183.216 51.589 183.087 51.1061 183.087 50.5341C183.087 50.0417 183.182 49.6364 183.371 49.3182C183.56 49 183.816 48.7481 184.138 48.5625C184.46 48.3769 184.82 48.2367 185.218 48.142C185.615 48.0473 186.021 47.9754 186.433 47.9261C186.956 47.8655 187.38 47.8163 187.706 47.7784C188.032 47.7367 188.269 47.6705 188.416 47.5795C188.564 47.4886 188.638 47.3409 188.638 47.1364V47.0966C188.638 46.6004 188.498 46.2159 188.218 45.9432C187.941 45.6705 187.528 45.5341 186.979 45.5341C186.407 45.5341 185.956 45.661 185.627 45.9148C185.301 46.1648 185.075 46.4432 184.95 46.75L183.354 46.3864C183.543 45.8561 183.82 45.428 184.183 45.1023C184.551 44.7727 184.973 44.5341 185.45 44.3864C185.928 44.2348 186.43 44.1591 186.956 44.1591C187.305 44.1591 187.674 44.2008 188.064 44.2841C188.458 44.3636 188.825 44.5114 189.166 44.7273C189.511 44.9432 189.793 45.2519 190.013 45.6534C190.233 46.0511 190.343 46.5682 190.343 47.2045V53H188.683V51.8068H188.615C188.505 52.0265 188.341 52.2424 188.121 52.4545C187.901 52.6667 187.619 52.8428 187.274 52.983C186.93 53.1231 186.517 53.1932 186.036 53.1932ZM186.405 51.8295C186.875 51.8295 187.276 51.7367 187.61 51.5511C187.947 51.3655 188.202 51.1231 188.377 50.8239C188.555 50.5208 188.644 50.197 188.644 49.8523V48.7273C188.583 48.7879 188.466 48.8447 188.291 48.8977C188.121 48.947 187.926 48.9905 187.706 49.0284C187.486 49.0625 187.272 49.0947 187.064 49.125C186.856 49.1515 186.682 49.1742 186.541 49.1932C186.212 49.2348 185.911 49.3049 185.638 49.4034C185.369 49.5019 185.153 49.6439 184.99 49.8295C184.831 50.0114 184.752 50.2538 184.752 50.5568C184.752 50.9773 184.907 51.2955 185.218 51.5114C185.528 51.7235 185.924 51.8295 186.405 51.8295ZM194.328 47.8182V53H192.629V44.2727H194.26V45.6932H194.368C194.569 45.2311 194.883 44.8598 195.311 44.5795C195.743 44.2992 196.286 44.1591 196.942 44.1591C197.536 44.1591 198.057 44.2841 198.504 44.5341C198.951 44.7803 199.298 45.1477 199.544 45.6364C199.79 46.125 199.913 46.7292 199.913 47.4489V53H198.215V47.6534C198.215 47.0208 198.05 46.5265 197.72 46.1705C197.391 45.8106 196.938 45.6307 196.362 45.6307C195.968 45.6307 195.618 45.7159 195.311 45.8864C195.008 46.0568 194.768 46.3068 194.59 46.6364C194.415 46.9621 194.328 47.3561 194.328 47.8182Z" fill="#0A0A0A"/>
<path fill-rule="evenodd" clip-rule="evenodd" d="M322.793 44.2929C323.183 43.9024 323.817 43.9024 324.207 44.2929L327.5 47.5858L330.793 44.2929C331.183 43.9024 331.817 43.9024 332.207 44.2929C332.598 44.6834 332.598 45.3166 332.207 45.7071L328.207 49.7071C327.817 50.0976 327.183 50.0976 326.793 49.7071L322.793 45.7071C322.402 45.3166 322.402 44.6834 322.793 44.2929Z" fill="#424242"/>
<path d="M22.3367 112L32.8133 91.2812V91.1055H20.6961V88H36.5633V91.2109L26.1219 112H22.3367ZM48.3206 112.328C46.8518 112.328 45.5315 112.047 44.3596 111.484C43.1956 110.914 42.2659 110.133 41.5706 109.141C40.8753 108.148 40.5042 107.016 40.4573 105.742H43.9729C44.0588 106.773 44.5159 107.621 45.344 108.285C46.1721 108.949 47.1643 109.281 48.3206 109.281C49.2424 109.281 50.0588 109.07 50.7698 108.648C51.4885 108.219 52.051 107.629 52.4573 106.879C52.8713 106.129 53.0784 105.273 53.0784 104.312C53.0784 103.336 52.8674 102.465 52.4456 101.699C52.0237 100.934 51.4417 100.332 50.6995 99.8945C49.9651 99.457 49.1213 99.2344 48.1682 99.2266C47.4417 99.2266 46.7112 99.3516 45.9768 99.6016C45.2424 99.8516 44.6487 100.18 44.1956 100.586L40.8792 100.094L42.2268 88H55.4221V91.1055H45.2385L44.4768 97.8203H44.6174C45.0862 97.3672 45.7073 96.9883 46.4807 96.6836C47.262 96.3789 48.0979 96.2266 48.9885 96.2266C50.4495 96.2266 51.7503 96.5742 52.8909 97.2695C54.0393 97.9648 54.9417 98.9141 55.5979 100.117C56.262 101.312 56.5901 102.687 56.5823 104.242C56.5901 105.797 56.2385 107.184 55.5276 108.402C54.8245 109.621 53.8479 110.582 52.5979 111.285C51.3557 111.98 49.9299 112.328 48.3206 112.328ZM82.2883 107.5V106.234C82.2883 105.328 82.4758 104.5 82.8508 103.75C83.2336 102.992 83.7883 102.387 84.5149 101.934C85.2492 101.473 86.136 101.242 87.175 101.242C88.2375 101.242 89.1281 101.469 89.8469 101.922C90.5656 102.375 91.1086 102.98 91.4758 103.738C91.8508 104.496 92.0383 105.328 92.0383 106.234V107.5C92.0383 108.406 91.8508 109.238 91.4758 109.996C91.1008 110.746 90.55 111.352 89.8235 111.812C89.1047 112.266 88.2219 112.492 87.175 112.492C86.1203 112.492 85.2297 112.266 84.5031 111.812C83.7766 111.352 83.2258 110.746 82.8508 109.996C82.4758 109.238 82.2883 108.406 82.2883 107.5ZM85.0188 106.234V107.5C85.0188 108.172 85.1789 108.781 85.4992 109.328C85.8196 109.875 86.3781 110.148 87.175 110.148C87.9641 110.148 88.5149 109.875 88.8274 109.328C89.1399 108.781 89.2961 108.172 89.2961 107.5V106.234C89.2961 105.562 89.1438 104.953 88.8391 104.406C88.5422 103.859 87.9875 103.586 87.175 103.586C86.3938 103.586 85.8391 103.859 85.511 104.406C85.1828 104.953 85.0188 105.562 85.0188 106.234ZM70.218 93.7656V92.5C70.218 91.5937 70.4055 90.7617 70.7805 90.0039C71.1633 89.2461 71.718 88.6406 72.4446 88.1875C73.1789 87.7344 74.0656 87.5078 75.1047 87.5078C76.1672 87.5078 77.0578 87.7344 77.7766 88.1875C78.4953 88.6406 79.0383 89.2461 79.4055 90.0039C79.7727 90.7617 79.9563 91.5937 79.9563 92.5V93.7656C79.9563 94.6719 79.7688 95.5039 79.3938 96.2617C79.0266 97.0117 78.4797 97.6172 77.7531 98.0781C77.0344 98.5313 76.1516 98.7578 75.1047 98.7578C74.0422 98.7578 73.1477 98.5313 72.4211 98.0781C71.7024 97.6172 71.1555 97.0117 70.7805 96.2617C70.4055 95.5039 70.218 94.6719 70.218 93.7656ZM72.9602 92.5V93.7656C72.9602 94.4375 73.1164 95.0469 73.4289 95.5937C73.7492 96.1406 74.3078 96.4141 75.1047 96.4141C75.886 96.4141 76.4328 96.1406 76.7453 95.5937C77.0656 95.0469 77.2258 94.4375 77.2258 93.7656V92.5C77.2258 91.8281 77.0735 91.2187 76.7688 90.6719C76.4641 90.125 75.9094 89.8516 75.1047 89.8516C74.3235 89.8516 73.7688 90.125 73.4406 90.6719C73.1203 91.2187 72.9602 91.8281 72.9602 92.5ZM71.3313 112L87.8313 88H90.6321L74.1321 112H71.3313Z" fill="#0A0A0A"/>
<path d="M20.5628 159V148.818H24.0031C24.8019 148.818 25.4548 148.962 25.9619 149.251C26.4723 149.536 26.8502 149.922 27.0954 150.409C27.3407 150.896 27.4633 151.44 27.4633 152.04C27.4633 152.64 27.3407 153.185 27.0954 153.675C26.8535 154.166 26.479 154.557 25.9718 154.849C25.4647 155.137 24.8151 155.281 24.023 155.281H21.5571V154.188H23.9832C24.5301 154.188 24.9692 154.093 25.3007 153.904C25.6321 153.715 25.8724 153.46 26.0216 153.138C26.174 152.814 26.2503 152.447 26.2503 152.04C26.2503 151.632 26.174 151.268 26.0216 150.946C25.8724 150.625 25.6305 150.373 25.2957 150.19C24.961 150.005 24.5168 149.912 23.9633 149.912H21.7957V159H20.5628ZM28.9277 149.912V148.818H36.564V149.912H33.3623V159H32.1294V149.912H28.9277ZM45.6164 159H42.4744V148.818H45.7556C46.7433 148.818 47.5885 149.022 48.2912 149.43C48.9938 149.834 49.5324 150.416 49.9069 151.175C50.2815 151.93 50.4687 152.835 50.4687 153.889C50.4687 154.95 50.2798 155.863 49.902 156.629C49.5241 157.391 48.9739 157.978 48.2514 158.388C47.5288 158.796 46.6505 159 45.6164 159ZM43.7074 157.906H45.5369C46.3788 157.906 47.0764 157.744 47.6299 157.419C48.1834 157.094 48.5961 156.632 48.8679 156.032C49.1396 155.432 49.2755 154.718 49.2755 153.889C49.2755 153.067 49.1413 152.36 48.8728 151.766C48.6044 151.17 48.2033 150.712 47.6697 150.394C47.1361 150.073 46.4716 149.912 45.6761 149.912H43.7074V157.906ZM55.6145 159.159C54.8787 159.159 54.244 158.997 53.7104 158.672C53.1801 158.344 52.7708 157.886 52.4824 157.3C52.1974 156.71 52.0549 156.024 52.0549 155.241C52.0549 154.459 52.1974 153.77 52.4824 153.173C52.7708 152.573 53.1718 152.106 53.6855 151.771C54.2026 151.433 54.8058 151.264 55.4952 151.264C55.8929 151.264 56.2857 151.33 56.6735 151.463C57.0612 151.596 57.4142 151.811 57.7324 152.109C58.0506 152.404 58.3041 152.795 58.4931 153.283C58.682 153.77 58.7764 154.37 58.7764 155.082V155.58H52.8901V154.565H57.5833C57.5833 154.134 57.4971 153.75 57.3247 153.412C57.1557 153.074 56.9138 152.807 56.5989 152.612C56.2873 152.416 55.9194 152.318 55.4952 152.318C55.0279 152.318 54.6235 152.434 54.2821 152.666C53.9441 152.895 53.6839 153.193 53.5016 153.561C53.3193 153.929 53.2281 154.323 53.2281 154.744V155.42C53.2281 155.997 53.3276 156.486 53.5264 156.887C53.7286 157.285 54.0087 157.588 54.3666 157.797C54.7246 158.002 55.1406 158.105 55.6145 158.105C55.9228 158.105 56.2012 158.062 56.4497 157.976C56.7016 157.886 56.9187 157.754 57.101 157.578C57.2833 157.399 57.4242 157.177 57.5236 156.912L58.6571 157.23C58.5378 157.615 58.3373 157.953 58.0556 158.244C57.7738 158.533 57.4258 158.758 57.0115 158.92C56.5972 159.08 56.1316 159.159 55.6145 159.159ZM61.7695 148.818V159H60.5962V148.818H61.7695ZM67.0558 159.159C66.3399 159.159 65.7234 158.99 65.2064 158.652C64.6893 158.314 64.2916 157.848 64.0132 157.255C63.7348 156.662 63.5956 155.984 63.5956 155.222C63.5956 154.446 63.7381 153.762 64.0231 153.168C64.3115 152.572 64.7125 152.106 65.2262 151.771C65.7433 151.433 66.3465 151.264 67.0359 151.264C67.5728 151.264 68.0567 151.364 68.4876 151.562C68.9185 151.761 69.2715 152.04 69.5465 152.398C69.8216 152.756 69.9923 153.173 70.0586 153.651H68.8853C68.7958 153.303 68.597 152.994 68.2887 152.726C67.9838 152.454 67.5728 152.318 67.0558 152.318C66.5984 152.318 66.1974 152.437 65.8527 152.676C65.5113 152.911 65.2445 153.245 65.0522 153.675C64.8633 154.103 64.7689 154.605 64.7689 155.182C64.7689 155.772 64.8617 156.286 65.0473 156.723C65.2362 157.161 65.5013 157.5 65.8427 157.742C66.1874 157.984 66.5918 158.105 67.0558 158.105C67.3607 158.105 67.6375 158.052 67.886 157.946C68.1346 157.84 68.3451 157.688 68.5174 157.489C68.6898 157.29 68.8124 157.051 68.8853 156.773H70.0586C69.9923 157.223 69.8283 157.629 69.5664 157.991C69.3079 158.349 68.9649 158.634 68.5373 158.846C68.1131 159.055 67.6192 159.159 67.0558 159.159ZM74.9111 159.159C74.2217 159.159 73.6168 158.995 73.0965 158.667C72.5794 158.339 72.1751 157.88 71.8834 157.29C71.595 156.7 71.4509 156.01 71.4509 155.222C71.4509 154.426 71.595 153.732 71.8834 153.138C72.1751 152.545 72.5794 152.085 73.0965 151.756C73.6168 151.428 74.2217 151.264 74.9111 151.264C75.6005 151.264 76.2037 151.428 76.7208 151.756C77.2411 152.085 77.6455 152.545 77.9338 153.138C78.2255 153.732 78.3713 154.426 78.3713 155.222C78.3713 156.01 78.2255 156.7 77.9338 157.29C77.6455 157.88 77.2411 158.339 76.7208 158.667C76.2037 158.995 75.6005 159.159 74.9111 159.159ZM74.9111 158.105C75.4348 158.105 75.8656 157.971 76.2037 157.702C76.5418 157.434 76.792 157.081 76.9544 156.643C77.1168 156.206 77.198 155.732 77.198 155.222C77.198 154.711 77.1168 154.236 76.9544 153.795C76.792 153.354 76.5418 152.998 76.2037 152.726C75.8656 152.454 75.4348 152.318 74.9111 152.318C74.3874 152.318 73.9565 152.454 73.6185 152.726C73.2804 152.998 73.0302 153.354 72.8678 153.795C72.7054 154.236 72.6242 154.711 72.6242 155.222C72.6242 155.732 72.7054 156.206 72.8678 156.643C73.0302 157.081 73.2804 157.434 73.6185 157.702C73.9565 157.971 74.3874 158.105 74.9111 158.105ZM80.1973 159V151.364H81.3706V159H80.1973ZM80.7939 150.091C80.5652 150.091 80.368 150.013 80.2023 149.857C80.0399 149.701 79.9587 149.514 79.9587 149.295C79.9587 149.077 80.0399 148.889 80.2023 148.734C80.368 148.578 80.5652 148.5 80.7939 148.5C81.0226 148.5 81.2182 148.578 81.3806 148.734C81.5463 148.889 81.6292 149.077 81.6292 149.295C81.6292 149.514 81.5463 149.701 81.3806 149.857C81.2182 150.013 81.0226 150.091 80.7939 150.091ZM84.7279 154.406V159H83.5546V151.364H84.6881V152.557H84.7876C84.9665 152.169 85.2383 151.857 85.6029 151.622C85.9675 151.384 86.4381 151.264 87.0148 151.264C87.5319 151.264 87.9843 151.37 88.3721 151.582C88.7599 151.791 89.0615 152.109 89.2769 152.537C89.4923 152.961 89.6001 153.498 89.6001 154.148V159H88.4268V154.227C88.4268 153.627 88.271 153.16 87.9594 152.825C87.6479 152.487 87.2203 152.318 86.6768 152.318C86.3022 152.318 85.9675 152.399 85.6725 152.562C85.3808 152.724 85.1505 152.961 84.9814 153.273C84.8124 153.584 84.7279 153.962 84.7279 154.406Z" fill="black"/>
<path d="M234 77.5C249.597 78.7997 250.563 109.916 266 113.5C278.73 116.455 285.176 99.6804 298 101.5C311.91 103.474 316.361 120.954 330 125.5H234V77.5Z" fill="#FEF3F2"/>
<path d="M234 77.5C249.597 78.7997 250.563 109.916 266 113.5C278.73 116.455 285.176 99.6804 298 101.5C311.91 103.474 316.361 120.954 330 125.5H234V77.5Z" fill="url(#paint0_linear_298_655)"/>
<path d="M330 125.5C316.361 120.954 311.91 103.474 298 101.5C285.176 99.6804 278.73 116.455 266 113.5C250.563 109.916 249.597 78.7997 234 77.5" stroke="#F04438" stroke-width="2" stroke-linecap="round" stroke-linejoin="round"/>
<path fill-rule="evenodd" clip-rule="evenodd" d="M246 153.5C245.448 153.5 245 153.948 245 154.5C245 155.052 245.448 155.5 246 155.5H251C251.552 155.5 252 155.052 252 154.5V149.5C252 148.948 251.552 148.5 251 148.5C250.448 148.5 250 148.948 250 149.5V152.086L245.707 147.793C245.317 147.402 244.683 147.402 244.293 147.793L242 150.086L237.707 145.793C237.317 145.402 236.683 145.402 236.293 145.793C235.902 146.183 235.902 146.817 236.293 147.207L241.293 152.207C241.683 152.598 242.317 152.598 242.707 152.207L245 149.914L248.586 153.5H246Z" fill="#F32020"/>
<path d="M256.979 156.5V155.386L260.425 151.817C260.793 151.429 261.096 151.089 261.335 150.798C261.576 150.503 261.757 150.223 261.876 149.957C261.996 149.692 262.055 149.411 262.055 149.112C262.055 148.774 261.976 148.482 261.817 148.237C261.658 147.989 261.441 147.798 261.165 147.665C260.89 147.53 260.58 147.462 260.236 147.462C259.871 147.462 259.553 147.536 259.281 147.685C259.009 147.835 258.801 148.045 258.655 148.317C258.509 148.589 258.436 148.907 258.436 149.271H256.969C256.969 148.652 257.112 148.11 257.397 147.646C257.682 147.182 258.073 146.822 258.57 146.567C259.067 146.308 259.633 146.179 260.266 146.179C260.905 146.179 261.469 146.307 261.956 146.562C262.446 146.814 262.829 147.158 263.104 147.596C263.379 148.03 263.517 148.521 263.517 149.067C263.517 149.445 263.446 149.815 263.303 150.176C263.164 150.537 262.92 150.94 262.572 151.384C262.224 151.825 261.741 152.36 261.121 152.99L259.097 155.108V155.183H263.681V156.5H256.979ZM269.101 156.639C268.478 156.639 267.918 156.52 267.421 156.281C266.927 156.039 266.532 155.708 266.238 155.287C265.943 154.866 265.785 154.385 265.765 153.845H267.257C267.293 154.283 267.487 154.642 267.838 154.924C268.19 155.206 268.611 155.347 269.101 155.347C269.492 155.347 269.839 155.257 270.14 155.078C270.445 154.896 270.684 154.646 270.856 154.327C271.032 154.009 271.12 153.646 271.12 153.239C271.12 152.824 271.03 152.455 270.851 152.13C270.672 151.805 270.425 151.55 270.11 151.364C269.799 151.179 269.441 151.084 269.037 151.081C268.728 151.081 268.418 151.134 268.107 151.24C267.795 151.346 267.543 151.485 267.351 151.658L265.944 151.449L266.516 146.318H272.114V147.636H267.794L267.47 150.484H267.53C267.729 150.292 267.992 150.131 268.321 150.002C268.652 149.873 269.007 149.808 269.385 149.808C270.004 149.808 270.556 149.956 271.04 150.251C271.527 150.546 271.91 150.948 272.188 151.459C272.47 151.966 272.609 152.549 272.606 153.209C272.609 153.868 272.46 154.457 272.159 154.974C271.86 155.491 271.446 155.898 270.916 156.197C270.389 156.492 269.784 156.639 269.101 156.639ZM279.912 154.591V154.054C279.912 153.67 279.991 153.318 280.15 153C280.313 152.679 280.548 152.422 280.856 152.229C281.168 152.034 281.544 151.936 281.985 151.936C282.436 151.936 282.813 152.032 283.118 152.224C283.423 152.417 283.654 152.674 283.809 152.995C283.968 153.317 284.048 153.67 284.048 154.054V154.591C284.048 154.975 283.968 155.328 283.809 155.65C283.65 155.968 283.417 156.225 283.108 156.42C282.803 156.613 282.429 156.709 281.985 156.709C281.537 156.709 281.159 156.613 280.851 156.42C280.543 156.225 280.309 155.968 280.15 155.65C279.991 155.328 279.912 154.975 279.912 154.591ZM281.07 154.054V154.591C281.07 154.876 281.138 155.134 281.274 155.366C281.41 155.598 281.647 155.714 281.985 155.714C282.32 155.714 282.553 155.598 282.686 155.366C282.818 155.134 282.885 154.876 282.885 154.591V154.054C282.885 153.769 282.82 153.51 282.691 153.278C282.565 153.046 282.329 152.93 281.985 152.93C281.653 152.93 281.418 153.046 281.279 153.278C281.14 153.51 281.07 153.769 281.07 154.054ZM274.791 148.764V148.227C274.791 147.843 274.87 147.49 275.03 147.168C275.192 146.847 275.427 146.59 275.735 146.398C276.047 146.205 276.423 146.109 276.864 146.109C277.315 146.109 277.693 146.205 277.998 146.398C278.302 146.59 278.533 146.847 278.689 147.168C278.844 147.49 278.922 147.843 278.922 148.227V148.764C278.922 149.149 278.843 149.502 278.684 149.823C278.528 150.141 278.296 150.398 277.988 150.594C277.683 150.786 277.308 150.882 276.864 150.882C276.413 150.882 276.034 150.786 275.726 150.594C275.421 150.398 275.189 150.141 275.03 149.823C274.87 149.502 274.791 149.149 274.791 148.764ZM275.954 148.227V148.764C275.954 149.049 276.021 149.308 276.153 149.54C276.289 149.772 276.526 149.888 276.864 149.888C277.195 149.888 277.427 149.772 277.56 149.54C277.696 149.308 277.764 149.049 277.764 148.764V148.227C277.764 147.942 277.699 147.684 277.57 147.452C277.441 147.22 277.205 147.104 276.864 147.104C276.533 147.104 276.297 147.22 276.158 147.452C276.022 147.684 275.954 147.942 275.954 148.227ZM275.263 156.5L282.263 146.318H283.451L276.451 156.5H275.263Z" fill="#F32020"/>
</g>
<defs>
<filter id="filter0_d_298_655" x="0" y="0" width="363.5" height="193" filterUnits="userSpaceOnUse" color-interpolation-filters="sRGB">
<feFlood flood-opacity="0" result="BackgroundImageFix"/>
<feColorMatrix in="SourceAlpha" type="matrix" values="0 0 0 0 0 0 0 0 0 0 0 0 0 0 0 0 0 0 127 0" result="hardAlpha"/>
<feOffset dy="3"/>
<feGaussianBlur stdDeviation="5"/>
<feComposite in2="hardAlpha" operator="out"/>
<feColorMatrix type="matrix" values="0 0 0 0 0 0 0 0 0 0 0 0 0 0 0 0 0 0 0.12 0"/>
<feBlend mode="normal" in2="BackgroundImageFix" result="effect1_dropShadow_298_655"/>
<feBlend mode="normal" in="SourceGraphic" in2="effect1_dropShadow_298_655" result="shape"/>
</filter>
<linearGradient id="paint0_linear_298_655" x1="282" y1="77.5" x2="282" y2="125.5" gradientUnits="userSpaceOnUse">
<stop offset="0.641167" stop-color="white" stop-opacity="0"/>
<stop offset="1" stop-color="white"/>
</linearGradient>
</defs>
</svg>
