<svg width="435" height="487" viewBox="0 0 435 487" fill="none" xmlns="http://www.w3.org/2000/svg">
<path d="M1.56 25.6C1.56 23.8667 1.85333 22.1733 2.44 20.52C3.05333 18.84 3.93333 17.32 5.08 15.96C6.25333 14.5733 7.68 13.48 9.36 12.68C11.04 11.8533 12.9467 11.44 15.08 11.44C17.6133 11.44 19.7867 12.0267 21.6 13.2C23.4133 14.3467 24.76 15.8267 25.64 17.64L22.8 19.48C22.24 18.28 21.52 17.3333 20.64 16.64C19.7867 15.92 18.8533 15.4133 17.84 15.12C16.8533 14.8267 15.88 14.68 14.92 14.68C13.3467 14.68 11.9467 15 10.72 15.64C9.52 16.28 8.50667 17.1333 7.68 18.2C6.85333 19.2667 6.22667 20.4667 5.8 21.8C5.4 23.1067 5.2 24.4267 5.2 25.76C5.2 27.2267 5.44 28.64 5.92 30C6.42667 31.36 7.12 32.56 8 33.6C8.88 34.64 9.92 35.4667 11.12 36.08C12.32 36.6933 13.6267 37 15.04 37C16.0267 37 17.04 36.8267 18.08 36.48C19.12 36.1333 20.0933 35.6 21 34.88C21.9067 34.1333 22.6267 33.1733 23.16 32L26.16 33.64C25.5733 35.0533 24.6667 36.2533 23.44 37.24C22.2133 38.2267 20.84 38.9733 19.32 39.48C17.8267 39.9867 16.3467 40.24 14.88 40.24C12.9333 40.24 11.1467 39.8267 9.52 39C7.89333 38.1467 6.48 37.0267 5.28 35.64C4.10667 34.2267 3.18667 32.6533 2.52 30.92C1.88 29.16 1.56 27.3867 1.56 25.6ZM39.2256 40.4C37.6523 40.4 36.2256 40.12 34.9456 39.56C33.6656 38.9733 32.559 38.1867 31.6256 37.2C30.6923 36.1867 29.9723 35.0267 29.4656 33.72C28.959 32.4133 28.7056 31.04 28.7056 29.6C28.7056 28.1333 28.959 26.7467 29.4656 25.44C29.9723 24.1333 30.6923 22.9867 31.6256 22C32.559 20.9867 33.6656 20.2 34.9456 19.64C36.2523 19.0533 37.679 18.76 39.2256 18.76C40.799 18.76 42.2256 19.0533 43.5056 19.64C44.7856 20.2 45.8923 20.9867 46.8256 22C47.7856 22.9867 48.519 24.1333 49.0256 25.44C49.5323 26.7467 49.7856 28.1333 49.7856 29.6C49.7856 31.04 49.5323 32.4133 49.0256 33.72C48.519 35.0267 47.799 36.1867 46.8656 37.2C45.9323 38.1867 44.8123 38.9733 43.5056 39.56C42.2256 40.12 40.799 40.4 39.2256 40.4ZM32.3056 29.64C32.3056 31.08 32.6123 32.3867 33.2256 33.56C33.8656 34.7333 34.7056 35.6667 35.7456 36.36C36.7856 37.0267 37.9456 37.36 39.2256 37.36C40.5056 37.36 41.6656 37.0133 42.7056 36.32C43.7723 35.6267 44.6123 34.6933 45.2256 33.52C45.8656 32.32 46.1856 31 46.1856 29.56C46.1856 28.12 45.8656 26.8133 45.2256 25.64C44.6123 24.4667 43.7723 23.5333 42.7056 22.84C41.6656 22.1467 40.5056 21.8 39.2256 21.8C37.9456 21.8 36.7856 22.16 35.7456 22.88C34.7056 23.5733 33.8656 24.5067 33.2256 25.68C32.6123 26.8533 32.3056 28.1733 32.3056 29.64ZM54.1309 10.8H57.6509V34.6C57.6509 35.7467 57.8109 36.4533 58.1309 36.72C58.4509 36.9867 58.8376 37.12 59.2909 37.12C59.8509 37.12 60.3843 37.0667 60.8909 36.96C61.3976 36.8267 61.8243 36.6933 62.1709 36.56L62.7309 39.44C62.1443 39.68 61.4509 39.88 60.6509 40.04C59.8509 40.2 59.1443 40.28 58.5309 40.28C57.1709 40.28 56.0909 39.8933 55.2909 39.12C54.5176 38.3467 54.1309 37.2667 54.1309 35.88V10.8ZM74.6163 40.4C73.0429 40.4 71.6163 40.12 70.3363 39.56C69.0563 38.9733 67.9496 38.1867 67.0163 37.2C66.0829 36.1867 65.3629 35.0267 64.8563 33.72C64.3496 32.4133 64.0963 31.04 64.0963 29.6C64.0963 28.1333 64.3496 26.7467 64.8563 25.44C65.3629 24.1333 66.0829 22.9867 67.0163 22C67.9496 20.9867 69.0563 20.2 70.3363 19.64C71.6429 19.0533 73.0696 18.76 74.6163 18.76C76.1896 18.76 77.6163 19.0533 78.8963 19.64C80.1763 20.2 81.2829 20.9867 82.2163 22C83.1763 22.9867 83.9096 24.1333 84.4163 25.44C84.9229 26.7467 85.1763 28.1333 85.1763 29.6C85.1763 31.04 84.9229 32.4133 84.4163 33.72C83.9096 35.0267 83.1896 36.1867 82.2563 37.2C81.3229 38.1867 80.2029 38.9733 78.8963 39.56C77.6163 40.12 76.1896 40.4 74.6163 40.4ZM67.6963 29.64C67.6963 31.08 68.0029 32.3867 68.6163 33.56C69.2563 34.7333 70.0963 35.6667 71.1363 36.36C72.1763 37.0267 73.3363 37.36 74.6163 37.36C75.8963 37.36 77.0563 37.0133 78.0963 36.32C79.1629 35.6267 80.0029 34.6933 80.6163 33.52C81.2563 32.32 81.5763 31 81.5763 29.56C81.5763 28.12 81.2563 26.8133 80.6163 25.64C80.0029 24.4667 79.1629 23.5333 78.0963 22.84C77.0563 22.1467 75.8963 21.8 74.6163 21.8C73.3363 21.8 72.1763 22.16 71.1363 22.88C70.0963 23.5733 69.2563 24.5067 68.6163 25.68C68.0029 26.8533 67.6963 28.1733 67.6963 29.64ZM100.482 22.2C98.7216 22.2267 97.1616 22.68 95.8016 23.56C94.4682 24.4133 93.5216 25.6 92.9616 27.12V40H89.4416V19.12H92.7216V23.96C93.4416 22.52 94.3882 21.36 95.5616 20.48C96.7616 19.5733 98.0149 19.0667 99.3216 18.96C99.5882 18.96 99.8149 18.96 100.002 18.96C100.188 18.96 100.348 18.9733 100.482 19V22.2ZM111.133 40.4C109.399 40.4 107.773 40.12 106.253 39.56C104.733 38.9733 103.426 38.1067 102.333 36.96L103.693 34.48C104.893 35.6 106.093 36.4 107.293 36.88C108.493 37.36 109.719 37.6 110.973 37.6C112.413 37.6 113.586 37.3333 114.493 36.8C115.399 36.24 115.853 35.4267 115.853 34.36C115.853 33.5867 115.613 33.0133 115.133 32.64C114.679 32.2667 114.026 31.96 113.173 31.72C112.319 31.4533 111.306 31.16 110.133 30.84C108.693 30.4133 107.479 29.96 106.493 29.48C105.506 29 104.759 28.4 104.253 27.68C103.746 26.96 103.493 26.0533 103.493 24.96C103.493 23.6267 103.839 22.5067 104.533 21.6C105.226 20.6667 106.173 19.96 107.373 19.48C108.599 19 109.986 18.76 111.533 18.76C113.079 18.76 114.479 19 115.733 19.48C116.986 19.96 118.066 20.6667 118.973 21.6L117.373 24.04C116.546 23.1867 115.639 22.56 114.653 22.16C113.666 21.7333 112.559 21.52 111.333 21.52C110.613 21.52 109.906 21.6133 109.213 21.8C108.519 21.96 107.946 22.2667 107.493 22.72C107.039 23.1467 106.813 23.76 106.813 24.56C106.813 25.2267 106.986 25.76 107.333 26.16C107.706 26.5333 108.239 26.8533 108.933 27.12C109.653 27.3867 110.519 27.68 111.533 28C113.106 28.4533 114.466 28.9067 115.613 29.36C116.786 29.8133 117.693 30.4 118.333 31.12C118.973 31.84 119.293 32.84 119.293 34.12C119.293 36.0933 118.546 37.64 117.053 38.76C115.559 39.8533 113.586 40.4 111.133 40.4ZM145.581 40.2C143.715 40.2 141.968 39.8 140.341 39C138.741 38.1733 137.341 37.08 136.141 35.72C134.941 34.3333 134.008 32.7867 133.341 31.08C132.675 29.3467 132.341 27.56 132.341 25.72C132.341 23.8 132.675 21.9867 133.341 20.28C134.008 18.5467 134.928 17.0133 136.101 15.68C137.301 14.3467 138.701 13.3067 140.301 12.56C141.928 11.7867 143.688 11.4 145.581 11.4C148.328 11.4 150.595 11.9733 152.381 13.12C154.168 14.2667 155.515 15.76 156.421 17.6L153.661 19.52C152.835 17.8667 151.701 16.64 150.261 15.84C148.821 15.04 147.235 14.64 145.501 14.64C144.061 14.64 142.755 14.9467 141.581 15.56C140.408 16.1733 139.395 17.0133 138.541 18.08C137.715 19.12 137.075 20.3067 136.621 21.64C136.195 22.9733 135.981 24.36 135.981 25.8C135.981 27.32 136.221 28.76 136.701 30.12C137.208 31.4533 137.915 32.64 138.821 33.68C139.728 34.6933 140.781 35.4933 141.981 36.08C143.181 36.6667 144.475 36.96 145.861 36.96C147.488 36.96 149.035 36.5467 150.501 35.72C151.968 34.8933 153.355 33.6267 154.661 31.92V35.64C152.101 38.68 149.075 40.2 145.581 40.2ZM154.221 28.56H148.101V25.84H157.261V40H154.221V28.56ZM161.976 31.64V19.12H165.496V30.96C165.496 33.0933 165.869 34.6933 166.616 35.76C167.363 36.8267 168.469 37.36 169.936 37.36C170.896 37.36 171.816 37.16 172.696 36.76C173.603 36.3333 174.416 35.7333 175.136 34.96C175.856 34.1867 176.416 33.2667 176.816 32.2V19.12H180.336V36C180.336 36.4267 180.416 36.7467 180.576 36.96C180.763 37.1467 181.056 37.2533 181.456 37.28V40C181.056 40.0533 180.736 40.08 180.496 40.08C180.283 40.1067 180.069 40.12 179.856 40.12C179.189 40.12 178.616 39.92 178.136 39.52C177.656 39.0933 177.403 38.5733 177.376 37.96L177.296 35.52C176.389 37.0667 175.163 38.2667 173.616 39.12C172.096 39.9733 170.429 40.4 168.616 40.4C166.429 40.4 164.776 39.6667 163.656 38.2C162.536 36.7067 161.976 34.52 161.976 31.64ZM186.199 40V19.12H189.719V40H186.199ZM186.199 15.2V10.8H189.719V15.2H186.199ZM194.058 29.6C194.058 27.6267 194.458 25.8267 195.258 24.2C196.085 22.5467 197.205 21.2267 198.618 20.24C200.058 19.2533 201.698 18.76 203.538 18.76C205.218 18.76 206.725 19.2 208.058 20.08C209.391 20.96 210.431 22.0267 211.178 23.28V10.8H214.698V36C214.698 36.4267 214.778 36.7467 214.938 36.96C215.125 37.1467 215.418 37.2533 215.818 37.28V40C215.151 40.1067 214.631 40.16 214.258 40.16C213.565 40.16 212.951 39.92 212.418 39.44C211.911 38.96 211.658 38.4267 211.658 37.84V36.08C210.831 37.4133 209.725 38.4667 208.338 39.24C206.951 40.0133 205.511 40.4 204.018 40.4C202.578 40.4 201.245 40.12 200.018 39.56C198.818 38.9733 197.765 38.1733 196.858 37.16C195.978 36.1467 195.285 35 194.778 33.72C194.298 32.4133 194.058 31.04 194.058 29.6ZM211.178 32.68V26.68C210.858 25.7733 210.338 24.96 209.618 24.24C208.898 23.4933 208.085 22.9067 207.178 22.48C206.298 22.0267 205.418 21.8 204.538 21.8C203.498 21.8 202.551 22.0267 201.698 22.48C200.871 22.9067 200.151 23.4933 199.538 24.24C198.951 24.96 198.498 25.7867 198.178 26.72C197.858 27.6533 197.698 28.6267 197.698 29.64C197.698 30.68 197.871 31.6667 198.218 32.6C198.591 33.5333 199.098 34.36 199.738 35.08C200.405 35.8 201.165 36.36 202.018 36.76C202.898 37.16 203.845 37.36 204.858 37.36C205.498 37.36 206.151 37.24 206.818 37C207.511 36.76 208.165 36.4267 208.778 36C209.391 35.5733 209.911 35.08 210.338 34.52C210.765 33.9333 211.045 33.32 211.178 32.68ZM229.814 40.4C228.241 40.4 226.801 40.12 225.494 39.56C224.214 38.9733 223.094 38.1867 222.134 37.2C221.201 36.1867 220.468 35.0267 219.934 33.72C219.428 32.4133 219.174 31.0267 219.174 29.56C219.174 27.5867 219.628 25.7867 220.534 24.16C221.441 22.5333 222.694 21.2267 224.294 20.24C225.921 19.2533 227.774 18.76 229.854 18.76C231.961 18.76 233.788 19.2667 235.334 20.28C236.908 21.2667 238.121 22.5733 238.974 24.2C239.854 25.8 240.294 27.5333 240.294 29.4C240.294 29.6667 240.281 29.9333 240.254 30.2C240.254 30.44 240.241 30.6267 240.214 30.76H222.894C223.001 32.12 223.374 33.3333 224.014 34.4C224.681 35.44 225.534 36.2667 226.574 36.88C227.614 37.4667 228.734 37.76 229.934 37.76C231.214 37.76 232.414 37.44 233.534 36.8C234.681 36.16 235.468 35.32 235.894 34.28L238.934 35.12C238.481 36.1333 237.801 37.04 236.894 37.84C236.014 38.64 234.961 39.2667 233.734 39.72C232.534 40.1733 231.228 40.4 229.814 40.4ZM222.774 28.32H237.014C236.908 26.96 236.521 25.76 235.854 24.72C235.188 23.68 234.334 22.8667 233.294 22.28C232.254 21.6933 231.108 21.4 229.854 21.4C228.628 21.4 227.494 21.6933 226.454 22.28C225.414 22.8667 224.561 23.68 223.894 24.72C223.254 25.76 222.881 26.96 222.774 28.32Z" fill="#0A0A0A"/>
<path d="M42.984 107.64H25.344V153H18.864V107.64H1.224V101.88H42.984V107.64ZM57.5949 153.72C54.7629 153.72 52.1709 153.216 49.8189 152.208C47.5149 151.152 45.4989 149.736 43.7709 147.96C42.0909 146.136 40.7709 144.048 39.8109 141.696C38.8989 139.344 38.4429 136.848 38.4429 134.208C38.4429 130.656 39.2589 127.416 40.8909 124.488C42.5229 121.56 44.7789 119.208 47.6589 117.432C50.5869 115.656 53.9229 114.768 57.6669 114.768C61.4589 114.768 64.7469 115.68 67.5309 117.504C70.3629 119.28 72.5469 121.632 74.0829 124.56C75.6669 127.44 76.4589 130.56 76.4589 133.92C76.4589 134.4 76.4349 134.88 76.3869 135.36C76.3869 135.792 76.3629 136.128 76.3149 136.368H45.1389C45.3309 138.816 46.0029 141 47.1549 142.92C48.3549 144.792 49.8909 146.28 51.7629 147.384C53.6349 148.44 55.6509 148.968 57.8109 148.968C60.1149 148.968 62.2749 148.392 64.2909 147.24C66.3549 146.088 67.7709 144.576 68.5389 142.704L74.0109 144.216C73.1949 146.04 71.9709 147.672 70.3389 149.112C68.7549 150.552 66.8589 151.68 64.6509 152.496C62.4909 153.312 60.1389 153.72 57.5949 153.72ZM44.9229 131.976H70.5549C70.3629 129.528 69.6669 127.368 68.4669 125.496C67.2669 123.624 65.7309 122.16 63.8589 121.104C61.9869 120.048 59.9229 119.52 57.6669 119.52C55.4589 119.52 53.4189 120.048 51.5469 121.104C49.6749 122.16 48.1389 123.624 46.9389 125.496C45.7869 127.368 45.1149 129.528 44.9229 131.976ZM102.23 151.128C101.702 151.368 100.982 151.68 100.07 152.064C99.1584 152.448 98.1024 152.784 96.9024 153.072C95.7024 153.36 94.4304 153.504 93.0864 153.504C91.5504 153.504 90.1344 153.24 88.8384 152.712C87.5424 152.136 86.5104 151.272 85.7424 150.12C84.9744 148.92 84.5904 147.432 84.5904 145.656V120.384H79.4784V115.416H84.5904V102.888H90.9264V115.416H99.3504V120.384H90.9264V143.712C91.0224 145.056 91.4784 146.064 92.2944 146.736C93.1104 147.36 94.0704 147.672 95.1744 147.672C96.4224 147.672 97.5744 147.456 98.6304 147.024C99.6864 146.592 100.382 146.28 100.718 146.088L102.23 151.128ZM127.615 120.96C124.447 121.008 121.639 121.824 119.191 123.408C116.791 124.944 115.087 127.08 114.079 129.816V153H107.743V115.416H113.647V124.128C114.943 121.536 116.647 119.448 118.759 117.864C120.919 116.232 123.175 115.32 125.527 115.128C126.007 115.128 126.415 115.128 126.751 115.128C127.087 115.128 127.375 115.152 127.615 115.2V120.96ZM133.539 153V115.416H139.875V153H133.539ZM133.539 108.36V100.44H139.875V108.36H133.539ZM146.821 142.128C146.821 139.728 147.493 137.664 148.837 135.936C150.229 134.16 152.125 132.792 154.525 131.832C156.925 130.872 159.709 130.392 162.877 130.392C164.557 130.392 166.333 130.536 168.205 130.824C170.077 131.064 171.733 131.448 173.173 131.976V129.24C173.173 126.36 172.309 124.104 170.581 122.472C168.853 120.792 166.405 119.952 163.237 119.952C161.173 119.952 159.181 120.336 157.261 121.104C155.389 121.824 153.397 122.88 151.285 124.272L148.981 119.808C151.429 118.128 153.877 116.88 156.325 116.064C158.773 115.2 161.317 114.768 163.957 114.768C168.757 114.768 172.549 116.112 175.333 118.8C178.117 121.44 179.509 125.136 179.509 129.888V145.8C179.509 146.568 179.653 147.144 179.941 147.528C180.277 147.864 180.805 148.056 181.525 148.104V153C180.901 153.096 180.349 153.168 179.869 153.216C179.437 153.264 179.077 153.288 178.789 153.288C177.301 153.288 176.173 152.88 175.405 152.064C174.685 151.248 174.277 150.384 174.181 149.472L174.037 147.096C172.405 149.208 170.269 150.84 167.629 151.992C164.989 153.144 162.373 153.72 159.781 153.72C157.285 153.72 155.053 153.216 153.085 152.208C151.117 151.152 149.581 149.76 148.477 148.032C147.373 146.256 146.821 144.288 146.821 142.128ZM171.301 144.792C171.877 144.12 172.333 143.448 172.669 142.776C173.005 142.056 173.173 141.456 173.173 140.976V136.296C171.685 135.72 170.125 135.288 168.493 135C166.861 134.664 165.253 134.496 163.669 134.496C160.453 134.496 157.837 135.144 155.821 136.44C153.853 137.688 152.869 139.416 152.869 141.624C152.869 142.824 153.181 144 153.805 145.152C154.477 146.256 155.437 147.168 156.685 147.888C157.981 148.608 159.565 148.968 161.437 148.968C163.405 148.968 165.277 148.584 167.053 147.816C168.829 147 170.245 145.992 171.301 144.792ZM186.832 134.28C186.832 130.728 187.552 127.488 188.992 124.56C190.48 121.584 192.496 119.208 195.04 117.432C197.632 115.656 200.584 114.768 203.896 114.768C206.92 114.768 209.632 115.56 212.032 117.144C214.432 118.728 216.304 120.648 217.648 122.904V100.44H223.984V145.8C223.984 146.568 224.128 147.144 224.416 147.528C224.752 147.864 225.28 148.056 226 148.104V153C224.8 153.192 223.864 153.288 223.192 153.288C221.944 153.288 220.84 152.856 219.88 151.992C218.968 151.128 218.512 150.168 218.512 149.112V145.944C217.024 148.344 215.032 150.24 212.536 151.632C210.04 153.024 207.448 153.72 204.76 153.72C202.168 153.72 199.768 153.216 197.56 152.208C195.4 151.152 193.504 149.712 191.872 147.888C190.288 146.064 189.04 144 188.128 141.696C187.264 139.344 186.832 136.872 186.832 134.28ZM217.648 139.824V129.024C217.072 127.392 216.136 125.928 214.84 124.632C213.544 123.288 212.08 122.232 210.448 121.464C208.864 120.648 207.28 120.24 205.696 120.24C203.824 120.24 202.12 120.648 200.584 121.464C199.096 122.232 197.8 123.288 196.696 124.632C195.64 125.928 194.824 127.416 194.248 129.096C193.672 130.776 193.384 132.528 193.384 134.352C193.384 136.224 193.696 138 194.32 139.68C194.992 141.36 195.904 142.848 197.056 144.144C198.256 145.44 199.624 146.448 201.16 147.168C202.744 147.888 204.448 148.248 206.272 148.248C207.424 148.248 208.6 148.032 209.8 147.6C211.048 147.168 212.224 146.568 213.328 145.8C214.432 145.032 215.368 144.144 216.136 143.136C216.904 142.08 217.408 140.976 217.648 139.824ZM234.201 153V115.416H240.537V153H234.201ZM234.201 108.36V100.44H240.537V108.36H234.201ZM267.067 153.72C264.235 153.72 261.643 153.216 259.291 152.208C256.987 151.152 254.971 149.712 253.243 147.888C251.563 146.064 250.243 143.976 249.283 141.624C248.371 139.272 247.915 136.776 247.915 134.136C247.915 130.584 248.707 127.344 250.291 124.416C251.875 121.488 254.107 119.16 256.987 117.432C259.867 115.656 263.203 114.768 266.995 114.768C270.691 114.768 273.907 115.608 276.643 117.288C279.427 118.92 281.491 121.128 282.835 123.912L276.643 125.856C275.683 124.08 274.339 122.712 272.611 121.752C270.883 120.744 268.963 120.24 266.851 120.24C264.547 120.24 262.435 120.84 260.515 122.04C258.643 123.24 257.155 124.896 256.051 127.008C254.947 129.072 254.395 131.448 254.395 134.136C254.395 136.776 254.947 139.176 256.051 141.336C257.203 143.448 258.715 145.128 260.587 146.376C262.507 147.624 264.619 148.248 266.923 148.248C268.411 148.248 269.827 147.984 271.171 147.456C272.563 146.928 273.763 146.232 274.771 145.368C275.827 144.456 276.547 143.472 276.931 142.416L283.123 144.288C282.355 146.112 281.179 147.744 279.595 149.184C278.059 150.576 276.211 151.68 274.051 152.496C271.939 153.312 269.611 153.72 267.067 153.72Z" fill="black"/>
<rect y="192" width="435" height="74" fill="#2094F3"/>
<path d="M40.6 221.16L37.96 237H36.328L38.968 221.16H40.6ZM41.8 231.096V232.56H28.48V231.096H41.8ZM34.984 221.16L32.344 237H30.712L33.352 221.16H34.984ZM42.856 225.576V227.04H29.536V225.576H42.856ZM45.1761 237V235.44C46.7601 234.272 48.0801 233.248 49.1361 232.368C50.2081 231.488 51.0641 230.688 51.7041 229.968C52.3441 229.248 52.8001 228.568 53.0721 227.928C53.3441 227.272 53.4801 226.592 53.4801 225.888C53.4801 224.944 53.1761 224.184 52.5681 223.608C51.9761 223.016 51.1601 222.72 50.1201 222.72C49.0321 222.72 48.1601 223.08 47.5041 223.8C46.8481 224.504 46.4641 225.448 46.3521 226.632L44.6721 225.624C44.8161 224.696 45.1121 223.88 45.5601 223.176C46.0241 222.472 46.6401 221.92 47.4081 221.52C48.1921 221.12 49.1201 220.92 50.1921 220.92C51.0081 220.92 51.7361 221.04 52.3761 221.28C53.0321 221.52 53.5921 221.864 54.0561 222.312C54.5201 222.744 54.8721 223.264 55.1121 223.872C55.3681 224.48 55.4961 225.152 55.4961 225.888C55.4961 226.88 55.2561 227.856 54.7761 228.816C54.2961 229.76 53.5041 230.752 52.4001 231.792C51.2961 232.832 49.8001 233.984 47.9121 235.248V235.272C48.0881 235.256 48.3281 235.248 48.6321 235.248C48.9521 235.232 49.2641 235.224 49.5681 235.224C49.8881 235.208 50.1281 235.2 50.2881 235.2H55.8321V237H45.1761ZM64.9283 237.24C63.1363 237.24 61.7043 236.544 60.6323 235.152C59.5603 233.76 59.0243 231.736 59.0243 229.08C59.0243 226.424 59.5603 224.4 60.6323 223.008C61.7043 221.616 63.1363 220.92 64.9283 220.92C66.7363 220.92 68.1683 221.616 69.2243 223.008C70.2963 224.4 70.8323 226.424 70.8323 229.08C70.8323 231.736 70.2963 233.76 69.2243 235.152C68.1683 236.544 66.7363 237.24 64.9283 237.24ZM64.9283 235.512C65.7763 235.512 66.4883 235.272 67.0643 234.792C67.6563 234.296 68.0963 233.568 68.3843 232.608C68.6883 231.648 68.8403 230.472 68.8403 229.08C68.8403 227.688 68.6883 226.512 68.3843 225.552C68.0963 224.592 67.6563 223.872 67.0643 223.392C66.4883 222.896 65.7763 222.648 64.9283 222.648C64.0803 222.648 63.3603 222.896 62.7683 223.392C62.1923 223.872 61.7523 224.592 61.4483 225.552C61.1603 226.512 61.0163 227.688 61.0163 229.08C61.0163 230.472 61.1603 231.648 61.4483 232.608C61.7523 233.568 62.1923 234.296 62.7683 234.792C63.3603 235.272 64.0803 235.512 64.9283 235.512ZM79.594 220.92C80.922 220.92 82.042 221.272 82.954 221.976C83.866 222.664 84.554 223.624 85.018 224.856C85.482 226.072 85.714 227.48 85.714 229.08C85.714 230.856 85.482 232.352 85.018 233.568C84.554 234.768 83.866 235.68 82.954 236.304C82.058 236.928 80.946 237.24 79.618 237.24C78.306 237.24 77.178 236.936 76.234 236.328C75.29 235.72 74.586 234.832 74.122 233.664L76.018 232.656C76.274 233.488 76.69 234.16 77.266 234.672C77.858 235.184 78.666 235.44 79.69 235.44C80.522 235.44 81.21 235.28 81.754 234.96C82.314 234.624 82.754 234.152 83.074 233.544C83.394 232.92 83.618 232.176 83.746 231.312C83.89 230.448 83.962 229.488 83.962 228.432C83.962 228.4 83.962 228.368 83.962 228.336C83.962 228.288 83.962 228.248 83.962 228.216H83.866C83.674 228.936 83.338 229.52 82.858 229.968C82.378 230.4 81.834 230.712 81.226 230.904C80.634 231.096 80.042 231.192 79.45 231.192C78.41 231.192 77.49 230.992 76.69 230.592C75.89 230.176 75.266 229.6 74.818 228.864C74.37 228.128 74.146 227.256 74.146 226.248C74.146 225.16 74.362 224.224 74.794 223.44C75.226 222.64 75.85 222.024 76.666 221.592C77.482 221.144 78.458 220.92 79.594 220.92ZM79.618 222.768C78.498 222.768 77.642 223.08 77.05 223.704C76.458 224.312 76.162 225.168 76.162 226.272C76.162 227.216 76.474 227.968 77.098 228.528C77.722 229.072 78.562 229.344 79.618 229.344C80.306 229.344 80.906 229.208 81.418 228.936C81.946 228.648 82.354 228.264 82.642 227.784C82.93 227.288 83.074 226.72 83.074 226.08C83.074 225.408 82.93 224.824 82.642 224.328C82.354 223.832 81.946 223.448 81.418 223.176C80.906 222.904 80.306 222.768 79.618 222.768ZM96.1345 237V232.848H88.4065V231.432L95.6305 221.16H98.0545V231.192H100.862V232.848H98.0545V237H96.1345ZM90.4465 231.192H96.1345V225.264C96.1345 224.848 96.1425 224.424 96.1585 223.992C96.1905 223.56 96.2145 223.136 96.2305 222.72H96.1825C95.9905 223.12 95.7425 223.568 95.4385 224.064C95.1345 224.56 94.8545 224.992 94.5985 225.36L90.4465 231.192ZM115.774 222.96H106.606V228.072H113.758V229.872H106.606V237H104.686V221.16H115.774V222.96ZM123.775 237.24C122.367 237.24 121.119 236.912 120.031 236.256C118.959 235.584 118.231 234.664 117.847 233.496L119.767 232.512C119.959 233.104 120.223 233.624 120.559 234.072C120.895 234.504 121.335 234.84 121.879 235.08C122.439 235.32 123.135 235.44 123.967 235.44C124.671 235.44 125.263 235.312 125.743 235.056C126.223 234.8 126.591 234.456 126.847 234.024C127.103 233.576 127.231 233.064 127.231 232.488C127.231 231.912 127.119 231.432 126.895 231.048C126.687 230.664 126.351 230.384 125.887 230.208C125.423 230.016 124.815 229.92 124.063 229.92C123.887 229.92 123.695 229.928 123.487 229.944C123.279 229.944 123.063 229.96 122.839 229.992V228.072C122.983 228.088 123.119 228.096 123.247 228.096C123.391 228.096 123.519 228.096 123.631 228.096C124.799 228.096 125.631 227.872 126.127 227.424C126.623 226.96 126.871 226.24 126.871 225.264C126.871 224.432 126.615 223.8 126.103 223.368C125.591 222.936 124.863 222.72 123.919 222.72C122.911 222.72 122.143 222.944 121.615 223.392C121.087 223.824 120.671 224.416 120.367 225.168L118.543 224.304C118.799 223.632 119.183 223.04 119.695 222.528C120.207 222.016 120.823 221.616 121.543 221.328C122.279 221.04 123.087 220.896 123.967 220.896C125.071 220.896 125.983 221.088 126.703 221.472C127.423 221.84 127.959 222.336 128.311 222.96C128.679 223.584 128.863 224.272 128.863 225.024C128.863 225.6 128.783 226.12 128.623 226.584C128.463 227.032 128.239 227.424 127.951 227.76C127.679 228.096 127.367 228.368 127.015 228.576C126.663 228.768 126.287 228.896 125.887 228.96V229.008C126.415 229.024 126.879 229.128 127.279 229.32C127.695 229.512 128.047 229.768 128.335 230.088C128.623 230.408 128.839 230.776 128.983 231.192C129.143 231.592 129.223 232.016 129.223 232.464C129.223 233.392 128.991 234.216 128.527 234.936C128.079 235.656 127.447 236.224 126.631 236.64C125.815 237.04 124.863 237.24 123.775 237.24Z" fill="white"/>
<rect y="266" width="435" height="74" fill="#F32020"/>
<path d="M40.6 295.16L37.96 311H36.328L38.968 295.16H40.6ZM41.8 305.096V306.56H28.48V305.096H41.8ZM34.984 295.16L32.344 311H30.712L33.352 295.16H34.984ZM42.856 299.576V301.04H29.536V299.576H42.856ZM57.0801 296.96H47.9121V302.072H55.0641V303.872H47.9121V311H45.9921V295.16H57.0801V296.96ZM65.0806 311.24C63.6726 311.24 62.4246 310.912 61.3366 310.256C60.2646 309.584 59.5366 308.664 59.1526 307.496L61.0726 306.512C61.2646 307.104 61.5286 307.624 61.8646 308.072C62.2006 308.504 62.6406 308.84 63.1846 309.08C63.7446 309.32 64.4406 309.44 65.2726 309.44C65.9766 309.44 66.5686 309.312 67.0486 309.056C67.5286 308.8 67.8966 308.456 68.1526 308.024C68.4086 307.576 68.5366 307.064 68.5366 306.488C68.5366 305.912 68.4246 305.432 68.2006 305.048C67.9926 304.664 67.6566 304.384 67.1926 304.208C66.7286 304.016 66.1206 303.92 65.3686 303.92C65.1926 303.92 65.0006 303.928 64.7926 303.944C64.5846 303.944 64.3686 303.96 64.1446 303.992V302.072C64.2886 302.088 64.4246 302.096 64.5526 302.096C64.6966 302.096 64.8246 302.096 64.9366 302.096C66.1046 302.096 66.9366 301.872 67.4326 301.424C67.9286 300.96 68.1766 300.24 68.1766 299.264C68.1766 298.432 67.9206 297.8 67.4086 297.368C66.8966 296.936 66.1686 296.72 65.2246 296.72C64.2166 296.72 63.4486 296.944 62.9206 297.392C62.3926 297.824 61.9766 298.416 61.6726 299.168L59.8486 298.304C60.1046 297.632 60.4886 297.04 61.0006 296.528C61.5126 296.016 62.1286 295.616 62.8486 295.328C63.5846 295.04 64.3926 294.896 65.2726 294.896C66.3766 294.896 67.2886 295.088 68.0086 295.472C68.7286 295.84 69.2646 296.336 69.6166 296.96C69.9846 297.584 70.1686 298.272 70.1686 299.024C70.1686 299.6 70.0886 300.12 69.9286 300.584C69.7686 301.032 69.5446 301.424 69.2566 301.76C68.9846 302.096 68.6726 302.368 68.3206 302.576C67.9686 302.768 67.5926 302.896 67.1926 302.96V303.008C67.7206 303.024 68.1846 303.128 68.5846 303.32C69.0006 303.512 69.3526 303.768 69.6406 304.088C69.9286 304.408 70.1446 304.776 70.2886 305.192C70.4486 305.592 70.5286 306.016 70.5286 306.464C70.5286 307.392 70.2966 308.216 69.8326 308.936C69.3846 309.656 68.7526 310.224 67.9366 310.64C67.1206 311.04 66.1686 311.24 65.0806 311.24ZM73.9607 311V309.44C75.5447 308.272 76.8647 307.248 77.9207 306.368C78.9928 305.488 79.8488 304.688 80.4887 303.968C81.1287 303.248 81.5847 302.568 81.8568 301.928C82.1288 301.272 82.2648 300.592 82.2648 299.888C82.2648 298.944 81.9608 298.184 81.3528 297.608C80.7608 297.016 79.9448 296.72 78.9047 296.72C77.8167 296.72 76.9447 297.08 76.2887 297.8C75.6327 298.504 75.2487 299.448 75.1367 300.632L73.4567 299.624C73.6007 298.696 73.8967 297.88 74.3447 297.176C74.8087 296.472 75.4247 295.92 76.1927 295.52C76.9767 295.12 77.9047 294.92 78.9768 294.92C79.7928 294.92 80.5208 295.04 81.1607 295.28C81.8168 295.52 82.3768 295.864 82.8408 296.312C83.3048 296.744 83.6568 297.264 83.8968 297.872C84.1528 298.48 84.2807 299.152 84.2807 299.888C84.2807 300.88 84.0408 301.856 83.5608 302.816C83.0808 303.76 82.2888 304.752 81.1848 305.792C80.0808 306.832 78.5848 307.984 76.6967 309.248V309.272C76.8727 309.256 77.1127 309.248 77.4167 309.248C77.7367 309.232 78.0487 309.224 78.3527 309.224C78.6727 309.208 78.9127 309.2 79.0727 309.2H84.6167V311H73.9607ZM93.7129 311.24C91.9209 311.24 90.4889 310.544 89.4169 309.152C88.3449 307.76 87.8089 305.736 87.8089 303.08C87.8089 300.424 88.3449 298.4 89.4169 297.008C90.4889 295.616 91.9209 294.92 93.7129 294.92C95.5209 294.92 96.9529 295.616 98.0089 297.008C99.0809 298.4 99.6169 300.424 99.6169 303.08C99.6169 305.736 99.0809 307.76 98.0089 309.152C96.9529 310.544 95.5209 311.24 93.7129 311.24ZM93.7129 309.512C94.5609 309.512 95.2729 309.272 95.8489 308.792C96.4409 308.296 96.8809 307.568 97.1689 306.608C97.4729 305.648 97.6249 304.472 97.6249 303.08C97.6249 301.688 97.4729 300.512 97.1689 299.552C96.8809 298.592 96.4409 297.872 95.8489 297.392C95.2729 296.896 94.5609 296.648 93.7129 296.648C92.8649 296.648 92.1449 296.896 91.5529 297.392C90.9769 297.872 90.5369 298.592 90.2329 299.552C89.9449 300.512 89.8009 301.688 89.8009 303.08C89.8009 304.472 89.9449 305.648 90.2329 306.608C90.5369 307.568 90.9769 308.296 91.5529 308.792C92.1449 309.272 92.8649 309.512 93.7129 309.512ZM103.027 311V309.44C104.611 308.272 105.931 307.248 106.987 306.368C108.059 305.488 108.915 304.688 109.555 303.968C110.195 303.248 110.651 302.568 110.923 301.928C111.195 301.272 111.331 300.592 111.331 299.888C111.331 298.944 111.027 298.184 110.419 297.608C109.827 297.016 109.011 296.72 107.971 296.72C106.883 296.72 106.011 297.08 105.355 297.8C104.699 298.504 104.315 299.448 104.203 300.632L102.523 299.624C102.667 298.696 102.963 297.88 103.411 297.176C103.875 296.472 104.491 295.92 105.259 295.52C106.043 295.12 106.971 294.92 108.043 294.92C108.859 294.92 109.587 295.04 110.227 295.28C110.883 295.52 111.443 295.864 111.907 296.312C112.371 296.744 112.723 297.264 112.963 297.872C113.219 298.48 113.347 299.152 113.347 299.888C113.347 300.88 113.107 301.856 112.627 302.816C112.147 303.76 111.355 304.752 110.251 305.792C109.147 306.832 107.651 307.984 105.763 309.248V309.272C105.939 309.256 106.179 309.248 106.483 309.248C106.803 309.232 107.115 309.224 107.419 309.224C107.739 309.208 107.979 309.2 108.139 309.2H113.683V311H103.027ZM122.779 311.24C120.987 311.24 119.555 310.544 118.483 309.152C117.411 307.76 116.875 305.736 116.875 303.08C116.875 300.424 117.411 298.4 118.483 297.008C119.555 295.616 120.987 294.92 122.779 294.92C124.587 294.92 126.019 295.616 127.075 297.008C128.147 298.4 128.683 300.424 128.683 303.08C128.683 305.736 128.147 307.76 127.075 309.152C126.019 310.544 124.587 311.24 122.779 311.24ZM122.779 309.512C123.627 309.512 124.339 309.272 124.915 308.792C125.507 308.296 125.947 307.568 126.235 306.608C126.539 305.648 126.691 304.472 126.691 303.08C126.691 301.688 126.539 300.512 126.235 299.552C125.947 298.592 125.507 297.872 124.915 297.392C124.339 296.896 123.627 296.648 122.779 296.648C121.931 296.648 121.211 296.896 120.619 297.392C120.043 297.872 119.603 298.592 119.299 299.552C119.011 300.512 118.867 301.688 118.867 303.08C118.867 304.472 119.011 305.648 119.299 306.608C119.603 307.568 120.043 308.296 120.619 308.792C121.211 309.272 121.931 309.512 122.779 309.512Z" fill="white"/>
<rect y="340" width="435" height="73" fill="#F3A520"/>
<path d="M40.6 369.16L37.96 385H36.328L38.968 369.16H40.6ZM41.8 379.096V380.56H28.48V379.096H41.8ZM34.984 369.16L32.344 385H30.712L33.352 369.16H34.984ZM42.856 373.576V375.04H29.536V373.576H42.856ZM57.0801 370.96H47.9121V376.072H55.0641V377.872H47.9121V385H45.9921V369.16H57.0801V370.96ZM65.0806 385.24C63.6726 385.24 62.4246 384.912 61.3366 384.256C60.2646 383.584 59.5366 382.664 59.1526 381.496L61.0726 380.512C61.2646 381.104 61.5286 381.624 61.8646 382.072C62.2006 382.504 62.6406 382.84 63.1846 383.08C63.7446 383.32 64.4406 383.44 65.2726 383.44C65.9766 383.44 66.5686 383.312 67.0486 383.056C67.5286 382.8 67.8966 382.456 68.1526 382.024C68.4086 381.576 68.5366 381.064 68.5366 380.488C68.5366 379.912 68.4246 379.432 68.2006 379.048C67.9926 378.664 67.6566 378.384 67.1926 378.208C66.7286 378.016 66.1206 377.92 65.3686 377.92C65.1926 377.92 65.0006 377.928 64.7926 377.944C64.5846 377.944 64.3686 377.96 64.1446 377.992V376.072C64.2886 376.088 64.4246 376.096 64.5526 376.096C64.6966 376.096 64.8246 376.096 64.9366 376.096C66.1046 376.096 66.9366 375.872 67.4326 375.424C67.9286 374.96 68.1766 374.24 68.1766 373.264C68.1766 372.432 67.9206 371.8 67.4086 371.368C66.8966 370.936 66.1686 370.72 65.2246 370.72C64.2166 370.72 63.4486 370.944 62.9206 371.392C62.3926 371.824 61.9766 372.416 61.6726 373.168L59.8486 372.304C60.1046 371.632 60.4886 371.04 61.0006 370.528C61.5126 370.016 62.1286 369.616 62.8486 369.328C63.5846 369.04 64.3926 368.896 65.2726 368.896C66.3766 368.896 67.2886 369.088 68.0086 369.472C68.7286 369.84 69.2646 370.336 69.6166 370.96C69.9846 371.584 70.1686 372.272 70.1686 373.024C70.1686 373.6 70.0886 374.12 69.9286 374.584C69.7686 375.032 69.5446 375.424 69.2566 375.76C68.9846 376.096 68.6726 376.368 68.3206 376.576C67.9686 376.768 67.5926 376.896 67.1926 376.96V377.008C67.7206 377.024 68.1846 377.128 68.5846 377.32C69.0006 377.512 69.3526 377.768 69.6406 378.088C69.9286 378.408 70.1446 378.776 70.2886 379.192C70.4486 379.592 70.5286 380.016 70.5286 380.464C70.5286 381.392 70.2966 382.216 69.8326 382.936C69.3846 383.656 68.7526 384.224 67.9366 384.64C67.1206 385.04 66.1686 385.24 65.0806 385.24ZM87.4007 385H85.3608L83.6808 380.608H76.5047L74.8247 385H72.8087L78.9768 369.16H81.2568L87.4007 385ZM77.2007 378.808H82.9848L80.0808 371.008L77.2007 378.808ZM94.9885 385.24C93.5805 385.24 92.4445 384.92 91.5805 384.28C90.7325 383.64 90.0765 382.752 89.6125 381.616L91.4845 380.632C91.7405 381.464 92.1325 382.144 92.6605 382.672C93.2045 383.184 93.9965 383.44 95.0365 383.44C95.7725 383.44 96.3965 383.304 96.9085 383.032C97.4365 382.76 97.8445 382.376 98.1325 381.88C98.4205 381.368 98.5645 380.76 98.5645 380.056C98.5645 379.304 98.4285 378.68 98.1565 378.184C97.9005 377.672 97.5245 377.288 97.0285 377.032C96.5325 376.776 95.9245 376.648 95.2045 376.648C94.6925 376.648 94.2125 376.704 93.7645 376.816C93.3325 376.912 92.9405 377.072 92.5885 377.296C92.2365 377.52 91.9325 377.816 91.6765 378.184L89.9965 377.872L90.9325 369.16H99.8365V370.96H92.5645L91.9405 375.952L91.8925 376.168H91.9405C92.3245 375.768 92.8125 375.448 93.4045 375.208C94.0125 374.968 94.7325 374.848 95.5645 374.848C96.5725 374.848 97.4445 375.064 98.1805 375.496C98.9325 375.912 99.5165 376.504 99.9325 377.272C100.348 378.04 100.556 378.936 100.556 379.96C100.556 380.776 100.42 381.512 100.148 382.168C99.8765 382.824 99.4925 383.384 98.9965 383.848C98.5005 384.296 97.9085 384.64 97.2205 384.88C96.5485 385.12 95.8045 385.24 94.9885 385.24ZM103.917 385V383.44C105.501 382.272 106.821 381.248 107.877 380.368C108.949 379.488 109.805 378.688 110.445 377.968C111.085 377.248 111.541 376.568 111.813 375.928C112.085 375.272 112.221 374.592 112.221 373.888C112.221 372.944 111.917 372.184 111.309 371.608C110.717 371.016 109.901 370.72 108.861 370.72C107.773 370.72 106.901 371.08 106.245 371.8C105.589 372.504 105.205 373.448 105.093 374.632L103.413 373.624C103.557 372.696 103.853 371.88 104.301 371.176C104.765 370.472 105.381 369.92 106.149 369.52C106.933 369.12 107.861 368.92 108.933 368.92C109.749 368.92 110.477 369.04 111.117 369.28C111.773 369.52 112.333 369.864 112.797 370.312C113.261 370.744 113.613 371.264 113.853 371.872C114.109 372.48 114.237 373.152 114.237 373.888C114.237 374.88 113.997 375.856 113.517 376.816C113.037 377.76 112.245 378.752 111.141 379.792C110.037 380.832 108.541 381.984 106.653 383.248V383.272C106.829 383.256 107.069 383.248 107.373 383.248C107.693 383.232 108.005 383.224 108.309 383.224C108.629 383.208 108.869 383.2 109.029 383.2H114.573V385H103.917ZM123.669 385.24C121.877 385.24 120.445 384.544 119.373 383.152C118.301 381.76 117.765 379.736 117.765 377.08C117.765 374.424 118.301 372.4 119.373 371.008C120.445 369.616 121.877 368.92 123.669 368.92C125.477 368.92 126.909 369.616 127.965 371.008C129.037 372.4 129.573 374.424 129.573 377.08C129.573 379.736 129.037 381.76 127.965 383.152C126.909 384.544 125.477 385.24 123.669 385.24ZM123.669 383.512C124.517 383.512 125.229 383.272 125.805 382.792C126.397 382.296 126.837 381.568 127.125 380.608C127.429 379.648 127.581 378.472 127.581 377.08C127.581 375.688 127.429 374.512 127.125 373.552C126.837 372.592 126.397 371.872 125.805 371.392C125.229 370.896 124.517 370.648 123.669 370.648C122.821 370.648 122.101 370.896 121.509 371.392C120.933 371.872 120.493 372.592 120.189 373.552C119.901 374.512 119.757 375.688 119.757 377.08C119.757 378.472 119.901 379.648 120.189 380.608C120.493 381.568 120.933 382.296 121.509 382.792C122.101 383.272 122.821 383.512 123.669 383.512Z" fill="white"/>
<rect y="413" width="435" height="74" fill="#20F348"/>
<path d="M40.6 442.16L37.96 458H36.328L38.968 442.16H40.6ZM41.8 452.096V453.56H28.48V452.096H41.8ZM34.984 442.16L32.344 458H30.712L33.352 442.16H34.984ZM42.856 446.576V448.04H29.536V446.576H42.856ZM45.1761 458V456.44C46.7601 455.272 48.0801 454.248 49.1361 453.368C50.2081 452.488 51.0641 451.688 51.7041 450.968C52.3441 450.248 52.8001 449.568 53.0721 448.928C53.3441 448.272 53.4801 447.592 53.4801 446.888C53.4801 445.944 53.1761 445.184 52.5681 444.608C51.9761 444.016 51.1601 443.72 50.1201 443.72C49.0321 443.72 48.1601 444.08 47.5041 444.8C46.8481 445.504 46.4641 446.448 46.3521 447.632L44.6721 446.624C44.8161 445.696 45.1121 444.88 45.5601 444.176C46.0241 443.472 46.6401 442.92 47.4081 442.52C48.1921 442.12 49.1201 441.92 50.1921 441.92C51.0081 441.92 51.7361 442.04 52.3761 442.28C53.0321 442.52 53.5921 442.864 54.0561 443.312C54.5201 443.744 54.8721 444.264 55.1121 444.872C55.3681 445.48 55.4961 446.152 55.4961 446.888C55.4961 447.88 55.2561 448.856 54.7761 449.816C54.2961 450.76 53.5041 451.752 52.4001 452.792C51.2961 453.832 49.8001 454.984 47.9121 456.248V456.272C48.0881 456.256 48.3281 456.248 48.6321 456.248C48.9521 456.232 49.2641 456.224 49.5681 456.224C49.8881 456.208 50.1281 456.2 50.2881 456.2H55.8321V458H45.1761ZM64.9283 458.24C63.1363 458.24 61.7043 457.544 60.6323 456.152C59.5603 454.76 59.0243 452.736 59.0243 450.08C59.0243 447.424 59.5603 445.4 60.6323 444.008C61.7043 442.616 63.1363 441.92 64.9283 441.92C66.7363 441.92 68.1683 442.616 69.2243 444.008C70.2963 445.4 70.8323 447.424 70.8323 450.08C70.8323 452.736 70.2963 454.76 69.2243 456.152C68.1683 457.544 66.7363 458.24 64.9283 458.24ZM64.9283 456.512C65.7763 456.512 66.4883 456.272 67.0643 455.792C67.6563 455.296 68.0963 454.568 68.3843 453.608C68.6883 452.648 68.8403 451.472 68.8403 450.08C68.8403 448.688 68.6883 447.512 68.3843 446.552C68.0963 445.592 67.6563 444.872 67.0643 444.392C66.4883 443.896 65.7763 443.648 64.9283 443.648C64.0803 443.648 63.3603 443.896 62.7683 444.392C62.1923 444.872 61.7523 445.592 61.4483 446.552C61.1603 447.512 61.0163 448.688 61.0163 450.08C61.0163 451.472 61.1603 452.648 61.4483 453.608C61.7523 454.568 62.1923 455.296 62.7683 455.792C63.3603 456.272 64.0803 456.512 64.9283 456.512ZM86.146 443.96H76.978V449.072H84.13V450.872H76.978V458H75.058V442.16H86.146V443.96ZM94.1464 458.24C92.7384 458.24 91.4904 457.912 90.4024 457.256C89.3304 456.584 88.6024 455.664 88.2184 454.496L90.1384 453.512C90.3304 454.104 90.5944 454.624 90.9304 455.072C91.2664 455.504 91.7064 455.84 92.2504 456.08C92.8104 456.32 93.5064 456.44 94.3384 456.44C95.0424 456.44 95.6344 456.312 96.1144 456.056C96.5944 455.8 96.9624 455.456 97.2184 455.024C97.4744 454.576 97.6024 454.064 97.6024 453.488C97.6024 452.912 97.4904 452.432 97.2664 452.048C97.0584 451.664 96.7224 451.384 96.2584 451.208C95.7944 451.016 95.1864 450.92 94.4344 450.92C94.2584 450.92 94.0664 450.928 93.8584 450.944C93.6504 450.944 93.4344 450.96 93.2104 450.992V449.072C93.3544 449.088 93.4904 449.096 93.6184 449.096C93.7624 449.096 93.8904 449.096 94.0024 449.096C95.1704 449.096 96.0024 448.872 96.4984 448.424C96.9944 447.96 97.2424 447.24 97.2424 446.264C97.2424 445.432 96.9864 444.8 96.4744 444.368C95.9624 443.936 95.2344 443.72 94.2904 443.72C93.2824 443.72 92.5144 443.944 91.9864 444.392C91.4584 444.824 91.0424 445.416 90.7384 446.168L88.9144 445.304C89.1704 444.632 89.5544 444.04 90.0664 443.528C90.5784 443.016 91.1944 442.616 91.9144 442.328C92.6504 442.04 93.4584 441.896 94.3384 441.896C95.4424 441.896 96.3544 442.088 97.0744 442.472C97.7944 442.84 98.3304 443.336 98.6824 443.96C99.0504 444.584 99.2344 445.272 99.2344 446.024C99.2344 446.6 99.1544 447.12 98.9944 447.584C98.8344 448.032 98.6104 448.424 98.3224 448.76C98.0504 449.096 97.7384 449.368 97.3864 449.576C97.0344 449.768 96.6584 449.896 96.2584 449.96V450.008C96.7864 450.024 97.2504 450.128 97.6504 450.32C98.0664 450.512 98.4184 450.768 98.7064 451.088C98.9944 451.408 99.2104 451.776 99.3544 452.192C99.5144 452.592 99.5944 453.016 99.5944 453.464C99.5944 454.392 99.3624 455.216 98.8984 455.936C98.4504 456.656 97.8184 457.224 97.0024 457.64C96.1864 458.04 95.2344 458.24 94.1464 458.24ZM110.035 458V453.848H102.307V452.432L109.531 442.16H111.955V452.192H114.763V453.848H111.955V458H110.035ZM104.347 452.192H110.035V446.264C110.035 445.848 110.043 445.424 110.059 444.992C110.091 444.56 110.115 444.136 110.131 443.72H110.083C109.891 444.12 109.643 444.568 109.339 445.064C109.035 445.56 108.755 445.992 108.499 446.36L104.347 452.192ZM123.386 441.944C124.41 441.944 125.298 442.112 126.05 442.448C126.802 442.784 127.386 443.264 127.802 443.888C128.218 444.496 128.426 445.232 128.426 446.096C128.426 446.912 128.226 447.632 127.826 448.256C127.442 448.864 126.898 449.328 126.194 449.648V449.672C127.09 450.008 127.802 450.52 128.33 451.208C128.874 451.896 129.147 452.736 129.147 453.728C129.147 454.656 128.906 455.456 128.426 456.128C127.946 456.8 127.274 457.32 126.41 457.688C125.562 458.056 124.554 458.24 123.386 458.24C122.234 458.24 121.226 458.056 120.362 457.688C119.498 457.32 118.826 456.8 118.346 456.128C117.866 455.456 117.626 454.656 117.626 453.728C117.626 452.752 117.89 451.92 118.418 451.232C118.946 450.528 119.674 450.008 120.602 449.672V449.648C119.914 449.344 119.362 448.888 118.946 448.28C118.546 447.656 118.346 446.928 118.346 446.096C118.346 445.232 118.554 444.496 118.97 443.888C119.386 443.264 119.97 442.784 120.722 442.448C121.49 442.112 122.378 441.944 123.386 441.944ZM123.386 443.744C122.458 443.744 121.714 443.968 121.154 444.416C120.61 444.864 120.338 445.488 120.338 446.288C120.338 447.072 120.618 447.688 121.178 448.136C121.738 448.584 122.474 448.808 123.386 448.808C124.298 448.808 125.034 448.584 125.594 448.136C126.154 447.688 126.434 447.072 126.434 446.288C126.434 445.488 126.162 444.864 125.618 444.416C125.074 443.968 124.33 443.744 123.386 443.744ZM123.386 456.44C124.17 456.44 124.842 456.328 125.402 456.104C125.962 455.864 126.394 455.528 126.698 455.096C127.002 454.648 127.155 454.128 127.155 453.536C127.155 452.928 126.994 452.408 126.674 451.976C126.37 451.528 125.938 451.192 125.378 450.968C124.818 450.728 124.154 450.608 123.386 450.608C122.634 450.608 121.97 450.728 121.394 450.968C120.834 451.192 120.394 451.528 120.074 451.976C119.77 452.408 119.618 452.928 119.618 453.536C119.618 454.128 119.77 454.648 120.074 455.096C120.378 455.528 120.81 455.864 121.37 456.104C121.946 456.328 122.618 456.44 123.386 456.44Z" fill="white"/>
</svg>
