<svg width="113" height="112" viewBox="0 0 113 112" fill="none" xmlns="http://www.w3.org/2000/svg">
<path d="M19.1729 43.5749C19.4387 43.8578 19.7876 44 20.1365 44C20.4854 44 20.8343 43.8586 21.1008 43.5749C21.6331 43.0084 21.6331 42.0893 21.1008 41.5228L17.7908 37.9995L21.1008 34.477C21.6331 33.9097 21.6331 32.9914 21.1008 32.4249C20.5686 31.8584 19.7052 31.8584 19.1729 32.4249L14.8994 36.9739C14.6435 37.2462 14.5 37.6153 14.5 37.9995C14.5 38.3845 14.6435 38.7537 14.8994 39.026L19.1729 43.5749Z" fill="url(#paint0_linear_138_3180)"/>
<path d="M33.2089 37.9999L29.8991 41.523C29.3669 42.0895 29.3669 43.0084 29.8998 43.5749C30.1655 43.8578 30.5144 44 30.8633 44C31.2122 44 31.5611 43.8578 31.8268 43.5749L36.1008 39.0255C36.6331 38.459 36.6331 37.54 36.1008 36.9743L31.8268 32.4249C31.2946 31.8584 30.432 31.8584 29.8998 32.4249C29.3669 32.9921 29.3669 33.9103 29.8998 34.4768L33.2089 37.9999Z" fill="url(#paint1_linear_138_3180)"/>
<path d="M23.3529 43.8994C23.5141 43.9675 23.6808 44 23.8441 44C24.3808 44 24.8874 43.6506 25.0955 43.0796L28.4064 33.9817C28.6783 33.236 28.3377 32.3942 27.6468 32.1007C26.9566 31.808 26.176 32.1749 25.9049 32.9206L22.5933 42.0184C22.3222 42.7642 22.662 43.6067 23.3529 43.8994Z" fill="url(#paint2_linear_138_3180)"/>
<path d="M16.8734 52H26.1266C26.8849 52 27.5 51.3284 27.5 50.4996C27.5 49.6716 26.8849 49 26.1266 49H16.8734C16.1144 49 15.5 49.6716 15.5 50.4996C15.5 51.3284 16.1144 52 16.8734 52Z" fill="url(#paint3_linear_138_3180)"/>
<path d="M48.1271 49H31.8722C31.1146 49 30.5 49.6716 30.5 50.4996C30.5 51.3284 31.1146 52 31.8722 52H48.1271C48.8854 52 49.5 51.3284 49.5 50.4996C49.5 49.6716 48.8854 49 48.1271 49Z" fill="url(#paint4_linear_138_3180)"/>
<path d="M16.9373 58H21.0627C21.8563 58 22.5 57.3284 22.5 56.4996C22.5 55.6716 21.8563 55 21.0627 55H16.9373C16.143 55 15.5 55.6716 15.5 56.4996C15.5 57.3284 16.143 58 16.9373 58Z" fill="url(#paint5_linear_138_3180)"/>
<path d="M42.834 55C42.0967 55 41.5 55.6716 41.5 56.4996C41.5 57.3284 42.0967 58 42.834 58H45.1653C45.9026 58 46.5 57.3284 46.5 56.4996C46.5 55.6716 45.9026 55 45.1653 55H42.834Z" fill="url(#paint6_linear_138_3180)"/>
<path d="M39.5 56.4996C39.5 55.6716 38.8653 55 38.0829 55H25.9171C25.1339 55 24.5 55.6716 24.5 56.4996C24.5 57.3284 25.1339 58 25.9171 58H38.0829C38.8653 58 39.5 57.3284 39.5 56.4996Z" fill="url(#paint7_linear_138_3180)"/>
<path d="M48.5 56.4996C48.5 57.3284 49.0944 58 49.8272 58H54.1721C54.9056 58 55.5 57.3284 55.5 56.4996C55.5 55.6716 54.9056 55 54.1721 55H49.8272C49.0944 55 48.5 55.6716 48.5 56.4996Z" fill="url(#paint8_linear_138_3180)"/>
<path d="M40.9675 39H46.0325C46.8431 39 47.5 38.3284 47.5 37.4996C47.5 36.6716 46.8431 36 46.0325 36H40.9675C40.1569 36 39.5 36.6716 39.5 37.4996C39.5 38.3284 40.1569 39 40.9675 39Z" fill="url(#paint9_linear_138_3180)"/>
<path d="M50.8878 39H80.1129C80.8795 39 81.5 38.3284 81.5 37.4996C81.5 36.6716 80.8795 36 80.1129 36H50.8878C50.1212 36 49.5 36.6716 49.5 37.4996C49.5 38.3284 50.1212 39 50.8878 39Z" fill="url(#paint10_linear_138_3180)"/>
<path d="M76.0762 42H63.9238C63.1377 42 62.5 42.6716 62.5 43.5004C62.5 44.3284 63.1377 45 63.9238 45H76.0762C76.8623 45 77.5 44.3284 77.5 43.5004C77.5 42.6716 76.8623 42 76.0762 42Z" fill="url(#paint11_linear_138_3180)"/>
<path d="M60.0812 42H55.9188C55.1347 42 54.5 42.6716 54.5 43.5004C54.5 44.3284 55.1347 45 55.9188 45H60.0812C60.8653 45 61.5 44.3284 61.5 43.5004C61.5 42.6716 60.8653 42 60.0812 42Z" fill="url(#paint12_linear_138_3180)"/>
<path d="M40.9157 45H51.0851C51.8663 45 52.5 44.3284 52.5 43.5004C52.5 42.6716 51.8663 42 51.0851 42H40.9157C40.1337 42 39.5 42.6716 39.5 43.5004C39.5 44.3284 40.1337 45 40.9157 45Z" fill="url(#paint13_linear_138_3180)"/>
<path d="M38.1266 61H28.8741C28.1151 61 27.5 61.6718 27.5 62.5C27.5 63.3282 28.1151 64 28.8741 64H38.1266C38.8849 64 39.5 63.3282 39.5 62.5C39.5 61.6718 38.8849 61 38.1266 61Z" fill="url(#paint14_linear_138_3180)"/>
<path d="M24.1065 61H16.8935C16.1234 61 15.5 61.6718 15.5 62.5C15.5 63.3282 16.1234 64 16.8935 64H24.1065C24.8766 64 25.5 63.3282 25.5 62.5C25.5 61.6718 24.8766 61 24.1065 61Z" fill="url(#paint15_linear_138_3180)"/>
<path d="M55.1113 61H42.8887C42.1212 61 41.5 61.6718 41.5 62.5C41.5 63.3282 42.1212 64 42.8887 64H55.1113C55.878 64 56.5 63.3282 56.5 62.5C56.5 61.6718 55.878 61 55.1113 61Z" fill="url(#paint16_linear_138_3180)"/>
<path d="M72.0322 53H64.9678C64.1574 53 63.5 53.6716 63.5 54.4996C63.5 55.3284 64.1574 56 64.9678 56H72.0322C72.8434 56 73.5 55.3284 73.5 54.4996C73.5 53.6716 72.8434 53 72.0322 53Z" fill="url(#paint17_linear_138_3180)"/>
<path d="M83.8645 56H93.1348C93.8889 56 94.5 55.3284 94.5 54.4996C94.5 53.6716 93.8889 53 93.1348 53H83.8645C83.1104 53 82.5 53.6716 82.5 54.4996C82.5 55.3284 83.1111 56 83.8645 56Z" fill="url(#paint18_linear_138_3180)"/>
<path d="M79.0945 53H76.9063C76.1295 53 75.5 53.6716 75.5 54.4996C75.5 55.3284 76.1295 56 76.9063 56H79.0945C79.8712 56 80.5 55.3284 80.5 54.4996C80.5 53.6716 79.8712 53 79.0945 53Z" fill="url(#paint19_linear_138_3180)"/>
<path d="M64.9678 72H72.0322C72.8434 72 73.5 71.329 73.5 70.5C73.5 69.6718 72.8434 69 72.0322 69H64.9678C64.1574 69 63.5 69.6718 63.5 70.5C63.5 71.329 64.1574 72 64.9678 72Z" fill="url(#paint20_linear_138_3180)"/>
<path d="M83.8645 72H93.1348C93.8889 72 94.5 71.329 94.5 70.5C94.5 69.6718 93.8889 69 93.1348 69H83.8645C83.1104 69 82.5 69.6718 82.5 70.5C82.5 71.329 83.1111 72 83.8645 72Z" fill="url(#paint21_linear_138_3180)"/>
<path d="M76.9055 72H79.0937C79.8705 72 80.5 71.329 80.5 70.5C80.5 69.6718 79.8705 69 79.0937 69H76.9055C76.1288 69 75.5 69.6718 75.5 70.5C75.5 71.329 76.1288 72 76.9055 72Z" fill="url(#paint22_linear_138_3180)"/>
<path d="M72.0322 84H64.9678C64.1574 84 63.5 84.6718 63.5 85.5C63.5 86.3282 64.1574 87 64.9678 87H72.0322C72.8434 87 73.5 86.3282 73.5 85.5C73.5 84.6718 72.8434 84 72.0322 84Z" fill="url(#paint23_linear_138_3180)"/>
<path d="M93.1348 84H83.8645C83.1104 84 82.5 84.6718 82.5 85.5C82.5 86.3282 83.1104 87 83.8645 87H93.1348C93.8889 87 94.5 86.3282 94.5 85.5C94.5 84.6718 93.8889 84 93.1348 84Z" fill="url(#paint24_linear_138_3180)"/>
<path d="M79.0945 84H76.9063C76.1295 84 75.5 84.6718 75.5 85.5C75.5 86.3282 76.1295 87 76.9063 87H79.0945C79.8712 87 80.5 86.3282 80.5 85.5C80.5 84.6718 79.8712 84 79.0945 84Z" fill="url(#paint25_linear_138_3180)"/>
<path d="M98.3176 8H14.6839C11.2744 8 8.5 10.7767 8.5 14.1905V82.2455C8.5 85.6586 11.2744 88.4353 14.6839 88.4353H19.9713C20.7469 88.4353 21.3761 87.8062 21.3761 87.029C21.3761 86.2525 20.7469 85.6227 19.9713 85.6227H14.6839C12.8235 85.6227 11.3103 84.1078 11.3103 82.2455V76.9099H62.4975V79.3339H61.3835C59.8593 79.3339 58.62 80.5745 58.62 82.1003V85.6227H28.5136C27.7379 85.6227 27.1088 86.2525 27.1088 87.029C27.1088 87.8062 27.7379 88.4353 28.5136 88.4353H42.0225V93.4798H37.7803C34.9502 93.4798 32.6481 95.785 32.6481 98.6175V101.656C32.6481 102.949 33.6984 104 34.9897 104H77.9041C79.1954 104 80.2457 102.949 80.2457 101.656V98.6175C80.2457 95.785 77.9436 93.4798 75.1135 93.4798H70.8713V91.7018H96.8454C98.3689 91.7018 99.6081 90.4612 99.6081 88.9353V88.2732C102.347 87.6368 104.394 85.1769 104.394 82.2455L104.5 14.1898C104.501 10.7767 101.727 8 98.3176 8ZM61.4303 73.5613V66.8193H96.7985V73.5613H61.4303ZM65.3071 64.006V61.0467H92.9211V64.006H65.3071ZM92.9211 76.3739V79.3339H65.3071V76.3739H92.9211ZM44.8321 88.4353H58.62V88.9361C58.62 90.4612 59.8593 91.7018 61.3835 91.7018H68.0617V93.4798H44.8321V88.4353ZM75.1143 96.2932C76.3946 96.2932 77.4361 97.3358 77.4361 98.6175V101.187H35.4577V98.6175C35.4577 97.3358 36.5 96.2932 37.7803 96.2932H75.1143ZM96.7985 88.8884H61.4303V82.1472H96.7985V88.8884ZM101.584 82.2455C101.584 83.6078 100.773 84.7817 99.6088 85.3147V82.0996C99.6088 80.5745 98.3689 79.3339 96.8454 79.3339H95.7314V76.9099H101.584V82.2455ZM101.584 74.0972H99.5627C99.5913 73.9381 99.6088 66.7724 99.6088 66.7724C99.6088 65.2466 98.3689 64.006 96.8454 64.006H95.7314V61.0467H96.8454C98.3689 61.0467 99.6088 59.8054 99.6088 58.2803V51.4445C99.6088 49.9194 98.3689 48.6781 96.8454 48.6781H88.9095C88.1332 48.6781 87.5048 49.3079 87.5048 50.0851C87.5048 50.8616 88.1332 51.4915 88.9095 51.4915H96.7985V58.2334H61.4303V51.4915H80.1673C80.9437 51.4915 81.5721 50.8616 81.5721 50.0851C81.5721 49.3079 80.9437 48.6781 80.1673 48.6781H61.3835C59.8593 48.6781 58.62 49.9194 58.62 51.4445V58.2803C58.62 59.8054 59.8593 61.0467 61.3835 61.0467H62.4975V64.006H61.3835C59.8593 64.006 58.62 65.2473 58.62 66.7724C58.62 66.7724 58.6376 73.9381 58.6662 74.0972H11.3103V27.1325H101.584V74.0972ZM101.584 24.3192H11.4136V14.1898C11.4136 12.3282 12.9268 10.8134 14.7872 10.8134H98.2106C100.071 10.8134 101.584 12.3282 101.584 14.1905V24.3192Z" fill="url(#paint26_linear_138_3180)"/>
<path d="M18.4996 13C16.2941 13 14.5 14.7941 14.5 16.9996C14.5 19.2052 16.2941 21 18.4996 21C20.7052 21 22.5 19.2052 22.5 16.9996C22.5 14.7941 20.7052 13 18.4996 13ZM18.4996 18.2736C17.7976 18.2736 17.2256 17.7024 17.2256 16.9996C17.2256 16.2976 17.7976 15.7256 18.4996 15.7256C19.2024 15.7256 19.7736 16.2976 19.7736 16.9996C19.7736 17.7024 19.2024 18.2736 18.4996 18.2736Z" fill="url(#paint27_linear_138_3180)"/>
<path d="M29.5004 13C27.2948 13 25.5 14.7941 25.5 16.9996C25.5 19.2052 27.2948 21 29.5004 21C31.7059 21 33.5 19.2052 33.5 16.9996C33.5 14.7941 31.7052 13 29.5004 13ZM29.5004 18.2736C28.7976 18.2736 28.2264 17.7024 28.2264 16.9996C28.2264 16.2976 28.7976 15.7256 29.5004 15.7256C30.2024 15.7256 30.7744 16.2976 30.7744 16.9996C30.7744 17.7024 30.2024 18.2736 29.5004 18.2736Z" fill="url(#paint28_linear_138_3180)"/>
<path d="M39.4996 13C37.2941 13 35.5 14.7941 35.5 16.9996C35.5 19.2052 37.2941 21 39.4996 21C41.7052 21 43.5 19.2052 43.5 16.9996C43.5 14.7941 41.7052 13 39.4996 13ZM39.4996 18.2736C38.7976 18.2736 38.2256 17.7024 38.2256 16.9996C38.2256 16.2976 38.7976 15.7256 39.4996 15.7256C40.2024 15.7256 40.7736 16.2976 40.7736 16.9996C40.7736 17.7024 40.2024 18.2736 39.4996 18.2736Z" fill="url(#paint29_linear_138_3180)"/>
<defs>
<linearGradient id="paint0_linear_138_3180" x1="14.5" y1="32" x2="23.7825" y2="33.6414" gradientUnits="userSpaceOnUse">
<stop stop-color="#0C97FA"/>
<stop offset="1" stop-color="#16E1F5"/>
</linearGradient>
<linearGradient id="paint1_linear_138_3180" x1="29.5" y1="32" x2="38.7825" y2="33.6414" gradientUnits="userSpaceOnUse">
<stop stop-color="#0C97FA"/>
<stop offset="1" stop-color="#16E1F5"/>
</linearGradient>
<linearGradient id="paint2_linear_138_3180" x1="22.5" y1="32" x2="30.521" y2="33.2157" gradientUnits="userSpaceOnUse">
<stop stop-color="#0C97FA"/>
<stop offset="1" stop-color="#16E1F5"/>
</linearGradient>
<linearGradient id="paint3_linear_138_3180" x1="15.5" y1="49" x2="22.1435" y2="57.0552" gradientUnits="userSpaceOnUse">
<stop stop-color="#0C97FA"/>
<stop offset="1" stop-color="#16E1F5"/>
</linearGradient>
<linearGradient id="paint4_linear_138_3180" x1="30.5" y1="49" x2="36.0453" y2="59.6459" gradientUnits="userSpaceOnUse">
<stop stop-color="#0C97FA"/>
<stop offset="1" stop-color="#16E1F5"/>
</linearGradient>
<linearGradient id="paint5_linear_138_3180" x1="15.5" y1="55" x2="21.8807" y2="59.513" gradientUnits="userSpaceOnUse">
<stop stop-color="#0C97FA"/>
<stop offset="1" stop-color="#16E1F5"/>
</linearGradient>
<linearGradient id="paint6_linear_138_3180" x1="41.5" y1="55" x2="46.9473" y2="57.752" gradientUnits="userSpaceOnUse">
<stop stop-color="#0C97FA"/>
<stop offset="1" stop-color="#16E1F5"/>
</linearGradient>
<linearGradient id="paint7_linear_138_3180" x1="24.5" y1="55" x2="30.7215" y2="64.4295" gradientUnits="userSpaceOnUse">
<stop stop-color="#0C97FA"/>
<stop offset="1" stop-color="#16E1F5"/>
</linearGradient>
<linearGradient id="paint8_linear_138_3180" x1="48.5" y1="55" x2="54.8807" y2="59.513" gradientUnits="userSpaceOnUse">
<stop stop-color="#0C97FA"/>
<stop offset="1" stop-color="#16E1F5"/>
</linearGradient>
<linearGradient id="paint9_linear_138_3180" x1="39.5" y1="36" x2="46.1168" y2="41.3486" gradientUnits="userSpaceOnUse">
<stop stop-color="#0C97FA"/>
<stop offset="1" stop-color="#16E1F5"/>
</linearGradient>
<linearGradient id="paint10_linear_138_3180" x1="49.5" y1="36" x2="53.3205" y2="48.3528" gradientUnits="userSpaceOnUse">
<stop stop-color="#0C97FA"/>
<stop offset="1" stop-color="#16E1F5"/>
</linearGradient>
<linearGradient id="paint11_linear_138_3180" x1="62.5" y1="42" x2="68.7215" y2="51.4295" gradientUnits="userSpaceOnUse">
<stop stop-color="#0C97FA"/>
<stop offset="1" stop-color="#16E1F5"/>
</linearGradient>
<linearGradient id="paint12_linear_138_3180" x1="54.5" y1="42" x2="60.8807" y2="46.513" gradientUnits="userSpaceOnUse">
<stop stop-color="#0C97FA"/>
<stop offset="1" stop-color="#16E1F5"/>
</linearGradient>
<linearGradient id="paint13_linear_138_3180" x1="39.5" y1="42" x2="46.0231" y2="50.5684" gradientUnits="userSpaceOnUse">
<stop stop-color="#0C97FA"/>
<stop offset="1" stop-color="#16E1F5"/>
</linearGradient>
<linearGradient id="paint14_linear_138_3180" x1="27.5" y1="61" x2="34.1435" y2="69.0552" gradientUnits="userSpaceOnUse">
<stop stop-color="#0C97FA"/>
<stop offset="1" stop-color="#16E1F5"/>
</linearGradient>
<linearGradient id="paint15_linear_138_3180" x1="15.5" y1="61" x2="22.2668" y2="67.8373" gradientUnits="userSpaceOnUse">
<stop stop-color="#0C97FA"/>
<stop offset="1" stop-color="#16E1F5"/>
</linearGradient>
<linearGradient id="paint16_linear_138_3180" x1="41.5" y1="61" x2="47.7215" y2="70.4295" gradientUnits="userSpaceOnUse">
<stop stop-color="#0C97FA"/>
<stop offset="1" stop-color="#16E1F5"/>
</linearGradient>
<linearGradient id="paint17_linear_138_3180" x1="63.5" y1="53" x2="70.2668" y2="59.8373" gradientUnits="userSpaceOnUse">
<stop stop-color="#0C97FA"/>
<stop offset="1" stop-color="#16E1F5"/>
</linearGradient>
<linearGradient id="paint18_linear_138_3180" x1="82.5" y1="53" x2="89.1435" y2="61.0552" gradientUnits="userSpaceOnUse">
<stop stop-color="#0C97FA"/>
<stop offset="1" stop-color="#16E1F5"/>
</linearGradient>
<linearGradient id="paint19_linear_138_3180" x1="75.5" y1="53" x2="80.9473" y2="55.752" gradientUnits="userSpaceOnUse">
<stop stop-color="#0C97FA"/>
<stop offset="1" stop-color="#16E1F5"/>
</linearGradient>
<linearGradient id="paint20_linear_138_3180" x1="63.5" y1="69" x2="70.2668" y2="75.8373" gradientUnits="userSpaceOnUse">
<stop stop-color="#0C97FA"/>
<stop offset="1" stop-color="#16E1F5"/>
</linearGradient>
<linearGradient id="paint21_linear_138_3180" x1="82.5" y1="69" x2="89.1435" y2="77.0552" gradientUnits="userSpaceOnUse">
<stop stop-color="#0C97FA"/>
<stop offset="1" stop-color="#16E1F5"/>
</linearGradient>
<linearGradient id="paint22_linear_138_3180" x1="75.5" y1="69" x2="80.9473" y2="71.752" gradientUnits="userSpaceOnUse">
<stop stop-color="#0C97FA"/>
<stop offset="1" stop-color="#16E1F5"/>
</linearGradient>
<linearGradient id="paint23_linear_138_3180" x1="63.5" y1="84" x2="70.2668" y2="90.8373" gradientUnits="userSpaceOnUse">
<stop stop-color="#0C97FA"/>
<stop offset="1" stop-color="#16E1F5"/>
</linearGradient>
<linearGradient id="paint24_linear_138_3180" x1="82.5" y1="84" x2="89.1435" y2="92.0552" gradientUnits="userSpaceOnUse">
<stop stop-color="#0C97FA"/>
<stop offset="1" stop-color="#16E1F5"/>
</linearGradient>
<linearGradient id="paint25_linear_138_3180" x1="75.5" y1="84" x2="80.9473" y2="86.752" gradientUnits="userSpaceOnUse">
<stop stop-color="#0C97FA"/>
<stop offset="1" stop-color="#16E1F5"/>
</linearGradient>
<linearGradient id="paint26_linear_138_3180" x1="8.5" y1="8" x2="128.736" y2="44.4465" gradientUnits="userSpaceOnUse">
<stop stop-color="#0C97FA"/>
<stop offset="1" stop-color="#16E1F5"/>
</linearGradient>
<linearGradient id="paint27_linear_138_3180" x1="14.5" y1="13" x2="24.5197" y2="16.0372" gradientUnits="userSpaceOnUse">
<stop stop-color="#0C97FA"/>
<stop offset="1" stop-color="#16E1F5"/>
</linearGradient>
<linearGradient id="paint28_linear_138_3180" x1="25.5" y1="13" x2="35.5197" y2="16.0372" gradientUnits="userSpaceOnUse">
<stop stop-color="#0C97FA"/>
<stop offset="1" stop-color="#16E1F5"/>
</linearGradient>
<linearGradient id="paint29_linear_138_3180" x1="35.5" y1="13" x2="45.5197" y2="16.0372" gradientUnits="userSpaceOnUse">
<stop stop-color="#0C97FA"/>
<stop offset="1" stop-color="#16E1F5"/>
</linearGradient>
</defs>
</svg>
