<svg width="110" height="112" viewBox="0 0 110 112" fill="none" xmlns="http://www.w3.org/2000/svg">
<path d="M62.4444 91.4667H59.3333V76.1133C59.3333 75.6978 59.1694 75.2993 58.8777 75.0055C58.586 74.7117 58.1903 74.5467 57.7778 74.5467C57.3652 74.5467 56.9696 74.7117 56.6778 75.0055C56.3861 75.2993 56.2222 75.6978 56.2222 76.1133V91.4667H15.7778V60.1333H28.72C29.1326 60.1333 29.5282 59.9683 29.8199 59.6745C30.1117 59.3807 30.2756 58.9822 30.2756 58.5667C30.2756 58.1512 30.1117 57.7527 29.8199 57.4589C29.5282 57.1651 29.1326 57 28.72 57H14.2222C13.8097 57 13.414 57.1651 13.1223 57.4589C12.8306 57.7527 12.6667 58.1512 12.6667 58.5667V91.4667H9.55556C9.143 91.4667 8.74733 91.6317 8.45561 91.9255C8.16389 92.2193 8 92.6178 8 93.0333V96.1667C8 98.2442 8.81944 100.237 10.2781 101.706C11.7367 103.175 13.715 104 15.7778 104H56.2222C58.285 104 60.2633 103.175 61.7219 101.706C63.1806 100.237 64 98.2442 64 96.1667V93.0333C64 92.6178 63.8361 92.2193 63.5444 91.9255C63.2527 91.6317 62.857 91.4667 62.4444 91.4667ZM60.8889 96.1667C60.8889 97.4132 60.3972 98.6086 59.5221 99.4901C58.6469 100.371 57.4599 100.867 56.2222 100.867H53.1111V99.3C53.1111 98.8845 52.9472 98.486 52.6555 98.1922C52.3638 97.8984 51.9681 97.7333 51.5556 97.7333C51.143 97.7333 50.7473 97.8984 50.4556 98.1922C50.1639 98.486 50 98.8845 50 99.3V100.867H22V99.3C22 98.8845 21.8361 98.486 21.5444 98.1922C21.2527 97.8984 20.857 97.7333 20.4444 97.7333C20.0319 97.7333 19.6362 97.8984 19.3445 98.1922C19.0528 98.486 18.8889 98.8845 18.8889 99.3V100.867H15.7778C14.5401 100.867 13.3531 100.371 12.4779 99.4901C11.6028 98.6086 11.1111 97.4132 11.1111 96.1667V94.6H60.8889V96.1667Z" fill="url(#paint0_linear_138_3181)"/>
<path d="M90.125 19.2H93.375C93.806 19.2 94.2193 19.0314 94.524 18.7314C94.8288 18.4313 95 18.0243 95 17.6C95 17.1757 94.8288 16.7687 94.524 16.4686C94.2193 16.1686 93.806 16 93.375 16H90.125C88.8321 16 87.5921 16.5057 86.6779 17.4059C85.7636 18.3061 85.25 19.527 85.25 20.8V22.4H83.625C83.194 22.4 82.7807 22.5686 82.476 22.8686C82.1712 23.1687 82 23.5757 82 24C82 24.4243 82.1712 24.8313 82.476 25.1314C82.7807 25.4314 83.194 25.6 83.625 25.6H85.25V30.4C85.25 30.8243 85.4212 31.2313 85.726 31.5314C86.0307 31.8314 86.444 32 86.875 32C87.306 32 87.7193 31.8314 88.024 31.5314C88.3288 31.2313 88.5 30.8243 88.5 30.4V25.6H90.125C90.556 25.6 90.9693 25.4314 91.274 25.1314C91.5788 24.8313 91.75 24.4243 91.75 24C91.75 23.5757 91.5788 23.1687 91.274 22.8686C90.9693 22.5686 90.556 22.4 90.125 22.4H88.5V20.8C88.5 20.3757 88.6712 19.9687 88.976 19.6686C89.2807 19.3686 89.694 19.2 90.125 19.2Z" fill="url(#paint1_linear_138_3181)"/>
<path d="M97.3333 10H78.6667C77.429 10 76.242 10.4917 75.3668 11.3668C74.4917 12.242 74 13.429 74 14.6667V17.7778C74 18.1903 74.1639 18.586 74.4556 18.8777C74.7473 19.1694 75.143 19.3333 75.5556 19.3333C75.9681 19.3333 76.3638 19.1694 76.6555 18.8777C76.9472 18.586 77.1111 18.1903 77.1111 17.7778V14.6667C77.1111 14.2541 77.275 13.8584 77.5667 13.5667C77.8584 13.275 78.2541 13.1111 78.6667 13.1111H97.3333C97.7459 13.1111 98.1416 13.275 98.4333 13.5667C98.725 13.8584 98.8889 14.2541 98.8889 14.6667V33.3333C98.8889 33.7459 98.725 34.1416 98.4333 34.4333C98.1416 34.725 97.7459 34.8889 97.3333 34.8889H78.6667C78.2541 34.8889 77.8584 34.725 77.5667 34.4333C77.275 34.1416 77.1111 33.7459 77.1111 33.3333V24C77.1111 23.5874 76.9472 23.1918 76.6555 22.9001C76.3638 22.6083 75.9681 22.4444 75.5556 22.4444C75.143 22.4444 74.7473 22.6083 74.4556 22.9001C74.1639 23.1918 74 23.5874 74 24V33.3333C74 34.571 74.4917 35.758 75.3668 36.6332C76.242 37.5083 77.429 38 78.6667 38H97.3333C98.571 38 99.758 37.5083 100.633 36.6332C101.508 35.758 102 34.571 102 33.3333V14.6667C102 13.429 101.508 12.242 100.633 11.3668C99.758 10.4917 98.571 10 97.3333 10Z" fill="url(#paint2_linear_138_3181)"/>
<path d="M82 72.5C82 73.7856 82.3812 75.0423 83.0954 76.1112C83.8097 77.1801 84.8248 78.0132 86.0126 78.5052C87.2003 78.9972 88.5072 79.1259 89.7681 78.8751C91.029 78.6243 92.1871 78.0052 93.0962 77.0962C94.0052 76.1871 94.6243 75.029 94.8751 73.7681C95.1259 72.5072 94.9972 71.2003 94.5052 70.0126C94.0132 68.8248 93.1801 67.8097 92.1112 67.0954C91.0423 66.3812 89.7856 66 88.5 66C86.7761 66 85.1228 66.6848 83.9038 67.9038C82.6848 69.1228 82 70.7761 82 72.5ZM91.75 72.5C91.75 73.1428 91.5594 73.7711 91.2023 74.3056C90.8452 74.8401 90.3376 75.2566 89.7437 75.5026C89.1499 75.7486 88.4964 75.813 87.866 75.6876C87.2355 75.5621 86.6564 75.2526 86.2019 74.7981C85.7474 74.3436 85.4378 73.7645 85.3124 73.134C85.187 72.5036 85.2514 71.8501 85.4974 71.2563C85.7434 70.6624 86.1599 70.1548 86.6944 69.7977C87.2289 69.4406 87.8572 69.25 88.5 69.25C89.362 69.25 90.1886 69.5924 90.7981 70.2019C91.4076 70.8114 91.75 71.638 91.75 72.5Z" fill="url(#paint3_linear_138_3181)"/>
<path d="M97.3333 58H78.6667C77.429 58 76.242 58.4917 75.3668 59.3668C74.4917 60.242 74 61.429 74 62.6667V81.3333C74 82.571 74.4917 83.758 75.3668 84.6332C76.242 85.5083 77.429 86 78.6667 86H97.3333C98.571 86 99.758 85.5083 100.633 84.6332C101.508 83.758 102 82.571 102 81.3333V78.2222C102 77.8097 101.836 77.414 101.544 77.1223C101.253 76.8306 100.857 76.6667 100.444 76.6667C100.032 76.6667 99.6362 76.8306 99.3445 77.1223C99.0528 77.414 98.8889 77.8097 98.8889 78.2222V81.3333C98.8889 81.7459 98.725 82.1416 98.4333 82.4333C98.1416 82.725 97.7459 82.8889 97.3333 82.8889H78.6667C78.2541 82.8889 77.8584 82.725 77.5667 82.4333C77.275 82.1416 77.1111 81.7459 77.1111 81.3333V62.6667C77.1111 62.2541 77.275 61.8584 77.5667 61.5667C77.8584 61.275 78.2541 61.1111 78.6667 61.1111H97.3333C97.7459 61.1111 98.1416 61.275 98.4333 61.5667C98.725 61.8584 98.8889 62.2541 98.8889 62.6667V72C98.8889 72.4126 99.0528 72.8082 99.3445 73.0999C99.6362 73.3917 100.032 73.5556 100.444 73.5556C100.857 73.5556 101.253 73.3917 101.544 73.0999C101.836 72.8082 102 72.4126 102 72V62.6667C102 61.429 101.508 60.242 100.633 59.3668C99.758 58.4917 98.571 58 97.3333 58Z" fill="url(#paint4_linear_138_3181)"/>
<path d="M42.7643 28.7562C43.0231 28.9165 43.3217 29.001 43.6262 29C43.8808 28.9985 44.1314 28.9372 44.358 28.8212L54.1153 23.9443C54.3817 23.8079 54.6052 23.6007 54.7613 23.3454C54.9174 23.0901 55 22.7967 55 22.4975C55 22.1983 54.9174 21.905 54.7613 21.6497C54.6052 21.3944 54.3817 21.1872 54.1153 21.0507L44.358 16.1739C44.1105 16.0492 43.8351 15.9898 43.5581 16.0014C43.2812 16.013 43.0118 16.0952 42.7755 16.2402C42.5393 16.3851 42.344 16.588 42.2083 16.8297C42.0725 17.0713 42.0008 17.3436 42 17.6207V27.3744C41.9995 27.6506 42.0693 27.9225 42.2031 28.1643C42.3368 28.406 42.53 28.6097 42.7643 28.7562ZM45.2524 20.2542L49.7408 22.4975L45.2524 24.7409V20.2542Z" fill="url(#paint5_linear_138_3181)"/>
<path d="M47 36C49.7689 36 52.4757 35.1789 54.778 33.6406C57.0803 32.1022 58.8747 29.9157 59.9343 27.3576C60.9939 24.7994 61.2712 21.9845 60.731 19.2687C60.1908 16.553 58.8574 14.0584 56.8995 12.1005C54.9416 10.1426 52.447 8.80921 49.7313 8.26901C47.0155 7.72882 44.2006 8.00607 41.6424 9.06569C39.0843 10.1253 36.8978 11.9197 35.3594 14.222C33.8211 16.5243 33 19.2311 33 22C33 25.713 34.475 29.274 37.1005 31.8995C39.726 34.525 43.287 36 47 36ZM47 11.1111C49.1536 11.1111 51.2589 11.7497 53.0495 12.9462C54.8402 14.1427 56.2359 15.8433 57.06 17.833C57.8842 19.8227 58.0998 22.0121 57.6797 24.1243C57.2595 26.2366 56.2224 28.1768 54.6996 29.6996C53.1768 31.2224 51.2366 32.2595 49.1243 32.6797C47.0121 33.0998 44.8227 32.8842 42.833 32.06C40.8433 31.2359 39.1427 29.8402 37.9462 28.0495C36.7497 26.2589 36.1111 24.1536 36.1111 22C36.1111 19.1121 37.2583 16.3425 39.3004 14.3004C41.3425 12.2583 44.1121 11.1111 47 11.1111Z" fill="url(#paint6_linear_138_3181)"/>
<path d="M62.4 42C62.6173 42 62.8317 41.9458 63.0261 41.8416C63.2205 41.7375 63.3896 41.5863 63.52 41.4L67.72 35.4C67.9428 35.0817 68.0384 34.6817 67.9859 34.2879C67.9334 33.894 67.737 33.5387 67.44 33.3C67.143 33.0613 66.7696 32.9588 66.402 33.0151C66.0344 33.0713 65.7028 33.2817 65.48 33.6L61.28 39.6C61.0572 39.9183 60.9616 40.3183 61.0141 40.7121C61.0666 41.106 61.263 41.4613 61.56 41.7C61.8023 41.8947 62.0971 42 62.4 42Z" fill="url(#paint7_linear_138_3181)"/>
<path d="M66.3 48.36C66.4397 48.5587 66.6209 48.72 66.8292 48.8311C67.0375 48.9422 67.2671 49 67.5 49C67.8246 49 68.1404 48.8877 68.4 48.68L74.4 43.88C74.7183 43.6254 74.9287 43.2464 74.9849 42.8263C75.0412 42.4062 74.9387 41.9795 74.7 41.64C74.4613 41.3005 74.106 41.0761 73.7121 41.0161C73.3183 40.9561 72.9183 41.0654 72.6 41.32L66.6 46.12C66.2817 46.3746 66.0713 46.7536 66.0151 47.1737C65.9588 47.5938 66.0613 48.0205 66.3 48.36Z" fill="url(#paint8_linear_138_3181)"/>
<path d="M81.9637 52.3596C81.927 52.1408 81.8494 51.9321 81.7355 51.7461C81.6215 51.5601 81.4737 51.4006 81.3008 51.2773C81.1278 51.1539 80.9334 51.0692 80.7291 51.0283C80.5248 50.9873 80.3149 50.9909 80.112 51.0389L72.3965 52.6898C72.1938 52.7115 71.9972 52.7757 71.8177 52.8787C71.6382 52.9817 71.4795 53.1215 71.3505 53.2901C71.0901 53.6307 70.9668 54.068 71.0077 54.5059C71.0486 54.9438 71.2504 55.3463 71.5688 55.6249C71.8871 55.9036 72.2958 56.0355 72.7051 55.9918H73.0137L80.7292 54.3408C80.9338 54.3016 81.1288 54.2185 81.3027 54.0966C81.4765 53.9747 81.6256 53.8165 81.7408 53.6315C81.8561 53.4465 81.9353 53.2385 81.9736 53.0199C82.0119 52.8014 82.0085 52.5768 81.9637 52.3596Z" fill="url(#paint9_linear_138_3181)"/>
<path d="M9.57143 52H28.4286C28.8453 52 29.245 51.8361 29.5397 51.5444C29.8344 51.2527 30 50.857 30 50.4444V25.5556C30 25.143 29.8344 24.7473 29.5397 24.4556C29.245 24.1639 28.8453 24 28.4286 24H9.57143C9.15466 24 8.75496 24.1639 8.46026 24.4556C8.16556 24.7473 8 25.143 8 25.5556V50.4444C8 50.857 8.16556 51.2527 8.46026 51.5444C8.75496 51.8361 9.15466 52 9.57143 52ZM11.1429 27.1111H26.8571V48.8889H11.1429V27.1111Z" fill="url(#paint10_linear_138_3181)"/>
<path d="M21.5 30H18.5C18.1022 30 17.7206 30.158 17.4393 30.4393C17.158 30.7206 17 31.1022 17 31.5C17 31.8978 17.158 32.2794 17.4393 32.5607C17.7206 32.842 18.1022 33 18.5 33H21.5C21.8978 33 22.2794 32.842 22.5607 32.5607C22.842 32.2794 23 31.8978 23 31.5C23 31.1022 22.842 30.7206 22.5607 30.4393C22.2794 30.158 21.8978 30 21.5 30Z" fill="url(#paint11_linear_138_3181)"/>
<path d="M21.5 36H15.5C15.1022 36 14.7206 36.158 14.4393 36.4393C14.158 36.7206 14 37.1022 14 37.5C14 37.8978 14.158 38.2794 14.4393 38.5607C14.7206 38.842 15.1022 39 15.5 39H21.5C21.8978 39 22.2794 38.842 22.5607 38.5607C22.842 38.2794 23 37.8978 23 37.5C23 37.1022 22.842 36.7206 22.5607 36.4393C22.2794 36.158 21.8978 36 21.5 36Z" fill="url(#paint12_linear_138_3181)"/>
<path d="M21.5 42H15.5C15.1022 42 14.7206 42.158 14.4393 42.4393C14.158 42.7206 14 43.1022 14 43.5C14 43.8978 14.158 44.2794 14.4393 44.5607C14.7206 44.842 15.1022 45 15.5 45H21.5C21.8978 45 22.2794 44.842 22.5607 44.5607C22.842 44.2794 23 43.8978 23 43.5C23 43.1022 22.842 42.7206 22.5607 42.4393C22.2794 42.158 21.8978 42 21.5 42Z" fill="url(#paint13_linear_138_3181)"/>
<path d="M61.0655 51.0168C60.9635 50.836 60.8276 50.6774 60.6655 50.5501C60.5033 50.4228 60.3182 50.3293 60.1206 50.275C59.9231 50.2206 59.7169 50.2064 59.514 50.2332C59.311 50.26 59.1152 50.3273 58.9378 50.4312C58.7604 50.5351 58.6048 50.6737 58.4799 50.8389C58.3549 51.0041 58.2632 51.1927 58.2098 51.3941C58.1565 51.5954 58.1426 51.8055 58.1689 52.0123C58.1952 52.2191 58.2612 52.4186 58.3632 52.5995L65.2121 64.675L40.3636 74.1709C40.3636 74.1709 40.3636 74.1709 40.2548 74.1709H40.1306L36.0927 76.5449L33.406 78.1275C33.0523 78.3359 32.6617 78.4711 32.2566 78.5254C31.8515 78.5798 31.4399 78.5521 31.0454 78.444C30.2527 78.2258 29.5771 77.6966 29.1662 76.9722L26.0601 71.4962C25.6947 70.7798 25.6118 69.9481 25.8283 69.1714C26.0448 68.3947 26.5445 67.7317 27.2249 67.3181L32.5984 64.1528L36.481 71.0056C36.6178 71.2471 36.8148 71.4475 37.0521 71.5865C37.2894 71.7254 37.5585 71.798 37.8321 71.7969C38.1053 71.798 38.3738 71.7257 38.6108 71.5873C38.8477 71.4488 39.0447 71.2491 39.1817 71.0083C39.3188 70.7676 39.3911 70.4942 39.3913 70.2159C39.3916 69.9375 39.3198 69.664 39.1833 69.423L35.1764 62.3644L54.667 45.984L55.3037 47.1077C55.4057 47.2885 55.5416 47.4471 55.7037 47.5744C55.8658 47.7016 56.051 47.7951 56.2485 47.8495C56.4461 47.9039 56.6522 47.9181 56.8552 47.8913C57.0581 47.8645 57.2539 47.7972 57.4314 47.6933C57.6088 47.5893 57.7644 47.4508 57.8893 47.2856C58.0142 47.1204 58.106 46.9318 58.1593 46.7304C58.2127 46.5291 58.2266 46.319 58.2003 46.1122C58.174 45.9054 58.108 45.7058 58.006 45.525L56.453 42.7871C56.3391 42.5888 56.1843 42.4181 55.9993 42.2869C55.8142 42.1557 55.6034 42.0672 55.3814 42.0274C55.1582 41.9845 54.9284 41.9921 54.7084 42.0495C54.4884 42.1069 54.2834 42.2128 54.1079 42.3597L32.3654 60.6235L25.7495 64.5168C24.5623 65.2215 23.6378 66.3075 23.1207 67.6047C22.6036 68.902 22.5232 70.3373 22.892 71.6861L21.3389 72.5883C20.5387 73.0565 19.893 73.7564 19.4836 74.5991C19.0743 75.4419 18.9196 76.3895 19.0394 77.3219C19.1592 78.2543 19.548 79.1294 20.1564 79.8364C20.7649 80.5433 21.5656 81.0502 22.4571 81.2928C22.8523 81.3995 23.2596 81.4527 23.6685 81.4511C24.4855 81.4476 25.2878 81.2296 25.998 80.818L27.5511 79.9159C28.2971 80.7013 29.2353 81.2695 30.2689 81.5619C30.7996 81.7131 31.3485 81.7877 31.8995 81.7834C32.9912 81.786 34.0636 81.4909 35.0056 80.9288L36.3567 80.1375L39.4628 85.6293C40.0801 86.7168 41.0952 87.5107 42.2858 87.8371C43.4764 88.1634 44.7453 87.9955 45.8147 87.3702C46.3452 87.0587 46.8103 86.6437 47.1833 86.1489C47.5563 85.6541 47.83 85.0892 47.9886 84.4866C48.1473 83.8839 48.1878 83.2553 48.1079 82.6367C48.0281 82.0181 47.8293 81.4216 47.523 80.8813L44.6965 75.8643L67.992 66.954C68.2032 66.8731 68.3947 66.7462 68.5529 66.5822C68.7111 66.4183 68.8324 66.2211 68.9083 66.0045C68.9838 65.7904 69.0133 65.5623 68.9945 65.3356C68.9757 65.1089 68.9092 64.889 68.7995 64.6909L61.0655 51.0168ZM24.3829 78.0642C24.206 78.1684 24.0107 78.236 23.8082 78.2632C23.6057 78.2903 23.3999 78.2765 23.2026 78.2225C22.8047 78.1171 22.464 77.8553 22.2552 77.4945C22.153 77.3142 22.0866 77.1152 22.06 76.9088C22.0333 76.7024 22.0469 76.4927 22.0999 76.2916C22.1529 76.0896 22.2447 75.9002 22.37 75.7345C22.4953 75.5688 22.6516 75.43 22.8298 75.3262L24.181 74.5349L25.734 77.2729L24.3829 78.0642ZM44.8208 82.4956C44.923 82.6758 44.9893 82.8749 45.016 83.0813C45.0426 83.2877 45.0291 83.4974 44.9761 83.6984C44.8653 84.1007 44.6029 84.4421 44.2461 84.648C43.8914 84.8557 43.4706 84.9123 43.0751 84.8056C42.6797 84.699 42.3415 84.4376 42.134 84.0783L39.028 78.5865L41.606 77.083H41.7302L44.8208 82.4956Z" fill="url(#paint14_linear_138_3181)"/>
<defs>
<linearGradient id="paint0_linear_138_3181" x1="8" y1="57" x2="75.7452" y2="81.4676" gradientUnits="userSpaceOnUse">
<stop stop-color="#0C97FA"/>
<stop offset="1" stop-color="#16E1F5"/>
</linearGradient>
<linearGradient id="paint1_linear_138_3181" x1="82" y1="16" x2="98.7613" y2="20.1281" gradientUnits="userSpaceOnUse">
<stop stop-color="#0C97FA"/>
<stop offset="1" stop-color="#16E1F5"/>
</linearGradient>
<linearGradient id="paint2_linear_138_3181" x1="74" y1="10" x2="109.069" y2="20.6302" gradientUnits="userSpaceOnUse">
<stop stop-color="#0C97FA"/>
<stop offset="1" stop-color="#16E1F5"/>
</linearGradient>
<linearGradient id="paint3_linear_138_3181" x1="82" y1="66" x2="98.2819" y2="70.9355" gradientUnits="userSpaceOnUse">
<stop stop-color="#0C97FA"/>
<stop offset="1" stop-color="#16E1F5"/>
</linearGradient>
<linearGradient id="paint4_linear_138_3181" x1="74" y1="58" x2="109.069" y2="68.6302" gradientUnits="userSpaceOnUse">
<stop stop-color="#0C97FA"/>
<stop offset="1" stop-color="#16E1F5"/>
</linearGradient>
<linearGradient id="paint5_linear_138_3181" x1="42" y1="16" x2="58.2819" y2="20.9355" gradientUnits="userSpaceOnUse">
<stop stop-color="#0C97FA"/>
<stop offset="1" stop-color="#16E1F5"/>
</linearGradient>
<linearGradient id="paint6_linear_138_3181" x1="33" y1="8" x2="68.0688" y2="18.6302" gradientUnits="userSpaceOnUse">
<stop stop-color="#0C97FA"/>
<stop offset="1" stop-color="#16E1F5"/>
</linearGradient>
<linearGradient id="paint7_linear_138_3181" x1="61" y1="33" x2="70.0687" y2="35.1381" gradientUnits="userSpaceOnUse">
<stop stop-color="#0C97FA"/>
<stop offset="1" stop-color="#16E1F5"/>
</linearGradient>
<linearGradient id="paint8_linear_138_3181" x1="66" y1="41" x2="77.0257" y2="44.7599" gradientUnits="userSpaceOnUse">
<stop stop-color="#0C97FA"/>
<stop offset="1" stop-color="#16E1F5"/>
</linearGradient>
<linearGradient id="paint9_linear_138_3181" x1="71" y1="51" x2="81.4123" y2="57.9437" gradientUnits="userSpaceOnUse">
<stop stop-color="#0C97FA"/>
<stop offset="1" stop-color="#16E1F5"/>
</linearGradient>
<linearGradient id="paint10_linear_138_3181" x1="8" y1="24" x2="36.4709" y2="30.7809" gradientUnits="userSpaceOnUse">
<stop stop-color="#0C97FA"/>
<stop offset="1" stop-color="#16E1F5"/>
</linearGradient>
<linearGradient id="paint11_linear_138_3181" x1="17" y1="30" x2="23" y2="33.6375" gradientUnits="userSpaceOnUse">
<stop stop-color="#0C97FA"/>
<stop offset="1" stop-color="#16E1F5"/>
</linearGradient>
<linearGradient id="paint12_linear_138_3181" x1="14" y1="36" x2="20.7368" y2="42.1263" gradientUnits="userSpaceOnUse">
<stop stop-color="#0C97FA"/>
<stop offset="1" stop-color="#16E1F5"/>
</linearGradient>
<linearGradient id="paint13_linear_138_3181" x1="14" y1="42" x2="20.7368" y2="48.1263" gradientUnits="userSpaceOnUse">
<stop stop-color="#0C97FA"/>
<stop offset="1" stop-color="#16E1F5"/>
</linearGradient>
<linearGradient id="paint14_linear_138_3181" x1="19" y1="42" x2="80.6809" y2="62.3229" gradientUnits="userSpaceOnUse">
<stop stop-color="#0C97FA"/>
<stop offset="1" stop-color="#16E1F5"/>
</linearGradient>
</defs>
</svg>
