<svg width="97" height="96" viewBox="0 0 97 96" fill="none" xmlns="http://www.w3.org/2000/svg">
<path d="M80.4998 52.1503V6.40077C80.4998 2.86572 77.6344 0 74.0998 0H6.89998C3.36537 0 0.5 2.86572 0.5 6.40077V83.21C0.5 86.745 3.36537 89.6107 6.89998 89.6107H58.4534C65.1048 96.1215 75.09 97.8374 83.5329 93.9207C91.9758 90.0039 97.115 81.2714 96.4409 71.9878C95.7668 62.7041 89.4199 54.8059 80.4998 52.1503ZM6.89998 3.20038H74.0998C75.8671 3.20038 77.2998 4.63324 77.2998 6.40077V19.2023H3.69999V6.40077C3.69999 4.63324 5.13268 3.20038 6.89998 3.20038ZM3.69999 83.21V22.4027H77.2998V51.4622C68.4693 50.1672 59.7147 54.2489 55.0289 61.8457C50.343 69.4425 50.6238 79.0987 55.743 86.4104H6.89998C5.13268 86.4104 3.69999 84.9775 3.69999 83.21ZM74.0998 92.8111C63.496 92.8111 54.8998 84.214 54.8998 73.6088C54.8998 63.0037 63.496 54.4065 74.0998 54.4065C84.7036 54.4065 93.2997 63.0037 93.2997 73.6088C93.2883 84.2092 84.6989 92.7997 74.0998 92.8111Z" fill="url(#paint0_linear_138_3098)"/>
<path d="M11.5 16C14.2614 16 16.5 13.7614 16.5 11C16.5 8.23858 14.2614 6 11.5 6C8.73858 6 6.5 8.23858 6.5 11C6.5 13.7614 8.73858 16 11.5 16ZM11.5 9.33333C12.4205 9.33333 13.1667 10.0795 13.1667 11C13.1667 11.9205 12.4205 12.6667 11.5 12.6667C10.5795 12.6667 9.83333 11.9205 9.83333 11C9.83333 10.0795 10.5795 9.33333 11.5 9.33333Z" fill="url(#paint1_linear_138_3098)"/>
<path d="M24.5 16C27.2614 16 29.5 13.7614 29.5 11C29.5 8.23858 27.2614 6 24.5 6C21.7386 6 19.5 8.23858 19.5 11C19.5 13.7614 21.7386 16 24.5 16ZM24.5 9.33333C25.4205 9.33333 26.1667 10.0795 26.1667 11C26.1667 11.9205 25.4205 12.6667 24.5 12.6667C23.5795 12.6667 22.8333 11.9205 22.8333 11C22.8333 10.0795 23.5795 9.33333 24.5 9.33333Z" fill="url(#paint2_linear_138_3098)"/>
<path d="M53.375 16H69.625C72.3174 16 74.5 13.7614 74.5 11C74.5 8.23858 72.3174 6 69.625 6H53.375C50.6826 6 48.5 8.23858 48.5 11C48.5 13.7614 50.6826 16 53.375 16ZM53.375 9.33333H69.625C70.5225 9.33333 71.25 10.0795 71.25 11C71.25 11.9205 70.5225 12.6667 69.625 12.6667H53.375C52.4775 12.6667 51.75 11.9205 51.75 11C51.75 10.0795 52.4775 9.33333 53.375 9.33333Z" fill="url(#paint3_linear_138_3098)"/>
<path d="M33 43C36.5899 43 39.5 40.1346 39.5 36.6V28.6C39.5 27.7163 38.7725 27 37.875 27C36.9775 27 36.25 27.7163 36.25 28.6V36.6C36.25 38.3673 34.7949 39.8 33 39.8C31.2051 39.8 29.75 38.3673 29.75 36.6V28.6C29.75 27.7163 29.0225 27 28.125 27C27.2275 27 26.5 27.7163 26.5 28.6V36.6C26.5 40.1346 29.4101 43 33 43Z" fill="url(#paint4_linear_138_3098)"/>
<path d="M43.15 42.68C43.4948 42.9346 43.9282 43.0439 44.3548 42.9839C44.7814 42.9239 45.1664 42.6995 45.425 42.36L49 37.6672L52.5749 42.36C52.9233 42.8173 53.4929 43.0569 54.0693 42.9885C54.6457 42.9201 55.1412 42.5542 55.3693 42.0285C55.5973 41.5028 55.5232 40.8973 55.1749 40.44L51.0312 35L55.1749 29.5601C55.7134 28.8532 55.5679 27.8503 54.8499 27.3201C54.1319 26.7899 53.1134 26.9332 52.5749 27.6401L49 32.3329L45.425 27.6401C45.0767 27.1828 44.507 26.9432 43.9306 27.0116C43.3542 27.08 42.8587 27.4459 42.6306 27.9716C42.4026 28.4972 42.4767 29.1028 42.825 29.5601L46.9687 35L42.825 40.44C42.5664 40.7795 42.4554 41.2062 42.5163 41.6263C42.5773 42.0463 42.8052 42.4254 43.15 42.68Z" fill="url(#paint5_linear_138_3098)"/>
<path d="M11.2143 67H23.7857C26.3893 67 28.5 64.8734 28.5 62.25V52.75C28.5 50.1266 26.3893 48 23.7857 48H11.2143C8.61066 48 6.5 50.1266 6.5 52.75V62.25C6.5 64.8734 8.61066 67 11.2143 67ZM9.64286 62.25V52.9622L22.5851 63.8333H11.2143C10.3464 63.8333 9.64286 63.1245 9.64286 62.25ZM25.3571 52.75V62.0378L12.4149 51.1667H23.7857C24.6536 51.1667 25.3571 51.8755 25.3571 52.75Z" fill="url(#paint6_linear_138_3098)"/>
<path d="M32.5 49.5C32.5 50.3284 33.2213 51 34.1111 51H59.8889C60.7787 51 61.5 50.3284 61.5 49.5C61.5 48.6716 60.7787 48 59.8889 48H34.1111C33.2213 48 32.5 48.6716 32.5 49.5Z" fill="url(#paint7_linear_138_3098)"/>
<path d="M46.8846 70H8.11538C7.22323 70 6.5 70.6716 6.5 71.5C6.5 72.3284 7.22323 73 8.11538 73H46.8846C47.7768 73 48.5 72.3284 48.5 71.5C48.5 70.6716 47.7768 70 46.8846 70Z" fill="url(#paint8_linear_138_3098)"/>
<path d="M36.9 77H8.1C7.21634 77 6.5 77.6716 6.5 78.5C6.5 79.3284 7.21634 80 8.1 80H36.9C37.7837 80 38.5 79.3284 38.5 78.5C38.5 77.6716 37.7837 77 36.9 77Z" fill="url(#paint9_linear_138_3098)"/>
<path d="M51.8846 56H34.1154C33.2232 56 32.5 56.6716 32.5 57.5C32.5 58.3284 33.2232 59 34.1154 59H51.8846C52.7768 59 53.5 58.3284 53.5 57.5C53.5 56.6716 52.7768 56 51.8846 56Z" fill="url(#paint10_linear_138_3098)"/>
<path d="M48.8636 64H34.1364C33.2326 64 32.5 64.6716 32.5 65.5C32.5 66.3284 33.2326 67 34.1364 67H48.8636C49.7674 67 50.5 66.3284 50.5 65.5C50.5 64.6716 49.7674 64 48.8636 64Z" fill="url(#paint11_linear_138_3098)"/>
<path d="M72.5 68.5C72.5 64.9101 69.5899 62 66 62C62.4101 62 59.5 64.9101 59.5 68.5C59.5 72.0899 62.4101 75 66 75C69.5899 75 72.5 72.0899 72.5 68.5ZM62.75 68.5C62.7421 66.9208 63.8705 65.5644 65.4249 65.285C66.9792 65.0055 68.5095 65.8839 69.0521 67.367C69.5947 68.8501 68.9927 70.5086 67.625 71.2983V70.125C67.625 69.2275 66.8975 68.5 66 68.5C65.1025 68.5 64.375 69.2275 64.375 70.125V71.2983C63.3728 70.7223 62.7535 69.6559 62.75 68.5Z" fill="url(#paint12_linear_138_3098)"/>
<path d="M82 62C78.4101 62 75.5 64.9101 75.5 68.5C75.5 72.0899 78.4101 75 82 75C85.5899 75 88.5 72.0899 88.5 68.5C88.5 64.9101 85.5899 62 82 62ZM83.625 71.2983V70.125C83.625 69.2275 82.8975 68.5 82 68.5C81.1025 68.5 80.375 69.2275 80.375 70.125V71.2983C79.1011 70.5628 78.48 69.0634 78.8607 67.6425C79.2415 66.2217 80.529 65.2337 82 65.2337C83.471 65.2337 84.7585 66.2217 85.1393 67.6425C85.52 69.0634 84.8989 70.5628 83.625 71.2983Z" fill="url(#paint13_linear_138_3098)"/>
<path d="M79.3 78H69.7C67.9327 78 66.5 79.4071 66.5 81.1429C66.5 85.4822 70.0817 89 74.5 89C78.9183 89 82.5 85.4822 82.5 81.1429C82.5 80.3093 82.1629 79.5099 81.5627 78.9205C80.9626 78.3311 80.1487 78 79.3 78ZM74.5 85.8571C71.849 85.8571 69.7 83.7465 69.7 81.1429H79.3C79.3 83.7465 77.151 85.8571 74.5 85.8571Z" fill="url(#paint14_linear_138_3098)"/>
<defs>
<linearGradient id="paint0_linear_138_3098" x1="0.5" y1="0" x2="120.736" y2="36.4465" gradientUnits="userSpaceOnUse">
<stop stop-color="#0C97FA"/>
<stop offset="1" stop-color="#16E1F5"/>
</linearGradient>
<linearGradient id="paint1_linear_138_3098" x1="6.5" y1="6" x2="19.0246" y2="9.79651" gradientUnits="userSpaceOnUse">
<stop stop-color="#0C97FA"/>
<stop offset="1" stop-color="#16E1F5"/>
</linearGradient>
<linearGradient id="paint2_linear_138_3098" x1="19.5" y1="6" x2="32.0246" y2="9.79651" gradientUnits="userSpaceOnUse">
<stop stop-color="#0C97FA"/>
<stop offset="1" stop-color="#16E1F5"/>
</linearGradient>
<linearGradient id="paint3_linear_138_3098" x1="48.5" y1="6" x2="70.4327" y2="23.2857" gradientUnits="userSpaceOnUse">
<stop stop-color="#0C97FA"/>
<stop offset="1" stop-color="#16E1F5"/>
</linearGradient>
<linearGradient id="paint4_linear_138_3098" x1="26.5" y1="27" x2="43.2613" y2="31.1281" gradientUnits="userSpaceOnUse">
<stop stop-color="#0C97FA"/>
<stop offset="1" stop-color="#16E1F5"/>
</linearGradient>
<linearGradient id="paint5_linear_138_3098" x1="42.5" y1="27" x2="59.2613" y2="31.1281" gradientUnits="userSpaceOnUse">
<stop stop-color="#0C97FA"/>
<stop offset="1" stop-color="#16E1F5"/>
</linearGradient>
<linearGradient id="paint6_linear_138_3098" x1="6.5" y1="48" x2="33.286" y2="57.4015" gradientUnits="userSpaceOnUse">
<stop stop-color="#0C97FA"/>
<stop offset="1" stop-color="#16E1F5"/>
</linearGradient>
<linearGradient id="paint7_linear_138_3098" x1="32.5" y1="48" x2="36.6371" y2="60.1225" gradientUnits="userSpaceOnUse">
<stop stop-color="#0C97FA"/>
<stop offset="1" stop-color="#16E1F5"/>
</linearGradient>
<linearGradient id="paint8_linear_138_3098" x1="6.5" y1="70" x2="9.52148" y2="82.8224" gradientUnits="userSpaceOnUse">
<stop stop-color="#0C97FA"/>
<stop offset="1" stop-color="#16E1F5"/>
</linearGradient>
<linearGradient id="paint9_linear_138_3098" x1="6.5" y1="77" x2="10.3205" y2="89.3528" gradientUnits="userSpaceOnUse">
<stop stop-color="#0C97FA"/>
<stop offset="1" stop-color="#16E1F5"/>
</linearGradient>
<linearGradient id="paint10_linear_138_3098" x1="32.5" y1="56" x2="37.7193" y2="67.0747" gradientUnits="userSpaceOnUse">
<stop stop-color="#0C97FA"/>
<stop offset="1" stop-color="#16E1F5"/>
</linearGradient>
<linearGradient id="paint11_linear_138_3098" x1="32.5" y1="64" x2="38.2141" y2="74.3926" gradientUnits="userSpaceOnUse">
<stop stop-color="#0C97FA"/>
<stop offset="1" stop-color="#16E1F5"/>
</linearGradient>
<linearGradient id="paint12_linear_138_3098" x1="59.5" y1="62" x2="75.7819" y2="66.9355" gradientUnits="userSpaceOnUse">
<stop stop-color="#0C97FA"/>
<stop offset="1" stop-color="#16E1F5"/>
</linearGradient>
<linearGradient id="paint13_linear_138_3098" x1="75.5" y1="62" x2="91.7819" y2="66.9355" gradientUnits="userSpaceOnUse">
<stop stop-color="#0C97FA"/>
<stop offset="1" stop-color="#16E1F5"/>
</linearGradient>
<linearGradient id="paint14_linear_138_3098" x1="66.5" y1="78" x2="84.8193" y2="86.0772" gradientUnits="userSpaceOnUse">
<stop stop-color="#0C97FA"/>
<stop offset="1" stop-color="#16E1F5"/>
</linearGradient>
</defs>
</svg>
