<svg width="224" height="487" viewBox="0 0 224 487" fill="none" xmlns="http://www.w3.org/2000/svg">
<path d="M23.88 14.8H14.08V40H10.48V14.8H0.68V11.6H23.88V14.8ZM25.0891 45.68C25.4357 45.7067 25.7824 45.7333 26.1291 45.76C26.4757 45.8133 26.7424 45.84 26.9291 45.84C27.3557 45.84 27.7291 45.6933 28.0491 45.4C28.3691 45.1067 28.7157 44.5333 29.0891 43.68C29.4891 42.8533 29.9957 41.6267 30.6091 40L21.7691 19.12H25.4891L32.5291 36.44L38.8891 19.12H42.3691L32.2091 45.48C31.9691 46.0933 31.6091 46.6667 31.1291 47.2C30.6757 47.76 30.0891 48.2 29.3691 48.52C28.6491 48.84 27.7824 49 26.7691 49C26.5291 49 26.2757 48.9867 26.0091 48.96C25.7691 48.9333 25.4624 48.88 25.0891 48.8V45.68ZM57.1659 40.4C55.4593 40.4 53.9393 39.9733 52.6059 39.12C51.2726 38.2667 50.2193 37.1867 49.4459 35.88V48.52H45.9259V19.12H49.0459V23.04C49.8726 21.76 50.9526 20.7333 52.2859 19.96C53.6193 19.16 55.0726 18.76 56.6459 18.76C58.0859 18.76 59.4059 19.0533 60.6059 19.64C61.8059 20.2267 62.8459 21.0267 63.7259 22.04C64.6059 23.0533 65.2859 24.2133 65.7659 25.52C66.2726 26.8 66.5259 28.1467 66.5259 29.56C66.5259 31.5333 66.1259 33.3467 65.3259 35C64.5526 36.6533 63.4593 37.9733 62.0459 38.96C60.6326 39.92 59.0059 40.4 57.1659 40.4ZM56.0859 37.36C57.1259 37.36 58.0593 37.1467 58.8859 36.72C59.7393 36.2667 60.4593 35.68 61.0459 34.96C61.6593 34.2133 62.1259 33.3733 62.4459 32.44C62.7659 31.5067 62.9259 30.5467 62.9259 29.56C62.9259 28.52 62.7393 27.5333 62.3659 26.6C62.0193 25.6667 61.5126 24.84 60.8459 24.12C60.2059 23.4 59.4459 22.84 58.5659 22.44C57.7126 22.0133 56.7793 21.8 55.7659 21.8C55.1259 21.8 54.4593 21.92 53.7659 22.16C53.0993 22.4 52.4593 22.7467 51.8459 23.2C51.2326 23.6267 50.7126 24.12 50.2859 24.68C49.8593 25.24 49.5793 25.84 49.4459 26.48V32.44C49.8459 33.3467 50.3793 34.1733 51.0459 34.92C51.7126 35.6667 52.4859 36.2667 53.3659 36.72C54.2459 37.1467 55.1526 37.36 56.0859 37.36ZM79.9678 40.4C78.3945 40.4 76.9678 40.12 75.6878 39.56C74.4078 38.9733 73.3011 38.1867 72.3678 37.2C71.4345 36.1867 70.7145 35.0267 70.2078 33.72C69.7011 32.4133 69.4478 31.04 69.4478 29.6C69.4478 28.1333 69.7011 26.7467 70.2078 25.44C70.7145 24.1333 71.4345 22.9867 72.3678 22C73.3011 20.9867 74.4078 20.2 75.6878 19.64C76.9945 19.0533 78.4211 18.76 79.9678 18.76C81.5411 18.76 82.9678 19.0533 84.2478 19.64C85.5278 20.2 86.6345 20.9867 87.5678 22C88.5278 22.9867 89.2611 24.1333 89.7678 25.44C90.2745 26.7467 90.5278 28.1333 90.5278 29.6C90.5278 31.04 90.2745 32.4133 89.7678 33.72C89.2611 35.0267 88.5411 36.1867 87.6078 37.2C86.6745 38.1867 85.5545 38.9733 84.2478 39.56C82.9678 40.12 81.5411 40.4 79.9678 40.4ZM73.0478 29.64C73.0478 31.08 73.3545 32.3867 73.9678 33.56C74.6078 34.7333 75.4478 35.6667 76.4878 36.36C77.5278 37.0267 78.6878 37.36 79.9678 37.36C81.2478 37.36 82.4078 37.0133 83.4478 36.32C84.5145 35.6267 85.3545 34.6933 85.9678 33.52C86.6078 32.32 86.9278 31 86.9278 29.56C86.9278 28.12 86.6078 26.8133 85.9678 25.64C85.3545 24.4667 84.5145 23.5333 83.4478 22.84C82.4078 22.1467 81.2478 21.8 79.9678 21.8C78.6878 21.8 77.5278 22.16 76.4878 22.88C75.4478 23.5733 74.6078 24.5067 73.9678 25.68C73.3545 26.8533 73.0478 28.1733 73.0478 29.64ZM103.113 40.24C101.7 40.24 100.393 39.96 99.1931 39.4C98.0198 38.8133 97.0065 38.0267 96.1531 37.04C95.2998 36.0267 94.6331 34.88 94.1531 33.6C93.6998 32.32 93.4731 30.9867 93.4731 29.6C93.4731 28.1333 93.6998 26.7467 94.1531 25.44C94.6331 24.1333 95.2998 22.9867 96.1531 22C97.0331 20.9867 98.0598 20.2 99.2331 19.64C100.406 19.0533 101.713 18.76 103.153 18.76C104.886 18.76 106.393 19.1867 107.673 20.04C108.98 20.8933 110.073 21.9733 110.953 23.28V19.12H114.073V39.76C114.073 41.7333 113.593 43.4 112.633 44.76C111.7 46.12 110.42 47.1467 108.793 47.84C107.193 48.56 105.406 48.92 103.433 48.92C101.086 48.92 99.1665 48.5067 97.6731 47.68C96.1798 46.8533 94.9398 45.7333 93.9531 44.32L95.9931 42.52C96.8198 43.7467 97.8865 44.6667 99.1931 45.28C100.526 45.8933 101.94 46.2 103.433 46.2C104.713 46.2 105.886 45.96 106.953 45.48C108.046 45.0267 108.913 44.32 109.553 43.36C110.22 42.4 110.553 41.2 110.553 39.76V36.08C109.78 37.36 108.713 38.3733 107.353 39.12C106.02 39.8667 104.606 40.24 103.113 40.24ZM104.193 37.36C104.94 37.36 105.66 37.2267 106.353 36.96C107.046 36.6933 107.686 36.3467 108.273 35.92C108.86 35.4667 109.353 34.96 109.753 34.4C110.153 33.84 110.42 33.2667 110.553 32.68V26.68C110.18 25.72 109.646 24.88 108.953 24.16C108.26 23.4133 107.473 22.84 106.593 22.44C105.713 22.0133 104.806 21.8 103.873 21.8C102.806 21.8 101.846 22.0267 100.993 22.48C100.166 22.9333 99.4598 23.5467 98.8731 24.32C98.2865 25.0667 97.8331 25.9067 97.5131 26.84C97.1931 27.7733 97.0331 28.72 97.0331 29.68C97.0331 30.72 97.2198 31.7067 97.5931 32.64C97.9665 33.5467 98.4731 34.36 99.1131 35.08C99.7531 35.8 100.513 36.36 101.393 36.76C102.273 37.16 103.206 37.36 104.193 37.36ZM130.794 22.2C129.034 22.2267 127.474 22.68 126.114 23.56C124.781 24.4133 123.834 25.6 123.274 27.12V40H119.754V19.12H123.034V23.96C123.754 22.52 124.701 21.36 125.874 20.48C127.074 19.5733 128.327 19.0667 129.634 18.96C129.901 18.96 130.127 18.96 130.314 18.96C130.501 18.96 130.661 18.9733 130.794 19V22.2ZM132.645 33.96C132.645 32.6267 133.019 31.48 133.765 30.52C134.539 29.5333 135.592 28.7733 136.925 28.24C138.259 27.7067 139.805 27.44 141.565 27.44C142.499 27.44 143.485 27.52 144.525 27.68C145.565 27.8133 146.485 28.0267 147.285 28.32V26.8C147.285 25.2 146.805 23.9467 145.845 23.04C144.885 22.1067 143.525 21.64 141.765 21.64C140.619 21.64 139.512 21.8533 138.445 22.28C137.405 22.68 136.299 23.2667 135.125 24.04L133.845 21.56C135.205 20.6267 136.565 19.9333 137.925 19.48C139.285 19 140.699 18.76 142.165 18.76C144.832 18.76 146.939 19.5067 148.485 21C150.032 22.4667 150.805 24.52 150.805 27.16V36C150.805 36.4267 150.885 36.7467 151.045 36.96C151.232 37.1467 151.525 37.2533 151.925 37.28V40C151.579 40.0533 151.272 40.0933 151.005 40.12C150.765 40.1467 150.565 40.16 150.405 40.16C149.579 40.16 148.952 39.9333 148.525 39.48C148.125 39.0267 147.899 38.5467 147.845 38.04L147.765 36.72C146.859 37.8933 145.672 38.8 144.205 39.44C142.739 40.08 141.285 40.4 139.845 40.4C138.459 40.4 137.219 40.12 136.125 39.56C135.032 38.9733 134.179 38.2 133.565 37.24C132.952 36.2533 132.645 35.16 132.645 33.96ZM146.245 35.44C146.565 35.0667 146.819 34.6933 147.005 34.32C147.192 33.92 147.285 33.5867 147.285 33.32V30.72C146.459 30.4 145.592 30.16 144.685 30C143.779 29.8133 142.885 29.72 142.005 29.72C140.219 29.72 138.765 30.08 137.645 30.8C136.552 31.4933 136.005 32.4533 136.005 33.68C136.005 34.3467 136.179 35 136.525 35.64C136.899 36.2533 137.432 36.76 138.125 37.16C138.845 37.56 139.725 37.76 140.765 37.76C141.859 37.76 142.899 37.5467 143.885 37.12C144.872 36.6667 145.659 36.1067 146.245 35.44ZM167.674 40.4C165.967 40.4 164.447 39.9733 163.114 39.12C161.78 38.2667 160.727 37.1867 159.954 35.88V48.52H156.434V19.12H159.554V23.04C160.38 21.76 161.46 20.7333 162.794 19.96C164.127 19.16 165.58 18.76 167.154 18.76C168.594 18.76 169.914 19.0533 171.114 19.64C172.314 20.2267 173.354 21.0267 174.234 22.04C175.114 23.0533 175.794 24.2133 176.274 25.52C176.78 26.8 177.034 28.1467 177.034 29.56C177.034 31.5333 176.634 33.3467 175.834 35C175.06 36.6533 173.967 37.9733 172.554 38.96C171.14 39.92 169.514 40.4 167.674 40.4ZM166.594 37.36C167.634 37.36 168.567 37.1467 169.394 36.72C170.247 36.2667 170.967 35.68 171.554 34.96C172.167 34.2133 172.634 33.3733 172.954 32.44C173.274 31.5067 173.434 30.5467 173.434 29.56C173.434 28.52 173.247 27.5333 172.874 26.6C172.527 25.6667 172.02 24.84 171.354 24.12C170.714 23.4 169.954 22.84 169.074 22.44C168.22 22.0133 167.287 21.8 166.274 21.8C165.634 21.8 164.967 21.92 164.274 22.16C163.607 22.4 162.967 22.7467 162.354 23.2C161.74 23.6267 161.22 24.12 160.794 24.68C160.367 25.24 160.087 25.84 159.954 26.48V32.44C160.354 33.3467 160.887 34.1733 161.554 34.92C162.22 35.6667 162.994 36.2667 163.874 36.72C164.754 37.1467 165.66 37.36 166.594 37.36ZM199.476 40H195.956V28.32C195.956 26.1867 195.569 24.5867 194.796 23.52C194.049 22.4533 192.969 21.92 191.556 21.92C190.649 21.92 189.729 22.16 188.796 22.64C187.889 23.12 187.089 23.7733 186.396 24.6C185.702 25.4 185.196 26.3333 184.876 27.4V40H181.356V10.8H184.876V23.6C185.702 22.1067 186.822 20.9333 188.236 20.08C189.676 19.2 191.222 18.76 192.876 18.76C194.129 18.76 195.169 18.9867 195.996 19.44C196.849 19.8667 197.529 20.48 198.036 21.28C198.542 22.08 198.902 23.0133 199.116 24.08C199.356 25.12 199.476 26.2667 199.476 27.52V40ZM205.441 45.68C205.787 45.7067 206.134 45.7333 206.481 45.76C206.827 45.8133 207.094 45.84 207.281 45.84C207.707 45.84 208.081 45.6933 208.401 45.4C208.721 45.1067 209.067 44.5333 209.441 43.68C209.841 42.8533 210.347 41.6267 210.961 40L202.121 19.12H205.841L212.881 36.44L219.241 19.12H222.721L212.561 45.48C212.321 46.0933 211.961 46.6667 211.481 47.2C211.027 47.76 210.441 48.2 209.721 48.52C209.001 48.84 208.134 49 207.121 49C206.881 49 206.627 48.9867 206.361 48.96C206.121 48.9333 205.814 48.88 205.441 48.8V45.68Z" fill="#0A0A0A"/>
<path d="M13.6534 93.6364V146H5.75284V93.6364H13.6534ZM31.8303 122.682V146H24.1855V106.727H31.5235V113.119H32.0093C32.9127 111.04 34.3275 109.369 36.2536 108.108C38.1968 106.847 40.6428 106.216 43.5917 106.216C46.2678 106.216 48.6116 106.778 50.623 107.903C52.6343 109.011 54.194 110.665 55.3019 112.864C56.4099 115.062 56.9639 117.781 56.9639 121.02V146H49.319V121.94C49.319 119.094 48.5775 116.869 47.0945 115.267C45.6116 113.648 43.5747 112.838 40.9837 112.838C39.211 112.838 37.6343 113.222 36.2536 113.989C34.89 114.756 33.8076 115.881 33.0065 117.364C32.2224 118.83 31.8303 120.602 31.8303 122.682ZM85.1891 106.727V112.864H63.7374V106.727H85.1891ZM69.4902 97.3182H77.1351V134.469C77.1351 135.952 77.3567 137.068 77.7999 137.818C78.2431 138.551 78.8141 139.054 79.513 139.327C80.2289 139.582 81.0044 139.71 81.8397 139.71C82.4533 139.71 82.9902 139.668 83.4505 139.582C83.9107 139.497 84.2686 139.429 84.5243 139.378L85.905 145.693C85.4618 145.864 84.8311 146.034 84.013 146.205C83.1948 146.392 82.172 146.494 80.9448 146.511C78.9334 146.545 77.0584 146.188 75.3198 145.438C73.5811 144.688 72.1749 143.528 71.101 141.96C70.0272 140.392 69.4902 138.423 69.4902 136.054V97.3182ZM109.79 146.793C105.921 146.793 102.588 145.966 99.7929 144.312C97.0145 142.642 94.8667 140.298 93.3497 137.281C91.8497 134.247 91.0997 130.693 91.0997 126.619C91.0997 122.597 91.8497 119.051 93.3497 115.983C94.8667 112.915 96.9804 110.52 99.6906 108.798C102.418 107.077 105.605 106.216 109.253 106.216C111.469 106.216 113.617 106.582 115.696 107.315C117.776 108.048 119.642 109.199 121.296 110.767C122.949 112.335 124.253 114.372 125.208 116.878C126.162 119.366 126.639 122.392 126.639 125.955V128.665H95.4207V122.938H119.148C119.148 120.926 118.739 119.145 117.921 117.594C117.103 116.026 115.952 114.79 114.469 113.886C113.003 112.983 111.282 112.531 109.304 112.531C107.157 112.531 105.282 113.06 103.679 114.116C102.094 115.156 100.867 116.52 99.9974 118.207C99.1451 119.878 98.719 121.693 98.719 123.653V128.128C98.719 130.753 99.1792 132.986 100.1 134.827C101.037 136.668 102.341 138.074 104.012 139.045C105.682 140 107.634 140.477 109.867 140.477C111.316 140.477 112.637 140.273 113.83 139.864C115.023 139.437 116.054 138.807 116.924 137.972C117.793 137.136 118.458 136.105 118.918 134.878L126.154 136.182C125.574 138.312 124.534 140.179 123.034 141.781C121.551 143.366 119.685 144.602 117.435 145.489C115.202 146.358 112.654 146.793 109.79 146.793ZM134.762 146V106.727H142.151V112.966H142.56C143.276 110.852 144.537 109.19 146.344 107.98C148.168 106.753 150.23 106.139 152.532 106.139C153.009 106.139 153.571 106.156 154.219 106.19C154.884 106.224 155.404 106.267 155.779 106.318V113.631C155.472 113.545 154.926 113.452 154.142 113.349C153.358 113.23 152.574 113.17 151.79 113.17C149.983 113.17 148.372 113.554 146.958 114.321C145.56 115.071 144.452 116.119 143.634 117.466C142.816 118.795 142.407 120.312 142.407 122.017V146H134.762Z" fill="black"/>
<path d="M2.64205 206V184.182H5.28409V193.898H16.9176V184.182H19.5597V206H16.9176V196.241H5.28409V206H2.64205ZM31.444 206.341C29.8673 206.341 28.5072 205.993 27.3637 205.297C26.2273 204.594 25.3502 203.614 24.7323 202.357C24.1215 201.092 23.8161 199.622 23.8161 197.946C23.8161 196.27 24.1215 194.793 24.7323 193.514C25.3502 192.229 26.2096 191.227 27.3104 190.51C28.4184 189.786 29.711 189.423 31.1883 189.423C32.0406 189.423 32.8822 189.565 33.7131 189.849C34.5441 190.134 35.3005 190.595 35.9823 191.234C36.6641 191.866 37.2075 192.705 37.6123 193.749C38.0171 194.793 38.2195 196.078 38.2195 197.605V198.67H25.6059V196.497H35.6627C35.6627 195.574 35.4781 194.75 35.1087 194.026C34.7465 193.301 34.2281 192.729 33.5533 192.31C32.8857 191.891 32.0974 191.682 31.1883 191.682C30.1869 191.682 29.3204 191.93 28.5889 192.428C27.8644 192.918 27.3069 193.557 26.9163 194.345C26.5256 195.134 26.3303 195.979 26.3303 196.881V198.33C26.3303 199.565 26.5434 200.613 26.9695 201.472C27.4028 202.325 28.0029 202.974 28.77 203.422C29.537 203.862 30.4283 204.082 31.444 204.082C32.1045 204.082 32.7011 203.99 33.2337 203.805C33.7735 203.614 34.2387 203.33 34.6293 202.953C35.02 202.57 35.3218 202.094 35.5349 201.526L37.9639 202.207C37.7082 203.031 37.2785 203.756 36.6748 204.381C36.0711 204.999 35.3254 205.482 34.4376 205.83C33.5498 206.17 32.5519 206.341 31.444 206.341ZM46.9344 206.384C45.8975 206.384 44.9565 206.188 44.1113 205.798C43.2661 205.4 42.595 204.828 42.0978 204.082C41.6006 203.33 41.3521 202.42 41.3521 201.355C41.3521 200.418 41.5367 199.658 41.906 199.075C42.2754 198.486 42.769 198.024 43.3869 197.69C44.0048 197.357 44.6866 197.108 45.4323 196.945C46.1852 196.774 46.9415 196.639 47.7015 196.54C48.6958 196.412 49.5019 196.316 50.1198 196.252C50.7448 196.181 51.1994 196.064 51.4835 195.901C51.7746 195.737 51.9202 195.453 51.9202 195.048V194.963C51.9202 193.912 51.6326 193.095 51.0573 192.513C50.4891 191.93 49.6262 191.639 48.4685 191.639C47.2683 191.639 46.3272 191.902 45.6454 192.428C44.9636 192.953 44.4842 193.514 44.2072 194.111L41.8208 193.259C42.2469 192.264 42.8151 191.49 43.5254 190.936C44.2427 190.375 45.0239 189.984 45.8691 189.764C46.7214 189.537 47.5594 189.423 48.3833 189.423C48.9089 189.423 49.5126 189.487 50.1944 189.615C50.8833 189.736 51.5474 189.988 52.1866 190.371C52.8329 190.755 53.3691 191.334 53.7952 192.108C54.2214 192.882 54.4344 193.919 54.4344 195.219V206H51.9202V203.784H51.7924C51.6219 204.139 51.3379 204.519 50.9401 204.924C50.5424 205.329 50.0133 205.673 49.3528 205.957C48.6923 206.241 47.8862 206.384 46.9344 206.384ZM47.318 204.125C48.3123 204.125 49.1504 203.93 49.8322 203.539C50.5211 203.148 51.0396 202.644 51.3876 202.026C51.7427 201.408 51.9202 200.759 51.9202 200.077V197.776C51.8137 197.903 51.5793 198.021 51.2171 198.127C50.862 198.227 50.4501 198.315 49.9813 198.393C49.5197 198.464 49.0687 198.528 48.6283 198.585C48.1951 198.635 47.8435 198.678 47.5737 198.713C46.9202 198.798 46.3094 198.937 45.7413 199.129C45.1802 199.313 44.7256 199.594 44.3776 199.97C44.0367 200.339 43.8663 200.844 43.8663 201.483C43.8663 202.357 44.1894 203.017 44.8357 203.464C45.4891 203.905 46.3165 204.125 47.318 204.125ZM65.2774 206.341C63.9137 206.341 62.7099 205.996 61.6659 205.308C60.6218 204.612 59.8051 203.631 59.2156 202.367C58.6261 201.096 58.3314 199.594 58.3314 197.861C58.3314 196.142 58.6261 194.651 59.2156 193.386C59.8051 192.122 60.6254 191.146 61.6765 190.457C62.7277 189.768 63.9422 189.423 65.32 189.423C66.3853 189.423 67.227 189.601 67.8448 189.956C68.4698 190.304 68.9457 190.702 69.2724 191.149C69.6062 191.589 69.8654 191.952 70.0501 192.236H70.2632V184.182H72.7774V206H70.3484V203.486H70.0501C69.8654 203.784 69.6027 204.161 69.2618 204.615C68.9208 205.062 68.4343 205.464 67.8022 205.819C67.1701 206.167 66.3285 206.341 65.2774 206.341ZM65.6183 204.082C66.6268 204.082 67.4791 203.82 68.1751 203.294C68.8711 202.761 69.4002 202.026 69.7625 201.089C70.1247 200.144 70.3058 199.054 70.3058 197.818C70.3058 196.597 70.1282 195.528 69.7731 194.612C69.418 193.688 68.8924 192.971 68.1964 192.46C67.5004 191.941 66.641 191.682 65.6183 191.682C64.5529 191.682 63.6652 191.955 62.9549 192.502C62.2518 193.042 61.7227 193.777 61.3676 194.707C61.0196 195.631 60.8456 196.668 60.8456 197.818C60.8456 198.983 61.0231 200.041 61.3782 200.993C61.7404 201.937 62.2731 202.69 62.9762 203.251C63.6865 203.805 64.5672 204.082 65.6183 204.082ZM80.3204 184.182V206H77.8062V184.182H80.3204ZM85.0004 206V189.636H87.5146V206H85.0004ZM86.2788 186.909C85.7887 186.909 85.3661 186.742 85.011 186.408C84.663 186.075 84.489 185.673 84.489 185.205C84.489 184.736 84.663 184.335 85.011 184.001C85.3661 183.667 85.7887 183.5 86.2788 183.5C86.7688 183.5 87.1879 183.667 87.5359 184.001C87.891 184.335 88.0685 184.736 88.0685 185.205C88.0685 185.673 87.891 186.075 87.5359 186.408C87.1879 186.742 86.7688 186.909 86.2788 186.909ZM94.7087 196.156V206H92.1945V189.636H94.6235V192.193H94.8365C95.2201 191.362 95.8024 190.695 96.5837 190.19C97.3649 189.679 98.3735 189.423 99.6093 189.423C100.717 189.423 101.687 189.651 102.518 190.105C103.349 190.553 103.995 191.234 104.457 192.151C104.918 193.06 105.149 194.21 105.149 195.602V206H102.635V195.773C102.635 194.487 102.301 193.486 101.633 192.768C100.966 192.044 100.05 191.682 98.8848 191.682C98.0823 191.682 97.3649 191.856 96.7328 192.204C96.1078 192.552 95.6142 193.06 95.252 193.727C94.8898 194.395 94.7087 195.205 94.7087 196.156ZM116.679 206.341C115.102 206.341 113.742 205.993 112.599 205.297C111.463 204.594 110.585 203.614 109.967 202.357C109.357 201.092 109.051 199.622 109.051 197.946C109.051 196.27 109.357 194.793 109.967 193.514C110.585 192.229 111.445 191.227 112.546 190.51C113.654 189.786 114.946 189.423 116.423 189.423C117.276 189.423 118.117 189.565 118.948 189.849C119.779 190.134 120.536 190.595 121.217 191.234C121.899 191.866 122.443 192.705 122.847 193.749C123.252 194.793 123.455 196.078 123.455 197.605V198.67H110.841V196.497H120.898C120.898 195.574 120.713 194.75 120.344 194.026C119.982 193.301 119.463 192.729 118.788 192.31C118.121 191.891 117.333 191.682 116.423 191.682C115.422 191.682 114.556 191.93 113.824 192.428C113.1 192.918 112.542 193.557 112.151 194.345C111.761 195.134 111.565 195.979 111.565 196.881V198.33C111.565 199.565 111.779 200.613 112.205 201.472C112.638 202.325 113.238 202.974 114.005 203.422C114.772 203.862 115.663 204.082 116.679 204.082C117.34 204.082 117.936 203.99 118.469 203.805C119.009 203.614 119.474 203.33 119.864 202.953C120.255 202.57 120.557 202.094 120.77 201.526L123.199 202.207C122.943 203.031 122.514 203.756 121.91 204.381C121.306 204.999 120.561 205.482 119.673 205.83C118.785 206.17 117.787 206.341 116.679 206.341ZM143.495 184.182V206H140.853V186.952H140.725L135.398 190.489V187.804L140.853 184.182H143.495Z" fill="black"/>
<path d="M2.02557 247V230.273H4.05114V237.722H12.9702V230.273H14.9957V247H12.9702V239.518H4.05114V247H2.02557ZM24.0495 247.261C22.8407 247.261 21.798 246.995 20.9213 246.461C20.0501 245.922 19.3777 245.17 18.9039 244.207C18.4357 243.237 18.2015 242.11 18.2015 240.825C18.2015 239.54 18.4357 238.408 18.9039 237.428C19.3777 236.442 20.0365 235.674 20.8805 235.124C21.7299 234.569 22.7209 234.291 23.8535 234.291C24.5069 234.291 25.1522 234.4 25.7892 234.618C26.4263 234.836 27.0062 235.19 27.5289 235.68C28.0517 236.164 28.4682 236.807 28.7786 237.607C29.089 238.408 29.2441 239.393 29.2441 240.564V241.381H19.5737V239.714H27.2839C27.2839 239.007 27.1423 238.375 26.8592 237.82C26.5815 237.264 26.184 236.826 25.6667 236.505C25.1549 236.183 24.5505 236.023 23.8535 236.023C23.0858 236.023 22.4215 236.213 21.8606 236.594C21.3052 236.97 20.8778 237.46 20.5783 238.065C20.2788 238.669 20.1291 239.317 20.1291 240.009V241.119C20.1291 242.067 20.2924 242.87 20.6191 243.529C20.9513 244.182 21.4114 244.68 21.9995 245.023C22.5875 245.361 23.2709 245.53 24.0495 245.53C24.5559 245.53 25.0133 245.459 25.4217 245.317C25.8355 245.17 26.1922 244.953 26.4917 244.664C26.7911 244.37 27.0226 244.005 27.1859 243.57L29.0481 244.092C28.8521 244.724 28.5227 245.279 28.0598 245.759C27.597 246.232 27.0253 246.603 26.3446 246.869C25.664 247.131 24.899 247.261 24.0495 247.261ZM35.8681 247.294C35.0731 247.294 34.3516 247.144 33.7037 246.845C33.0557 246.54 32.5411 246.102 32.16 245.53C31.7788 244.953 31.5882 244.256 31.5882 243.439C31.5882 242.72 31.7298 242.138 32.013 241.691C32.2961 241.239 32.6745 240.885 33.1483 240.629C33.622 240.373 34.1447 240.183 34.7164 240.058C35.2936 239.927 35.8735 239.823 36.4561 239.747C37.2185 239.649 37.8365 239.576 38.3102 239.527C38.7894 239.472 39.1378 239.382 39.3556 239.257C39.5789 239.132 39.6905 238.914 39.6905 238.604V238.538C39.6905 237.732 39.47 237.106 39.0289 236.66C38.5933 236.213 37.9318 235.99 37.0442 235.99C36.124 235.99 35.4025 236.192 34.8798 236.594C34.3571 236.997 33.9895 237.428 33.7772 237.885L31.9476 237.232C32.2743 236.469 32.7099 235.876 33.2544 235.451C33.8044 235.021 34.4034 234.721 35.0513 234.553C35.7047 234.378 36.3472 234.291 36.9789 234.291C37.3818 234.291 37.8446 234.34 38.3674 234.438C38.8955 234.531 39.4047 234.724 39.8947 235.018C40.3902 235.312 40.8013 235.756 41.128 236.349C41.4547 236.943 41.6181 237.738 41.6181 238.734V247H39.6905V245.301H39.5925C39.4618 245.573 39.244 245.865 38.9391 246.175C38.6342 246.485 38.2285 246.75 37.7221 246.967C37.2157 247.185 36.5977 247.294 35.8681 247.294ZM36.1621 245.562C36.9244 245.562 37.5669 245.413 38.0897 245.113C38.6178 244.814 39.0153 244.427 39.2821 243.953C39.5544 243.48 39.6905 242.982 39.6905 242.459V240.695C39.6088 240.793 39.4292 240.882 39.1515 240.964C38.8792 241.04 38.5634 241.108 38.204 241.168C37.8501 241.223 37.5043 241.272 37.1667 241.315C36.8346 241.353 36.565 241.386 36.3581 241.413C35.8572 241.479 35.3889 241.585 34.9533 241.732C34.5231 241.873 34.1747 242.089 33.9078 242.377C33.6465 242.66 33.5158 243.047 33.5158 243.537C33.5158 244.207 33.7636 244.713 34.2591 245.056C34.76 245.394 35.3944 245.562 36.1621 245.562ZM49.8735 247.261C48.828 247.261 47.9051 246.997 47.1047 246.469C46.3042 245.935 45.6781 245.184 45.2261 244.215C44.7742 243.24 44.5482 242.089 44.5482 240.76C44.5482 239.442 44.7742 238.299 45.2261 237.33C45.6781 236.36 46.307 235.612 47.1128 235.083C47.9187 234.555 48.8498 234.291 49.9062 234.291C50.7229 234.291 51.3682 234.427 51.8419 234.7C52.3211 234.966 52.6859 235.271 52.9363 235.614C53.1923 235.952 53.391 236.23 53.5326 236.447H53.6959V230.273H55.6235V247H53.7613V245.072H53.5326C53.391 245.301 53.1895 245.59 52.9282 245.938C52.6668 246.281 52.2938 246.589 51.8092 246.861C51.3246 247.128 50.6794 247.261 49.8735 247.261ZM50.1349 245.53C50.9081 245.53 51.5615 245.328 52.0951 244.925C52.6287 244.517 53.0344 243.953 53.3121 243.235C53.5898 242.511 53.7286 241.675 53.7286 240.727C53.7286 239.791 53.5925 238.971 53.3202 238.269C53.048 237.561 52.645 237.011 52.1114 236.619C51.5778 236.221 50.9189 236.023 50.1349 236.023C49.3181 236.023 48.6375 236.232 48.093 236.652C47.5539 237.065 47.1482 237.629 46.876 238.342C46.6092 239.05 46.4758 239.845 46.4758 240.727C46.4758 241.62 46.6119 242.432 46.8841 243.161C47.1618 243.885 47.5702 244.463 48.1093 244.893C48.6538 245.317 49.329 245.53 50.1349 245.53ZM61.349 230.273V247H59.4214V230.273H61.349ZM64.8794 247V234.455H66.807V247H64.8794ZM65.8596 232.364C65.4838 232.364 65.1599 232.236 64.8876 231.98C64.6208 231.724 64.4874 231.416 64.4874 231.057C64.4874 230.697 64.6208 230.39 64.8876 230.134C65.1599 229.878 65.4838 229.75 65.8596 229.75C66.2353 229.75 66.5565 229.878 66.8233 230.134C67.0956 230.39 67.2317 230.697 67.2317 231.057C67.2317 231.416 67.0956 231.724 66.8233 231.98C66.5565 232.236 66.2353 232.364 65.8596 232.364ZM72.265 239.453V247H70.3374V234.455H72.1997V236.415H72.363C72.657 235.778 73.1035 235.266 73.7025 234.879C74.3015 234.487 75.0747 234.291 76.0221 234.291C76.8715 234.291 77.6148 234.465 78.2519 234.814C78.8889 235.157 79.3844 235.68 79.7384 236.382C80.0923 237.079 80.2693 237.961 80.2693 239.028V247H78.3417V239.159C78.3417 238.174 78.0858 237.406 77.574 236.856C77.0621 236.3 76.3597 236.023 75.4667 236.023C74.8514 236.023 74.3015 236.156 73.8169 236.423C73.3377 236.69 72.9593 237.079 72.6816 237.591C72.4039 238.103 72.265 238.723 72.265 239.453ZM89.0515 247.261C87.8427 247.261 86.8 246.995 85.9233 246.461C85.0521 245.922 84.3796 245.17 83.9059 244.207C83.4376 243.237 83.2035 242.11 83.2035 240.825C83.2035 239.54 83.4376 238.408 83.9059 237.428C84.3796 236.442 85.0385 235.674 85.8825 235.124C86.7319 234.569 87.7229 234.291 88.8555 234.291C89.5089 234.291 90.1541 234.4 90.7912 234.618C91.4283 234.836 92.0082 235.19 92.5309 235.68C93.0536 236.164 93.4702 236.807 93.7805 237.607C94.0909 238.408 94.2461 239.393 94.2461 240.564V241.381H84.5756V239.714H92.2859C92.2859 239.007 92.1443 238.375 91.8612 237.82C91.5835 237.264 91.186 236.826 90.6687 236.505C90.1568 236.183 89.5524 236.023 88.8555 236.023C88.0877 236.023 87.4234 236.213 86.8626 236.594C86.3072 236.97 85.8797 237.46 85.5803 238.065C85.2808 238.669 85.131 239.317 85.131 240.009V241.119C85.131 242.067 85.2944 242.87 85.6211 243.529C85.9532 244.182 86.4134 244.68 87.0014 245.023C87.5895 245.361 88.2728 245.53 89.0515 245.53C89.5579 245.53 90.0153 245.459 90.4237 245.317C90.8375 245.17 91.1941 244.953 91.4936 244.664C91.7931 244.37 92.0245 244.005 92.1879 243.57L94.0501 244.092C93.854 244.724 93.5246 245.279 93.0618 245.759C92.599 246.232 92.0272 246.603 91.3466 246.869C90.666 247.131 89.9009 247.261 89.0515 247.261ZM103.614 247V245.53L109.136 239.486C109.784 238.778 110.317 238.163 110.737 237.64C111.156 237.112 111.466 236.616 111.668 236.153C111.875 235.685 111.978 235.195 111.978 234.683C111.978 234.095 111.836 233.586 111.553 233.156C111.276 232.726 110.894 232.394 110.41 232.159C109.925 231.925 109.381 231.808 108.776 231.808C108.134 231.808 107.573 231.942 107.094 232.208C106.62 232.47 106.252 232.837 105.991 233.311C105.735 233.785 105.607 234.34 105.607 234.977H103.68C103.68 233.997 103.906 233.137 104.358 232.396C104.81 231.656 105.425 231.079 106.203 230.665C106.988 230.251 107.867 230.044 108.842 230.044C109.822 230.044 110.69 230.251 111.447 230.665C112.204 231.079 112.797 231.637 113.228 232.339C113.658 233.042 113.873 233.823 113.873 234.683C113.873 235.299 113.761 235.9 113.538 236.488C113.32 237.071 112.939 237.722 112.395 238.44C111.855 239.154 111.107 240.025 110.148 241.054L106.391 245.072V245.203H114.167V247H103.614Z" fill="black"/>
<path d="M1.51811 285V271.182H3.60298V277.187H10.4918V271.182H12.5835V285H10.4918V278.975H3.60298V285H1.51811ZM19.9529 285.209C18.9318 285.209 18.0524 284.991 17.3147 284.555C16.5815 284.114 16.0148 283.495 15.6144 282.699C15.2186 281.899 15.0207 280.961 15.0207 279.886C15.0207 278.824 15.2186 277.888 15.6144 277.079C16.0148 276.269 16.5725 275.637 17.2877 275.183C18.0074 274.729 18.8486 274.501 19.8112 274.501C20.3959 274.501 20.9627 274.598 21.5115 274.792C22.0602 274.985 22.5528 275.289 22.9891 275.702C23.4254 276.116 23.7695 276.654 24.0214 277.315C24.2733 277.972 24.3992 278.77 24.3992 279.71V280.425H16.161V278.914H22.4223C22.4223 278.383 22.3144 277.913 22.0985 277.504C21.8825 277.09 21.5789 276.764 21.1876 276.526C20.8008 276.287 20.3464 276.168 19.8247 276.168C19.2579 276.168 18.7631 276.307 18.3403 276.586C17.922 276.861 17.5981 277.221 17.3687 277.666C17.1438 278.107 17.0313 278.586 17.0313 279.103V280.284C17.0313 280.976 17.1528 281.566 17.3957 282.051C17.6431 282.537 17.9872 282.908 18.428 283.165C18.8688 283.417 19.3839 283.543 19.9731 283.543C20.3554 283.543 20.704 283.489 21.0189 283.381C21.3338 283.268 21.6059 283.102 21.8353 282.881C22.0647 282.661 22.2401 282.389 22.3616 282.065L24.271 282.409C24.1181 282.971 23.8437 283.464 23.4479 283.887C23.0566 284.305 22.564 284.631 21.9703 284.865C21.381 285.094 20.7085 285.209 19.9529 285.209ZM29.6821 285.229C29.0254 285.229 28.4316 285.108 27.9008 284.865C27.3701 284.618 26.9495 284.26 26.6391 283.792C26.3332 283.324 26.1803 282.751 26.1803 282.072C26.1803 281.487 26.2928 281.006 26.5177 280.628C26.7426 280.25 27.0462 279.951 27.4285 279.73C27.8109 279.51 28.2382 279.344 28.7105 279.231C29.1828 279.119 29.6641 279.033 30.1544 278.975C30.7751 278.903 31.2789 278.844 31.6658 278.799C32.0526 278.75 32.3337 278.671 32.5091 278.563C32.6846 278.455 32.7723 278.28 32.7723 278.037V277.99C32.7723 277.4 32.6059 276.944 32.273 276.62C31.9446 276.296 31.4543 276.134 30.8021 276.134C30.1229 276.134 29.5876 276.285 29.1963 276.586C28.8095 276.883 28.5418 277.214 28.3934 277.578L26.4974 277.146C26.7223 276.517 27.0507 276.008 27.4825 275.621C27.9188 275.23 28.4204 274.947 28.9871 274.771C29.5539 274.591 30.1499 274.501 30.7751 274.501C31.189 274.501 31.6275 274.551 32.0908 274.65C32.5586 274.744 32.9949 274.92 33.3998 275.176C33.8091 275.433 34.1442 275.799 34.4051 276.276C34.666 276.748 34.7964 277.362 34.7964 278.118V285H32.8263V283.583H32.7453C32.6149 283.844 32.4192 284.1 32.1583 284.352C31.8974 284.604 31.5623 284.813 31.153 284.98C30.7436 285.146 30.2533 285.229 29.6821 285.229ZM30.1207 283.61C30.6784 283.61 31.1552 283.5 31.5511 283.279C31.9514 283.059 32.255 282.771 32.4619 282.416C32.6733 282.056 32.779 281.671 32.779 281.262V279.926C32.7071 279.998 32.5676 280.066 32.3607 280.129C32.1583 280.187 31.9266 280.239 31.6658 280.284C31.4049 280.324 31.1507 280.362 30.9033 280.398C30.6559 280.43 30.449 280.457 30.2826 280.479C29.8913 280.529 29.5337 280.612 29.2098 280.729C28.8904 280.846 28.634 281.015 28.4406 281.235C28.2517 281.451 28.1572 281.739 28.1572 282.099C28.1572 282.598 28.3417 282.976 28.7105 283.232C29.0793 283.484 29.5494 283.61 30.1207 283.61ZM41.3916 285.202C40.555 285.202 39.8083 284.989 39.1515 284.561C38.4993 284.13 37.9865 283.516 37.6132 282.719C37.2444 281.919 37.0599 280.958 37.0599 279.838C37.0599 278.718 37.2466 277.76 37.6199 276.964C37.9978 276.168 38.5151 275.558 39.1718 275.136C39.8285 274.713 40.573 274.501 41.4051 274.501C42.0483 274.501 42.5656 274.609 42.9569 274.825C43.3528 275.037 43.6587 275.284 43.8746 275.567C44.095 275.851 44.2659 276.1 44.3873 276.316H44.5088V271.182H46.5262V285H44.556V283.387H44.3873C44.2659 283.608 44.0905 283.86 43.8611 284.143C43.6362 284.426 43.3258 284.674 42.93 284.885C42.5341 285.097 42.0213 285.202 41.3916 285.202ZM41.8369 283.482C42.4172 283.482 42.9075 283.329 43.3078 283.023C43.7126 282.713 44.0185 282.283 44.2254 281.734C44.4368 281.186 44.5425 280.547 44.5425 279.818C44.5425 279.098 44.4391 278.469 44.2322 277.929C44.0252 277.389 43.7216 276.969 43.3213 276.667C42.921 276.366 42.4262 276.215 41.8369 276.215C41.2297 276.215 40.7236 276.373 40.3188 276.688C39.914 277.002 39.6081 277.432 39.4012 277.976C39.1988 278.52 39.0976 279.134 39.0976 279.818C39.0976 280.511 39.201 281.134 39.4079 281.687C39.6149 282.24 39.9207 282.679 40.3256 283.003C40.7349 283.322 41.2387 283.482 41.8369 283.482ZM51.4514 271.182V285H49.434V271.182H51.4514ZM54.194 285V274.636H56.2114V285H54.194ZM55.2128 273.037C54.862 273.037 54.5606 272.92 54.3087 272.686C54.0613 272.448 53.9376 272.165 53.9376 271.836C53.9376 271.503 54.0613 271.22 54.3087 270.986C54.5606 270.748 54.862 270.629 55.2128 270.629C55.5637 270.629 55.8628 270.748 56.1102 270.986C56.3621 271.22 56.488 271.503 56.488 271.836C56.488 272.165 56.3621 272.448 56.1102 272.686C55.8628 272.92 55.5637 273.037 55.2128 273.037ZM60.9713 278.847V285H58.9539V274.636H60.8904V276.323H61.0186C61.257 275.774 61.6303 275.334 62.1386 275.001C62.6514 274.668 63.2969 274.501 64.075 274.501C64.7812 274.501 65.3997 274.65 65.9305 274.947C66.4613 275.239 66.8729 275.675 67.1652 276.256C67.4576 276.836 67.6038 277.553 67.6038 278.408V285H65.5864V278.651C65.5864 277.9 65.3907 277.313 64.9994 276.89C64.6081 276.463 64.0705 276.249 63.3868 276.249C62.919 276.249 62.5029 276.35 62.1386 276.553C61.7787 276.755 61.4931 277.052 61.2817 277.443C61.0748 277.83 60.9713 278.298 60.9713 278.847ZM74.8045 285.209C73.7835 285.209 72.9041 284.991 72.1664 284.555C71.4332 284.114 70.8664 283.495 70.4661 282.699C70.0703 281.899 69.8724 280.961 69.8724 279.886C69.8724 278.824 70.0703 277.888 70.4661 277.079C70.8664 276.269 71.4242 275.637 72.1394 275.183C72.8591 274.729 73.7002 274.501 74.6628 274.501C75.2476 274.501 75.8144 274.598 76.3631 274.792C76.9119 274.985 77.4044 275.289 77.8407 275.702C78.2771 276.116 78.6212 276.654 78.8731 277.315C79.125 277.972 79.2509 278.77 79.2509 279.71V280.425H71.0126V278.914H77.274C77.274 278.383 77.166 277.913 76.9501 277.504C76.7342 277.09 76.4306 276.764 76.0393 276.526C75.6524 276.287 75.1981 276.168 74.6763 276.168C74.1096 276.168 73.6148 276.307 73.192 276.586C72.7736 276.861 72.4498 277.221 72.2204 277.666C71.9955 278.107 71.883 278.586 71.883 279.103V280.284C71.883 280.976 72.0045 281.566 72.2474 282.051C72.4947 282.537 72.8389 282.908 73.2797 283.165C73.7205 283.417 74.2355 283.543 74.8248 283.543C75.2071 283.543 75.5557 283.489 75.8706 283.381C76.1854 283.268 76.4576 283.102 76.687 282.881C76.9164 282.661 77.0918 282.389 77.2133 282.065L79.1227 282.409C78.9698 282.971 78.6954 283.464 78.2996 283.887C77.9082 284.305 77.4157 284.631 76.8219 284.865C76.2327 285.094 75.5602 285.209 74.8045 285.209ZM91.3583 285.189C90.4317 285.189 89.6041 285.029 88.8754 284.71C88.1512 284.391 87.5777 283.947 87.1548 283.381C86.7365 282.809 86.5116 282.148 86.4801 281.397H88.5987C88.6257 281.806 88.7629 282.162 89.0103 282.463C89.2622 282.76 89.5906 282.989 89.9954 283.151C90.4002 283.313 90.85 283.394 91.3448 283.394C91.8891 283.394 92.3704 283.3 92.7887 283.111C93.2115 282.922 93.5422 282.659 93.7806 282.321C94.019 281.98 94.1382 281.586 94.1382 281.141C94.1382 280.677 94.019 280.27 93.7806 279.919C93.5467 279.564 93.2026 279.285 92.7482 279.083C92.2984 278.88 91.7542 278.779 91.1154 278.779H89.9482V277.079H91.1154C91.6282 277.079 92.078 276.987 92.4649 276.802C92.8562 276.618 93.1621 276.361 93.3825 276.033C93.6029 275.7 93.7131 275.311 93.7131 274.866C93.7131 274.438 93.6164 274.067 93.423 273.752C93.234 273.433 92.9642 273.183 92.6133 273.004C92.2669 272.824 91.8576 272.734 91.3853 272.734C90.9355 272.734 90.5149 272.817 90.1236 272.983C89.7368 273.145 89.4219 273.379 89.179 273.685C88.9361 273.986 88.8057 274.348 88.7877 274.771H86.7703C86.7928 274.025 87.0132 273.368 87.4315 272.801C87.8543 272.234 88.4121 271.791 89.1048 271.472C89.7975 271.153 90.5667 270.993 91.4123 270.993C92.2984 270.993 93.0631 271.166 93.7063 271.512C94.3541 271.854 94.8534 272.311 95.2042 272.882C95.5596 273.453 95.735 274.079 95.7305 274.758C95.735 275.531 95.5191 276.188 95.0828 276.728C94.6509 277.268 94.0752 277.63 93.3555 277.814V277.922C94.2731 278.062 94.9838 278.426 95.4876 279.015C95.9959 279.605 96.2478 280.335 96.2433 281.208C96.2478 281.968 96.0364 282.65 95.609 283.252C95.1862 283.855 94.6082 284.33 93.875 284.676C93.1418 285.018 92.3029 285.189 91.3583 285.189Z" fill="black"/>
<path d="M7.77273 309.273C7.70455 308.697 7.42803 308.25 6.94318 307.932C6.45833 307.614 5.86364 307.455 5.15909 307.455C4.64394 307.455 4.19318 307.538 3.80682 307.705C3.42424 307.871 3.125 308.1 2.90909 308.392C2.69697 308.684 2.59091 309.015 2.59091 309.386C2.59091 309.697 2.66477 309.964 2.8125 310.188C2.96402 310.407 3.1572 310.591 3.39205 310.739C3.62689 310.883 3.87311 311.002 4.13068 311.097C4.38826 311.187 4.625 311.261 4.84091 311.318L6.02273 311.636C6.32576 311.716 6.66288 311.826 7.03409 311.966C7.40909 312.106 7.76705 312.297 8.10795 312.54C8.45265 312.778 8.73674 313.085 8.96023 313.46C9.18371 313.835 9.29545 314.295 9.29545 314.841C9.29545 315.47 9.13068 316.038 8.80114 316.545C8.47538 317.053 7.99811 317.456 7.36932 317.756C6.74432 318.055 5.98485 318.205 5.09091 318.205C4.25758 318.205 3.53598 318.07 2.92614 317.801C2.32008 317.532 1.8428 317.157 1.49432 316.676C1.14962 316.195 0.954545 315.636 0.909091 315H2.36364C2.40152 315.439 2.54924 315.803 2.80682 316.091C3.06818 316.375 3.39773 316.587 3.79545 316.727C4.19697 316.864 4.62879 316.932 5.09091 316.932C5.62879 316.932 6.11174 316.845 6.53977 316.67C6.9678 316.492 7.30682 316.246 7.55682 315.932C7.80682 315.614 7.93182 315.242 7.93182 314.818C7.93182 314.432 7.82386 314.117 7.60795 313.875C7.39205 313.633 7.10795 313.436 6.75568 313.284C6.40341 313.133 6.02273 313 5.61364 312.886L4.18182 312.477C3.27273 312.216 2.55303 311.843 2.02273 311.358C1.49242 310.873 1.22727 310.239 1.22727 309.455C1.22727 308.803 1.40341 308.235 1.75568 307.75C2.11174 307.261 2.58902 306.883 3.1875 306.614C3.78977 306.341 4.46212 306.205 5.20455 306.205C5.95455 306.205 6.62121 306.339 7.20455 306.608C7.78788 306.873 8.25 307.237 8.59091 307.699C8.93561 308.161 9.11742 308.686 9.13636 309.273H7.77273ZM16.9544 314.432V309.273H18.2953V318H16.9544V316.523H16.8635C16.6589 316.966 16.3408 317.343 15.9089 317.653C15.4771 317.96 14.9317 318.114 14.2726 318.114C13.7271 318.114 13.2423 317.994 12.818 317.756C12.3938 317.513 12.0605 317.15 11.818 316.665C11.5756 316.176 11.4544 315.561 11.4544 314.818V309.273H12.7953V314.727C12.7953 315.364 12.9733 315.871 13.3294 316.25C13.6892 316.629 14.1476 316.818 14.7044 316.818C15.0377 316.818 15.3767 316.733 15.7214 316.562C16.0699 316.392 16.3616 316.131 16.5964 315.778C16.8351 315.426 16.9544 314.977 16.9544 314.432ZM20.9571 318V306.364H22.298V310.659H22.4116C22.5101 310.508 22.6465 310.314 22.8207 310.08C22.9988 309.841 23.2525 309.629 23.5821 309.443C23.9154 309.254 24.3662 309.159 24.9344 309.159C25.6692 309.159 26.3169 309.343 26.8775 309.71C27.4382 310.078 27.8757 310.598 28.19 311.273C28.5044 311.947 28.6616 312.742 28.6616 313.659C28.6616 314.583 28.5044 315.384 28.19 316.062C27.8757 316.737 27.44 317.259 26.8832 317.631C26.3264 317.998 25.6844 318.182 24.9571 318.182C24.3965 318.182 23.9476 318.089 23.6105 317.903C23.2734 317.714 23.0139 317.5 22.8321 317.261C22.6503 317.019 22.5101 316.818 22.4116 316.659H22.2525V318H20.9571ZM22.2753 313.636C22.2753 314.295 22.3719 314.877 22.565 315.381C22.7582 315.881 23.0404 316.273 23.4116 316.557C23.7828 316.837 24.2374 316.977 24.7753 316.977C25.3359 316.977 25.8037 316.83 26.1787 316.534C26.5575 316.235 26.8416 315.833 27.031 315.33C27.2241 314.822 27.3207 314.258 27.3207 313.636C27.3207 313.023 27.226 312.47 27.0366 311.977C26.851 311.481 26.5688 311.089 26.19 310.801C25.815 310.509 25.3435 310.364 24.7753 310.364C24.2298 310.364 23.7715 310.502 23.4003 310.778C23.0291 311.051 22.7488 311.434 22.5594 311.926C22.37 312.415 22.2753 312.985 22.2753 313.636ZM34.5322 309.273V310.409H30.0095V309.273H34.5322ZM31.3277 307.182H32.6686V315.5C32.6686 315.879 32.7235 316.163 32.8334 316.352C32.947 316.538 33.0909 316.663 33.2652 316.727C33.4432 316.788 33.6307 316.818 33.8277 316.818C33.9754 316.818 34.0966 316.811 34.1913 316.795C34.286 316.777 34.3618 316.761 34.4186 316.75L34.6913 317.955C34.6004 317.989 34.4735 318.023 34.3106 318.057C34.1478 318.095 33.9413 318.114 33.6913 318.114C33.3125 318.114 32.9413 318.032 32.5777 317.869C32.2178 317.706 31.9186 317.458 31.68 317.125C31.4451 316.792 31.3277 316.371 31.3277 315.864V307.182ZM36.5733 318V309.273H37.9142V318H36.5733ZM37.2551 307.818C36.9937 307.818 36.7683 307.729 36.579 307.551C36.3933 307.373 36.3005 307.159 36.3005 306.909C36.3005 306.659 36.3933 306.445 36.579 306.267C36.7683 306.089 36.9937 306 37.2551 306C37.5165 306 37.7399 306.089 37.9255 306.267C38.1149 306.445 38.2096 306.659 38.2096 306.909C38.2096 307.159 38.1149 307.373 37.9255 307.551C37.7399 307.729 37.5165 307.818 37.2551 307.818ZM44.1896 309.273V310.409H39.6669V309.273H44.1896ZM40.9851 307.182H42.326V315.5C42.326 315.879 42.3809 316.163 42.4907 316.352C42.6044 316.538 42.7483 316.663 42.9226 316.727C43.1006 316.788 43.2881 316.818 43.4851 316.818C43.6328 316.818 43.754 316.811 43.8487 316.795C43.9434 316.777 44.0191 316.761 44.076 316.75L44.3487 317.955C44.2578 317.989 44.1309 318.023 43.968 318.057C43.8051 318.095 43.5987 318.114 43.3487 318.114C42.9699 318.114 42.5987 318.032 42.2351 317.869C41.8752 317.706 41.576 317.458 41.3373 317.125C41.1025 316.792 40.9851 316.371 40.9851 315.864V307.182ZM47.7591 306.364V318H46.4181V306.364H47.7591ZM53.8981 318.182C53.0572 318.182 52.3318 317.996 51.722 317.625C51.1159 317.25 50.6481 316.727 50.3186 316.057C49.9928 315.383 49.8299 314.598 49.8299 313.705C49.8299 312.811 49.9928 312.023 50.3186 311.341C50.6481 310.655 51.1064 310.121 51.6936 309.739C52.2845 309.352 52.9739 309.159 53.7617 309.159C54.2163 309.159 54.6652 309.235 55.1083 309.386C55.5515 309.538 55.9549 309.784 56.3186 310.125C56.6822 310.462 56.972 310.909 57.1879 311.466C57.4038 312.023 57.5117 312.708 57.5117 313.523V314.091H50.7845V312.932H56.1481C56.1481 312.439 56.0496 312 55.8527 311.614C55.6595 311.227 55.383 310.922 55.0231 310.699C54.6671 310.475 54.2466 310.364 53.7617 310.364C53.2277 310.364 52.7655 310.496 52.3754 310.761C51.989 311.023 51.6917 311.364 51.4833 311.784C51.275 312.205 51.1708 312.655 51.1708 313.136V313.909C51.1708 314.568 51.2845 315.127 51.5117 315.585C51.7428 316.04 52.0629 316.386 52.472 316.625C52.8811 316.86 53.3564 316.977 53.8981 316.977C54.2504 316.977 54.5686 316.928 54.8527 316.83C55.1405 316.727 55.3886 316.576 55.597 316.375C55.8053 316.17 55.9663 315.917 56.0799 315.614L57.3754 315.977C57.239 316.417 57.0099 316.803 56.6879 317.136C56.3659 317.466 55.9682 317.723 55.4947 317.909C55.0212 318.091 54.489 318.182 53.8981 318.182ZM68.1677 306.364V318H66.7586V307.841H66.6904L63.8495 309.727V308.295L66.7586 306.364H68.1677Z" fill="black"/>
<path d="M6.67188 340.493C6.61884 340.022 6.40009 339.658 6.01562 339.399C5.63116 339.137 5.14725 339.006 4.56392 339.006C4.14631 339.006 3.78504 339.073 3.48011 339.205C3.17519 339.335 2.93821 339.513 2.76918 339.742C2.60346 339.968 2.5206 340.224 2.5206 340.513C2.5206 340.755 2.57694 340.964 2.68963 341.139C2.80563 341.315 2.95644 341.462 3.14205 341.582C3.33097 341.698 3.53314 341.795 3.74858 341.875C3.96402 341.951 4.17116 342.014 4.37003 342.064L5.36435 342.322C5.68916 342.402 6.02225 342.51 6.36364 342.646C6.70502 342.781 7.02154 342.96 7.31321 343.183C7.60488 343.405 7.8402 343.68 8.01918 344.008C8.20147 344.336 8.29261 344.729 8.29261 345.186C8.29261 345.763 8.14347 346.275 7.84517 346.722C7.55019 347.17 7.12098 347.523 6.55753 347.781C5.9974 348.04 5.3196 348.169 4.52415 348.169C3.76184 348.169 3.10227 348.048 2.54545 347.806C1.98864 347.564 1.55279 347.221 1.23793 346.777C0.923059 346.33 0.749053 345.799 0.715909 345.186H2.2571C2.28693 345.554 2.40625 345.861 2.61506 346.106C2.82718 346.348 3.0973 346.528 3.42543 346.648C3.75687 346.764 4.11979 346.822 4.5142 346.822C4.94839 346.822 5.33452 346.754 5.67259 346.618C6.01397 346.479 6.28243 346.286 6.47798 346.041C6.67353 345.793 6.77131 345.503 6.77131 345.171C6.77131 344.87 6.68513 344.623 6.51278 344.43C6.34375 344.238 6.1134 344.079 5.82173 343.953C5.53338 343.827 5.20691 343.716 4.84233 343.62L3.6392 343.292C2.82386 343.07 2.17756 342.743 1.70028 342.312C1.22633 341.882 0.989347 341.312 0.989347 340.602C0.989347 340.016 1.14844 339.504 1.46662 339.066C1.7848 338.629 2.21567 338.289 2.75923 338.047C3.30279 337.802 3.91596 337.679 4.59872 337.679C5.28812 337.679 5.89631 337.8 6.4233 338.042C6.9536 338.284 7.37121 338.617 7.67614 339.041C7.98106 339.462 8.14015 339.946 8.15341 340.493H6.67188ZM14.8604 344.833V340.364H16.3519V348H14.8902V346.678H14.8107C14.635 347.085 14.3533 347.425 13.9655 347.697C13.5811 347.965 13.1021 348.099 12.5287 348.099C12.0382 348.099 11.604 347.992 11.2262 347.776C10.8517 347.558 10.5567 347.234 10.3412 346.807C10.1291 346.379 10.0231 345.851 10.0231 345.221V340.364H11.5096V345.042C11.5096 345.562 11.6537 345.977 11.9421 346.285C12.2304 346.593 12.605 346.747 13.0657 346.747C13.3441 346.747 13.6208 346.678 13.8959 346.538C14.1743 346.399 14.4047 346.189 14.587 345.907C14.7726 345.625 14.8637 345.267 14.8604 344.833ZM18.4825 348V337.818H19.9691V341.602H20.0585C20.1447 341.442 20.269 341.259 20.4314 341.05C20.5938 340.841 20.8192 340.659 21.1075 340.503C21.3959 340.344 21.7771 340.264 22.251 340.264C22.8675 340.264 23.4177 340.42 23.9016 340.732C24.3855 341.043 24.765 341.492 25.0401 342.079C25.3185 342.665 25.4577 343.371 25.4577 344.197C25.4577 345.022 25.3201 345.73 25.045 346.32C24.77 346.906 24.3921 347.359 23.9115 347.677C23.4309 347.992 22.8824 348.149 22.2659 348.149C21.8019 348.149 21.4224 348.071 21.1274 347.915C20.8358 347.76 20.6071 347.577 20.4414 347.369C20.2756 347.16 20.148 346.974 20.0585 346.812H19.9342V348H18.4825ZM19.9392 344.182C19.9392 344.719 20.0171 345.189 20.1729 345.594C20.3287 345.998 20.554 346.315 20.849 346.543C21.144 346.769 21.5053 346.881 21.9328 346.881C22.377 346.881 22.7482 346.764 23.0465 346.528C23.3448 346.29 23.5701 345.967 23.7226 345.559C23.8784 345.151 23.9563 344.692 23.9563 344.182C23.9563 343.678 23.88 343.226 23.7276 342.825C23.5784 342.424 23.353 342.107 23.0514 341.875C22.7531 341.643 22.3803 341.527 21.9328 341.527C21.502 341.527 21.1374 341.638 20.8391 341.86C20.5441 342.082 20.3204 342.392 20.1679 342.79C20.0155 343.187 19.9392 343.652 19.9392 344.182ZM30.7055 340.364V341.557H26.5344V340.364H30.7055ZM27.653 338.534H29.1395V345.758C29.1395 346.046 29.1826 346.263 29.2687 346.409C29.3549 346.552 29.4659 346.649 29.6018 346.702C29.741 346.752 29.8918 346.777 30.0543 346.777C30.1736 346.777 30.278 346.769 30.3675 346.752C30.457 346.736 30.5266 346.722 30.5763 346.712L30.8447 347.94C30.7586 347.973 30.6359 348.007 30.4768 348.04C30.3177 348.076 30.1189 348.096 29.8802 348.099C29.4891 348.106 29.1246 348.036 28.7865 347.891C28.4484 347.745 28.175 347.519 27.9662 347.214C27.7574 346.91 27.653 346.527 27.653 346.066V338.534ZM32.3639 348V340.364H33.8504V348H32.3639ZM33.1146 339.185C32.8561 339.185 32.634 339.099 32.4484 338.927C32.2661 338.751 32.175 338.542 32.175 338.3C32.175 338.055 32.2661 337.846 32.4484 337.674C32.634 337.498 32.8561 337.411 33.1146 337.411C33.3731 337.411 33.5935 337.498 33.7758 337.674C33.9614 337.846 34.0542 338.055 34.0542 338.3C34.0542 338.542 33.9614 338.751 33.7758 338.927C33.5935 339.099 33.3731 339.185 33.1146 339.185ZM39.4288 340.364V341.557H35.2577V340.364H39.4288ZM36.3763 338.534H37.8628V345.758C37.8628 346.046 37.9059 346.263 37.9921 346.409C38.0782 346.552 38.1893 346.649 38.3251 346.702C38.4644 346.752 38.6152 346.777 38.7776 346.777C38.8969 346.777 39.0013 346.769 39.0908 346.752C39.1803 346.736 39.2499 346.722 39.2996 346.712L39.568 347.94C39.4819 347.973 39.3592 348.007 39.2001 348.04C39.0411 348.076 38.8422 348.096 38.6036 348.099C38.2125 348.106 37.8479 348.036 37.5098 347.891C37.1717 347.745 36.8983 347.519 36.6895 347.214C36.4807 346.91 36.3763 346.527 36.3763 346.066V338.534ZM42.7378 337.818V348H41.2513V337.818H42.7378ZM48.0428 348.154C47.2904 348.154 46.6424 347.993 46.0989 347.672C45.5586 347.347 45.141 346.891 44.846 346.305C44.5544 345.715 44.4085 345.024 44.4085 344.232C44.4085 343.449 44.5544 342.76 44.846 342.163C45.141 341.567 45.552 341.101 46.079 340.766C46.6093 340.432 47.2291 340.264 47.9384 340.264C48.3692 340.264 48.7869 340.335 49.1912 340.478C49.5956 340.621 49.9585 340.844 50.28 341.149C50.6015 341.454 50.855 341.85 51.0406 342.337C51.2263 342.821 51.3191 343.41 51.3191 344.102V344.629H45.2487V343.516H49.8624C49.8624 343.125 49.7828 342.778 49.6237 342.477C49.4647 342.172 49.2409 341.931 48.9526 341.756C48.6675 341.58 48.3328 341.492 47.9483 341.492C47.5307 341.492 47.1661 341.595 46.8546 341.8C46.5463 342.003 46.3077 342.268 46.1387 342.596C45.9729 342.921 45.8901 343.274 45.8901 343.655V344.525C45.8901 345.035 45.9796 345.469 46.1585 345.827C46.3408 346.185 46.5944 346.459 46.9192 346.648C47.244 346.833 47.6235 346.926 48.0577 346.926C48.3394 346.926 48.5963 346.886 48.8283 346.807C49.0603 346.724 49.2608 346.601 49.4299 346.439C49.5989 346.277 49.7281 346.076 49.8176 345.837L51.2246 346.091C51.1119 346.505 50.9097 346.868 50.6181 347.18C50.3297 347.488 49.9668 347.728 49.5293 347.901C49.0951 348.07 48.5996 348.154 48.0428 348.154ZM56.6816 348V346.886L60.1269 343.317C60.4948 342.929 60.7981 342.589 61.0367 342.298C61.2786 342.003 61.4593 341.723 61.5786 341.457C61.6979 341.192 61.7576 340.911 61.7576 340.612C61.7576 340.274 61.678 339.982 61.5189 339.737C61.3598 339.489 61.1427 339.298 60.8677 339.165C60.5926 339.03 60.2827 338.962 59.938 338.962C59.5734 338.962 59.2552 339.036 58.9834 339.185C58.7116 339.335 58.5028 339.545 58.357 339.817C58.2112 340.089 58.1383 340.407 58.1383 340.771H56.6716C56.6716 340.152 56.8142 339.61 57.0992 339.146C57.3842 338.682 57.7753 338.322 58.2725 338.067C58.7696 337.808 59.3347 337.679 59.9678 337.679C60.6075 337.679 61.1709 337.807 61.6581 338.062C62.1487 338.314 62.5315 338.658 62.8066 339.096C63.0817 339.53 63.2192 340.021 63.2192 340.567C63.2192 340.945 63.148 341.315 63.0054 341.676C62.8662 342.037 62.6226 342.44 62.2746 342.884C61.9266 343.325 61.4427 343.86 60.8229 344.49L58.7995 346.608V346.683H63.3833V348H56.6816Z" fill="black"/>
<path d="M1.40909 379V367.364H5.47727C6.28788 367.364 6.95644 367.504 7.48295 367.784C8.00947 368.061 8.40152 368.434 8.65909 368.903C8.91667 369.369 9.04545 369.886 9.04545 370.455C9.04545 370.955 8.95644 371.367 8.77841 371.693C8.60417 372.019 8.37311 372.277 8.08523 372.466C7.80114 372.655 7.49242 372.795 7.15909 372.886V373C7.51515 373.023 7.87311 373.148 8.23295 373.375C8.5928 373.602 8.89394 373.928 9.13636 374.352C9.37879 374.777 9.5 375.295 9.5 375.909C9.5 376.492 9.36742 377.017 9.10227 377.483C8.83712 377.949 8.41856 378.318 7.84659 378.591C7.27462 378.864 6.5303 379 5.61364 379H1.40909ZM2.81818 377.75H5.61364C6.53409 377.75 7.1875 377.572 7.57386 377.216C7.96402 376.856 8.15909 376.42 8.15909 375.909C8.15909 375.515 8.05871 375.152 7.85795 374.818C7.6572 374.481 7.37121 374.212 7 374.011C6.62879 373.807 6.18939 373.705 5.68182 373.705H2.81818V377.75ZM2.81818 372.477H5.43182C5.85606 372.477 6.23864 372.394 6.57955 372.227C6.92424 372.061 7.19697 371.826 7.39773 371.523C7.60227 371.22 7.70455 370.864 7.70455 370.455C7.70455 369.943 7.52652 369.509 7.17045 369.153C6.81439 368.794 6.25 368.614 5.47727 368.614H2.81818V372.477ZM15.259 379.182C14.4711 379.182 13.7798 378.994 13.1851 378.619C12.5942 378.244 12.1321 377.72 11.7987 377.045C11.4692 376.371 11.3044 375.583 11.3044 374.682C11.3044 373.773 11.4692 372.979 11.7987 372.301C12.1321 371.623 12.5942 371.097 13.1851 370.722C13.7798 370.347 14.4711 370.159 15.259 370.159C16.0469 370.159 16.7363 370.347 17.3272 370.722C17.9219 371.097 18.384 371.623 18.7135 372.301C19.0469 372.979 19.2135 373.773 19.2135 374.682C19.2135 375.583 19.0469 376.371 18.7135 377.045C18.384 377.72 17.9219 378.244 17.3272 378.619C16.7363 378.994 16.0469 379.182 15.259 379.182ZM15.259 377.977C15.8575 377.977 16.3499 377.824 16.7362 377.517C17.1226 377.21 17.4086 376.807 17.5942 376.307C17.7798 375.807 17.8726 375.265 17.8726 374.682C17.8726 374.098 17.7798 373.555 17.5942 373.051C17.4086 372.547 17.1226 372.14 16.7362 371.83C16.3499 371.519 15.8575 371.364 15.259 371.364C14.6605 371.364 14.1681 371.519 13.7817 371.83C13.3953 372.14 13.1094 372.547 12.9237 373.051C12.7381 373.555 12.6453 374.098 12.6453 374.682C12.6453 375.265 12.7381 375.807 12.9237 376.307C13.1094 376.807 13.3953 377.21 13.7817 377.517C14.1681 377.824 14.6605 377.977 15.259 377.977ZM24.6359 379.182C23.9086 379.182 23.2665 378.998 22.7097 378.631C22.1529 378.259 21.7173 377.737 21.4029 377.062C21.0885 376.384 20.9313 375.583 20.9313 374.659C20.9313 373.742 21.0885 372.947 21.4029 372.273C21.7173 371.598 22.1548 371.078 22.7154 370.71C23.276 370.343 23.9237 370.159 24.6586 370.159C25.2268 370.159 25.6756 370.254 26.0052 370.443C26.3385 370.629 26.5923 370.841 26.7665 371.08C26.9446 371.314 27.0828 371.508 27.1813 371.659H27.2949V367.364H28.6359V379H27.3404V377.659H27.1813C27.0828 377.818 26.9427 378.019 26.7609 378.261C26.579 378.5 26.3196 378.714 25.9824 378.903C25.6453 379.089 25.1965 379.182 24.6359 379.182ZM24.8177 377.977C25.3555 377.977 25.8101 377.837 26.1813 377.557C26.5525 377.273 26.8347 376.881 27.0279 376.381C27.2211 375.877 27.3177 375.295 27.3177 374.636C27.3177 373.985 27.223 373.415 27.0336 372.926C26.8442 372.434 26.5639 372.051 26.1927 371.778C25.8215 371.502 25.3631 371.364 24.8177 371.364C24.2495 371.364 23.776 371.509 23.3972 371.801C23.0222 372.089 22.74 372.481 22.5506 372.977C22.365 373.47 22.2722 374.023 22.2722 374.636C22.2722 375.258 22.3669 375.822 22.5563 376.33C22.7495 376.833 23.0336 377.235 23.4086 377.534C23.7874 377.83 24.2571 377.977 24.8177 377.977ZM32.2215 382.273C31.9943 382.273 31.7916 382.254 31.6136 382.216C31.4355 382.182 31.3124 382.148 31.2443 382.114L31.5852 380.932C31.9109 381.015 32.1988 381.045 32.4488 381.023C32.6988 381 32.9204 380.888 33.1136 380.688C33.3105 380.491 33.4905 380.17 33.6534 379.727L33.9034 379.045L30.6761 370.273H32.1306L34.5397 377.227H34.6306L37.0397 370.273H38.4943L34.7897 380.273C34.623 380.723 34.4166 381.097 34.1704 381.392C33.9242 381.691 33.6382 381.913 33.3124 382.057C32.9905 382.201 32.6268 382.273 32.2215 382.273ZM48.9923 367.364V379H47.5832V368.841H47.5151L44.6741 370.727V369.295L47.5832 367.364H48.9923Z" fill="black"/>
<path d="M1.23295 409V398.818H4.79261C5.50189 398.818 6.08688 398.941 6.54759 399.186C7.00829 399.428 7.35133 399.754 7.5767 400.165C7.80208 400.573 7.91477 401.026 7.91477 401.523C7.91477 401.96 7.83688 402.321 7.68111 402.607C7.52865 402.892 7.32647 403.117 7.07457 403.283C6.82599 403.448 6.55587 403.571 6.2642 403.651V403.75C6.57576 403.77 6.88897 403.879 7.20384 404.078C7.5187 404.277 7.7822 404.562 7.99432 404.933C8.20644 405.304 8.3125 405.759 8.3125 406.295C8.3125 406.806 8.1965 407.265 7.96449 407.673C7.73248 408.08 7.36624 408.403 6.86577 408.642C6.36529 408.881 5.71402 409 4.91193 409H1.23295ZM2.46591 407.906H4.91193C5.71733 407.906 6.28906 407.75 6.62713 407.439C6.96851 407.124 7.1392 406.743 7.1392 406.295C7.1392 405.951 7.05137 405.633 6.87571 405.341C6.70005 405.046 6.44981 404.811 6.125 404.635C5.80019 404.456 5.41572 404.366 4.97159 404.366H2.46591V407.906ZM2.46591 403.293H4.75284C5.12405 403.293 5.45881 403.22 5.7571 403.074C6.05871 402.928 6.29735 402.723 6.47301 402.457C6.65199 402.192 6.74148 401.881 6.74148 401.523C6.74148 401.075 6.5857 400.696 6.27415 400.384C5.9626 400.069 5.46875 399.912 4.79261 399.912H2.46591V403.293ZM13.3166 409.159C12.6272 409.159 12.0223 408.995 11.502 408.667C10.9849 408.339 10.5806 407.88 10.2889 407.29C10.0006 406.7 9.85638 406.01 9.85638 405.222C9.85638 404.426 10.0006 403.732 10.2889 403.138C10.5806 402.545 10.9849 402.085 11.502 401.756C12.0223 401.428 12.6272 401.264 13.3166 401.264C14.006 401.264 14.6092 401.428 15.1263 401.756C15.6466 402.085 16.051 402.545 16.3393 403.138C16.631 403.732 16.7768 404.426 16.7768 405.222C16.7768 406.01 16.631 406.7 16.3393 407.29C16.051 407.88 15.6466 408.339 15.1263 408.667C14.6092 408.995 14.006 409.159 13.3166 409.159ZM13.3166 408.105C13.8403 408.105 14.2712 407.971 14.6092 407.702C14.9473 407.434 15.1975 407.081 15.3599 406.643C15.5223 406.206 15.6035 405.732 15.6035 405.222C15.6035 404.711 15.5223 404.236 15.3599 403.795C15.1975 403.354 14.9473 402.998 14.6092 402.726C14.2712 402.454 13.8403 402.318 13.3166 402.318C12.7929 402.318 12.3621 402.454 12.024 402.726C11.6859 402.998 11.4357 403.354 11.2733 403.795C11.1109 404.236 11.0297 404.711 11.0297 405.222C11.0297 405.732 11.1109 406.206 11.2733 406.643C11.4357 407.081 11.6859 407.434 12.024 407.702C12.3621 407.971 12.7929 408.105 13.3166 408.105ZM21.4864 409.159C20.85 409.159 20.2882 408.998 19.801 408.677C19.3138 408.352 18.9326 407.895 18.6575 407.305C18.3824 406.711 18.2449 406.01 18.2449 405.202C18.2449 404.4 18.3824 403.704 18.6575 403.114C18.9326 402.524 19.3154 402.068 19.806 401.746C20.2965 401.425 20.8633 401.264 21.5063 401.264C22.0034 401.264 22.3962 401.347 22.6845 401.513C22.9762 401.675 23.1983 401.861 23.3507 402.07C23.5065 402.275 23.6275 402.444 23.7136 402.577H23.8131V398.818H24.9864V409H23.8528V407.827H23.7136C23.6275 407.966 23.5048 408.142 23.3457 408.354C23.1867 408.562 22.9596 408.75 22.6646 408.915C22.3697 409.078 21.9769 409.159 21.4864 409.159ZM21.6455 408.105C22.1161 408.105 22.5138 407.982 22.8386 407.737C23.1635 407.489 23.4104 407.146 23.5794 406.708C23.7484 406.267 23.833 405.759 23.833 405.182C23.833 404.612 23.7501 404.113 23.5844 403.685C23.4187 403.254 23.1734 402.92 22.8486 402.681C22.5238 402.439 22.1227 402.318 21.6455 402.318C21.1483 402.318 20.734 402.446 20.4026 402.701C20.0744 402.953 19.8275 403.296 19.6618 403.73C19.4994 404.161 19.4182 404.645 19.4182 405.182C19.4182 405.725 19.501 406.219 19.6668 406.663C19.8358 407.104 20.0844 407.455 20.4125 407.717C20.7439 407.976 21.1549 408.105 21.6455 408.105ZM28.0888 411.864C27.89 411.864 27.7127 411.847 27.5569 411.814C27.4011 411.784 27.2934 411.754 27.2337 411.724L27.532 410.69C27.8171 410.763 28.069 410.79 28.2877 410.77C28.5065 410.75 28.7003 410.652 28.8694 410.477C29.0417 410.304 29.1992 410.024 29.3417 409.636L29.5604 409.04L26.7366 401.364H28.0093L30.1173 407.449H30.1968L32.3048 401.364H33.5775L30.336 410.114C30.1902 410.508 30.0095 410.835 29.7941 411.093C29.5787 411.355 29.3284 411.549 29.0434 411.675C28.7617 411.801 28.4435 411.864 28.0888 411.864ZM39.1137 409V408.105L42.4745 404.426C42.869 403.995 43.1938 403.621 43.449 403.303C43.7042 402.981 43.8931 402.679 44.0157 402.398C44.1417 402.113 44.2047 401.814 44.2047 401.503C44.2047 401.145 44.1185 400.835 43.9461 400.573C43.7771 400.311 43.5451 400.109 43.2501 399.967C42.9551 399.824 42.6237 399.753 42.2558 399.753C41.8647 399.753 41.5233 399.834 41.2316 399.996C40.9433 400.156 40.7196 400.379 40.5605 400.668C40.4047 400.956 40.3268 401.294 40.3268 401.682H39.1535C39.1535 401.085 39.2911 400.562 39.5662 400.111C39.8413 399.66 40.2158 399.309 40.6897 399.057C41.167 398.805 41.7023 398.679 42.2956 398.679C42.8922 398.679 43.4208 398.805 43.8815 399.057C44.3422 399.309 44.7035 399.648 44.9653 400.076C45.2271 400.504 45.3581 400.979 45.3581 401.503C45.3581 401.877 45.2901 402.244 45.1542 402.602C45.0216 402.956 44.7896 403.352 44.4582 403.79C44.1301 404.224 43.6743 404.754 43.091 405.381L40.8041 407.827V407.906H45.537V409H39.1137Z" fill="black"/>
<path d="M1.11861 438V427.818H4.8473C5.56984 427.818 6.16809 427.937 6.64205 428.176C7.116 428.411 7.47064 428.731 7.70597 429.136C7.94129 429.537 8.05895 429.989 8.05895 430.493C8.05895 430.917 7.98106 431.275 7.82528 431.567C7.66951 431.855 7.4607 432.087 7.19886 432.263C6.94034 432.435 6.6553 432.561 6.34375 432.641V432.74C6.68182 432.757 7.0116 432.866 7.3331 433.068C7.65791 433.267 7.92637 433.55 8.13849 433.918C8.35062 434.286 8.45668 434.734 8.45668 435.261C8.45668 435.781 8.33404 436.248 8.08878 436.663C7.84683 437.074 7.4723 437.4 6.9652 437.642C6.4581 437.881 5.81013 438 5.02131 438H1.11861ZM2.65483 436.683H4.87216C5.60795 436.683 6.13494 436.54 6.45312 436.255C6.77131 435.97 6.9304 435.614 6.9304 435.186C6.9304 434.865 6.8492 434.57 6.68679 434.301C6.52438 434.033 6.29238 433.819 5.99077 433.66C5.69247 433.501 5.33783 433.421 4.92685 433.421H2.65483V436.683ZM2.65483 432.223H4.71307C5.05777 432.223 5.36766 432.157 5.64276 432.024C5.92116 431.892 6.14157 431.706 6.30398 431.467C6.4697 431.225 6.55256 430.94 6.55256 430.612C6.55256 430.191 6.40507 429.838 6.11009 429.553C5.8151 429.268 5.36269 429.126 4.75284 429.126H2.65483V432.223ZM15.1718 434.833V430.364H16.6633V438H15.2016V436.678H15.1221C14.9464 437.085 14.6647 437.425 14.2769 437.697C13.8924 437.965 13.4135 438.099 12.8401 438.099C12.3496 438.099 11.9154 437.992 11.5376 437.776C11.163 437.558 10.8681 437.234 10.6526 436.807C10.4405 436.379 10.3344 435.851 10.3344 435.221V430.364H11.821V435.042C11.821 435.562 11.9651 435.977 12.2535 436.285C12.5418 436.593 12.9164 436.747 13.3771 436.747C13.6555 436.747 13.9322 436.678 14.2073 436.538C14.4857 436.399 14.7161 436.189 14.8984 435.907C15.084 435.625 15.1751 435.267 15.1718 434.833ZM22.4002 430.364V431.557H18.2291V430.364H22.4002ZM19.3477 428.534H20.8342V435.758C20.8342 436.046 20.8773 436.263 20.9635 436.409C21.0496 436.552 21.1607 436.649 21.2966 436.702C21.4358 436.752 21.5866 436.777 21.749 436.777C21.8683 436.777 21.9727 436.769 22.0622 436.752C22.1517 436.736 22.2213 436.722 22.271 436.712L22.5395 437.94C22.4533 437.973 22.3306 438.007 22.1716 438.04C22.0125 438.076 21.8136 438.096 21.575 438.099C21.1839 438.106 20.8193 438.036 20.4812 437.891C20.1431 437.745 19.8697 437.519 19.6609 437.214C19.4521 436.91 19.3477 436.527 19.3477 436.066V428.534ZM27.7842 430.364V431.557H23.6131V430.364H27.7842ZM24.7317 428.534H26.2182V435.758C26.2182 436.046 26.2613 436.263 26.3474 436.409C26.4336 436.552 26.5446 436.649 26.6805 436.702C26.8197 436.752 26.9705 436.777 27.133 436.777C27.2523 436.777 27.3567 436.769 27.4462 436.752C27.5357 436.736 27.6053 436.722 27.655 436.712L27.9234 437.94C27.8373 437.973 27.7146 438.007 27.5555 438.04C27.3964 438.076 27.1976 438.096 26.9589 438.099C26.5679 438.106 26.2033 438.036 25.8652 437.891C25.5271 437.745 25.2537 437.519 25.0449 437.214C24.8361 436.91 24.7317 436.527 24.7317 436.066V428.534ZM32.7382 438.154C32.0223 438.154 31.3975 437.99 30.8639 437.662C30.3303 437.334 29.916 436.875 29.621 436.285C29.326 435.695 29.1785 435.005 29.1785 434.217C29.1785 433.424 29.326 432.732 29.621 432.138C29.916 431.545 30.3303 431.085 30.8639 430.756C31.3975 430.428 32.0223 430.264 32.7382 430.264C33.4541 430.264 34.0788 430.428 34.6125 430.756C35.1461 431.085 35.5604 431.545 35.8554 432.138C36.1503 432.732 36.2978 433.424 36.2978 434.217C36.2978 435.005 36.1503 435.695 35.8554 436.285C35.5604 436.875 35.1461 437.334 34.6125 437.662C34.0788 437.99 33.4541 438.154 32.7382 438.154ZM32.7431 436.906C33.2072 436.906 33.5916 436.784 33.8966 436.538C34.2015 436.293 34.4269 435.967 34.5727 435.559C34.7218 435.151 34.7964 434.702 34.7964 434.212C34.7964 433.724 34.7218 433.277 34.5727 432.869C34.4269 432.458 34.2015 432.129 33.8966 431.88C33.5916 431.631 33.2072 431.507 32.7431 431.507C32.2758 431.507 31.888 431.631 31.5798 431.88C31.2749 432.129 31.0478 432.458 30.8987 432.869C30.7529 433.277 30.6799 433.724 30.6799 434.212C30.6799 434.702 30.7529 435.151 30.8987 435.559C31.0478 435.967 31.2749 436.293 31.5798 436.538C31.888 436.784 32.2758 436.906 32.7431 436.906ZM39.6186 433.466V438H38.1321V430.364H39.5589V431.607H39.6534C39.8291 431.202 40.1042 430.877 40.4787 430.632C40.8565 430.387 41.3321 430.264 41.9055 430.264C42.4259 430.264 42.8816 430.374 43.2727 430.592C43.6638 430.808 43.9671 431.129 44.1825 431.557C44.398 431.984 44.5057 432.513 44.5057 433.143V438H43.0192V433.322C43.0192 432.768 42.875 432.336 42.5866 432.024C42.2983 431.709 41.9022 431.552 41.3984 431.552C41.0537 431.552 40.7472 431.626 40.4787 431.776C40.2135 431.925 40.0031 432.143 39.8473 432.432C39.6948 432.717 39.6186 433.062 39.6186 433.466Z" fill="black"/>
<path d="M8.07955 457H7.02273C6.96023 456.696 6.85085 456.429 6.6946 456.199C6.54119 455.969 6.35369 455.776 6.1321 455.619C5.91335 455.46 5.67045 455.341 5.40341 455.261C5.13636 455.182 4.85795 455.142 4.56818 455.142C4.03977 455.142 3.56108 455.276 3.1321 455.543C2.70597 455.81 2.36648 456.203 2.11364 456.723C1.86364 457.243 1.73864 457.881 1.73864 458.636C1.73864 459.392 1.86364 460.03 2.11364 460.55C2.36648 461.07 2.70597 461.463 3.1321 461.73C3.56108 461.997 4.03977 462.131 4.56818 462.131C4.85795 462.131 5.13636 462.091 5.40341 462.011C5.67045 461.932 5.91335 461.814 6.1321 461.658C6.35369 461.499 6.54119 461.304 6.6946 461.074C6.85085 460.841 6.96023 460.574 7.02273 460.273H8.07955C8 460.719 7.85511 461.118 7.64489 461.47C7.43466 461.822 7.1733 462.122 6.8608 462.369C6.5483 462.614 6.19744 462.8 5.80824 462.928C5.42188 463.055 5.00852 463.119 4.56818 463.119C3.82386 463.119 3.16193 462.938 2.58239 462.574C2.00284 462.21 1.54688 461.693 1.21449 461.023C0.882102 460.352 0.715909 459.557 0.715909 458.636C0.715909 457.716 0.882102 456.92 1.21449 456.25C1.54688 455.58 2.00284 455.062 2.58239 454.699C3.16193 454.335 3.82386 454.153 4.56818 454.153C5.00852 454.153 5.42188 454.217 5.80824 454.345C6.19744 454.473 6.5483 454.661 6.8608 454.908C7.1733 455.152 7.43466 455.45 7.64489 455.803C7.85511 456.152 8 456.551 8.07955 457ZM11.6251 463.153C11.2103 463.153 10.8339 463.075 10.4958 462.919C10.1577 462.76 9.88926 462.531 9.6904 462.233C9.49154 461.932 9.39211 461.568 9.39211 461.142C9.39211 460.767 9.46597 460.463 9.6137 460.23C9.76142 459.994 9.95887 459.81 10.206 459.676C10.4532 459.543 10.7259 459.443 11.0242 459.378C11.3253 459.31 11.6279 459.256 11.9319 459.216C12.3296 459.165 12.652 459.126 12.8992 459.101C13.1492 459.072 13.331 459.026 13.4447 458.96C13.5611 458.895 13.6194 458.781 13.6194 458.619V458.585C13.6194 458.165 13.5043 457.838 13.2742 457.605C13.0469 457.372 12.7018 457.256 12.2387 457.256C11.7586 457.256 11.3822 457.361 11.1094 457.571C10.8367 457.781 10.6449 458.006 10.5342 458.244L9.57961 457.903C9.75006 457.506 9.97733 457.196 10.2614 456.974C10.5484 456.75 10.8609 456.594 11.1989 456.506C11.5398 456.415 11.8751 456.369 12.2046 456.369C12.4148 456.369 12.6563 456.395 12.929 456.446C13.2046 456.494 13.4702 456.595 13.7259 456.749C13.9844 456.902 14.1989 457.134 14.3694 457.443C14.5398 457.753 14.6251 458.168 14.6251 458.688V463H13.6194V462.114H13.5682C13.5001 462.256 13.3864 462.408 13.2273 462.57C13.0682 462.732 12.8566 462.869 12.5924 462.983C12.3282 463.097 12.0057 463.153 11.6251 463.153ZM11.7785 462.25C12.1762 462.25 12.5114 462.172 12.7842 462.016C13.0597 461.859 13.2671 461.658 13.4063 461.411C13.5484 461.163 13.6194 460.903 13.6194 460.631V459.71C13.5768 459.761 13.483 459.808 13.3381 459.851C13.1961 459.891 13.0313 459.926 12.8438 459.957C12.6592 459.986 12.4788 460.011 12.3026 460.034C12.1293 460.054 11.9887 460.071 11.8807 460.085C11.6194 460.119 11.3751 460.175 11.1478 460.251C10.9234 460.325 10.7415 460.437 10.6023 460.588C10.466 460.736 10.3978 460.937 10.3978 461.193C10.3978 461.543 10.527 461.807 10.7856 461.986C11.0469 462.162 11.3779 462.25 11.7785 462.25ZM16.5086 465.455V456.455H17.4802V457.494H17.5996C17.6734 457.381 17.7757 457.236 17.9064 457.06C18.0399 456.881 18.2302 456.722 18.4774 456.582C18.7274 456.44 19.0655 456.369 19.4916 456.369C20.0427 456.369 20.5285 456.507 20.949 456.783C21.3694 457.058 21.6976 457.449 21.9334 457.955C22.1692 458.46 22.2871 459.057 22.2871 459.744C22.2871 460.438 22.1692 461.038 21.9334 461.547C21.6976 462.053 21.3709 462.445 20.9532 462.723C20.5356 462.999 20.0541 463.136 19.5086 463.136C19.0882 463.136 18.7515 463.067 18.4987 462.928C18.2459 462.786 18.0513 462.625 17.9149 462.446C17.7785 462.264 17.6734 462.114 17.5996 461.994H17.5143V465.455H16.5086ZM17.4973 459.727C17.4973 460.222 17.5697 460.658 17.7146 461.036C17.8595 461.411 18.0711 461.705 18.3496 461.918C18.628 462.128 18.9689 462.233 19.3723 462.233C19.7927 462.233 20.1436 462.122 20.4248 461.901C20.7089 461.676 20.922 461.375 21.064 460.997C21.2089 460.616 21.2814 460.193 21.2814 459.727C21.2814 459.267 21.2103 458.852 21.0683 458.483C20.9291 458.111 20.7174 457.817 20.4334 457.601C20.1521 457.382 19.7984 457.273 19.3723 457.273C18.9632 457.273 18.6194 457.376 18.341 457.584C18.0626 457.788 17.8524 458.075 17.7103 458.445C17.5683 458.811 17.4973 459.239 17.4973 459.727ZM26.7157 456.455V457.307H23.3237V456.455H26.7157ZM24.3123 454.886H25.318V461.125C25.318 461.409 25.3592 461.622 25.4416 461.764C25.5268 461.903 25.6348 461.997 25.7654 462.045C25.899 462.091 26.0396 462.114 26.1873 462.114C26.2981 462.114 26.389 462.108 26.4601 462.097C26.5311 462.082 26.5879 462.071 26.6305 462.062L26.8351 462.966C26.7669 462.991 26.6717 463.017 26.5495 463.043C26.4274 463.071 26.2726 463.085 26.0851 463.085C25.801 463.085 25.5226 463.024 25.2498 462.902C24.9799 462.78 24.7555 462.594 24.5765 462.344C24.4004 462.094 24.3123 461.778 24.3123 461.398V454.886ZM28.2765 463V456.455H29.2822V463H28.2765ZM28.7879 455.364C28.5919 455.364 28.4228 455.297 28.2808 455.163C28.1416 455.03 28.072 454.869 28.072 454.682C28.072 454.494 28.1416 454.334 28.2808 454.2C28.4228 454.067 28.5919 454 28.7879 454C28.9839 454 29.1515 454.067 29.2907 454.2C29.4328 454.334 29.5038 454.494 29.5038 454.682C29.5038 454.869 29.4328 455.03 29.2907 455.163C29.1515 455.297 28.9839 455.364 28.7879 455.364ZM33.8313 463.136C33.2404 463.136 32.7219 462.996 32.2759 462.714C31.8327 462.433 31.4861 462.04 31.2361 461.534C30.9889 461.028 30.8654 460.437 30.8654 459.761C30.8654 459.08 30.9889 458.484 31.2361 457.976C31.4861 457.467 31.8327 457.072 32.2759 456.791C32.7219 456.51 33.2404 456.369 33.8313 456.369C34.4222 456.369 34.9392 456.51 35.3824 456.791C35.8284 457.072 36.175 457.467 36.4222 457.976C36.6722 458.484 36.7972 459.08 36.7972 459.761C36.7972 460.437 36.6722 461.028 36.4222 461.534C36.175 462.04 35.8284 462.433 35.3824 462.714C34.9392 462.996 34.4222 463.136 33.8313 463.136ZM33.8313 462.233C34.2801 462.233 34.6494 462.118 34.9392 461.888C35.229 461.658 35.4435 461.355 35.5827 460.98C35.7219 460.605 35.7915 460.199 35.7915 459.761C35.7915 459.324 35.7219 458.916 35.5827 458.538C35.4435 458.161 35.229 457.855 34.9392 457.622C34.6494 457.389 34.2801 457.273 33.8313 457.273C33.3824 457.273 33.0131 457.389 32.7233 457.622C32.4335 457.855 32.219 458.161 32.0798 458.538C31.9406 458.916 31.871 459.324 31.871 459.761C31.871 460.199 31.9406 460.605 32.0798 460.98C32.219 461.355 32.4335 461.658 32.7233 461.888C33.0131 462.118 33.3824 462.233 33.8313 462.233ZM39.386 459.062V463H38.3803V456.455H39.3519V457.477H39.4371C39.5906 457.145 39.8235 456.878 40.136 456.676C40.4485 456.472 40.8519 456.369 41.3462 456.369C41.7894 456.369 42.1772 456.46 42.5096 456.642C42.842 456.821 43.1005 457.094 43.2852 457.46C43.4698 457.824 43.5621 458.284 43.5621 458.841V463H42.5565V458.909C42.5565 458.395 42.4229 457.994 42.1559 457.707C41.8889 457.418 41.5224 457.273 41.0565 457.273C40.7354 457.273 40.4485 457.342 40.1957 457.482C39.9457 457.621 39.7482 457.824 39.6033 458.091C39.4585 458.358 39.386 458.682 39.386 459.062Z" fill="black"/>
<path d="M7.01705 481.364C7.01705 482.131 6.87855 482.794 6.60156 483.352C6.32457 483.911 5.9446 484.342 5.46165 484.645C4.97869 484.948 4.42708 485.099 3.80682 485.099C3.18655 485.099 2.63494 484.948 2.15199 484.645C1.66903 484.342 1.28906 483.911 1.01207 483.352C0.735085 482.794 0.596591 482.131 0.596591 481.364C0.596591 480.597 0.735085 479.934 1.01207 479.375C1.28906 478.816 1.66903 478.385 2.15199 478.082C2.63494 477.779 3.18655 477.628 3.80682 477.628C4.42708 477.628 4.97869 477.779 5.46165 478.082C5.9446 478.385 6.32457 478.816 6.60156 479.375C6.87855 479.934 7.01705 480.597 7.01705 481.364ZM6.16477 481.364C6.16477 480.734 6.05942 480.202 5.84872 479.769C5.64039 479.336 5.35748 479.008 5 478.786C4.64489 478.563 4.24716 478.452 3.80682 478.452C3.36648 478.452 2.96757 478.563 2.61009 478.786C2.25497 479.008 1.97206 479.336 1.76136 479.769C1.55303 480.202 1.44886 480.734 1.44886 481.364C1.44886 481.993 1.55303 482.525 1.76136 482.958C1.97206 483.391 2.25497 483.719 2.61009 483.942C2.96757 484.164 3.36648 484.276 3.80682 484.276C4.24716 484.276 4.64489 484.164 5 483.942C5.35748 483.719 5.64039 483.391 5.84872 482.958C6.05942 482.525 6.16477 481.993 6.16477 481.364ZM12.9945 479.545L10.9774 485H10.1251L8.1081 479.545H9.01719L10.5229 483.892H10.5797L12.0854 479.545H12.9945ZM16.3423 485.114C15.8167 485.114 15.3633 484.998 14.9822 484.766C14.6034 484.531 14.311 484.205 14.105 483.786C13.9014 483.364 13.7996 482.874 13.7996 482.315C13.7996 481.757 13.9014 481.264 14.105 480.838C14.311 480.41 14.5975 480.076 14.9644 479.837C15.3337 479.595 15.7646 479.474 16.257 479.474C16.5411 479.474 16.8217 479.522 17.0987 479.616C17.3756 479.711 17.6278 479.865 17.855 480.078C18.0823 480.289 18.2634 480.568 18.3984 480.916C18.5333 481.264 18.6008 481.693 18.6008 482.202V482.557H14.3962V481.832H17.7485C17.7485 481.525 17.687 481.25 17.5638 481.009C17.4431 480.767 17.2703 480.576 17.0454 480.437C16.8228 480.297 16.5601 480.227 16.257 480.227C15.9232 480.227 15.6344 480.31 15.3906 480.476C15.1491 480.639 14.9632 480.852 14.833 481.115C14.7028 481.378 14.6377 481.66 14.6377 481.96V482.443C14.6377 482.855 14.7087 483.204 14.8508 483.491C14.9952 483.775 15.1952 483.991 15.4509 484.141C15.7066 484.287 16.0037 484.361 16.3423 484.361C16.5624 484.361 16.7613 484.33 16.9388 484.268C17.1188 484.205 17.2738 484.11 17.404 483.984C17.5343 483.857 17.6349 483.698 17.7059 483.509L18.5156 483.736C18.4303 484.01 18.2871 484.252 18.0859 484.46C17.8846 484.666 17.6361 484.827 17.3401 484.943C17.0442 485.057 16.7116 485.114 16.3423 485.114ZM20.0256 485V479.545H20.8353V480.369H20.8921C20.9915 480.099 21.1715 479.88 21.4319 479.712C21.6923 479.544 21.9859 479.46 22.3126 479.46C22.3741 479.46 22.4511 479.461 22.5434 479.464C22.6357 479.466 22.7056 479.47 22.7529 479.474V480.327C22.7245 480.32 22.6594 480.309 22.5576 480.295C22.4582 480.278 22.3528 480.27 22.2415 480.27C21.9764 480.27 21.7397 480.326 21.5313 480.437C21.3254 480.546 21.162 480.697 21.0413 480.891C20.9229 481.083 20.8637 481.302 20.8637 481.548V485H20.0256ZM24.7344 477.727V485H23.8963V477.727H24.7344ZM26.4194 485V479.545H27.2575V485H26.4194ZM26.8455 478.636C26.6822 478.636 26.5413 478.581 26.4229 478.469C26.3069 478.358 26.2489 478.224 26.2489 478.068C26.2489 477.912 26.3069 477.778 26.4229 477.667C26.5413 477.556 26.6822 477.5 26.8455 477.5C27.0089 477.5 27.1486 477.556 27.2646 477.667C27.3829 477.778 27.4421 477.912 27.4421 478.068C27.4421 478.224 27.3829 478.358 27.2646 478.469C27.1486 478.581 27.0089 478.636 26.8455 478.636ZM29.7805 481.719V485H28.9424V479.545H29.7521V480.398H29.8231C29.951 480.121 30.1451 479.898 30.4055 479.73C30.6659 479.56 31.0021 479.474 31.414 479.474C31.7833 479.474 32.1065 479.55 32.3835 479.702C32.6605 479.851 32.8759 480.078 33.0298 480.384C33.1837 480.687 33.2606 481.07 33.2606 481.534V485H32.4225V481.591C32.4225 481.162 32.3113 480.829 32.0887 480.589C31.8662 480.348 31.5608 480.227 31.1725 480.227C30.905 480.227 30.6659 480.285 30.4552 480.401C30.2469 480.517 30.0824 480.687 29.9616 480.909C29.8409 481.132 29.7805 481.402 29.7805 481.719ZM37.229 485.114C36.7034 485.114 36.25 484.998 35.8689 484.766C35.4901 484.531 35.1977 484.205 34.9918 483.786C34.7882 483.364 34.6864 482.874 34.6864 482.315C34.6864 481.757 34.7882 481.264 34.9918 480.838C35.1977 480.41 35.4842 480.076 35.8511 479.837C36.2205 479.595 36.6513 479.474 37.1437 479.474C37.4278 479.474 37.7084 479.522 37.9854 479.616C38.2624 479.711 38.5145 479.865 38.7418 480.078C38.969 480.289 39.1501 480.568 39.2851 480.916C39.42 481.264 39.4875 481.693 39.4875 482.202V482.557H35.283V481.832H38.6352C38.6352 481.525 38.5737 481.25 38.4506 481.009C38.3298 480.767 38.157 480.576 37.9321 480.437C37.7096 480.297 37.4468 480.227 37.1437 480.227C36.8099 480.227 36.5211 480.31 36.2773 480.476C36.0358 480.639 35.85 480.852 35.7197 481.115C35.5895 481.378 35.5244 481.66 35.5244 481.96V482.443C35.5244 482.855 35.5955 483.204 35.7375 483.491C35.8819 483.775 36.082 483.991 36.3376 484.141C36.5933 484.287 36.8904 484.361 37.229 484.361C37.4491 484.361 37.648 484.33 37.8256 484.268C38.0055 484.205 38.1606 484.11 38.2908 483.984C38.421 483.857 38.5216 483.698 38.5926 483.509L39.4023 483.736C39.317 484.01 39.1738 484.252 38.9726 484.46C38.7714 484.666 38.5228 484.827 38.2268 484.943C37.9309 485.057 37.5983 485.114 37.229 485.114Z" fill="black"/>
</svg>
