<svg width="410" height="398" viewBox="0 0 410 398" fill="none" xmlns="http://www.w3.org/2000/svg">
<path d="M17.5638 377.22H390.321" stroke="#263238" stroke-linecap="round" stroke-linejoin="round"/>
<path d="M33.6652 314.034C35.7938 314.917 40.9871 314.829 40.9871 314.829C40.9871 314.829 39.8654 311.437 39.7683 311.225C38.6201 308.849 35.0165 304.91 32.0842 305.316C31.5984 305.4 31.1355 305.584 30.7251 305.857C30.3148 306.13 29.9662 306.486 29.7016 306.902C29.4371 307.318 29.2625 307.785 29.1891 308.272C29.1158 308.76 29.1452 309.257 29.2756 309.732C29.7702 311.746 31.8546 313.248 33.6652 314.034Z" fill="#263238"/>
<path d="M35.4757 329.075C37.6838 329.393 42.3119 328.042 42.6829 327.936C43.4509 330.587 44.3951 333.183 45.5092 335.708C46.1451 337.183 46.834 338.649 47.5494 340.124C47.1255 339.506 46.7369 338.958 46.6662 338.888C44.8998 336.892 40.4218 334.056 37.6926 335.214C37.2506 335.423 36.8569 335.723 36.5366 336.092C36.2162 336.462 35.9762 336.895 35.8317 337.362C35.6873 337.83 35.6415 338.322 35.6972 338.808C35.753 339.294 35.9092 339.763 36.1558 340.186C37.1627 342.023 39.5739 342.924 41.5258 343.207C43.4778 343.489 47.4788 342.412 48.5298 342.12C48.8036 342.677 49.0774 343.233 49.3601 343.79C50.7026 346.439 52.0627 349.089 53.3081 351.739C53.7497 352.666 54.1913 353.602 54.5534 354.539C54.1736 353.991 53.8557 353.532 53.7939 353.461C52.0274 351.474 47.5494 348.63 44.8203 349.796C44.3782 350.005 43.9845 350.305 43.6642 350.674C43.3439 351.044 43.1039 351.477 42.9594 351.944C42.8149 352.412 42.7691 352.904 42.8249 353.39C42.8807 353.876 43.0368 354.346 43.2835 354.768C44.2903 356.596 46.7015 357.497 48.6535 357.78C50.6054 358.063 54.2178 357.1 55.4632 356.747C55.8518 357.718 56.2404 358.69 56.5672 359.644C56.7703 360.306 57.0265 360.924 57.1943 361.595L57.7507 363.565C58.051 364.828 58.3778 366.126 58.6339 367.372C58.8282 368.255 58.9961 369.059 59.1639 369.889C58.7399 368.953 57.8567 367.142 57.7684 367.001C56.364 364.766 52.3189 361.269 49.4572 362.011C48.9881 362.15 48.5531 362.386 48.1798 362.703C47.8065 363.019 47.5032 363.41 47.2889 363.85C47.0747 364.29 46.9542 364.77 46.9352 365.259C46.9162 365.749 46.999 366.236 47.1785 366.692C47.8939 368.652 50.1373 369.907 52.0274 370.481C54.1118 371.117 58.7046 370.534 59.2787 370.481C59.5613 371.85 59.8175 373.192 60.0383 374.464C60.2061 375.4 60.3562 376.301 60.4975 377.167H62.3435C62.1668 376.195 61.9725 375.188 61.7606 374.137C61.4868 372.742 61.16 371.249 60.8155 369.721C62.1986 369.162 63.5492 368.525 64.8607 367.813C66.3798 369.447 70.2572 371.346 70.7606 371.602C70.2395 372.91 69.7096 374.164 69.1973 375.347C68.9324 375.974 68.6674 376.557 68.4024 377.114H70.3544L70.8136 376.001C71.3524 374.685 71.9088 373.263 72.4564 371.797C73.0129 371.92 77.5703 372.83 79.6901 372.353C81.6155 371.912 83.9472 370.825 84.8039 368.917C85.0167 368.475 85.1351 367.994 85.1515 367.503C85.1678 367.013 85.0819 366.525 84.8991 366.069C84.7163 365.614 84.4406 365.202 84.0897 364.859C83.7388 364.516 83.3203 364.25 82.8608 364.077C80.061 363.141 75.795 366.338 74.2141 368.493C74.1257 368.617 73.2778 370.092 72.7567 371.028C72.9775 370.428 73.1983 369.854 73.4192 369.262C73.8696 368.034 74.3024 366.807 74.7175 365.482L75.3004 363.521C75.5124 362.876 75.6449 362.161 75.8304 361.472C76.2013 359.873 76.5104 358.23 76.7842 356.57C77.853 356.959 81.6685 358.275 83.6469 358.133C85.6253 357.992 88.063 357.25 89.2201 355.484C89.4975 355.079 89.6877 354.621 89.7785 354.139C89.8692 353.657 89.8586 353.161 89.7473 352.684C89.6359 352.206 89.4263 351.756 89.1318 351.364C88.8373 350.972 88.4643 350.645 88.0365 350.405C85.3869 349.054 80.6969 351.562 78.8245 353.426C78.7097 353.54 77.5173 355.033 76.8814 355.863C77.0404 354.865 77.1994 353.867 77.323 352.852C77.6851 349.919 77.9501 346.934 78.2062 343.966C78.2946 343.083 78.3917 342.147 78.48 341.237C78.8598 341.378 83.3643 343.048 85.5459 342.889C87.5154 342.747 89.962 342.006 91.119 340.239C91.3965 339.835 91.5866 339.377 91.6774 338.895C91.7682 338.412 91.7575 337.917 91.6462 337.439C91.5349 336.961 91.3253 336.512 91.0307 336.12C90.7362 335.727 90.3632 335.401 89.9355 335.161C87.2858 333.809 82.5959 336.318 80.7234 338.181C80.5821 338.322 78.8687 340.469 78.4624 341.034C78.6744 339.038 78.8952 337.051 79.2043 335.09C79.594 332.45 80.1576 329.839 80.8913 327.273C81.0679 327.344 85.7667 329.11 88.0365 328.943C90.0061 328.801 92.4527 328.059 93.6097 326.293C93.8872 325.888 94.0773 325.43 94.1681 324.948C94.2589 324.466 94.2482 323.971 94.1369 323.493C94.0256 323.015 93.816 322.566 93.5214 322.174C93.2269 321.781 92.8539 321.455 92.4262 321.214C89.7765 319.863 85.0866 322.371 83.2141 324.235C83.064 324.385 81.2269 326.69 80.9177 327.132C80.9619 326.991 80.9972 326.832 81.0414 326.682C81.8473 324.128 82.8788 321.651 84.1239 319.28C84.7951 317.964 85.5105 316.745 86.2348 315.571C87.0738 315.986 90.9335 317.858 92.9915 317.938C95.0494 318.017 97.5047 317.558 98.8208 315.942C99.1406 315.57 99.3797 315.136 99.5226 314.667C99.6656 314.198 99.7094 313.704 99.6513 313.218C99.5931 312.731 99.4343 312.261 99.1849 311.839C98.9354 311.417 98.6009 311.052 98.2025 310.766C95.7383 309.132 90.7746 311.11 88.7166 312.762C88.6018 312.85 87.5596 313.892 86.8177 314.652C87.1533 314.131 87.4889 313.583 87.8157 313.089C89.0523 311.225 90.2976 309.556 91.4105 308.151C92.0552 307.339 92.647 306.615 93.1769 305.952C94.2191 305.952 98.4056 305.793 100.243 304.937C102.08 304.08 104.067 302.525 104.491 300.476C104.603 300 104.614 299.505 104.524 299.024C104.435 298.543 104.246 298.086 103.97 297.681C103.695 297.277 103.338 296.934 102.923 296.675C102.508 296.415 102.043 296.245 101.559 296.175C98.6176 295.857 95.1289 299.893 94.0602 302.357C93.963 302.569 92.8943 305.996 92.9473 305.996H93.0091C92.4527 306.632 91.8609 307.312 91.2427 308.072C90.0945 309.494 88.8138 311.101 87.5331 312.947C86.1269 314.929 84.841 316.994 83.6822 319.13C82.3683 321.5 81.2687 323.983 80.3966 326.549V326.646C80.3966 325.763 80.3966 323.352 80.3437 323.166C79.9992 320.517 77.8 315.685 74.8853 315.155C74.4004 315.085 73.9062 315.116 73.4339 315.247C72.9617 315.377 72.5218 315.605 72.1422 315.914C71.7626 316.224 71.4516 316.61 71.229 317.046C71.0063 317.483 70.8769 317.961 70.849 318.45C70.6811 320.534 72.2003 322.619 73.6753 323.926C75.3358 325.41 79.9462 326.841 80.3083 326.955C79.4857 329.589 78.8395 332.274 78.3741 334.993C78.0914 336.574 77.8618 338.181 77.6498 339.789C77.6498 339.038 77.6498 338.367 77.6498 338.278C77.3054 335.629 75.1061 330.797 72.1915 330.259C71.7066 330.189 71.2126 330.222 70.7408 330.353C70.269 330.485 69.8298 330.714 69.4511 331.024C69.0724 331.335 68.7624 331.721 68.5408 332.158C68.3192 332.595 68.1909 333.073 68.164 333.562C67.9961 335.646 69.5065 337.722 70.9814 339.038C72.4564 340.354 76.378 341.688 77.4202 341.997C77.3407 342.615 77.2612 343.233 77.1905 343.851C76.8372 346.819 76.5016 349.787 76.0777 352.684C75.9363 353.708 75.7509 354.706 75.5742 355.713C75.5742 355.042 75.5742 354.486 75.5742 354.397C75.2386 351.748 73.0305 346.916 70.1247 346.386C69.639 346.321 69.145 346.357 68.6741 346.493C68.2032 346.629 67.7657 346.861 67.3894 347.175C67.0131 347.489 66.7062 347.878 66.4883 348.317C66.2704 348.756 66.1463 349.235 66.1237 349.725C65.9559 351.809 67.4662 353.894 68.9412 355.201C70.4162 356.508 73.9668 357.709 75.1944 358.098C74.9825 359.122 74.7705 360.147 74.5144 361.127C74.3289 361.79 74.1876 362.443 73.9668 363.097C73.7459 363.751 73.5428 364.404 73.3397 365.049C72.898 366.268 72.4564 367.531 71.9883 368.714C71.6704 369.536 71.3524 370.313 71.0433 371.099C71.1934 370.092 71.4672 368.096 71.4672 367.928C71.4377 365.602 70.8079 363.324 69.6389 361.313C69.6477 361.053 69.63 360.792 69.5859 360.536C69.5242 360.041 69.3586 359.565 69.0998 359.139C68.8411 358.713 68.4952 358.347 68.0847 358.064C67.6743 357.781 67.2087 357.588 66.7185 357.498C66.2283 357.408 65.7246 357.423 65.2405 357.541C62.3788 358.301 60.577 363.327 60.4446 365.967C60.4446 366.118 60.5417 367.822 60.6212 368.891C60.4799 368.273 60.3474 367.663 60.1884 367.027C59.8881 365.764 59.5437 364.51 59.1904 363.159C58.9961 362.514 58.7929 361.86 58.5898 361.207C58.3866 360.553 58.1305 359.873 57.9009 359.202C57.3356 357.656 56.682 356.119 55.9931 354.583C57.0971 354.318 61.0098 353.311 62.582 352.101C64.1541 350.891 65.8057 348.93 65.7881 346.846C65.7967 346.355 65.703 345.868 65.513 345.415C65.3229 344.963 65.0406 344.555 64.6841 344.217C64.3276 343.88 63.9048 343.621 63.4425 343.456C62.9801 343.291 62.4886 343.224 61.999 343.26C59.0579 343.586 56.5142 348.276 55.9843 350.864C55.9843 351.032 55.7811 352.931 55.7016 353.973C55.2865 353.09 54.8184 352.136 54.4121 351.218C53.0873 348.568 51.6741 345.918 50.2698 343.269L49.0156 340.893C49.413 340.796 54.0942 339.7 55.8518 338.349C57.4151 337.148 59.0756 335.178 59.0579 333.05C59.0665 332.559 58.9729 332.072 58.7828 331.619C58.5927 331.167 58.3104 330.759 57.9539 330.421C57.5975 330.084 57.1746 329.825 56.7123 329.66C56.25 329.495 55.7584 329.428 55.2688 329.464C52.3277 329.791 49.784 334.48 49.2541 337.068C49.2099 337.263 48.9714 340.001 48.9449 340.698C48.0087 338.932 47.099 337.165 46.2953 335.337C45.1695 332.918 44.2018 330.428 43.3983 327.883C43.5838 327.839 48.468 326.717 50.2698 325.33C51.8331 324.129 53.4936 322.159 53.4759 320.031C53.4846 319.54 53.3909 319.053 53.2008 318.6C53.0107 318.148 52.7284 317.74 52.372 317.403C52.0155 317.065 51.5926 316.806 51.1303 316.641C50.668 316.476 50.1764 316.409 49.6869 316.445C46.7457 316.772 44.202 321.462 43.6721 324.05C43.6721 324.253 43.3718 327.194 43.363 327.733C43.363 327.582 43.2481 327.432 43.204 327.291C42.4736 324.714 41.9712 322.078 41.7025 319.413C41.5347 317.946 41.4552 316.533 41.411 315.155C42.2942 315.041 46.5956 314.467 48.3532 313.389C50.1108 312.311 51.8861 310.589 52.1157 308.514C52.1774 308.027 52.137 307.533 51.9973 307.063C51.8576 306.593 51.6215 306.157 51.3042 305.783C50.9868 305.409 50.5951 305.106 50.1539 304.891C49.7128 304.677 49.2319 304.557 48.7418 304.539C45.783 304.539 42.7447 308.955 41.9321 311.437C41.9321 311.57 41.5877 313.009 41.3934 314.087C41.3934 313.468 41.3934 312.824 41.3934 312.232C41.3934 309.989 41.5347 307.939 41.676 306.129C41.7555 305.096 41.8526 304.168 41.9586 303.303C42.8418 302.711 46.2334 300.291 47.258 298.56C48.2825 296.828 49.1216 294.444 48.3444 292.501C48.1731 292.039 47.9074 291.619 47.5642 291.266C47.2211 290.913 46.808 290.636 46.3515 290.453C45.895 290.269 45.4051 290.182 44.9133 290.199C44.4215 290.216 43.9385 290.335 43.4954 290.549C40.8458 291.909 40.1922 297.208 40.6249 299.814C40.6249 300.035 41.6583 303.488 41.7113 303.462C41.5965 304.292 41.4905 305.228 41.3845 306.173C41.2079 307.984 41.0224 310.042 40.9694 312.285C40.894 314.704 40.9559 317.125 41.1549 319.536C41.3707 322.241 41.8259 324.922 42.515 327.547V327.635C42.0469 326.911 40.6779 324.906 40.5543 324.765C38.7878 322.769 34.301 319.934 31.5807 321.091C31.1367 321.3 30.741 321.599 30.4189 321.969C30.0969 322.339 29.8554 322.772 29.71 323.241C29.5646 323.709 29.5184 324.203 29.5744 324.691C29.6303 325.178 29.7872 325.649 30.0351 326.072C31.1126 327.892 33.5238 328.792 35.4757 329.075Z" fill="#263238"/>
<path d="M86.1994 315.094C86.1994 315.094 87.1445 311.64 87.171 311.419C87.5331 308.77 86.694 303.532 84.0267 302.252C83.5778 302.056 83.0932 301.955 82.6035 301.957C82.1139 301.958 81.6299 302.062 81.1822 302.26C80.7346 302.459 80.3331 302.748 80.0032 303.11C79.6734 303.472 79.4223 303.898 79.2661 304.362C78.5507 306.332 79.4604 308.734 80.5379 310.395C81.8009 312.338 86.1994 315.094 86.1994 315.094Z" fill="#263238"/>
<path d="M317.516 314.034C319.636 314.917 324.83 314.829 324.838 314.829C324.847 314.829 323.717 311.437 323.62 311.225C322.471 308.849 318.859 304.91 315.927 305.316C315.442 305.401 314.98 305.586 314.57 305.86C314.161 306.133 313.813 306.489 313.55 306.905C313.286 307.321 313.112 307.787 313.039 308.274C312.967 308.761 312.996 309.258 313.127 309.732C313.613 311.746 315.706 313.248 317.516 314.034Z" fill="#263238"/>
<path d="M319.327 329.075C321.535 329.393 326.164 328.042 326.535 327.936C327.299 330.586 328.241 333.183 329.352 335.708C329.997 337.183 330.686 338.649 331.392 340.124C330.968 339.506 330.589 338.958 330.509 338.888C328.743 336.892 324.256 334.056 321.535 335.213C321.093 335.422 320.698 335.721 320.377 336.091C320.056 336.46 319.815 336.892 319.669 337.36C319.524 337.827 319.477 338.32 319.533 338.807C319.588 339.293 319.743 339.763 319.99 340.186C320.997 342.023 323.408 342.924 325.36 343.207C327.312 343.489 331.322 342.412 332.364 342.12C332.646 342.677 332.92 343.233 333.194 343.79C334.545 346.439 335.897 349.089 337.151 351.739C337.593 352.666 337.99 353.602 338.396 354.538L337.637 353.461C335.87 351.474 331.383 348.63 328.663 349.796C328.22 350.004 327.826 350.303 327.504 350.673C327.183 351.042 326.942 351.474 326.797 351.942C326.652 352.41 326.605 352.902 326.66 353.389C326.715 353.875 326.871 354.345 327.117 354.768C328.124 356.596 330.536 357.497 332.487 357.78C334.439 358.063 338.061 357.1 339.306 356.747C339.686 357.718 340.074 358.69 340.401 359.644C340.613 360.306 340.86 360.924 341.037 361.595C341.214 362.267 341.408 362.911 341.585 363.565C341.894 364.828 342.212 366.126 342.468 367.372C342.653 368.255 342.821 369.059 342.998 369.889C342.565 368.953 341.691 367.142 341.602 367.001C340.189 364.766 336.153 361.269 333.291 362.011C332.821 362.149 332.385 362.384 332.011 362.701C331.637 363.017 331.333 363.408 331.117 363.848C330.902 364.288 330.781 364.768 330.761 365.258C330.742 365.747 330.824 366.236 331.004 366.692C331.728 368.652 333.971 369.907 335.861 370.481C337.937 371.117 342.539 370.534 343.113 370.481C343.395 371.85 343.651 373.192 343.872 374.464C344.04 375.4 344.19 376.301 344.332 377.167H346.169C345.992 376.195 345.807 375.188 345.595 374.137C345.321 372.742 344.994 371.249 344.65 369.721C346.033 369.162 347.383 368.525 348.695 367.813C350.205 369.447 354.091 371.346 354.595 371.602C354.065 372.91 353.544 374.164 353.031 375.347C352.758 375.974 352.493 376.557 352.236 377.114H354.18L354.648 376.001C355.186 374.685 355.734 373.263 356.29 371.797C356.847 371.92 361.404 372.83 363.524 372.353C365.449 371.912 367.781 370.825 368.638 368.917C368.851 368.475 368.969 367.994 368.985 367.503C369.002 367.013 368.916 366.524 368.733 366.069C368.55 365.614 368.275 365.202 367.924 364.859C367.573 364.516 367.154 364.25 366.695 364.077C363.886 363.141 359.629 366.338 358.048 368.493C357.951 368.617 357.103 370.092 356.582 371.028C356.803 370.428 357.032 369.854 357.253 369.262C357.695 368.034 358.136 366.806 358.551 365.482C358.746 364.834 358.94 364.18 359.134 363.521C359.338 362.876 359.479 362.161 359.656 361.472C360.035 359.873 360.344 358.23 360.618 356.57C361.687 356.959 365.503 358.275 367.481 358.133C369.459 357.992 371.897 357.25 373.054 355.484C373.332 355.079 373.522 354.621 373.612 354.139C373.703 353.657 373.693 353.161 373.581 352.683C373.47 352.206 373.26 351.756 372.966 351.364C372.671 350.972 372.298 350.645 371.871 350.405C369.221 349.054 364.531 351.562 362.658 353.426C362.544 353.54 361.351 355.033 360.715 355.863C360.866 354.865 361.025 353.867 361.148 352.852C361.51 349.919 361.784 346.934 362.031 343.966C362.12 343.083 362.217 342.147 362.314 341.237C362.694 341.378 367.198 343.048 369.38 342.889C371.349 342.747 373.796 342.005 374.953 340.239C375.23 339.834 375.421 339.377 375.511 338.895C375.602 338.412 375.592 337.917 375.48 337.439C375.369 336.961 375.159 336.512 374.865 336.12C374.57 335.727 374.197 335.401 373.77 335.16C371.12 333.809 366.43 336.318 364.557 338.181C364.416 338.322 362.703 340.469 362.296 341.034C362.5 339.038 362.729 337.051 363.029 335.09C363.426 332.451 363.993 329.84 364.725 327.273C364.902 327.344 369.601 329.11 371.862 328.943C373.831 328.801 376.278 328.059 377.444 326.293C377.721 325.888 377.911 325.43 378.002 324.948C378.093 324.466 378.082 323.971 377.971 323.493C377.86 323.015 377.65 322.566 377.355 322.173C377.061 321.781 376.688 321.455 376.26 321.214C373.611 319.863 368.912 322.371 367.039 324.235C366.898 324.385 365.061 326.69 364.752 327.132C364.752 326.991 364.822 326.832 364.867 326.682C365.675 324.128 366.71 321.651 367.958 319.28C368.629 317.964 369.345 316.745 370.06 315.571C370.943 315.986 374.768 317.858 376.825 317.938C378.883 318.017 381.33 317.558 382.655 315.941C382.975 315.57 383.214 315.136 383.357 314.667C383.5 314.198 383.543 313.704 383.485 313.217C383.427 312.731 383.268 312.261 383.019 311.839C382.769 311.417 382.435 311.052 382.036 310.766C379.563 309.132 374.609 311.11 372.542 312.762C372.436 312.85 371.394 313.892 370.643 314.652C370.978 314.131 371.314 313.583 371.65 313.089C372.877 311.225 374.132 309.556 375.244 308.151C375.88 307.339 376.481 306.615 377.011 305.952C378.044 305.952 382.231 305.793 384.077 304.936C385.923 304.08 387.91 302.525 388.334 300.476C388.445 300 388.457 299.505 388.367 299.024C388.277 298.543 388.089 298.085 387.813 297.681C387.537 297.277 387.181 296.934 386.766 296.675C386.35 296.415 385.886 296.245 385.402 296.175C382.46 295.857 378.972 299.893 377.894 302.357C377.806 302.569 376.728 305.996 376.781 305.996H377.02C376.463 306.632 375.872 307.312 375.253 308.072C374.105 309.494 372.816 311.101 371.535 312.947C370.135 314.932 368.852 316.996 367.693 319.13C366.379 321.5 365.279 323.983 364.407 326.549C364.403 326.581 364.403 326.614 364.407 326.646C364.407 325.763 364.407 323.352 364.354 323.166C364.01 320.517 361.802 315.685 358.896 315.155C358.411 315.085 357.917 315.116 357.445 315.246C356.972 315.377 356.532 315.605 356.153 315.914C355.773 316.224 355.462 316.61 355.24 317.046C355.017 317.483 354.888 317.961 354.86 318.45C354.692 320.534 356.202 322.619 357.677 323.926C359.338 325.41 363.948 326.84 364.319 326.955C363.492 329.587 362.846 332.273 362.385 334.993C362.102 336.574 361.872 338.181 361.66 339.789C361.66 339.038 361.66 338.367 361.66 338.278C361.316 335.629 359.117 330.797 356.202 330.259C355.717 330.188 355.222 330.219 354.749 330.35C354.276 330.482 353.836 330.71 353.456 331.021C353.076 331.331 352.765 331.718 352.543 332.155C352.321 332.593 352.193 333.072 352.166 333.562C351.998 335.646 353.517 337.722 354.983 339.038C356.449 340.354 360.389 341.688 361.422 341.997C361.351 342.615 361.272 343.233 361.192 343.851C360.848 346.819 360.512 349.787 360.088 352.684C359.938 353.708 359.762 354.706 359.576 355.713C359.576 355.042 359.576 354.485 359.576 354.397C359.232 351.747 357.032 346.916 354.118 346.386C353.633 346.316 353.139 346.347 352.666 346.477C352.194 346.608 351.754 346.835 351.375 347.145C350.995 347.455 350.684 347.841 350.461 348.277C350.239 348.714 350.109 349.192 350.081 349.681C349.922 351.765 351.433 353.85 352.908 355.157C354.383 356.464 357.924 357.665 359.161 358.054C358.94 359.078 358.728 360.103 358.481 361.083C358.287 361.746 358.154 362.399 357.924 363.053C357.695 363.706 357.509 364.36 357.306 365.005C356.856 366.224 356.423 367.487 355.946 368.67C355.637 369.492 355.319 370.269 355.001 371.055C355.16 370.048 355.434 368.052 355.434 367.884C355.396 365.558 354.764 363.281 353.597 361.269C353.604 361.009 353.589 360.749 353.552 360.491C353.485 360.006 353.318 359.539 353.06 359.122C352.803 358.704 352.462 358.345 352.058 358.067C351.654 357.788 351.197 357.597 350.715 357.505C350.233 357.413 349.738 357.423 349.26 357.533C346.407 358.292 344.597 363.318 344.473 365.959C344.473 366.109 344.561 367.813 344.65 368.882C344.499 368.264 344.367 367.654 344.217 367.018C343.908 365.755 343.572 364.501 343.219 363.15C343.016 362.505 342.821 361.852 342.618 361.198C342.415 360.544 342.159 359.864 341.929 359.193C341.355 357.647 340.71 356.111 340.021 354.574C341.125 354.309 345.038 353.302 346.61 352.092C348.182 350.882 349.834 348.921 349.816 346.837C349.825 346.346 349.731 345.859 349.541 345.406C349.351 344.954 349.069 344.546 348.712 344.208C348.356 343.871 347.933 343.612 347.471 343.447C347.008 343.282 346.517 343.215 346.027 343.251C343.086 343.578 340.543 348.268 340.013 350.855C340.013 351.023 339.801 352.922 339.73 353.964C339.306 353.081 338.847 352.127 338.432 351.209C337.116 348.559 335.702 345.909 334.298 343.26C333.865 342.456 333.415 341.643 333.026 340.84C333.424 340.742 338.105 339.647 339.862 338.296C341.426 337.095 343.086 335.125 343.069 332.997C343.077 332.506 342.984 332.019 342.793 331.566C342.603 331.114 342.321 330.706 341.965 330.368C341.608 330.031 341.185 329.772 340.723 329.607C340.261 329.442 339.769 329.375 339.279 329.411C336.338 329.737 333.786 334.427 333.256 337.015C333.256 337.21 332.973 339.948 332.947 340.645C332.019 338.879 331.11 337.112 330.297 335.284C329.169 332.865 328.198 330.375 327.391 327.83C327.577 327.786 332.47 326.664 334.272 325.277C335.835 324.076 337.495 322.106 337.478 319.978C337.486 319.487 337.393 319 337.203 318.547C337.013 318.095 336.73 317.687 336.374 317.35C336.017 317.012 335.594 316.753 335.132 316.588C334.67 316.423 334.178 316.356 333.689 316.392C330.748 316.719 328.204 321.409 327.674 323.996C327.63 324.2 327.365 327.141 327.356 327.68C327.312 327.529 327.25 327.379 327.206 327.238C326.468 324.662 325.963 322.025 325.695 319.36C325.528 317.893 325.457 316.48 325.404 315.102C326.34 314.988 330.597 314.413 332.355 313.336C334.113 312.258 335.888 310.536 336.118 308.461C336.179 307.974 336.139 307.48 335.999 307.01C335.859 306.54 335.623 306.104 335.306 305.73C334.989 305.356 334.597 305.053 334.156 304.838C333.715 304.624 333.234 304.504 332.744 304.486C329.785 304.486 326.738 308.902 325.925 311.384C325.925 311.517 325.589 312.956 325.386 314.034C325.386 313.415 325.386 312.771 325.386 312.179C325.386 309.936 325.528 307.886 325.66 306.076C325.748 305.042 325.846 304.115 325.952 303.25C326.835 302.658 330.226 300.238 331.251 298.507C332.275 296.775 333.115 294.391 332.346 292.448C332.177 291.987 331.914 291.567 331.574 291.214C331.234 290.861 330.824 290.583 330.371 290.397C329.917 290.21 329.43 290.121 328.94 290.133C328.449 290.146 327.967 290.26 327.524 290.469C324.874 291.829 324.212 297.129 324.653 299.734C324.653 299.955 325.687 303.408 325.731 303.382H325.784C325.669 304.212 325.554 305.148 325.457 306.094C325.272 307.904 325.095 309.962 325.042 312.205C324.962 314.624 325.024 317.045 325.227 319.457C325.44 322.162 325.893 324.842 326.579 327.468V327.556C326.111 326.832 324.742 324.827 324.618 324.685C322.851 322.689 318.365 319.854 315.644 321.011C315.2 321.22 314.805 321.519 314.483 321.889C314.161 322.259 313.919 322.693 313.774 323.161C313.628 323.63 313.582 324.124 313.638 324.611C313.694 325.099 313.851 325.569 314.099 325.993C314.964 327.892 317.375 328.792 319.327 329.075Z" fill="#263238"/>
<path d="M370.051 315.094C370.095 315.094 370.987 311.64 371.022 311.419C371.384 308.77 370.536 303.532 367.869 302.252C367.42 302.056 366.936 301.955 366.446 301.957C365.956 301.958 365.472 302.062 365.025 302.26C364.577 302.459 364.176 302.748 363.846 303.11C363.516 303.472 363.265 303.898 363.109 304.362C362.402 306.332 363.312 308.734 364.38 310.395C365.643 312.338 370.042 315.094 370.051 315.094Z" fill="#263238"/>
<path d="M352.793 137.857C348.173 137.846 343.609 138.862 339.431 140.831C335.252 142.8 331.563 145.673 328.63 149.242C325.697 152.811 323.593 156.986 322.471 161.467C321.349 165.948 321.237 170.623 322.141 175.152C323.046 179.682 324.946 183.955 327.704 187.66C330.461 191.366 334.008 194.414 338.087 196.582C342.166 198.75 346.675 199.984 351.29 200.197C355.904 200.409 360.508 199.594 364.769 197.81L365.052 197.686L365.935 197.28C366.394 197.059 366.862 196.838 367.313 196.6C367.763 196.361 368.143 196.141 368.549 195.902C368.956 195.664 369.353 195.425 369.742 195.169C370.528 194.657 371.278 194.127 372.012 193.553C373.491 192.402 374.857 191.112 376.092 189.702C376.401 189.357 376.693 189.004 376.975 188.633C377.258 188.262 377.461 188.024 377.699 187.75C377.744 187.688 377.797 187.609 377.85 187.547C378.123 187.176 378.388 186.796 378.645 186.416L379.378 185.268C379.389 185.238 379.407 185.211 379.431 185.189C379.66 184.791 379.89 184.394 380.111 183.996C380.332 183.59 380.543 183.175 380.738 182.76L381.109 181.983L381.453 181.188C381.639 180.755 381.815 180.304 381.983 179.854C381.983 179.757 382.054 179.66 382.089 179.562C382.372 178.759 382.628 177.929 382.849 177.081C382.928 176.798 382.99 176.515 383.061 176.197L383.22 175.482L383.273 175.217C383.326 174.97 383.361 174.714 383.414 174.466C383.467 174.219 383.52 173.866 383.555 173.583C383.591 173.3 383.626 173.018 383.67 172.7L383.723 172.17C383.723 171.949 383.776 171.719 383.785 171.481C383.794 171.242 383.785 171.101 383.785 170.898C383.785 170.695 383.785 170.439 383.785 170.218C383.785 169.847 383.785 169.467 383.785 169.087C383.797 160.842 380.543 152.928 374.735 147.075C368.927 141.222 361.038 137.908 352.793 137.857ZM359.858 186.081C357.621 187.02 355.219 187.504 352.793 187.503C349.141 187.504 345.571 186.423 342.534 184.395C339.497 182.368 337.129 179.485 335.731 176.111C334.333 172.738 333.967 169.026 334.679 165.444C335.39 161.863 337.149 158.573 339.731 155.99C342.313 153.408 345.603 151.65 349.185 150.938C352.766 150.226 356.479 150.592 359.852 151.991C363.225 153.389 366.108 155.756 368.136 158.793C370.164 161.83 371.245 165.4 371.243 169.052C371.25 171.847 370.616 174.605 369.388 177.116C367.417 181.161 364.038 184.349 359.885 186.081H359.858Z" fill="#64EBF8" stroke="#263238" stroke-linecap="round" stroke-linejoin="round"/>
<path d="M380.835 182.68C380.641 183.095 380.429 183.51 380.208 183.917C379.987 184.314 379.758 184.712 379.528 185.109C379.505 185.131 379.487 185.158 379.475 185.189L378.742 186.337C378.486 186.717 378.221 187.096 377.947 187.467C377.894 187.529 377.841 187.609 377.797 187.67C377.559 187.988 377.32 188.289 377.073 188.554C376.825 188.819 376.481 189.278 376.19 189.622C374.948 191.026 373.582 192.315 372.109 193.473C371.376 194.038 370.625 194.577 369.839 195.09C369.451 195.346 369.044 195.593 368.647 195.823C368.249 196.052 367.825 196.291 367.41 196.52C366.571 196.962 365.706 197.404 364.831 197.73L359.947 185.975C364.1 184.243 367.479 181.055 369.451 177.01L380.835 182.68Z" fill="white" stroke="#263238" stroke-linecap="round" stroke-linejoin="round"/>
<path d="M383.97 169.052C383.97 169.432 383.97 169.812 383.97 170.183C383.97 170.403 383.97 170.633 383.97 170.863C383.97 171.092 383.97 171.251 383.97 171.446C383.97 171.64 383.97 171.914 383.909 172.135L383.856 172.664C383.811 172.947 383.785 173.23 383.741 173.548C383.697 173.866 383.653 174.157 383.6 174.431C383.547 174.705 383.511 174.934 383.458 175.182L383.405 175.447L383.246 176.162C383.176 176.445 383.114 176.727 383.034 177.045C382.813 177.884 382.557 178.723 382.275 179.527C382.275 179.624 382.195 179.721 382.169 179.819C382.001 180.269 381.824 180.702 381.639 181.152L381.294 181.947L380.923 182.724L369.441 177.16C370.669 174.65 371.304 171.891 371.296 169.096C371.297 166.672 370.821 164.271 369.894 162.031C368.968 159.791 367.609 157.756 365.896 156.041C364.182 154.326 362.148 152.965 359.909 152.036C357.67 151.108 355.27 150.629 352.846 150.628V137.857C361.108 137.873 369.026 141.167 374.861 147.016C380.697 152.865 383.973 160.79 383.97 169.052Z" fill="#263238" stroke="#263238" stroke-linecap="round" stroke-linejoin="round"/>
<path d="M360.353 213.355H375.606" stroke="#263238" stroke-linecap="round" stroke-linejoin="round"/>
<path d="M360.353 217.788H375.606" stroke="#263238" stroke-linecap="round" stroke-linejoin="round"/>
<path d="M375.606 222.214H360.353" stroke="#263238" stroke-linecap="round" stroke-linejoin="round"/>
<path d="M297.088 160.405H312.341" stroke="#263238" stroke-linecap="round" stroke-linejoin="round"/>
<path d="M297.088 164.83H312.341" stroke="#263238" stroke-linecap="round" stroke-linejoin="round"/>
<path d="M312.341 169.264H297.088" stroke="#263238" stroke-linecap="round" stroke-linejoin="round"/>
<path d="M370.687 188.757L380.526 198.101V222.823" stroke="#263238" stroke-linecap="round" stroke-linejoin="round"/>
<path d="M329.661 160.432H316.545" stroke="#263238" stroke-linecap="round" stroke-linejoin="round"/>
<path d="M333.706 82.0453H323.77V111.845H333.706V82.0453Z" fill="#64EBF8" stroke="#263238" stroke-linecap="round" stroke-linejoin="round"/>
<path d="M347.891 72.1179H337.954V111.845H347.891V72.1179Z" fill="#263238" stroke="#263238" stroke-linecap="round" stroke-linejoin="round"/>
<path d="M362.084 60.7684H352.148V111.845H362.084V60.7684Z" fill="#64EBF8" stroke="#263238" stroke-linecap="round" stroke-linejoin="round"/>
<path d="M376.269 52.7223H366.333V111.845H376.269V52.7223Z" fill="#263238" stroke="#263238" stroke-linecap="round" stroke-linejoin="round"/>
<path d="M324.238 78.7421L362.87 42.574" stroke="#263238" stroke-width="2" stroke-linecap="round" stroke-linejoin="round"/>
<path d="M365.476 47.732L368.7 37.1157L357.889 39.6329L365.476 47.732Z" fill="#263238"/>
<path d="M109.278 57.9775V116.721H31.3602V57.9775H41.1375V60.0266C41.1375 60.3779 41.2771 60.7149 41.5255 60.9634C41.774 61.2118 42.111 61.3514 42.4623 61.3514C42.8137 61.3514 43.1507 61.2118 43.3991 60.9634C43.6476 60.7149 43.7872 60.3779 43.7872 60.0266V57.9775H55.0748V60.0266C55.0748 60.3779 55.2144 60.7149 55.4628 60.9634C55.7113 61.2118 56.0483 61.3514 56.3996 61.3514C56.751 61.3514 57.088 61.2118 57.3364 60.9634C57.5849 60.7149 57.7245 60.3779 57.7245 60.0266V57.9775H69.0033V60.0266C69.0033 60.3779 69.1429 60.7149 69.3913 60.9634C69.6398 61.2118 69.9768 61.3514 70.3281 61.3514C70.6795 61.3514 71.0165 61.2118 71.2649 60.9634C71.5134 60.7149 71.653 60.3779 71.653 60.0266V57.9775H82.9053V60.0266C82.9053 60.3779 83.0449 60.7149 83.2933 60.9634C83.5418 61.2118 83.8787 61.3514 84.2301 61.3514C84.5815 61.3514 84.9185 61.2118 85.1669 60.9634C85.4154 60.7149 85.555 60.3779 85.555 60.0266V57.9775H96.8603V60.0266C96.8603 60.3779 96.9998 60.7149 97.2483 60.9634C97.4967 61.2118 97.8337 61.3514 98.1851 61.3514C98.5365 61.3514 98.8734 61.2118 99.1219 60.9634C99.3703 60.7149 99.5099 60.3779 99.5099 60.0266V57.9775H109.278Z" fill="#64EBF8" stroke="#263238" stroke-linecap="round" stroke-linejoin="round"/>
<path d="M48.6712 74.0522H40.0156V82.7078H48.6712V74.0522Z" fill="white" stroke="#263238" stroke-linecap="round" stroke-linejoin="round"/>
<path d="M61.6546 74.0522H52.999V82.7078H61.6546V74.0522Z" fill="white" stroke="#263238" stroke-linecap="round" stroke-linejoin="round"/>
<path d="M74.6472 74.0522H65.9915V82.7078H74.6472V74.0522Z" fill="white" stroke="#263238" stroke-linecap="round" stroke-linejoin="round"/>
<path d="M87.6306 74.0522H78.9749V82.7078H87.6306V74.0522Z" fill="white" stroke="#263238" stroke-linecap="round" stroke-linejoin="round"/>
<path d="M100.614 74.0522H91.9583V82.7078H100.614V74.0522Z" fill="#263238" stroke="#263238" stroke-linecap="round" stroke-linejoin="round"/>
<path d="M48.6712 88.2722H40.0156V96.9278H48.6712V88.2722Z" fill="white" stroke="#263238" stroke-linecap="round" stroke-linejoin="round"/>
<path d="M61.6546 88.2722H52.999V96.9278H61.6546V88.2722Z" fill="white" stroke="#263238" stroke-linecap="round" stroke-linejoin="round"/>
<path d="M74.6472 88.2722H65.9915V96.9278H74.6472V88.2722Z" fill="#263238" stroke="#263238" stroke-linecap="round" stroke-linejoin="round"/>
<path d="M87.6306 88.2722H78.9749V96.9278H87.6306V88.2722Z" fill="white" stroke="#263238" stroke-linecap="round" stroke-linejoin="round"/>
<path d="M100.614 88.2722H91.9583V96.9278H100.614V88.2722Z" fill="white" stroke="#263238" stroke-linecap="round" stroke-linejoin="round"/>
<path d="M48.6712 102.501H40.0156V111.157H48.6712V102.501Z" fill="white" stroke="#263238" stroke-linecap="round" stroke-linejoin="round"/>
<path d="M61.6546 102.501H52.999V111.157H61.6546V102.501Z" fill="#263238" stroke="#263238" stroke-linecap="round" stroke-linejoin="round"/>
<path d="M74.6472 102.501H65.9915V111.157H74.6472V102.501Z" fill="white" stroke="#263238" stroke-linecap="round" stroke-linejoin="round"/>
<path d="M87.6306 102.501H78.9749V111.157H87.6306V102.501Z" fill="white" stroke="#263238" stroke-linecap="round" stroke-linejoin="round"/>
<path d="M100.614 102.501H91.9583V111.157H100.614V102.501Z" fill="#263238" stroke="#263238" stroke-linecap="round" stroke-linejoin="round"/>
<path d="M43.7781 52.4573V60.0266C43.7781 60.378 43.6385 60.7149 43.39 60.9634C43.1416 61.2119 42.8046 61.3514 42.4532 61.3514C42.1019 61.3514 41.7649 61.2119 41.5164 60.9634C41.268 60.7149 41.1284 60.378 41.1284 60.0266V52.4573C41.1284 52.106 41.268 51.769 41.5164 51.5205C41.7649 51.2721 42.1019 51.1325 42.4532 51.1325C42.8046 51.1325 43.1416 51.2721 43.39 51.5205C43.6385 51.769 43.7781 52.106 43.7781 52.4573Z" fill="#263238" stroke="#263238" stroke-linecap="round" stroke-linejoin="round"/>
<path d="M57.7068 52.4573V60.0266C57.7068 60.378 57.5672 60.7149 57.3188 60.9634C57.0703 61.2119 56.7333 61.3514 56.382 61.3514C56.0306 61.3514 55.6936 61.2119 55.4452 60.9634C55.1967 60.7149 55.0571 60.378 55.0571 60.0266V52.4573C55.0571 52.106 55.1967 51.769 55.4452 51.5205C55.6936 51.2721 56.0306 51.1325 56.382 51.1325C56.7333 51.1325 57.0703 51.2721 57.3188 51.5205C57.5672 51.769 57.7068 52.106 57.7068 52.4573Z" fill="#263238" stroke="#263238" stroke-linecap="round" stroke-linejoin="round"/>
<path d="M71.6356 52.4573V60.0266C71.6356 60.378 71.496 60.7149 71.2475 60.9634C70.9991 61.2119 70.6621 61.3514 70.3107 61.3514C69.9593 61.3514 69.6224 61.2119 69.3739 60.9634C69.1255 60.7149 68.9859 60.378 68.9859 60.0266V52.4573C68.9859 52.106 69.1255 51.769 69.3739 51.5205C69.6224 51.2721 69.9593 51.1325 70.3107 51.1325C70.6621 51.1325 70.9991 51.2721 71.2475 51.5205C71.496 51.769 71.6356 52.106 71.6356 52.4573Z" fill="#263238" stroke="#263238" stroke-linecap="round" stroke-linejoin="round"/>
<path d="M85.5551 52.4573V60.0266C85.5551 60.378 85.4155 60.7149 85.1671 60.9634C84.9186 61.2119 84.5816 61.3514 84.2303 61.3514C83.8789 61.3514 83.5419 61.2119 83.2935 60.9634C83.045 60.7149 82.9054 60.378 82.9054 60.0266V52.4573C82.9054 52.2834 82.9397 52.1111 83.0063 51.9504C83.0729 51.7896 83.1704 51.6436 83.2935 51.5205C83.4165 51.3975 83.5625 51.2999 83.7233 51.2334C83.884 51.1668 84.0563 51.1325 84.2303 51.1325C84.4042 51.1325 84.5765 51.1668 84.7373 51.2334C84.898 51.2999 85.044 51.3975 85.1671 51.5205C85.2901 51.6436 85.3877 51.7896 85.4543 51.9504C85.5208 52.1111 85.5551 52.2834 85.5551 52.4573Z" fill="#263238" stroke="#263238" stroke-linecap="round" stroke-linejoin="round"/>
<path d="M99.501 52.4573V60.0266C99.501 60.378 99.3614 60.7149 99.113 60.9634C98.8645 61.2119 98.5276 61.3514 98.1762 61.3514C97.8248 61.3514 97.4878 61.2119 97.2394 60.9634C96.9909 60.7149 96.8513 60.378 96.8513 60.0266V52.4573C96.8513 52.106 96.9909 51.769 97.2394 51.5205C97.4878 51.2721 97.8248 51.1325 98.1762 51.1325C98.5276 51.1325 98.8645 51.2721 99.113 51.5205C99.3614 51.769 99.501 52.106 99.501 52.4573Z" fill="#263238" stroke="#263238" stroke-linecap="round" stroke-linejoin="round"/>
<path d="M81.0411 181.355C81.0397 179.969 80.9393 178.585 80.7408 177.213L85.9077 174.917L83.3199 166.968L77.9057 168.116C76.557 165.418 74.8026 162.942 72.7035 160.776L75.5298 155.874L68.7731 150.937L65.0724 155.044C62.3925 153.652 59.5152 152.678 56.5404 152.156L55.931 146.583H47.5757L46.9927 152.076C44.0106 152.52 41.113 153.413 38.399 154.726L34.6187 150.54L27.8267 155.415L30.5912 160.211C28.4387 162.325 26.6219 164.755 25.2035 167.418L19.6834 166.252L17.0955 174.201L22.1476 176.453C21.8779 178.062 21.742 179.689 21.7413 181.32C21.7442 182.703 21.8416 184.084 22.0328 185.454L16.8747 187.759L19.4626 195.708L24.8768 194.56C26.2254 197.258 27.9798 199.733 30.079 201.899L27.2615 206.854L34.0358 211.774L37.7365 207.667C40.4152 209.06 43.2932 210.032 46.2685 210.546L46.8603 216.172H55.2333L55.8074 210.67C58.7945 210.236 61.6964 209.342 64.41 208.02L68.1902 212.215L74.9645 207.296L72.2 202.5C74.3484 200.379 76.1648 197.946 77.5877 195.284L83.1079 196.459L85.6957 188.51L80.6437 186.257C80.9129 184.637 81.0458 182.998 81.0411 181.355ZM34.5128 181.355C34.5128 178.017 35.5027 174.754 37.3573 171.978C39.2119 169.203 41.848 167.039 44.9321 165.762C48.0162 164.484 51.4099 164.15 54.684 164.801C57.9581 165.453 60.9656 167.06 63.3261 169.421C65.6866 171.781 67.2941 174.788 67.9454 178.063C68.5966 181.337 68.2624 184.73 66.9849 187.814C65.7074 190.899 63.544 193.535 60.7684 195.389C57.9927 197.244 54.7295 198.234 51.3912 198.234C46.9155 198.232 42.6237 196.452 39.4589 193.288C36.2941 190.123 34.5151 185.831 34.5128 181.355Z" fill="#263238" stroke="#263238" stroke-linecap="round" stroke-linejoin="round"/>
<path d="M121.51 154.62C121.508 153.734 121.446 152.849 121.325 151.97L124.611 150.504L122.959 145.443L119.514 146.168C118.657 144.449 117.54 142.873 116.202 141.495L117.969 138.378L113.659 135.251L111.3 137.901C109.598 137.013 107.769 136.393 105.877 136.064L105.498 132.531H100.198L99.8361 136.064C97.9342 136.348 96.0872 136.923 94.3601 137.768L91.9577 135.119L87.6476 138.245L89.414 141.301C88.0443 142.645 86.8886 144.191 85.9871 145.885L82.4542 145.143L80.8114 150.116L84.0263 151.547C83.8559 152.568 83.7702 153.602 83.7702 154.638C83.7732 155.524 83.8352 156.409 83.9557 157.287L80.6789 158.745L82.3217 163.815L85.7663 163.09C86.6281 164.814 87.748 166.395 89.0872 167.78L87.3208 170.898L91.6309 174.025L93.9891 171.375C95.6945 172.263 97.5267 172.883 99.421 173.212L99.7919 176.789H105.091L105.453 173.256C107.355 172.972 109.202 172.397 110.929 171.552L113.332 174.201L117.651 171.075L115.884 168.019C117.255 166.675 118.411 165.129 119.311 163.435L122.844 164.177L124.496 159.107L121.281 157.676C121.44 156.665 121.517 155.643 121.51 154.62ZM91.8959 154.62C91.8959 152.494 92.5263 150.416 93.7074 148.648C94.8885 146.881 96.5672 145.503 98.5313 144.689C100.495 143.876 102.657 143.663 104.742 144.078C106.827 144.493 108.742 145.516 110.245 147.02C111.749 148.523 112.772 150.438 113.187 152.523C113.602 154.608 113.389 156.769 112.575 158.734C111.762 160.698 110.384 162.376 108.616 163.557C106.849 164.739 104.771 165.369 102.645 165.369C99.794 165.369 97.0599 164.237 95.0441 162.221C93.0283 160.205 91.8959 157.471 91.8959 154.62Z" fill="#64EBF8" stroke="#263238" stroke-linecap="round" stroke-linejoin="round"/>
<path d="M118.234 248.269C118.58 244.921 118.751 241.557 118.747 238.191C118.839 230.319 117.828 222.474 115.744 214.883L164.763 158.065C163.201 188.123 163.361 218.246 165.24 248.286L118.234 248.269Z" stroke="#263238" stroke-linecap="round" stroke-linejoin="round"/>
<path d="M306.917 238.191C306.913 241.557 307.083 244.921 307.429 248.269H259.311C261.223 217.763 261.353 187.172 259.7 156.651L309.893 214.874C307.817 222.469 306.815 230.318 306.917 238.191V238.191Z" stroke="#263238" stroke-linecap="round" stroke-linejoin="round"/>
<path d="M332.742 238.191C332.76 243.302 332.361 248.407 331.55 253.453H308.127C307.85 251.793 307.624 250.065 307.447 248.269C307.101 244.921 306.93 241.557 306.935 238.191C306.842 230.317 307.852 222.468 309.938 214.874C312.305 206.925 315.864 201.811 319.847 201.811C326.957 201.811 332.742 218.124 332.742 238.191Z" stroke="#263238" stroke-linecap="round" stroke-linejoin="round"/>
<path d="M331.55 253.453C331.55 253.453 331.55 253.533 331.55 253.568C331.444 254.216 331.329 254.852 331.206 255.476C330.808 257.56 330.322 259.521 329.81 261.34H309.893C309.363 259.521 308.895 257.56 308.498 255.476C308.374 254.846 308.259 254.21 308.153 253.568C308.153 253.568 308.153 253.489 308.153 253.453H331.55Z" stroke="#263238" stroke-linecap="round" stroke-linejoin="round"/>
<path d="M331.55 253.453C331.55 253.453 331.55 253.533 331.55 253.568C331.444 254.216 331.329 254.852 331.206 255.476C330.808 257.56 330.322 259.521 329.81 261.34H309.893C309.363 259.521 308.895 257.56 308.498 255.476C308.374 254.846 308.259 254.21 308.153 253.568C308.153 253.568 308.153 253.489 308.153 253.453H331.55Z" stroke="#263238" stroke-linecap="round" stroke-linejoin="round"/>
<path d="M166.609 134.156C165.805 142.105 165.204 150.169 164.763 158.003C163.201 188.061 163.36 218.184 165.24 248.224C165.301 249.108 165.337 249.594 165.337 249.594H259.215C259.215 249.594 259.215 249.125 259.312 248.224C261.224 217.719 261.354 187.128 259.701 156.607C259.127 146.742 258.305 136.673 257.148 126.719C255.821 115.514 253.887 104.39 251.354 93.3949M249.473 85.5253C247.433 77.4173 245.216 69.7421 242.963 62.6498H181.588C175.768 81.0032 170.106 103.278 167.403 126.719M212.271 230.216C206.442 230.216 200.744 228.487 195.897 225.248C191.05 222.01 187.272 217.407 185.042 212.021C182.811 206.636 182.227 200.71 183.364 194.992C184.502 189.275 187.309 184.023 191.431 179.901C195.553 175.78 200.804 172.973 206.521 171.835C212.239 170.698 218.165 171.282 223.55 173.512C228.936 175.743 233.539 179.521 236.777 184.368C240.016 189.215 241.745 194.913 241.745 200.742C241.75 204.616 240.992 208.454 239.514 212.035C238.035 215.616 235.865 218.87 233.128 221.612C230.39 224.353 227.139 226.528 223.56 228.012C219.982 229.496 216.146 230.26 212.271 230.26V230.216ZM212.271 155.442C207.394 155.442 202.594 154.233 198.299 151.922C194.004 149.612 190.35 146.272 187.663 142.201C184.976 138.131 183.341 133.458 182.904 128.601C182.467 123.744 183.242 118.854 185.159 114.37C187.076 109.885 190.076 105.947 193.889 102.907C197.703 99.8665 202.211 97.8199 207.009 96.9501C211.808 96.0803 216.748 96.4144 221.385 97.9227C226.023 99.431 230.214 102.066 233.584 105.592L238.733 112.95C240.937 117.448 241.96 122.434 241.704 127.437C241.449 132.44 239.924 137.296 237.273 141.547C234.623 145.798 230.933 149.304 226.553 151.735C222.173 154.165 217.246 155.441 212.236 155.442H212.271Z" stroke="#263238" stroke-linecap="round" stroke-linejoin="round"/>
<path d="M241.374 205.578C244.01 189.515 233.125 174.357 217.063 171.721C201 169.085 185.842 179.969 183.205 196.032C180.569 212.095 191.454 227.253 207.516 229.889C223.579 232.525 238.738 221.641 241.374 205.578Z" stroke="#263238" stroke-linecap="round" stroke-linejoin="round"/>
<path d="M241.745 126.004C241.741 132.846 239.355 139.474 234.997 144.749C230.638 150.024 224.579 153.617 217.86 154.912C211.141 156.206 204.181 155.12 198.175 151.841C192.169 148.563 187.492 143.295 184.947 136.943C182.402 130.592 182.148 123.552 184.228 117.033C186.308 110.514 190.593 104.923 196.346 101.22C202.1 97.5159 208.964 95.931 215.759 96.737C222.554 97.543 228.856 100.69 233.584 105.636L238.733 112.994C240.718 117.043 241.749 121.494 241.745 126.004V126.004Z" stroke="#263238" stroke-linecap="round" stroke-linejoin="round"/>
<path d="M192.001 33.6358C192.72 31.8693 193.406 30.1971 194.059 28.619L194.377 27.8595L194.987 26.4021L195.976 24.1057L196.417 23.1077C197.036 21.7034 197.583 20.458 198.051 19.46C198.113 19.3098 198.184 19.1685 198.246 19.0272L198.299 18.9035L198.599 18.2588C198.899 17.6052 199.147 17.0753 199.341 16.669L199.482 16.3775L199.844 15.6268C201.744 11.344 204.152 7.30516 207.016 3.59723C207.635 2.78953 208.431 2.1351 209.343 1.68469C210.255 1.23429 211.258 1 212.276 1C213.293 1 214.297 1.23429 215.209 1.68469C216.121 2.1351 216.917 2.78953 217.535 3.59723C220.396 7.30566 222.801 11.3445 224.698 15.6268C224.698 15.6268 225.202 16.6513 226.094 18.5768C226.138 18.6827 226.191 18.7887 226.244 18.9035C226.968 20.4934 227.931 22.6308 229.07 25.2716C229.217 25.619 229.368 25.9723 229.521 26.3315C230.271 28.0979 231.093 30.0499 231.958 32.1873C232.056 32.4169 232.153 32.6642 232.25 32.9027C232.453 33.3885 232.647 33.8742 232.842 34.3777C232.868 34.4254 232.888 34.4757 232.903 34.5278C233.089 34.9783 233.266 35.411 233.451 35.9057L233.76 36.6917C234.997 39.8537 236.313 43.3159 237.655 47.0431C237.885 47.6614 238.106 48.2973 238.335 48.9332C238.759 50.1344 239.219 51.3533 239.616 52.5986C239.757 52.9961 239.899 53.4024 240.031 53.8087C241.014 56.6526 241.992 59.6144 242.963 62.6939H209.789" stroke="#263238" stroke-linecap="round" stroke-linejoin="round"/>
<path d="M201.823 62.6763H181.588C182.056 61.2101 182.516 59.7704 182.984 58.3573C183.143 57.8627 183.311 57.3769 183.47 56.8911C184.512 53.7557 185.554 50.7085 186.579 47.8911L187.559 45.1884C187.674 44.8881 187.789 44.5789 187.895 44.3051C188.118 43.7163 188.339 43.1275 188.557 42.5387" stroke="#263238" stroke-linecap="round" stroke-linejoin="round"/>
<path d="M209.79 62.694H201.823" stroke="#263238" stroke-linecap="round" stroke-linejoin="round"/>
<path d="M238.733 113.02L233.583 105.663C228.467 100.325 221.524 97.115 214.143 96.6748C206.762 96.2347 199.486 98.5968 193.771 103.289C188.057 107.981 184.324 114.657 183.318 121.983C182.313 129.308 184.11 136.743 188.35 142.801C192.59 148.859 198.96 153.094 206.187 154.658C213.414 156.222 220.965 155.001 227.33 151.238C233.696 147.476 238.406 141.449 240.52 134.363C242.634 127.278 241.996 119.655 238.733 113.02V113.02ZM212.236 147.563C207.977 147.565 203.813 146.304 200.27 143.938C196.728 141.573 193.967 138.211 192.336 134.277C190.704 130.342 190.277 126.012 191.107 121.835C191.936 117.657 193.987 113.819 196.998 110.807C200.009 107.795 203.846 105.743 208.023 104.911C212.2 104.08 216.53 104.506 220.465 106.135C224.4 107.765 227.764 110.525 230.13 114.066C232.497 117.607 233.76 121.771 233.76 126.03C233.753 131.729 231.487 137.192 227.459 141.224C223.431 145.255 217.97 147.525 212.271 147.537L212.236 147.563Z" stroke="#263238" stroke-linecap="round" stroke-linejoin="round"/>
<path d="M212.271 171.313C206.442 171.313 200.744 173.042 195.897 176.28C191.05 179.519 187.272 184.122 185.042 189.507C182.811 194.893 182.227 200.819 183.364 206.536C184.502 212.254 187.309 217.505 191.431 221.627C195.553 225.749 200.804 228.556 206.521 229.693C212.239 230.831 218.165 230.247 223.55 228.016C228.936 225.785 233.539 222.008 236.777 217.161C240.016 212.314 241.745 206.616 241.745 200.786C241.745 192.97 238.639 185.473 233.112 179.946C227.585 174.418 220.088 171.313 212.271 171.313ZM212.271 222.311C208.014 222.311 203.853 221.048 200.313 218.683C196.773 216.318 194.015 212.956 192.386 209.023C190.756 205.09 190.33 200.762 191.161 196.587C191.991 192.412 194.041 188.577 197.051 185.566C200.062 182.556 203.897 180.506 208.072 179.676C212.247 178.845 216.575 179.271 220.508 180.901C224.441 182.53 227.803 185.289 230.168 188.828C232.533 192.368 233.796 196.529 233.796 200.786C233.796 206.495 231.528 211.97 227.491 216.006C223.455 220.043 217.98 222.311 212.271 222.311Z" stroke="#263238" stroke-linecap="round" stroke-linejoin="round"/>
<path d="M259.312 249.638H165.337V276.656H259.312V249.638Z" stroke="#263238" stroke-linecap="round" stroke-linejoin="round"/>
<path d="M177.437 276.647V250.45" stroke="#263238" stroke-linecap="round" stroke-linejoin="round"/>
<path d="M195.04 276.647V250.45" stroke="#263238" stroke-linecap="round" stroke-linejoin="round"/>
<path d="M212.643 276.647V250.45" stroke="#263238" stroke-linecap="round" stroke-linejoin="round"/>
<path d="M230.244 276.647V250.45" stroke="#263238" stroke-linecap="round" stroke-linejoin="round"/>
<path d="M247.847 276.647V250.45" stroke="#263238" stroke-linecap="round" stroke-linejoin="round"/>
<path d="M118.738 238.191C118.742 241.557 118.571 244.921 118.225 248.269C118.061 250.035 117.834 251.763 117.545 253.453H94.1133C93.3025 248.407 92.9038 243.302 92.9209 238.191C92.9209 218.098 98.6973 201.811 105.834 201.811C109.817 201.811 113.376 206.898 115.735 214.883C117.819 222.474 118.83 230.319 118.738 238.191Z" stroke="#263238" stroke-linecap="round" stroke-linejoin="round"/>
<path d="M117.545 253.453C117.492 253.815 117.43 254.169 117.368 254.513L117.289 254.955C117.121 255.838 116.936 256.721 116.741 257.604C116.653 258.037 116.547 258.487 116.441 258.885L116.123 260.121C116.017 260.528 115.902 260.934 115.787 261.323H95.8707C95.6941 260.722 95.5263 260.113 95.3673 259.477C95.2848 259.171 95.2053 258.853 95.1288 258.523C94.9786 257.878 94.8285 257.224 94.6872 256.553C94.6254 256.218 94.5547 255.873 94.484 255.529C94.3516 254.884 94.2367 254.221 94.1308 253.55C94.1308 253.55 94.1308 253.471 94.1308 253.435L117.545 253.453Z" stroke="#263238" stroke-linecap="round" stroke-linejoin="round"/>
<path d="M117.554 253.453C117.492 253.806 117.439 254.16 117.368 254.513L117.289 254.955C117.121 255.838 116.936 256.721 116.741 257.604C116.653 258.037 116.547 258.487 116.441 258.885L116.123 260.121C116.017 260.528 115.902 260.934 115.787 261.323H95.8707C95.6941 260.722 95.5263 260.113 95.3673 259.477C95.2848 259.171 95.2053 258.853 95.1288 258.523C94.9786 257.878 94.8285 257.224 94.6872 256.553C94.6254 256.218 94.5547 255.873 94.484 255.529C94.3604 254.884 94.2456 254.221 94.1308 253.55C94.1308 253.55 94.1308 253.471 94.1308 253.435L117.554 253.453Z" stroke="#263238" stroke-linecap="round" stroke-linejoin="round"/>
<path d="M249.667 383.438C249.667 383.438 248.334 385.275 247.839 385.275C245.8 385.734 243.799 386.345 241.851 387.103C240.182 387.765 239.201 388.216 240.349 389.753C244.015 394.584 252.997 395.414 257.661 396.412C262.324 397.41 265.318 397.41 265.813 393.913C266.307 390.415 265.477 384.259 265.477 384.259C265.477 384.259 256.327 386.105 249.667 383.438Z" fill="white" stroke="#263238" stroke-linecap="round" stroke-linejoin="round"/>
<path d="M265.795 394.036C260.65 394.942 255.367 394.677 250.339 393.259C243.838 391.351 241.339 389.073 240.393 387.783C239.749 388.225 239.59 388.764 240.349 389.762C244.015 394.593 252.997 395.423 257.661 396.421C262.324 397.419 265.247 397.419 265.795 394.036Z" fill="white" stroke="#263238" stroke-linecap="round" stroke-linejoin="round"/>
<path d="M284.122 382.943C284.122 382.943 280.792 385.769 280.13 386.432C279.468 387.094 275.802 387.439 276.297 389.435C276.791 391.431 279.627 392.968 281.958 393.259C284.29 393.551 289.952 396.253 291.276 396.086C292.601 395.918 296.576 396.253 297.273 392.429C297.971 388.605 296.938 383.27 296.938 383.27L284.122 382.943Z" fill="white" stroke="#263238" stroke-linecap="round" stroke-linejoin="round"/>
<path d="M289.28 393.091C286.286 392.093 284.952 392.093 280.792 391.095C279.137 390.69 277.596 389.91 276.288 388.817C276.24 389.02 276.24 389.232 276.288 389.435C276.791 391.431 279.618 392.968 281.949 393.259C284.281 393.551 289.943 396.253 291.268 396.085C292.592 395.918 296.567 396.253 297.256 392.455C295.33 393.948 291.744 393.886 289.28 393.091Z" fill="white" stroke="#263238" stroke-linecap="round" stroke-linejoin="round"/>
<path d="M246.673 262.285C246.673 262.285 244.509 281.425 245.507 299.24C246.506 317.054 249.341 337.854 250.003 343.675C250.666 349.495 251.505 374.137 251.505 375.639C251.388 376.999 251.106 378.339 250.666 379.631L249.341 380.629L249.005 383.623C252.131 385.209 255.426 386.438 258.827 387.289C263.481 388.287 265.981 386.953 266.148 385.787C266.316 384.621 265.981 381.963 265.981 379.799C265.981 377.635 265.645 375.303 265.645 372.804C265.645 370.304 266.148 343.843 266.316 340.186C266.484 336.529 266.484 333.853 266.643 330.859C266.802 327.865 268.807 300.406 268.807 300.406L271.307 295.91C271.307 295.91 273.135 327.37 274.133 330.029C275.131 332.687 283.124 375.303 283.787 376.301C284.449 377.299 282.462 378.129 282.629 379.128C282.797 380.126 284.29 384.957 284.29 384.957C284.29 384.957 288.786 386.953 291.612 387.121C294.438 387.289 295.772 386.953 296.911 384.789C297.842 383.119 298.193 381.187 297.909 379.295C297.619 377.337 297.23 375.394 296.743 373.475C296.249 371.143 296.417 349.672 295.083 342.509C293.749 335.346 290.923 331.195 290.755 325.366C290.587 319.536 292.416 296.908 291.921 290.584C291.426 284.26 291.753 280.93 290.252 275.269C288.75 269.607 286.427 263.451 286.427 263.451C286.427 263.451 265.813 269.925 246.673 262.285Z" fill="#263238" stroke="#263238" stroke-linecap="round" stroke-linejoin="round"/>
<path d="M259.048 204.381C259.048 204.381 251.496 209.027 248.449 210.184C245.402 211.341 240.182 212.215 239.617 215.121C239.051 218.027 238.159 222.673 238.159 222.673C238.159 222.673 232.789 236.893 231.924 239.648C231.058 242.404 231.491 246.758 233.522 247.924C235.554 249.09 237.877 248.94 240.05 248.357C242.222 247.774 247.742 240.814 247.742 240.814C247.742 240.814 246.859 256.633 246.435 257.79C246.011 258.947 244.545 262.868 245.852 264.034C247.159 265.2 263.128 269.987 267.191 269.987C271.254 269.987 283.593 268.097 285.474 266.79C287.355 265.483 287.947 265.191 288.124 262.868C288.3 260.545 287.982 260.987 288.274 257.79C288.565 254.593 292.911 234.137 293.494 231.955C294.076 229.774 297.707 220.058 296.982 215.845C296.258 211.632 289.033 204.363 285.659 203.48C282.285 202.597 264.85 203.224 259.048 204.381Z" fill="#64EBF8" stroke="#263238" stroke-linecap="round" stroke-linejoin="round"/>
<path d="M262.678 171.437C262.678 171.437 259.145 176.657 259.622 178.547C260.098 180.437 260.063 181.011 259.622 181.594C259.18 182.177 256.433 183.775 257.157 184.791C257.997 185.785 258.919 186.707 259.913 187.547C259.913 187.547 260.355 191.901 261.079 192.334C261.803 192.767 262.96 193.058 263.729 190.161C264.497 187.264 266.776 178.98 266.776 177.796C266.776 176.613 267.173 170.562 262.678 171.437Z" fill="white" stroke="#263238" stroke-linecap="round" stroke-linejoin="round"/>
<path d="M267.606 165.775C267.606 165.775 260.637 166.067 260.063 168.531C259.489 170.995 262.96 173.76 263.543 174.192C264.126 174.625 261.945 176.374 262.527 177.725C263.054 178.755 263.687 179.726 264.418 180.622C264.418 180.622 262.527 190.205 262.236 190.638C261.945 191.071 260.205 185.851 259.913 187.591C259.622 189.331 259.772 191.071 259.48 191.945C259.189 192.82 257.308 196.149 258.173 197.457C259.039 198.764 259.622 199.347 262.236 198.764L264.886 198.181L264.453 203.118L281.579 201.519C281.579 201.519 281.137 195.575 281.72 193.252C282.303 190.93 289.272 182.071 287.381 175.111C285.491 168.151 271.528 164.76 267.606 165.775Z" fill="white" stroke="#263238" stroke-linecap="round" stroke-linejoin="round"/>
<path d="M287.346 175.067C285.456 168.098 271.528 164.76 267.606 165.775C267.606 165.775 260.637 166.067 260.063 168.531C259.489 170.995 262.96 173.76 263.543 174.192C264.126 174.625 261.945 176.374 262.527 177.725C263.054 178.755 263.687 179.726 264.418 180.622C264.418 180.622 262.527 190.205 262.236 190.638C261.945 191.071 260.205 185.851 259.913 187.591C259.622 189.331 259.772 191.071 259.48 191.945C259.189 192.82 257.308 196.149 258.173 197.457C259.039 198.764 259.622 199.347 262.236 198.764L264.886 198.181C264.886 198.181 267.067 196.414 267.209 195.134C267.35 193.853 267.5 187.732 267.641 186.717C267.783 185.701 268.657 184.394 269.673 184.544C270.643 185.738 271.203 187.211 271.271 188.748C271.563 191.654 272.579 193.252 275.193 193.835C277.465 194.155 279.782 193.808 281.861 192.837C282.965 189.976 289.139 181.673 287.346 175.067Z" fill="#263238" stroke="#263238" stroke-linecap="round" stroke-linejoin="round"/>
<path d="M266.007 185.807C266.007 185.807 267.606 181.011 268.913 182.76C270.22 184.509 269.929 189.287 268.33 190.594C266.732 191.901 265.433 188.094 266.007 185.807Z" fill="white" stroke="#263238" stroke-linecap="round" stroke-linejoin="round"/>
<path d="M256.724 206.271C256.724 206.271 259.913 201.334 263.693 200.027C267.473 198.72 280.086 198.428 282.117 198.578C284.149 198.729 285.606 203.507 285.606 203.507L256.724 206.271Z" fill="#64EBF8" stroke="#263238" stroke-linecap="round" stroke-linejoin="round"/>
<path d="M246.302 228.476C247.026 233.413 247.751 240.841 247.751 240.841L241.656 222.408" stroke="#263238" stroke-linecap="round" stroke-linejoin="round"/>
<path d="M247.725 240.814C247.725 240.814 238.583 240.081 235.969 239.216" stroke="#263238" stroke-linecap="round" stroke-linejoin="round"/>
<path d="M248.157 243.57C248.157 243.57 250.807 256.341 255.417 261.279" stroke="#263238" stroke-linecap="round" stroke-linejoin="round"/>
<path d="M247.583 247.341C247.583 247.341 248.157 260.113 250.189 262.727" stroke="#263238" stroke-linecap="round" stroke-linejoin="round"/>
<path d="M236.11 227.751C236.11 227.751 233.504 227.751 233.063 228.767C232.621 229.783 234.37 232.247 234.37 232.247L236.11 227.751Z" fill="white" stroke="#263238" stroke-linecap="round" stroke-linejoin="round"/>
<path d="M233.054 230.215C233.054 230.215 230.157 231.231 231.288 232.538C231.888 233.269 232.63 233.87 233.469 234.305L234.353 232.273L233.054 230.215Z" fill="white" stroke="#263238" stroke-linecap="round" stroke-linejoin="round"/>
<path d="M231.288 232.538C231.288 232.538 230.405 234.261 230.829 234.782C231.524 235.322 232.303 235.745 233.134 236.036L233.469 234.269L231.288 232.538Z" fill="white" stroke="#263238" stroke-linecap="round" stroke-linejoin="round"/>
<path d="M230.996 235.241C230.85 235.449 230.751 235.686 230.706 235.936C230.66 236.186 230.669 236.443 230.731 236.69C230.996 237.414 232.445 237.944 232.445 237.944L233.169 236.036L230.996 235.241Z" stroke="#263238" stroke-linecap="round" stroke-linejoin="round"/>
<path d="M211.724 201.343C211.724 201.343 211.335 195.84 210.549 197.156C209.763 198.472 210.417 203.047 210.417 203.047C210.417 203.047 207.538 198.199 207.149 199.638C206.76 201.078 208.589 203.993 208.589 203.993C208.589 203.993 205.312 201.767 205.312 202.818C205.312 203.869 206.884 206.218 206.884 206.218L206.23 207.402C206.23 207.402 207.803 208.188 208.589 207.658C209.375 207.128 211.335 203.86 211.335 203.86L211.724 201.343Z" fill="white" stroke="#263238" stroke-linecap="round" stroke-linejoin="round"/>
<path d="M141.295 218.522L122.182 219.696L123.622 248.763L143.124 246.794L141.295 218.522Z" fill="#64EBF8" stroke="#263238" stroke-linecap="round" stroke-linejoin="round"/>
<path d="M127.067 218.91C127.067 218.91 127.72 217.082 128.506 217.082C129.292 217.082 130.732 221.136 129.813 221.136C128.895 221.136 128.374 219.308 128.374 219.308L127.067 218.91Z" fill="white" stroke="#263238" stroke-linecap="round" stroke-linejoin="round"/>
<path d="M129.513 217.47C129.513 217.47 130.82 215.898 131.474 216.587C132.128 217.276 132.781 221.304 131.995 221.171C131.209 221.039 130.688 219.21 130.688 219.21L129.513 217.47Z" fill="white" stroke="#263238" stroke-linecap="round" stroke-linejoin="round"/>
<path d="M131.482 216.552C131.482 216.552 133.055 215.669 133.576 216.949C134.097 218.23 133.973 220.482 133.443 220.747C132.913 221.012 132.56 219.961 132.56 219.961C132.297 218.797 131.937 217.656 131.482 216.552Z" fill="white" stroke="#263238" stroke-linecap="round" stroke-linejoin="round"/>
<path d="M133.567 216.949C133.567 216.949 135.272 215.766 135.404 216.949C135.618 218.053 135.479 219.197 135.007 220.217C134.846 220.474 134.602 220.667 134.315 220.764C134.029 220.86 133.717 220.855 133.434 220.747C133.434 220.747 133.964 217.992 133.567 216.949Z" fill="white" stroke="#263238" stroke-linecap="round" stroke-linejoin="round"/>
<path d="M135.139 256.88C135.139 256.88 129.495 271.215 129.495 281.478C129.495 291.741 140.094 317.92 140.615 319.978C141.136 322.036 138.222 331.46 138.911 336.574C139.599 341.687 141.984 361.719 142.161 362.92C142.337 364.121 140.58 387.182 140.58 389.417C140.58 391.652 142.284 392.155 143.653 392.323C145.022 392.491 147.76 392.323 148.617 391.811C149.474 391.298 150.666 390.442 150.666 390.442C151.005 389.449 151.181 388.408 151.187 387.359C151.355 384.966 151.187 377.644 151.187 376.76C151.187 375.877 153.069 350.926 153.069 350.926C153.069 350.926 153.775 375.815 153.413 382.722C153.369 383.605 150.94 391.996 153.334 392.853C155.727 393.709 162.219 392.305 164.268 392.12C167.474 391.828 172.067 389.391 171.378 388.71C170.457 387.482 169.119 386.631 167.615 386.317C166.229 385.893 162.157 383.332 161.645 381.627C161.133 379.922 161.503 373.59 161.503 372.733C161.503 371.876 166.759 354.662 167.448 351.535C168.523 344.809 169.207 338.027 169.497 331.221C169.673 325.41 169.329 321.815 169.673 319.739C170.018 317.664 178.055 303.143 177.879 290.142C177.702 277.141 173.772 258.488 173.772 258.488L135.139 256.88Z" fill="white" stroke="#263238" stroke-linecap="round" stroke-linejoin="round"/>
<path d="M151.258 384.859C150.328 385.85 149.076 386.476 147.725 386.626C145.386 386.751 143.043 386.452 140.81 385.743C140.695 387.597 140.624 388.949 140.624 389.408C140.624 391.634 142.329 392.146 143.698 392.314C145.067 392.482 147.805 392.314 148.662 391.802C149.518 391.289 150.711 390.433 150.711 390.433C151.05 389.44 151.226 388.399 151.232 387.35C151.223 386.767 151.249 385.875 151.258 384.859Z" fill="white" stroke="#263238" stroke-linecap="round" stroke-linejoin="round"/>
<path d="M171.413 388.755C170.492 387.526 169.154 386.675 167.651 386.361C166.507 385.915 165.426 385.321 164.436 384.595L164.886 386.944C164.886 386.944 157.078 388.419 152.724 386.458C152.238 389.152 151.929 392.402 153.369 392.924C155.762 393.807 162.254 392.376 164.303 392.19C167.509 391.872 172.111 389.47 171.413 388.755Z" fill="white" stroke="#263238" stroke-linecap="round" stroke-linejoin="round"/>
<path d="M145.615 208.833C145.615 208.833 132.914 213.019 132.781 214.326C132.649 215.633 123.357 244.047 122.836 245.239C122.315 246.432 122.183 247.341 123.878 248.648C125.574 249.956 127.411 253.356 130.167 252.702C132.923 252.049 135.007 249.435 135.537 248.516C136.007 247.667 136.307 246.733 136.42 245.769C136.727 244.037 137.143 242.326 137.665 240.646C137.922 240.117 138.054 245.884 137.401 248.366C136.747 250.848 134.256 255.697 135.175 256.88C136.08 257.805 137.146 258.559 138.319 259.106C138.319 259.106 143.159 261.332 155.206 261.332C167.254 261.332 172.747 261.067 173.798 260.281C174.849 259.494 174.681 257.922 174.84 256.615C174.999 255.308 173.533 246.9 173.666 246.273C173.798 245.645 174.717 240.249 174.717 240.249C174.717 240.249 184.273 250.848 187.806 250.592C188.774 250.565 189.718 250.285 190.544 249.78C191.37 249.275 192.049 248.562 192.514 247.712L206.133 212.233C206.133 212.233 208.359 210.661 209.277 209.875C210.196 209.089 212.81 203.851 213.199 202.288C213.57 200.697 213.615 199.048 213.332 197.439C213.075 196.264 212.289 198.093 212.157 199.144C212.024 200.195 211.759 201.369 211.759 201.369C211.759 201.369 209.666 205.556 209.277 205.953C208.314 206.514 207.307 206.996 206.266 207.393C206.266 207.393 209.013 203.728 209.145 202.809C209.277 201.89 209.931 200.159 208.624 201.369C207.431 202.65 206.377 204.053 205.48 205.556C205.48 205.556 201.682 208.047 201.549 209.089C201.417 210.131 200.666 212.754 200.666 213.152C200.666 213.549 187.974 233.969 187.974 233.969L183.646 227.548C183.646 227.548 180.899 216.949 178.418 215.51C175.936 214.07 171.21 213.284 171.21 213.284C171.21 213.284 161.654 207.649 157.202 206.739C152.751 205.83 145.615 208.833 145.615 208.833Z" fill="white" stroke="#263238" stroke-linecap="round" stroke-linejoin="round"/>
<path d="M137.63 240.646L135.007 224.015" stroke="#263238" stroke-linecap="round" stroke-linejoin="round"/>
<path d="M173.436 179.668C174.266 180.937 174.745 182.403 174.823 183.917C175.061 186.681 174.628 189.472 175.061 190.179C175.494 190.885 177.861 191.813 177.464 192.979C177.066 194.144 175.167 195.257 175.167 195.257C175.167 195.257 175.043 200.557 174.01 201.846C172.977 203.136 167.827 202.058 167.827 202.058L166.123 208.303L152.424 203.992C152.424 203.992 154.19 203.357 152.936 199.082C152.461 197.151 151.759 195.283 150.843 193.517C150.843 193.517 150.234 186.275 159.11 181.656C167.986 177.036 173.436 179.668 173.436 179.668Z" fill="white" stroke="#263238" stroke-linecap="round" stroke-linejoin="round"/>
<path d="M173.401 188.792C173.542 189.675 173.401 190.444 173.074 190.497C172.747 190.55 172.376 189.87 172.191 188.978C172.005 188.086 172.191 187.317 172.509 187.264C172.827 187.211 173.25 187.9 173.401 188.792Z" fill="#263238"/>
<path d="M170.495 186.134C170.495 186.134 172.023 184.032 173.427 185.445" stroke="#263238" stroke-linecap="round" stroke-linejoin="round"/>
<path d="M173.816 196.379C173.317 196.419 172.815 196.337 172.354 196.142C171.893 195.947 171.485 195.643 171.166 195.257" stroke="#263238" stroke-linecap="round" stroke-linejoin="round"/>
<path d="M168.578 183.749C168.578 183.749 166.494 188.668 165.045 189.534C164.323 189.996 163.564 190.398 162.776 190.735C161.389 193.175 159.783 195.484 157.98 197.633C155.719 200.044 155.878 199.603 154.297 199.161C152.716 198.72 148.723 196.556 146.047 191.398C143.371 186.24 143.848 178.379 149.836 174.122C155.825 169.865 166.547 169.706 169.939 170.403C173.33 171.101 177.181 173.83 176.66 176.771C176.139 179.713 171.758 182.883 168.578 183.749Z" fill="#263238" stroke="#263238" stroke-linecap="round" stroke-linejoin="round"/>
<path d="M164.798 192.29C164.798 192.29 162.148 187.255 160.779 189.993C159.41 192.731 161.609 197.059 163.429 196.361" fill="white"/>
<path d="M164.798 192.29C164.798 192.29 162.148 187.255 160.779 189.993C159.41 192.731 161.609 197.059 163.429 196.361" stroke="#263238" stroke-linecap="round" stroke-linejoin="round"/>
<path d="M150.564 187.381C151.152 182.465 148.312 178.083 144.219 177.592C140.127 177.102 136.332 180.69 135.743 185.606C135.154 190.522 137.995 194.904 142.087 195.395C146.18 195.885 149.975 192.297 150.564 187.381Z" fill="#263238" stroke="#263238" stroke-linecap="round" stroke-linejoin="round"/>
<path d="M145.614 208.833C145.614 208.833 147.707 204.77 148.882 204.116C150.057 203.462 155.171 202.809 160.541 204.116C165.911 205.423 169.7 209.354 170.256 210.926C170.502 211.729 170.797 212.517 171.139 213.284C171.139 213.284 158.836 208.568 154.782 208.046C150.728 207.525 145.614 208.833 145.614 208.833Z" fill="white" stroke="#263238" stroke-linecap="round" stroke-linejoin="round"/>
<path d="M176.377 223.362L174.681 240.249L178.082 230.825" stroke="#263238" stroke-linecap="round" stroke-linejoin="round"/>
<path d="M187.903 233.969L190.782 237.767" stroke="#263238" stroke-linecap="round" stroke-linejoin="round"/>
<path d="M212.121 199.144C211.989 200.186 211.724 201.369 211.724 201.369C211.724 201.369 209.63 205.556 209.242 205.953C208.279 206.514 207.271 206.996 206.23 207.393C206.23 207.393 208.977 203.728 209.109 202.809C209.242 201.89 209.895 200.159 208.588 201.369C207.395 202.65 206.341 204.053 205.444 205.556C205.444 205.556 201.646 208.047 201.513 209.089C201.381 210.131 200.63 212.754 200.63 213.152C200.63 213.39 195.94 221.039 192.257 226.992L199.323 230.012L206.15 212.233C206.15 212.233 208.376 210.661 209.295 209.875C210.213 209.089 212.828 203.851 213.216 202.288C213.587 200.697 213.632 199.048 213.349 197.439C213.04 196.264 212.254 198.093 212.121 199.144Z" fill="white" stroke="#263238" stroke-linecap="round" stroke-linejoin="round"/>
<path d="M177.914 290.204C177.746 277.203 173.807 258.549 173.807 258.549L135.139 256.88C135.139 256.88 129.495 271.215 129.495 281.478C129.495 291.741 140.094 317.92 140.615 319.978C141.136 322.036 138.222 331.46 138.911 336.574C139.379 340.106 140.677 350.573 141.454 357.223C145.076 358.178 148.83 358.524 152.565 358.248C152.866 354.123 153.113 350.944 153.113 350.944C153.113 350.944 153.113 354.053 153.192 358.319C157.048 359.878 161.278 360.268 165.354 359.44C166.388 355.757 167.244 352.657 167.483 351.615C168.558 344.889 169.242 338.106 169.532 331.301C169.709 325.489 169.364 321.894 169.709 319.819C170.053 317.743 178.09 303.205 177.914 290.204Z" fill="#263238" stroke="#263238" stroke-linecap="round" stroke-linejoin="round"/>
<path d="M146.939 286.724L152.795 288.605C152.795 288.605 155.445 321.815 155.242 324.27C155.038 326.726 150.976 340.071 153.104 350.944" stroke="white" stroke-linecap="round" stroke-linejoin="round"/>
</svg>
