<svg width="142" height="40" viewBox="0 0 142 40" fill="none" xmlns="http://www.w3.org/2000/svg">
<path fill-rule="evenodd" clip-rule="evenodd" d="M73 36.8837C73 37.7102 72.6751 38.5028 72.0967 39.0872C71.5183 39.6717 70.7339 40 69.916 40C69.098 40 68.3136 39.6717 67.7353 39.0872C67.1569 38.5028 66.832 37.7102 66.832 36.8837C66.832 19.9838 53.2284 6.23433 36.5008 6.23433C19.7732 6.23433 6.16802 19.9806 6.16802 36.8837C6.16802 37.2929 6.08825 37.6981 5.93327 38.0762C5.77828 38.4543 5.55111 38.7979 5.26474 39.0872C4.97836 39.3766 4.63838 39.6062 4.26421 39.7628C3.89004 39.9194 3.48901 40 3.08401 40C2.67901 40 2.27798 39.9194 1.90381 39.7628C1.52964 39.6062 1.18966 39.3766 0.903286 39.0872C0.616909 38.7979 0.389742 38.4543 0.234756 38.0762C0.0797699 37.6981 0 37.2929 0 36.8837C0 16.5456 16.3739 0 36.5008 0C56.6277 0 73 16.5456 73 36.8837ZM39.9991 16.0452V36.8128C40.0097 37.2279 39.9271 37.6407 39.756 38.027C39.5849 38.4132 39.3289 38.7651 39.0029 39.0621C38.6769 39.359 38.2876 39.5949 37.8578 39.756C37.428 39.917 36.9663 40 36.5 40C36.0337 40 35.572 39.917 35.1422 39.756C34.7124 39.5949 34.3231 39.359 33.9971 39.0621C33.6711 38.7651 33.4151 38.4132 33.244 38.027C33.0729 37.6407 32.9903 37.2279 33.0009 36.8128V16.0452C33.0217 15.2313 33.3995 14.4569 34.0535 13.8878C34.7074 13.3187 35.5855 13 36.5 13C37.4145 13 38.2926 13.3187 38.9465 13.8878C39.6005 14.4569 39.9783 15.2313 39.9991 16.0452ZM99 22.3245V16.8813C99.0021 15.1522 98.6489 13.9065 97.9403 13.1442C97.2317 12.3818 96.2211 12.0007 94.9087 12.0007C94.0759 11.9872 93.2546 12.1867 92.5295 12.5786C91.8505 12.947 91.2934 13.4903 90.9215 14.1467C90.5929 13.3925 90.128 12.8483 89.5284 12.5081C88.854 12.1528 88.0919 11.9781 87.3224 12.0022C86.5742 11.9899 85.8342 12.152 85.1661 12.4743C84.5324 12.7881 83.9998 13.2607 83.6254 13.8416V13.6056C83.6375 13.392 83.5996 13.1785 83.5145 12.9806C83.4294 12.7828 83.2991 12.6057 83.1333 12.4621C82.7903 12.1827 82.3507 12.0357 81.9004 12.0497C81.4145 12.0371 80.9393 12.1873 80.557 12.4743C80.3721 12.6188 80.2255 12.8029 80.1291 13.0117C80.0327 13.2205 79.9893 13.4482 80.0023 13.6761V22.3245C80.0023 22.8748 80.1834 23.2902 80.5441 23.5738C80.9218 23.8615 81.3938 24.0119 81.8764 23.9984C82.3547 24.0129 82.8226 23.8622 83.1942 23.5738C83.5469 23.2902 83.7248 22.8748 83.7248 22.3245V17.3764C83.7248 16.5589 83.9301 15.9223 84.3405 15.4665C84.5442 15.2411 84.7985 15.0626 85.0844 14.9442C85.3703 14.8259 85.6805 14.7707 85.9917 14.7828C86.5497 14.7828 86.9633 14.9376 87.2358 15.2427C87.5084 15.5477 87.643 16.0796 87.643 16.8338V22.3245C87.643 22.8748 87.8242 23.2902 88.1865 23.5738C88.5633 23.8618 89.035 24.0123 89.5171 23.9984C90.0001 24.0172 90.4735 23.8661 90.8478 23.5738C91.1925 23.2902 91.3656 22.8748 91.3656 22.3245V17.3764C91.3656 16.5589 91.5687 15.9223 91.9748 15.4665C92.1786 15.2411 92.4329 15.0626 92.7188 14.9442C93.0047 14.8259 93.3148 14.7707 93.6261 14.7828C94.1856 14.7828 94.6025 14.9376 94.8718 15.2427C95.1411 15.5477 95.279 16.0796 95.279 16.8338V22.3245C95.279 22.8748 95.4586 23.2902 95.8193 23.5738C96.1964 23.8612 96.6678 24.0117 97.1499 23.9984C97.6333 24.0173 98.1073 23.8662 98.4822 23.5738C98.8269 23.2902 99 22.8748 99 22.3245ZM104.998 8.49202C105.009 8.69777 104.967 8.90308 104.875 9.0934C104.783 9.28372 104.643 9.45438 104.465 9.59331C104.108 9.86444 103.62 10 103.002 10C102.38 10 101.894 9.86444 101.536 9.59331C101.358 9.45438 101.217 9.28372 101.125 9.0934C101.033 8.90308 100.991 8.69777 101.002 8.49202C100.99 8.2875 101.032 8.08328 101.124 7.89429C101.216 7.70531 101.357 7.53635 101.536 7.39977C101.894 7.13509 102.38 7.00212 103.002 7.00212C103.528 6.98045 104.045 7.12575 104.454 7.4101C104.634 7.54435 104.776 7.7112 104.87 7.8984C104.964 8.08561 105.008 8.28843 104.998 8.49202ZM104 22.3179V13.6803C104 13.1293 103.858 12.7107 103.573 12.4275C103.274 12.1368 102.897 11.9853 102.511 12.0011C102.122 11.9864 101.741 12.1376 101.437 12.4275C101.146 12.7107 101 13.1293 101 13.6803V22.3179C101 22.8704 101.142 23.2875 101.428 23.5723C101.734 23.865 102.119 24.0164 102.511 23.9986C102.897 24.0137 103.274 23.8623 103.573 23.5723C103.858 23.2875 104 22.8704 104 22.3179ZM118.689 20.7134C118.904 21.0094 119.013 21.3633 118.998 21.7224C119.012 21.9841 118.947 22.244 118.811 22.4723C118.676 22.7005 118.475 22.8878 118.231 23.0124C117.662 23.3413 117.043 23.5868 116.396 23.7405C115.685 23.915 114.953 24.0017 114.218 23.9985C113.072 24.0218 111.939 23.7697 110.924 23.2658C110 22.7989 109.245 22.0799 108.757 21.2019C108.254 20.3083 108.002 19.2596 108.001 18.0557C107.978 16.9478 108.255 15.8529 108.807 14.8759C109.33 13.9746 110.118 13.2368 111.075 12.7525C112.113 12.2369 113.272 11.9785 114.444 12.0014C115.117 12.003 115.787 12.0898 116.437 12.2594C117.07 12.4192 117.674 12.6661 118.231 12.9921C118.474 13.1234 118.674 13.3152 118.809 13.5468C118.944 13.7783 119.01 14.0406 118.998 14.305C119.015 14.6599 118.91 15.0106 118.7 15.3048C118.613 15.4267 118.495 15.5258 118.357 15.593C118.218 15.6602 118.065 15.6934 117.909 15.6895C117.702 15.6914 117.496 15.6562 117.302 15.5857C117.112 15.514 116.86 15.4102 116.546 15.2682C116.246 15.1156 115.936 14.982 115.617 14.8682C115.319 14.7713 115.005 14.7243 114.69 14.7293C113.765 14.7293 113.058 15.0072 112.572 15.5628C112.085 16.1185 111.841 16.9281 111.839 17.9916C111.839 19.0561 112.083 19.8702 112.572 20.434C113.061 20.9978 113.766 21.2803 114.687 21.2813C114.998 21.286 115.307 21.2421 115.602 21.1515C115.935 21.0378 116.258 20.9005 116.569 20.7409C116.883 20.602 117.131 20.4951 117.313 20.4234C117.502 20.3523 117.704 20.3165 117.908 20.318C118.062 20.3175 118.214 20.3534 118.351 20.4224C118.487 20.4914 118.603 20.5914 118.689 20.7134ZM128.596 14.5892C128.864 14.3386 129 13.9511 129 13.4314C129 12.9425 128.853 12.5761 128.56 12.3321C128.395 12.2052 128.203 12.1114 127.998 12.0564C127.792 12.0014 127.577 11.9864 127.365 12.0123L127.014 12.0354C126.303 12.0802 125.616 12.2916 125.015 12.6504C124.396 13.0232 123.917 13.5689 123.645 14.2109V13.5744C123.657 13.3604 123.618 13.1465 123.531 12.9482C123.445 12.7499 123.313 12.572 123.145 12.4275C122.794 12.1471 122.345 11.9997 121.886 12.0139C121.402 12.0019 120.93 12.153 120.555 12.4398C120.37 12.5864 120.223 12.7717 120.127 12.9809C120.031 13.1902 119.989 13.4176 120.003 13.6452V22.3197C120.003 22.8716 120.182 23.2883 120.542 23.5727C120.929 23.8651 121.416 24.0163 121.912 23.9986C122.4 24.0137 122.877 23.8624 123.256 23.5727C123.617 23.2883 123.797 22.8716 123.797 22.3197V17.8041C123.795 17.065 123.999 16.4588 124.411 15.9852C124.823 15.5117 125.49 15.2283 126.411 15.135L127.164 15.0627C127.852 14.9997 128.328 14.8398 128.596 14.5892ZM141.199 14.8075C140.677 13.9171 139.885 13.1932 138.923 12.7286C137.854 12.2489 136.684 12 135.499 12C134.314 12 133.145 12.2489 132.075 12.7286C131.114 13.1938 130.322 13.9176 129.8 14.8075C129.267 15.7067 129 16.7673 129 17.9893C129 19.2113 129.267 20.2719 129.8 21.1711C130.324 22.0622 131.115 22.7888 132.075 23.2607C133.142 23.7472 134.313 24 135.499 24C136.685 24 137.856 23.7472 138.923 23.2607C139.884 22.7893 140.675 22.0625 141.199 21.1711C141.732 20.2719 141.999 19.2113 142 17.9893C142.001 16.7673 141.734 15.7067 141.199 14.8075ZM135.51 21.2994C133.675 21.2994 132.758 20.196 132.76 17.9893C132.761 15.7826 133.677 14.6787 135.51 14.6777C136.393 14.6777 137.071 14.9516 137.545 15.4995C138.018 16.0473 138.256 16.8773 138.257 17.9893C138.252 20.1944 137.337 21.2978 135.51 21.2994ZM89.9935 37.7199C90.0079 37.3609 89.8988 37.0071 89.6826 36.712C89.5983 36.5904 89.4836 36.4903 89.3487 36.4208C89.2139 36.3513 89.063 36.3144 88.9094 36.3134C88.706 36.312 88.5042 36.3477 88.315 36.4188C88.133 36.489 87.885 36.5975 87.5709 36.7364C87.2602 36.8964 86.9371 37.0338 86.6044 37.1472C86.309 37.2379 85.9999 37.2817 85.6895 37.277C84.7649 37.277 84.0593 36.9976 83.5713 36.4325C83.0832 35.8675 82.84 35.0459 82.84 33.9892C82.84 32.9324 83.0864 32.1139 83.5713 31.558C84.0561 31.0021 84.7649 30.7257 85.6895 30.7257C86.0044 30.7207 86.3178 30.7678 86.6157 30.8647C86.9346 30.9782 87.2451 31.1118 87.5451 31.2648C87.8592 31.4053 88.1121 31.5107 88.3006 31.5809C88.494 31.6526 88.7001 31.6884 88.9078 31.6863C89.0633 31.6897 89.2172 31.6563 89.3555 31.5891C89.4939 31.5219 89.6124 31.4231 89.7003 31.3015C89.9103 31.007 90.0147 30.6563 89.9983 30.3012C90.0093 30.0364 89.9435 29.7738 89.808 29.542C89.6725 29.3101 89.4726 29.118 89.23 28.9864C88.6718 28.6625 88.0667 28.4176 87.434 28.2595C86.7848 28.0898 86.1147 28.003 85.4414 28.0014C84.2698 27.9786 83.1112 28.2371 82.0732 28.7527C81.1168 29.2378 80.3294 29.9757 79.8069 30.8769C79.2545 31.854 78.9771 32.9496 79.0015 34.0579C79.0004 35.2633 79.2522 36.3124 79.7569 37.2053C80.2439 38.0842 80.9989 38.8037 81.9234 39.2699C82.9384 39.7725 84.0711 40.0231 85.2159 39.9983C85.95 40.0012 86.6814 39.9145 87.3921 39.7402C88.0382 39.5862 88.6562 39.3406 89.2252 39.0118C89.4687 38.8871 89.6701 38.6996 89.8061 38.471C89.942 38.2424 90.007 37.982 89.9935 37.7199ZM103.199 30.8075C102.677 29.9176 101.884 29.1938 100.923 28.7286C99.8538 28.2489 98.684 28 97.4992 28C96.3144 28 95.1445 28.2489 94.0753 28.7286C93.1133 29.193 92.3209 29.9169 91.7997 30.8075C91.2666 31.7077 91 32.7683 91 33.9893C91 35.2103 91.2666 36.2709 91.7997 37.1711C92.3238 38.0622 93.1152 38.7888 94.0753 39.2607C95.1424 39.7472 96.3131 40 97.4992 40C98.6853 40 99.8559 39.7472 100.923 39.2607C101.883 38.7882 102.674 38.0617 103.199 37.1711C103.73 36.2714 104 35.2098 104 33.9893C104 32.7688 103.73 31.7072 103.199 30.8075ZM97.5 37.2994C95.6665 37.2994 94.7504 36.196 94.7514 33.9893C94.7525 31.7826 95.6687 30.6787 97.5 30.6777C98.3831 30.6777 99.0625 30.9516 99.5382 31.4995C100.014 32.0473 100.251 32.8773 100.249 33.9893C100.249 36.197 99.3324 37.3004 97.5 37.2994ZM118.998 38.3221V32.8794C118.998 31.2424 118.635 30.0239 117.923 29.2146C117.211 28.4053 116.12 28.0007 114.663 28.0007C113.856 27.9879 113.058 28.1576 112.334 28.4958C111.648 28.8227 111.069 29.3195 110.657 29.9335V29.6039C110.664 29.3953 110.625 29.1875 110.541 28.9944C110.458 28.8012 110.332 28.6271 110.172 28.4835C109.831 28.1879 109.381 28.0315 108.919 28.0482C108.416 28.028 107.923 28.1878 107.538 28.4958C107.362 28.6422 107.223 28.824 107.13 29.0279C107.037 29.2317 106.994 29.4526 107.002 29.6744V38.3221C106.989 38.5494 107.028 38.7765 107.117 38.9882C107.205 39.1998 107.34 39.3909 107.514 39.5483C107.849 39.8442 108.315 39.9974 108.895 39.9974C109.474 39.9974 109.935 39.8549 110.259 39.5483C110.429 39.3888 110.561 39.1971 110.647 38.9858C110.733 38.7744 110.77 38.5483 110.757 38.3221V33.3745C110.757 32.5882 110.997 31.9597 111.466 31.4892C111.709 31.2522 112.003 31.0666 112.327 30.9446C112.651 30.8225 112.999 30.7668 113.347 30.7811C113.995 30.7811 114.479 30.9635 114.781 31.3237C115.084 31.6839 115.238 32.2571 115.238 33.0434V38.3221C115.225 38.5483 115.262 38.7744 115.348 38.9858C115.434 39.1971 115.566 39.3888 115.736 39.5483C116.068 39.8442 116.526 39.9974 117.105 39.9974C117.61 40.0226 118.105 39.8616 118.486 39.5483C118.66 39.3909 118.795 39.1998 118.883 38.9882C118.972 38.7765 119.011 38.5494 118.998 38.3221ZM132.998 32.8794V38.3222C133.01 38.5493 132.972 38.7763 132.884 38.9879C132.796 39.1995 132.66 39.3906 132.488 39.5484C132.105 39.8614 131.61 40.0223 131.105 39.9975C130.527 39.9975 130.068 39.8442 129.736 39.5484C129.566 39.3891 129.434 39.1974 129.348 38.9861C129.262 38.7747 129.224 38.5484 129.238 38.3222V33.0434C129.238 32.2576 129.085 31.6844 128.78 31.3237C128.474 30.963 127.996 30.7826 127.347 30.7826C126.998 30.7688 126.651 30.8247 126.327 30.9467C126.003 31.0687 125.71 31.2541 125.467 31.4907C124.997 31.9613 124.757 32.5897 124.757 33.376V38.3237C124.771 38.5498 124.733 38.7759 124.648 38.9872C124.562 39.1986 124.43 39.3904 124.26 39.5499C123.927 39.8565 123.473 39.999 122.894 39.999C122.314 39.999 121.849 39.8458 121.512 39.5499C121.34 39.3922 121.204 39.201 121.116 38.9894C121.028 38.7778 120.99 38.5508 121.002 38.3237V29.6744C120.994 29.4528 121.037 29.2321 121.13 29.0282C121.222 28.8244 121.361 28.6425 121.537 28.4957C121.922 28.1878 122.415 28.028 122.918 28.0482C123.381 28.0304 123.833 28.1869 124.174 28.4835C124.335 28.6271 124.461 28.8012 124.544 28.9944C124.628 29.1875 124.668 29.3953 124.66 29.6039V29.9335C125.073 29.3202 125.652 28.8235 126.338 28.4957C127.062 28.1578 127.861 27.9881 128.668 28.0007C130.125 28.0007 131.216 28.4053 131.929 29.2146C132.641 30.0239 132.998 31.2424 132.998 32.8794ZM138.864 38.7718C138.962 38.5259 139.007 38.2631 138.999 37.9991C139.007 37.7352 138.961 37.4724 138.864 37.2264C138.767 36.9805 138.62 36.7567 138.433 36.5684C138.047 36.2036 137.534 36 137 36C136.466 36 135.953 36.2036 135.567 36.5684C135.203 36.9576 135 37.4686 135 37.9991C135 38.5297 135.203 39.0407 135.567 39.4299C135.952 39.7957 136.466 40 137 40C137.534 40 138.048 39.7957 138.433 39.4299C138.62 39.2416 138.767 39.0178 138.864 38.7718Z" fill="white"/>
</svg>
