<svg width="145" height="40" viewBox="0 0 145 40" fill="none" xmlns="http://www.w3.org/2000/svg">
<path d="M37.8522 0C28.084 0 18.7134 3.86865 11.7902 10.7597C4.86699 17.6507 0.954727 27.0032 0.909214 36.7712C0.901181 38.4954 2.29242 39.8997 4.01663 39.9077C5.74084 39.9157 7.1451 38.5245 7.15313 36.8003C7.19095 28.6832 10.442 20.9114 16.1951 15.1851C21.9481 9.45877 29.735 6.24399 37.8522 6.24399C45.9693 6.24399 53.7562 9.45877 59.5092 15.1851C65.2623 20.9114 68.5134 28.6832 68.5512 36.8003C68.5592 38.5245 69.9635 39.9157 71.6877 39.9077C73.4119 39.8997 74.8031 38.4954 74.7951 36.7712C74.7496 27.0032 70.8373 17.6507 63.9141 10.7597C56.9909 3.86865 47.6203 0 37.8522 0Z" fill="url(#paint0_linear_234_1451)"/>
<path d="M40.9738 15.9721C40.9738 14.2479 39.576 12.8501 37.8518 12.8501C36.1276 12.8501 34.7298 14.2479 34.7298 15.9721V36.7853C34.7298 38.5095 36.1276 39.9073 37.8518 39.9073C39.576 39.9073 40.9738 38.5095 40.9738 36.7853V15.9721Z" fill="url(#paint1_linear_234_1451)"/>
<path d="M102.931 9.3528C103.03 9.59167 103.18 9.80589 103.371 9.98027C103.827 10.3121 104.376 10.4913 104.94 10.4913C105.504 10.4913 106.054 10.3126 106.51 9.98082C106.701 9.8065 106.851 9.5923 106.95 9.35342C107.048 9.11453 107.093 8.85684 107.081 8.59861C107.092 8.343 107.044 8.08836 106.943 7.85333C106.842 7.6183 106.69 7.40883 106.498 7.24026C106.044 6.91041 105.497 6.73176 104.936 6.72958C104.375 6.72741 103.827 6.90183 103.371 7.22815C103.179 7.39944 103.029 7.61136 102.93 7.84839C102.831 8.08542 102.786 8.34156 102.799 8.59806C102.787 8.85626 102.832 9.11393 102.931 9.3528Z" fill="url(#paint2_linear_234_1451)"/>
<path d="M103.164 24.0621C103.256 24.2911 103.4 24.496 103.584 24.6612C103.967 24.9691 104.45 25.1282 104.941 25.1093C105.425 25.1252 105.897 24.9662 106.273 24.6614C106.456 24.4961 106.6 24.2912 106.693 24.0623C106.785 23.8333 106.825 23.5862 106.808 23.3398V14.2504C106.825 14.0043 106.785 13.7576 106.693 13.529C106.6 13.3004 106.456 13.0959 106.273 12.931C105.898 12.6254 105.425 12.4662 104.941 12.4831C104.454 12.4672 103.976 12.6261 103.596 12.931C103.409 13.0938 103.262 13.2976 103.167 13.5265C103.072 13.7554 103.032 14.0032 103.048 14.2504V23.3396C103.032 23.5861 103.071 23.8331 103.164 24.0621Z" fill="url(#paint3_linear_234_1451)"/>
<path d="M100.21 17.5884C100.336 16.1868 99.9558 14.7866 99.1394 13.6405C98.7484 13.227 98.2714 12.9045 97.7419 12.6959C97.2125 12.4872 96.6437 12.3975 96.0757 12.4331C95.2346 12.4194 94.405 12.63 93.6722 13.0432C92.9846 13.4319 92.4198 14.0055 92.0418 14.6989C91.7754 13.9831 91.2808 13.3749 90.6343 12.9682C89.9528 12.5926 89.1827 12.4077 88.4049 12.4331C87.649 12.42 86.9013 12.5911 86.2263 12.9316C85.5865 13.2639 85.0486 13.7632 84.6699 14.3766V14.1268C84.6818 13.9012 84.6434 13.6757 84.5573 13.4668C84.4713 13.2579 84.3398 13.0707 84.1724 12.919C83.826 12.6237 83.3819 12.4684 82.927 12.4832C82.4357 12.4689 81.955 12.6274 81.5686 12.9311C81.3818 13.0838 81.2336 13.2786 81.1362 13.4994C81.0389 13.7202 80.995 13.9609 81.0082 14.2019V23.3399C80.9916 23.5875 81.0325 23.8356 81.1276 24.0649C81.2227 24.2941 81.3695 24.4983 81.5565 24.6615C81.9375 24.9653 82.414 25.124 82.9011 25.1094C83.3846 25.1252 83.8577 24.9662 84.2335 24.6615C84.4172 24.4963 84.5608 24.2914 84.6535 24.0624C84.7462 23.8334 84.7856 23.5863 84.7686 23.3399V18.1119C84.7245 17.3854 84.9463 16.6676 85.3927 16.0927C85.5986 15.8548 85.8555 15.6663 86.1443 15.5414C86.4331 15.4165 86.7463 15.3583 87.0607 15.3711C87.2934 15.3526 87.5272 15.3867 87.7449 15.4709C87.9626 15.5551 88.1585 15.6873 88.3181 15.8576C88.6411 16.3551 88.7862 16.9473 88.7297 17.5377V23.3399C88.7128 23.5875 88.7536 23.8357 88.8486 24.065C88.9437 24.2943 89.0906 24.4985 89.2778 24.6615C89.6588 24.9654 90.1354 25.1241 90.6225 25.1094C91.1104 25.1294 91.5887 24.97 91.9671 24.6615C92.1474 24.4942 92.288 24.2887 92.3785 24.06C92.469 23.8313 92.5071 23.5852 92.4901 23.3399V18.1119C92.4458 17.3857 92.6669 16.6681 93.1122 16.0927C93.3183 15.8549 93.5754 15.6665 93.8643 15.5416C94.1532 15.4166 94.4666 15.3584 94.7811 15.3711C95.0138 15.3526 95.2477 15.3867 95.4654 15.4709C95.6831 15.5551 95.879 15.6873 96.0387 15.8576C96.3612 16.3553 96.5061 16.9473 96.45 17.5377V23.3399C96.4333 23.5874 96.474 23.8355 96.5689 24.0648C96.6638 24.294 96.8104 24.4982 96.9972 24.6615C97.3783 24.9653 97.8549 25.124 98.342 25.1094C98.8299 25.1295 99.3082 24.9702 99.6866 24.6615C99.867 24.4943 100.008 24.2888 100.098 24.0601C100.189 23.8314 100.227 23.5853 100.21 23.3399V17.5884Z" fill="url(#paint4_linear_234_1451)"/>
<path d="M112.039 24.3863C111.109 23.8908 110.35 23.1276 109.86 22.1955C109.333 21.1634 109.072 20.0162 109.1 18.8576C109.075 17.6821 109.354 16.5201 109.909 15.4834C110.434 14.5269 111.226 13.7439 112.189 13.2297C113.232 12.6831 114.397 12.4092 115.575 12.4332C116.252 12.4351 116.926 12.5272 117.58 12.7069C118.216 12.8751 118.824 13.1352 119.385 13.479C119.629 13.6185 119.83 13.8224 119.966 14.0684C120.103 14.3144 120.169 14.5931 120.157 14.874C120.174 15.2504 120.069 15.6221 119.857 15.9341C119.769 16.0635 119.65 16.1688 119.511 16.2403C119.372 16.3118 119.217 16.3473 119.061 16.3434C118.852 16.3452 118.645 16.3074 118.451 16.232C118.26 16.1569 118.007 16.0455 117.691 15.8955C117.389 15.7336 117.077 15.592 116.757 15.4719C116.457 15.3686 116.141 15.3185 115.824 15.3239C115.425 15.2982 115.026 15.3645 114.657 15.5177C114.288 15.6709 113.958 15.907 113.695 16.2076C113.156 16.9545 112.896 17.8666 112.959 18.7855C112.897 19.708 113.157 20.6234 113.695 21.3755C113.957 21.679 114.285 21.9177 114.655 22.0732C115.024 22.2286 115.424 22.2964 115.824 22.2713C116.137 22.2765 116.448 22.23 116.745 22.1335C117.078 22.0126 117.403 21.867 117.715 21.6977C118.031 21.5497 118.281 21.4363 118.463 21.3614C118.653 21.2861 118.856 21.2482 119.061 21.2498C119.216 21.2499 119.37 21.2886 119.507 21.3626C119.643 21.4365 119.76 21.5434 119.845 21.6735C120.062 21.987 120.172 22.3624 120.157 22.7434C120.171 23.0213 120.105 23.2974 119.969 23.5398C119.832 23.7822 119.63 23.9811 119.385 24.1135C118.813 24.4626 118.191 24.7229 117.541 24.8856C116.825 25.0704 116.089 25.1624 115.35 25.1593C114.199 25.1854 113.059 24.9194 112.039 24.3863Z" fill="url(#paint5_linear_234_1451)"/>
<path d="M130.825 13.3501C130.749 13.1503 130.632 12.9694 130.479 12.82C130.315 12.6862 130.125 12.5873 129.922 12.5294C129.718 12.4716 129.505 12.456 129.295 12.4835L128.946 12.5079C128.243 12.5549 127.562 12.7772 126.966 13.1544C126.352 13.5465 125.877 14.1215 125.608 14.798V14.1271C125.62 13.9017 125.582 13.6763 125.496 13.4674C125.41 13.2585 125.279 13.0713 125.112 12.9193C124.765 12.6239 124.321 12.4685 123.866 12.4835C123.387 12.4707 122.919 12.6295 122.546 12.9314C122.363 13.0863 122.218 13.2817 122.123 13.5023C122.028 13.7228 121.986 13.9625 121.999 14.2022V23.3402C121.982 23.5866 122.022 23.8337 122.114 24.0627C122.207 24.2917 122.351 24.4966 122.534 24.6618C122.918 24.9697 123.401 25.1287 123.893 25.1097C124.376 25.1257 124.849 24.9666 125.224 24.6618C125.408 24.4966 125.551 24.2917 125.644 24.0627C125.737 23.8337 125.776 23.5867 125.759 23.3402V18.583C125.73 17.892 125.946 17.2128 126.369 16.6658C126.624 16.3935 126.93 16.1743 127.27 16.0206C127.61 15.8668 127.976 15.7817 128.349 15.77L129.097 15.6951C129.612 15.6909 130.111 15.5155 130.516 15.1966C130.66 15.0298 130.769 14.836 130.838 14.6266C130.906 14.4171 130.933 14.1961 130.915 13.9764C130.931 13.7636 130.9 13.5498 130.825 13.3501Z" fill="url(#paint6_linear_234_1451)"/>
<path fill-rule="evenodd" clip-rule="evenodd" d="M134.203 24.3736C133.246 23.8736 132.458 23.1033 131.937 22.1586C131.413 21.1109 131.14 19.9556 131.14 18.7842C131.14 17.6129 131.413 16.4576 131.937 15.4098C132.457 14.4663 133.245 13.6987 134.203 13.2049C135.268 12.6965 136.434 12.4327 137.615 12.4327C138.795 12.4327 139.961 12.6965 141.026 13.2049C141.984 13.6987 142.772 14.4663 143.292 15.4098C143.817 16.4572 144.091 17.6126 144.091 18.7842C144.091 19.9558 143.817 21.1113 143.292 22.1586C142.771 23.1033 141.983 23.8736 141.026 24.3736C139.963 24.8898 138.797 25.158 137.615 25.158C136.433 25.158 135.266 24.8898 134.203 24.3736ZM140.353 18.7842C140.424 17.8489 140.174 16.9174 139.644 16.1435C139.397 15.8504 139.085 15.6189 138.733 15.4676C138.381 15.3163 137.998 15.2493 137.615 15.272C135.787 15.272 134.874 16.4427 134.875 18.7842C134.877 21.1257 135.79 22.2957 137.615 22.2943C139.441 22.2943 140.354 21.1242 140.353 18.7842Z" fill="url(#paint7_linear_234_1451)"/>
<path d="M81.1723 37.0347C81.6627 37.9667 82.4217 38.7299 83.351 39.2255C84.3718 39.7584 85.511 40.0243 86.6622 39.9983C87.4012 40.0013 88.1375 39.9094 88.853 39.7247C89.5033 39.562 90.1251 39.3016 90.6973 38.9525C90.942 38.8201 91.1444 38.6213 91.281 38.3789C91.4176 38.1364 91.483 37.8604 91.4695 37.5824C91.484 37.2014 91.3745 36.826 91.1575 36.5125C91.0721 36.3824 90.9558 36.2755 90.8189 36.2016C90.682 36.1276 90.5289 36.0889 90.3733 36.0888C90.1687 36.0872 89.9657 36.1251 89.7754 36.2004C89.593 36.2753 89.3437 36.3889 89.0276 36.5367C88.7154 36.706 88.3908 36.8517 88.0568 36.9725C87.7598 37.0689 87.4489 37.1155 87.1368 37.1103C86.7368 37.1353 86.3365 37.0675 85.9671 36.9121C85.5977 36.7567 85.2692 36.5179 85.0075 36.2145C84.4697 35.4624 84.2096 34.547 84.2717 33.6245C84.2082 32.7056 84.4685 31.7935 85.0075 31.0466C85.2709 30.746 85.6 30.51 85.9692 30.3568C86.3384 30.2035 86.7379 30.1372 87.1368 30.1629C87.4537 30.1575 87.7692 30.2076 88.0689 30.3109C88.3894 30.431 88.7016 30.5726 89.0032 30.7345C89.3195 30.8845 89.5728 30.9959 89.7631 31.071C89.9576 31.1464 90.1647 31.1842 90.3733 31.1824C90.5297 31.1862 90.6845 31.1507 90.8236 31.0792C90.9628 31.0076 91.0818 30.9024 91.1698 30.7731C91.3809 30.4611 91.4861 30.0894 91.4697 29.713C91.481 29.4321 91.415 29.1534 91.2789 28.9074C91.1427 28.6614 90.9416 28.4575 90.6974 28.318C90.1363 27.9742 89.528 27.7141 88.8918 27.5459C88.2388 27.3662 87.5648 27.2741 86.8875 27.2722C85.7096 27.2481 84.5447 27.5221 83.501 28.0687C82.5384 28.5828 81.7463 29.3659 81.221 30.3224C80.6662 31.3591 80.3877 32.5211 80.4124 33.6966C80.3844 34.8552 80.6456 36.0024 81.1723 37.0347Z" fill="url(#paint8_linear_234_1451)"/>
<path fill-rule="evenodd" clip-rule="evenodd" d="M95.7759 39.2126C94.8197 38.7126 94.0317 37.9423 93.5102 36.9976C92.9864 35.9499 92.7137 34.7946 92.7137 33.6232C92.7137 32.4518 92.9864 31.2965 93.5102 30.2488C94.0298 29.3053 94.8186 28.5377 95.7759 28.0439C96.8416 27.5355 98.0075 27.2716 99.1883 27.2716C100.369 27.2716 101.535 27.5355 102.601 28.0439C103.558 28.5383 104.346 29.3057 104.866 30.2488C105.391 31.2962 105.665 32.4516 105.665 33.6232C105.665 34.7948 105.391 35.9502 104.866 36.9976C104.344 37.9418 103.556 38.712 102.601 39.2126C101.537 39.7288 100.37 39.997 99.1883 39.997C98.0061 39.997 96.8394 39.7288 95.7759 39.2126ZM101.928 33.6232C101.999 32.6879 101.749 31.7563 101.218 30.9825C100.971 30.6895 100.659 30.4582 100.307 30.3069C99.9543 30.1556 99.5716 30.0885 99.1888 30.111C97.3607 30.111 96.4473 31.2817 96.4488 33.6232C96.4503 35.9647 97.3638 37.1348 99.1892 37.1336C101.016 37.1336 101.929 35.9633 101.928 33.6232Z" fill="url(#paint9_linear_234_1451)"/>
<path d="M119.957 32.4279C120.061 31.0518 119.683 29.6824 118.887 28.5548C118.476 28.108 117.969 27.7604 117.404 27.5382C116.839 27.316 116.231 27.225 115.625 27.2721C114.818 27.2591 114.019 27.4383 113.294 27.795C112.608 28.141 112.028 28.6662 111.616 29.3149V28.9661C111.623 28.7457 111.584 28.5262 111.5 28.3222C111.416 28.1182 111.29 27.9343 111.129 27.7827C110.788 27.4694 110.336 27.304 109.873 27.3225C109.369 27.3011 108.876 27.4697 108.491 27.7948C108.315 27.9501 108.176 28.1424 108.083 28.3579C107.991 28.5734 107.947 28.8068 107.956 29.0412V38.1799C107.943 38.4198 107.982 38.6596 108.07 38.883C108.158 39.1065 108.294 39.3084 108.467 39.475C108.848 39.8071 109.344 39.9772 109.849 39.9491C110.349 39.9774 110.84 39.807 111.215 39.475C111.384 39.3065 111.516 39.104 111.602 38.8808C111.688 38.6576 111.726 38.4187 111.713 38.1799V32.951C111.679 32.2196 111.933 31.5039 112.422 30.9589C112.666 30.7089 112.959 30.5131 113.283 30.3842C113.607 30.2553 113.955 30.1963 114.303 30.211C114.57 30.189 114.839 30.2293 115.088 30.3289C115.337 30.4284 115.56 30.5844 115.738 30.7847C116.087 31.3234 116.248 31.9623 116.196 32.6019V38.1796C116.183 38.4184 116.221 38.6572 116.307 38.8804C116.393 39.1036 116.525 39.3061 116.695 39.4746C117.071 39.8066 117.563 39.9769 118.065 39.9487C118.569 39.9754 119.065 39.8055 119.447 39.4746C119.62 39.308 119.755 39.1061 119.843 38.8827C119.931 38.6592 119.97 38.4194 119.957 38.1796V32.4279Z" fill="url(#paint10_linear_234_1451)"/>
<path d="M133.706 28.5548C134.501 29.6825 134.879 31.0518 134.776 32.4279V38.1796C134.788 38.4195 134.749 38.6593 134.661 38.8827C134.573 39.1062 134.438 39.308 134.265 39.4746C133.883 39.8055 133.387 39.9755 132.883 39.9488C132.382 39.977 131.889 39.8067 131.513 39.4746C131.343 39.3061 131.211 39.1036 131.125 38.8805C131.039 38.6573 131.001 38.4184 131.014 38.1796V32.602C131.066 31.9622 130.904 31.3234 130.555 30.7847C130.377 30.5845 130.155 30.4284 129.906 30.3289C129.657 30.2293 129.388 30.189 129.121 30.2111C128.772 30.1964 128.425 30.2554 128.1 30.3842C127.776 30.5131 127.483 30.7089 127.24 30.9589C126.751 31.5039 126.496 32.2196 126.531 32.9511V38.18C126.544 38.4188 126.506 38.6576 126.42 38.8808C126.334 39.104 126.202 39.3065 126.032 39.475C125.657 39.807 125.166 39.9774 124.666 39.9492C124.161 39.9773 123.665 39.8072 123.284 39.475C123.111 39.3084 122.976 39.1065 122.888 38.8831C122.799 38.6596 122.76 38.4198 122.773 38.18V29.0413C122.765 28.8069 122.808 28.5735 122.901 28.358C122.993 28.1424 123.132 27.9501 123.308 27.7949C123.693 27.4697 124.187 27.3011 124.69 27.3226C125.154 27.3041 125.605 27.4695 125.947 27.7828C126.107 27.9344 126.233 28.1183 126.317 28.3223C126.401 28.5263 126.441 28.7457 126.433 28.9662V29.3149C126.845 28.6662 127.425 28.141 128.111 27.7951C128.836 27.4384 129.635 27.2592 130.443 27.2721C131.048 27.2249 131.656 27.3159 132.222 27.5381C132.787 27.7603 133.294 28.1079 133.706 28.5548Z" fill="url(#paint11_linear_234_1451)"/>
<path d="M137.265 37.8067C137.265 38.3747 137.479 38.9218 137.865 39.3388C138.273 39.7303 138.817 39.9488 139.383 39.9488C139.948 39.9488 140.492 39.7303 140.901 39.3388C141.286 38.9218 141.5 38.3747 141.5 37.8067C141.5 37.2386 141.286 36.6915 140.901 36.2745C140.492 35.883 139.948 35.6645 139.383 35.6645C138.817 35.6645 138.273 35.883 137.865 36.2745C137.479 36.6915 137.265 37.2386 137.265 37.8067Z" fill="url(#paint12_linear_234_1451)"/>
<defs>
<linearGradient id="paint0_linear_234_1451" x1="0.90918" y1="0" x2="90.8388" y2="97.5779" gradientUnits="userSpaceOnUse">
<stop stop-color="#0C97FA"/>
<stop offset="1" stop-color="#16E1F5"/>
</linearGradient>
<linearGradient id="paint1_linear_234_1451" x1="0.90918" y1="0" x2="90.8388" y2="97.5779" gradientUnits="userSpaceOnUse">
<stop stop-color="#0C97FA"/>
<stop offset="1" stop-color="#16E1F5"/>
</linearGradient>
<linearGradient id="paint2_linear_234_1451" x1="0.90918" y1="0" x2="90.8388" y2="97.5779" gradientUnits="userSpaceOnUse">
<stop stop-color="#0C97FA"/>
<stop offset="1" stop-color="#16E1F5"/>
</linearGradient>
<linearGradient id="paint3_linear_234_1451" x1="0.90918" y1="0" x2="90.8388" y2="97.5779" gradientUnits="userSpaceOnUse">
<stop stop-color="#0C97FA"/>
<stop offset="1" stop-color="#16E1F5"/>
</linearGradient>
<linearGradient id="paint4_linear_234_1451" x1="0.90918" y1="0" x2="90.8388" y2="97.5779" gradientUnits="userSpaceOnUse">
<stop stop-color="#0C97FA"/>
<stop offset="1" stop-color="#16E1F5"/>
</linearGradient>
<linearGradient id="paint5_linear_234_1451" x1="0.90918" y1="0" x2="90.8388" y2="97.5779" gradientUnits="userSpaceOnUse">
<stop stop-color="#0C97FA"/>
<stop offset="1" stop-color="#16E1F5"/>
</linearGradient>
<linearGradient id="paint6_linear_234_1451" x1="0.90918" y1="0" x2="90.8388" y2="97.5779" gradientUnits="userSpaceOnUse">
<stop stop-color="#0C97FA"/>
<stop offset="1" stop-color="#16E1F5"/>
</linearGradient>
<linearGradient id="paint7_linear_234_1451" x1="0.90918" y1="0" x2="90.8388" y2="97.5779" gradientUnits="userSpaceOnUse">
<stop stop-color="#0C97FA"/>
<stop offset="1" stop-color="#16E1F5"/>
</linearGradient>
<linearGradient id="paint8_linear_234_1451" x1="0.90918" y1="0" x2="90.8388" y2="97.5779" gradientUnits="userSpaceOnUse">
<stop stop-color="#0C97FA"/>
<stop offset="1" stop-color="#16E1F5"/>
</linearGradient>
<linearGradient id="paint9_linear_234_1451" x1="0.90918" y1="0" x2="90.8388" y2="97.5779" gradientUnits="userSpaceOnUse">
<stop stop-color="#0C97FA"/>
<stop offset="1" stop-color="#16E1F5"/>
</linearGradient>
<linearGradient id="paint10_linear_234_1451" x1="0.90918" y1="0" x2="90.8388" y2="97.5779" gradientUnits="userSpaceOnUse">
<stop stop-color="#0C97FA"/>
<stop offset="1" stop-color="#16E1F5"/>
</linearGradient>
<linearGradient id="paint11_linear_234_1451" x1="0.90918" y1="0" x2="90.8388" y2="97.5779" gradientUnits="userSpaceOnUse">
<stop stop-color="#0C97FA"/>
<stop offset="1" stop-color="#16E1F5"/>
</linearGradient>
<linearGradient id="paint12_linear_234_1451" x1="0.90918" y1="0" x2="90.8388" y2="97.5779" gradientUnits="userSpaceOnUse">
<stop stop-color="#0C97FA"/>
<stop offset="1" stop-color="#16E1F5"/>
</linearGradient>
</defs>
</svg>
